<svg width="121" height="169" viewBox="0 0 121 169" fill="none" xmlns="http://www.w3.org/2000/svg">
<path d="M20.5833 9.75L13 3.25M13 3.25L5.41663 9.75M13 3.25L13 22.75" stroke="#313944" stroke-width="1.5" stroke-linecap="round" stroke-linejoin="round"/>
<path d="M5.41663 63.25L13 69.75M13 69.75L20.5833 63.25M13 69.75L13 50.25" stroke="#313944" stroke-width="1.5" stroke-linecap="round" stroke-linejoin="round"/>
<path d="M9.75 115.583L3.25 108M3.25 108L9.75 100.417M3.25 108L22.75 108" stroke="#313944" stroke-width="1.5" stroke-linecap="round" stroke-linejoin="round"/>
<path d="M16.25 162.583L22.75 155M22.75 155L16.25 147.417M22.75 155L3.25 155" stroke="#313944" stroke-width="1.5" stroke-linecap="round" stroke-linejoin="round"/>
<path d="M103.667 22.6667L112.333 14.0001L103.667 5.33341" stroke="#313944" stroke-width="1.5" stroke-linecap="round" stroke-linejoin="round"/>
<path d="M112.333 52.3335L103.667 61.0002L112.333 69.6668" stroke="#313944" stroke-width="1.5" stroke-linecap="round" stroke-linejoin="round"/>
<path d="M116.667 113.333L108 104.667L99.3333 113.333" stroke="#313944" stroke-width="1.5" stroke-linecap="round" stroke-linejoin="round"/>
<path d="M99.3333 151.667L108 160.333L116.667 151.667" stroke="#313944" stroke-width="1.5" stroke-linecap="round" stroke-linejoin="round"/>
<path d="M60 58.989C55.125 58.989 52.9193 62.9168 52.4201 66.5612C52.3747 67.0945 52.7832 67.5834 53.3278 67.5834H66.6721C67.2167 67.5834 67.6252 67.0945 67.5798 66.5612C67.0806 62.9168 64.875 58.989 60 58.989ZM60 58.989C61.8323 58.989 63.3177 57.5177 63.3177 55.7029C63.3177 53.888 61.8323 52.4167 60 52.4167C58.1676 52.4167 56.6822 53.888 56.6822 55.7029C56.6822 57.5177 58.1676 58.989 60 58.989Z" stroke="#313944" stroke-width="1.5" stroke-linecap="round"/>
<path d="M52.4166 147.417L67.5833 162.583M67.5833 147.417L52.4166 162.583" stroke="#313944" stroke-width="1.5" stroke-linecap="round"/>
<path d="M67.8 13C67.8 14.1966 66.83 15.1667 65.6333 15.1667C64.4367 15.1667 63.4667 14.1966 63.4667 13M67.8 13C67.8 11.8034 66.83 10.8333 65.6333 10.8333C64.4367 10.8333 63.4667 11.8034 63.4667 13M67.8 13H69.75M63.4667 13H50.25M57.4 5.41667C57.4 6.61328 56.43 7.58333 55.2333 7.58333C54.0367 7.58333 53.0667 6.61328 53.0667 5.41667M57.4 5.41667C57.4 4.22005 56.43 3.25 55.2333 3.25C54.0367 3.25 53.0667 4.22005 53.0667 5.41667M57.4 5.41667H69.75M53.0667 5.41667H50.25M61.7333 20.5833C61.7333 21.78 60.7633 22.75 59.5667 22.75C58.3701 22.75 57.4 21.78 57.4 20.5833M61.7333 20.5833C61.7333 19.3867 60.7633 18.4167 59.5667 18.4167C58.3701 18.4167 57.4 19.3867 57.4 20.5833M61.7333 20.5833H69.75M57.4 20.5833H50.25" stroke="#313944" stroke-width="1.5" stroke-linecap="round"/>
<path d="M50.25 100.417C50.25 99.22 51.22 98.25 52.4167 98.25H67.5833C68.78 98.25 69.75 99.22 69.75 100.417C69.75 101.613 68.78 102.583 67.5833 102.583H52.4167C51.22 102.583 50.25 101.613 50.25 100.417Z" stroke="#2D3E52" stroke-width="1.5" stroke-linecap="round" stroke-linejoin="round"/>
<path d="M50.25 108C50.25 106.803 51.22 105.833 52.4167 105.833H67.5833C68.78 105.833 69.75 106.803 69.75 108C69.75 109.197 68.78 110.167 67.5833 110.167H52.4167C51.22 110.167 50.25 109.197 50.25 108Z" stroke="#2D3E52" stroke-width="1.5" stroke-linecap="round" stroke-linejoin="round"/>
<path d="M50.25 115.583C50.25 114.387 51.22 113.417 52.4167 113.417H67.5833C68.78 113.417 69.75 114.387 69.75 115.583C69.75 116.78 68.78 117.75 67.5833 117.75H52.4167C51.22 117.75 50.25 116.78 50.25 115.583Z" stroke="#2D3E52" stroke-width="1.5" stroke-linecap="round" stroke-linejoin="round"/>
</svg>
