<svg width="377" height="280" viewBox="0 0 377 280" fill="none" xmlns="http://www.w3.org/2000/svg">
<path d="M33.4189 21.1516C35.0111 21.1516 36.4706 21.334 37.7974 21.6989C39.1242 22.0306 40.1856 22.495 40.9817 23.0921C41.811 23.6891 42.2256 24.3359 42.2256 25.0325C42.2256 25.3642 42.1095 25.6959 41.8773 26.0276C41.6451 26.3262 41.33 26.4754 40.932 26.4754C40.5339 26.4754 40.2022 26.3759 39.9369 26.1769C39.7047 25.9779 39.4559 25.7457 39.1905 25.4803C38.9583 25.215 38.6101 24.9662 38.1457 24.734C37.7145 24.535 37.1008 24.3525 36.3047 24.1867C35.5086 24.0208 34.5965 23.9379 33.5682 23.9379C31.7107 23.9379 30.0356 24.4023 28.5429 25.3311C27.0502 26.2598 25.8727 27.5203 25.0103 29.1125C24.1479 30.6715 23.7166 32.4295 23.7166 34.3865C23.7166 36.3767 24.1313 38.1679 24.9605 39.7601C25.7898 41.3523 26.9341 42.6127 28.3936 43.5415C29.8531 44.4371 31.5614 44.8849 33.5184 44.8849C34.8452 44.8849 35.8735 44.7688 36.6033 44.5366C37.333 44.3044 37.9632 44.039 38.494 43.7405C39.1242 43.3756 39.572 43.0273 39.8373 42.6956C40.1359 42.3308 40.5173 42.1483 40.9817 42.1483C41.4129 42.1483 41.7281 42.281 41.9271 42.5464C42.1593 42.7786 42.2754 43.0937 42.2754 43.4917C42.2754 44.0225 41.8773 44.6195 41.0812 45.2829C40.3183 45.9132 39.2569 46.477 37.8969 46.9746C36.5369 47.439 34.9779 47.6712 33.2199 47.6712C30.7321 47.6712 28.5429 47.0907 26.6522 45.9297C24.7947 44.7688 23.3352 43.1932 22.2737 41.203C21.2455 39.1796 20.7313 36.9075 20.7313 34.3865C20.7313 31.9651 21.262 29.7593 22.3235 27.7691C23.3849 25.7789 24.861 24.1867 26.7517 22.9926C28.6756 21.7653 30.898 21.1516 33.4189 21.1516Z" fill="#2B3C50"/>
<path d="M35.4923 1.24951C54.0406 1.24961 69.0773 16.2862 69.0773 34.8345C69.0772 53.3827 54.0406 68.4193 35.4923 68.4194C18.3453 68.4194 4.20083 55.5688 2.16125 38.9731C4.52257 52.8656 16.6148 63.4437 31.1798 63.4438C47.4382 63.4438 60.6182 50.2637 60.6183 34.0054C60.6183 17.7469 47.4383 4.56689 31.1798 4.56689C20.5485 4.56698 11.2331 10.2021 6.05872 18.6489C11.7745 8.27688 22.8125 1.24951 35.4923 1.24951Z" fill="#C77624"/>
<circle cx="2.07314" cy="35.6637" r="2.07314" fill="#C77624"/>
<path d="M33.4189 122.343C35.0111 122.343 36.4706 122.525 37.7974 122.89C39.1242 123.222 40.1856 123.686 40.9817 124.283C41.811 124.88 42.2256 125.527 42.2256 126.224C42.2256 126.555 42.1095 126.887 41.8773 127.219C41.6451 127.517 41.33 127.667 40.932 127.667C40.5339 127.667 40.2022 127.567 39.9369 127.368C39.7047 127.169 39.4559 126.937 39.1905 126.671C38.9583 126.406 38.6101 126.157 38.1457 125.925C37.7145 125.726 37.1008 125.544 36.3047 125.378C35.5086 125.212 34.5965 125.129 33.5682 125.129C31.7107 125.129 30.0356 125.593 28.5429 126.522C27.0502 127.451 25.8727 128.711 25.0103 130.304C24.1479 131.863 23.7166 133.621 23.7166 135.578C23.7166 137.568 24.1313 139.359 24.9605 140.951C25.7898 142.543 26.9341 143.804 28.3936 144.733C29.8531 145.628 31.5614 146.076 33.5184 146.076C34.8452 146.076 35.8735 145.96 36.6033 145.728C37.333 145.496 37.9632 145.23 38.494 144.932C39.1242 144.567 39.572 144.219 39.8373 143.887C40.1359 143.522 40.5173 143.34 40.9817 143.34C41.4129 143.34 41.7281 143.472 41.9271 143.738C42.1593 143.97 42.2754 144.285 42.2754 144.683C42.2754 145.214 41.8773 145.811 41.0812 146.474C40.3183 147.104 39.2569 147.668 37.8969 148.166C36.5369 148.63 34.9779 148.862 33.2199 148.862C30.7321 148.862 28.5429 148.282 26.6522 147.121C24.7947 145.96 23.3352 144.384 22.2737 142.394C21.2455 140.371 20.7313 138.099 20.7313 135.578C20.7313 133.156 21.262 130.95 22.3235 128.96C23.3849 126.97 24.861 125.378 26.7517 124.184C28.6756 122.956 30.898 122.343 33.4189 122.343Z" fill="#2D3E52"/>
<path d="M35.4923 102.441C54.0406 102.441 69.0773 117.477 69.0773 136.026C69.0772 154.574 54.0406 169.611 35.4923 169.611C18.3446 169.611 4.2 156.759 2.16125 140.162C4.52181 154.056 16.6141 164.635 31.1798 164.635C47.4382 164.635 60.6181 151.455 60.6183 135.197C60.6183 118.938 47.4383 105.758 31.1798 105.758C20.5484 105.758 11.2331 111.393 6.05872 119.84C11.7745 109.468 22.8124 102.441 35.4923 102.441Z" fill="#CE5F34"/>
<circle cx="2.07314" cy="136.855" r="2.07314" fill="#CE5F34"/>
<path d="M34.6455 232.733C36.2377 232.733 37.6971 232.915 39.0239 233.28C40.3508 233.612 41.4122 234.076 42.2083 234.673C43.0375 235.27 43.4522 235.917 43.4522 236.614C43.4522 236.946 43.3361 237.277 43.1039 237.609C42.8717 237.907 42.5566 238.057 42.1585 238.057C41.7605 238.057 41.4288 237.957 41.1634 237.758C40.9312 237.559 40.6825 237.327 40.4171 237.062C40.1849 236.796 39.8366 236.547 39.3722 236.315C38.941 236.116 38.3274 235.934 37.5313 235.768C36.7352 235.602 35.823 235.519 34.7947 235.519C32.9372 235.519 31.2621 235.984 29.7695 236.912C28.2768 237.841 27.0993 239.102 26.2368 240.694C25.3744 242.253 24.9432 244.011 24.9432 245.968C24.9432 247.958 25.3578 249.749 26.1871 251.341C27.0163 252.934 28.1607 254.194 29.6202 255.123C31.0797 256.018 32.7879 256.466 34.745 256.466C36.0718 256.466 37.1001 256.35 37.8298 256.118C38.5596 255.886 39.1898 255.62 39.7205 255.322C40.3508 254.957 40.7985 254.609 41.0639 254.277C41.3624 253.912 41.7439 253.73 42.2083 253.73C42.6395 253.73 42.9546 253.862 43.1536 254.128C43.3858 254.36 43.5019 254.675 43.5019 255.073C43.5019 255.604 43.1039 256.201 42.3078 256.864C41.5449 257.494 40.4834 258.058 39.1235 258.556C37.7635 259.02 36.2045 259.252 34.4465 259.252C31.9587 259.252 29.7695 258.672 27.8788 257.511C26.0212 256.35 24.5617 254.774 23.5003 252.784C22.472 250.761 21.9579 248.489 21.9579 245.968C21.9579 243.546 22.4886 241.341 23.5501 239.35C24.6115 237.36 26.0876 235.768 27.9783 234.574C29.9021 233.347 32.1245 232.733 34.6455 232.733Z" fill="#BCCACD"/>
<path d="M36.7188 212.831C55.2671 212.831 70.3038 227.867 70.3038 246.416C70.3037 264.964 55.2671 280.001 36.7188 280.001C19.5711 280.001 5.42649 267.149 3.38776 250.552C5.7483 264.446 17.8407 275.025 32.4063 275.025C48.6647 275.025 61.8446 261.845 61.8448 245.587C61.8448 229.328 48.6648 216.148 32.4063 216.148C21.775 216.148 12.4596 221.783 7.28522 230.23C13.001 219.858 24.0389 212.831 36.7188 212.831Z" fill="#DCBBAC"/>
<circle cx="3.2997" cy="247.245" r="2.07314" fill="#DCBBAC"/>
<path d="M298.894 18.7166C300.422 18.7166 301.822 18.8881 303.094 19.2313C304.367 19.5432 305.385 19.9799 306.149 20.5414C306.944 21.1029 307.342 21.7112 307.342 22.3663C307.342 22.6782 307.231 22.9901 307.008 23.3021C306.785 23.5828 306.483 23.7232 306.101 23.7232C305.719 23.7232 305.401 23.6296 305.147 23.4425C304.924 23.2553 304.685 23.0369 304.431 22.7874C304.208 22.5378 303.874 22.3039 303.428 22.0855C303.015 21.8983 302.426 21.7268 301.663 21.5708C300.899 21.4148 300.024 21.3369 299.038 21.3369C297.256 21.3369 295.649 21.7736 294.217 22.647C292.785 23.5204 291.656 24.7058 290.829 26.2031C290.001 27.6693 289.588 29.3225 289.588 31.163C289.588 33.0346 289.985 34.7191 290.781 36.2164C291.576 37.7137 292.674 38.8991 294.074 39.7726C295.474 40.6148 297.113 41.0359 298.99 41.0359C300.263 41.0359 301.249 40.9267 301.949 40.7084C302.649 40.49 303.253 40.2405 303.763 39.9597C304.367 39.6166 304.797 39.289 305.051 38.9771C305.338 38.634 305.703 38.4624 306.149 38.4624C306.562 38.4624 306.865 38.5872 307.056 38.8367C307.278 39.0551 307.39 39.3514 307.39 39.7258C307.39 40.2249 307.008 40.7864 306.244 41.4102C305.513 42.0029 304.494 42.5332 303.19 43.0011C301.885 43.4379 300.39 43.6562 298.704 43.6562C296.317 43.6562 294.217 43.1103 292.404 42.0185C290.622 40.9267 289.222 39.445 288.204 37.5734C287.217 35.6705 286.724 33.5337 286.724 31.163C286.724 28.8858 287.233 26.8114 288.251 24.9398C289.27 23.0681 290.685 21.5708 292.499 20.4478C294.345 19.2936 296.476 18.7166 298.894 18.7166Z" fill="#2B3C50"/>
<path d="M300.884 0C318.676 0.000131371 333.099 14.1407 333.099 31.584C333.099 49.0273 318.676 63.1678 300.884 63.168C284.438 63.168 270.871 51.0864 268.912 35.4824C271.18 48.5443 282.778 58.4893 296.747 58.4893C312.342 58.4892 324.985 46.0943 324.985 30.8047C324.985 15.5149 312.342 3.11918 296.747 3.11914C286.552 3.11914 277.62 8.4161 272.655 16.3555C278.139 6.60557 288.724 0 300.884 0Z" fill="#C77624"/>
<circle cx="268.807" cy="32.3638" r="1.96902" fill="#C77624"/>
<path d="M364.243 43.9841C362.501 43.9841 360.956 43.5917 359.606 42.8067C358.257 41.9971 357.19 40.881 356.405 39.4582C355.645 38.0108 355.264 36.3304 355.264 34.417C355.264 32.479 355.645 30.7987 356.405 29.3758C357.166 27.953 358.22 26.8491 359.57 26.0641C360.943 25.2546 362.526 24.8499 364.316 24.8499C366.107 24.8499 367.64 25.2546 368.916 26.0641C370.192 26.8491 371.173 27.8917 371.86 29.1919C372.547 30.4675 372.89 31.8658 372.89 33.3867C372.89 33.632 372.89 33.9018 372.89 34.1962C372.89 34.4661 372.878 34.7727 372.853 35.1161H357.583V32.7244H369.836C369.762 30.9826 369.198 29.6334 368.143 28.6767C367.113 27.72 365.813 27.2416 364.243 27.2416C363.188 27.2416 362.207 27.4747 361.299 27.9408C360.391 28.4069 359.655 29.106 359.091 30.0382C358.552 30.9704 358.282 32.1479 358.282 33.5707V34.601C358.282 36.1219 358.564 37.3853 359.128 38.391C359.692 39.3968 360.428 40.1573 361.336 40.6724C362.268 41.1631 363.237 41.4084 364.243 41.4084C365.518 41.4084 366.586 41.114 367.444 40.5253C368.303 39.9365 368.928 39.127 369.321 38.0967H372.375C372.056 39.2251 371.529 40.2309 370.793 41.114C370.057 41.9971 369.137 42.6963 368.033 43.2114C366.954 43.7266 365.69 43.9841 364.243 43.9841Z" fill="#2B3C50"/>
<path d="M349.604 43.5426V17.7849H352.695V43.5426H349.604Z" fill="#2B3C50"/>
<path d="M338.734 43.9841C336.82 43.9841 335.177 43.5917 333.803 42.8067C332.454 41.9971 331.411 40.881 330.675 39.4582C329.939 38.0108 329.571 36.3304 329.571 34.417C329.571 32.5036 329.964 30.8355 330.749 29.4126C331.558 27.9653 332.65 26.8491 334.024 26.0641C335.422 25.2546 336.992 24.8499 338.734 24.8499C340.917 24.8499 342.745 25.4141 344.216 26.5425C345.688 27.6709 346.62 29.1796 347.013 31.0685H343.848C343.603 29.8174 343.002 28.873 342.045 28.2352C341.089 27.5728 339.972 27.2416 338.697 27.2416C337.667 27.2416 336.698 27.5115 335.79 28.0512C334.882 28.5663 334.146 29.3513 333.582 30.4062C333.018 31.461 332.736 32.7979 332.736 34.417C332.736 35.57 332.883 36.588 333.177 37.4711C333.496 38.3297 333.926 39.0534 334.465 39.6421C335.005 40.2309 335.63 40.6724 336.342 40.9668C337.078 41.2612 337.863 41.4084 338.697 41.4084C339.555 41.4084 340.34 41.2735 341.052 41.0036C341.763 40.7092 342.364 40.2922 342.855 39.7525C343.346 39.1883 343.677 38.526 343.848 37.7655H347.013C346.62 39.6053 345.688 41.1017 344.216 42.2547C342.745 43.4077 340.917 43.9841 338.734 43.9841Z" fill="#2B3C50"/>
<path d="M319.235 43.5426V25.2914H321.958L322.252 29.2655H322.4C323.013 27.9408 323.614 26.9718 324.203 26.3585C324.791 25.7207 325.466 25.3159 326.226 25.1442C327.011 24.948 327.98 24.8499 329.133 24.8499V28.088H328.324C327.343 28.088 326.472 28.2229 325.711 28.4927C324.951 28.738 324.325 29.106 323.835 29.5966C323.344 30.0873 322.964 30.7128 322.694 31.4733C322.449 32.2092 322.326 33.0801 322.326 34.0858V43.5426H319.235Z" fill="#2B3C50"/>
<path d="M312.602 43.5428V25.2916H315.693V43.5428H312.602ZM314.147 21.6487C313.534 21.6487 313.019 21.4402 312.602 21.0232C312.185 20.6061 311.976 20.091 311.976 19.4777C311.976 18.889 312.185 18.3861 312.602 17.969C313.019 17.552 313.534 17.3435 314.147 17.3435C314.736 17.3435 315.239 17.552 315.656 17.969C316.073 18.3861 316.282 18.9012 316.282 19.5145C316.282 20.1033 316.073 20.6061 315.656 21.0232C315.239 21.4402 314.736 21.6487 314.147 21.6487Z" fill="#2B3C50"/>
<path d="M258.219 43.5426V25.2914H260.942L261.236 29.2655H261.383C261.997 27.9408 262.598 26.9718 263.186 26.3585C263.775 25.7207 264.45 25.3159 265.21 25.1442C265.995 24.948 266.964 24.8499 268.117 24.8499V28.088H267.308C266.326 28.088 265.455 28.2229 264.695 28.4927C263.935 28.738 263.309 29.106 262.818 29.5966C262.328 30.0873 261.947 30.7128 261.678 31.4733C261.432 32.2092 261.31 33.0801 261.31 34.0858V43.5426H258.219Z" fill="#2B3C50"/>
<path d="M247.348 43.9841C245.607 43.9841 244.061 43.5917 242.712 42.8067C241.363 41.9971 240.296 40.881 239.511 39.4582C238.75 38.0108 238.37 36.3304 238.37 34.417C238.37 32.479 238.75 30.7987 239.511 29.3758C240.271 27.953 241.326 26.8491 242.675 26.0641C244.049 25.2546 245.631 24.8499 247.422 24.8499C249.213 24.8499 250.746 25.2546 252.022 26.0641C253.297 26.8491 254.279 27.8917 254.965 29.1919C255.652 30.4675 255.996 31.8658 255.996 33.3867C255.996 33.632 255.996 33.9018 255.996 34.1962C255.996 34.4661 255.983 34.7727 255.959 35.1161H240.688V32.7244H252.942C252.868 30.9826 252.304 29.6334 251.249 28.6767C250.219 27.72 248.918 27.2416 247.348 27.2416C246.294 27.2416 245.312 27.4747 244.405 27.9408C243.497 28.4069 242.761 29.106 242.197 30.0382C241.657 30.9704 241.387 32.1479 241.387 33.5707V34.601C241.387 36.1219 241.669 37.3853 242.234 38.391C242.798 39.3968 243.534 40.1573 244.442 40.6724C245.374 41.1631 246.343 41.4084 247.348 41.4084C248.624 41.4084 249.691 41.114 250.55 40.5253C251.408 39.9365 252.034 39.127 252.426 38.0967H255.481C255.162 39.2251 254.634 40.2309 253.898 41.114C253.162 41.9971 252.242 42.6963 251.139 43.2114C250.059 43.7266 248.796 43.9841 247.348 43.9841Z" fill="#2B3C50"/>
<path d="M219.805 43.5426V25.2914H222.528L222.822 28.1616H222.969C223.607 27.1558 224.441 26.3585 225.472 25.7698C226.502 25.1565 227.741 24.8499 229.188 24.8499C230.586 24.8499 231.813 25.1442 232.868 25.733C233.923 26.2972 234.732 27.1803 235.296 28.3823C235.885 29.5598 236.179 31.0562 236.179 32.8715V43.5426H233.089V33.2027C233.089 31.3138 232.684 29.891 231.874 28.9343C231.065 27.9776 229.9 27.4992 228.379 27.4992C227.324 27.4992 226.379 27.7568 225.545 28.2719C224.736 28.7871 224.086 29.5353 223.595 30.5165C223.129 31.4733 222.896 32.663 222.896 34.0858V43.5426H219.805Z" fill="#2B3C50"/>
<path d="M200.688 43.5426V25.2914H203.411L203.705 28.1616H203.852C204.49 27.1558 205.324 26.3585 206.355 25.7698C207.385 25.1565 208.624 24.8499 210.071 24.8499C211.469 24.8499 212.696 25.1442 213.751 25.733C214.806 26.2972 215.615 27.1803 216.179 28.3823C216.768 29.5598 217.062 31.0562 217.062 32.8715V43.5426H213.972V33.2027C213.972 31.3138 213.567 29.891 212.757 28.9343C211.948 27.9776 210.782 27.4992 209.262 27.4992C208.207 27.4992 207.262 27.7568 206.428 28.2719C205.619 28.7871 204.969 29.5353 204.478 30.5165C204.012 31.4733 203.779 32.663 203.779 34.0858V43.5426H200.688Z" fill="#2B3C50"/>
<path d="M194.476 43.5426V17.7849H197.566V43.5426H194.476Z" fill="#2B3C50"/>
<path d="M176.055 43.9841C174.313 43.9841 172.768 43.5917 171.418 42.8067C170.069 41.9971 169.002 40.881 168.217 39.4582C167.457 38.0108 167.076 36.3304 167.076 34.417C167.076 32.479 167.457 30.7987 168.217 29.3758C168.978 27.953 170.032 26.8491 171.382 26.0641C172.755 25.2546 174.338 24.8499 176.128 24.8499C177.919 24.8499 179.452 25.2546 180.728 26.0641C182.004 26.8491 182.985 27.8917 183.672 29.1919C184.359 30.4675 184.702 31.8658 184.702 33.3867C184.702 33.632 184.702 33.9018 184.702 34.1962C184.702 34.4661 184.69 34.7727 184.665 35.1161H169.395V32.7244H181.648C181.574 30.9826 181.01 29.6334 179.955 28.6767C178.925 27.72 177.625 27.2416 176.055 27.2416C175 27.2416 174.019 27.4747 173.111 27.9408C172.203 28.4069 171.467 29.106 170.903 30.0382C170.364 30.9704 170.094 32.1479 170.094 33.5707V34.601C170.094 36.1219 170.376 37.3853 170.94 38.391C171.504 39.3968 172.24 40.1573 173.148 40.6724C174.08 41.1631 175.049 41.4084 176.055 41.4084C177.33 41.4084 178.398 41.114 179.256 40.5253C180.115 39.9365 180.74 39.127 181.133 38.0967H184.187C183.868 39.2251 183.341 40.2309 182.605 41.114C181.869 41.9971 180.949 42.6963 179.845 43.2114C178.766 43.7266 177.502 43.9841 176.055 43.9841Z" fill="#2B3C50"/>
<path d="M148.48 43.5426V17.7849H151.571V28.3456H151.718C152.454 27.1926 153.349 26.3218 154.404 25.733C155.483 25.1443 156.636 24.8499 157.863 24.8499C159.261 24.8499 160.488 25.1443 161.543 25.733C162.597 26.2972 163.407 27.1803 163.971 28.3824C164.56 29.5599 164.854 31.0563 164.854 32.8716V43.5426H161.8V33.2027C161.8 31.3138 161.408 29.891 160.623 28.9343C159.862 27.9776 158.721 27.4992 157.2 27.4992C156.146 27.4992 155.189 27.7568 154.33 28.272C153.472 28.7871 152.797 29.5353 152.307 30.5166C151.816 31.4733 151.571 32.6631 151.571 34.0859V43.5426H148.48Z" fill="#2B3C50"/>
<path d="M136.408 43.5426V20.3239H128.717V17.7849H147.189V20.3239H139.499V43.5426H136.408Z" fill="#2B3C50"/>
<path d="M302.574 122.974C304.101 122.974 305.501 123.145 306.774 123.489C308.047 123.801 309.065 124.237 309.829 124.799C310.624 125.36 311.022 125.969 311.022 126.624C311.022 126.936 310.91 127.247 310.688 127.559C310.465 127.84 310.163 127.981 309.781 127.981C309.399 127.981 309.081 127.887 308.826 127.7C308.604 127.513 308.365 127.294 308.111 127.045C307.888 126.795 307.554 126.561 307.108 126.343C306.695 126.156 306.106 125.984 305.342 125.828C304.579 125.672 303.704 125.594 302.717 125.594C300.936 125.594 299.329 126.031 297.897 126.904C296.465 127.778 295.336 128.963 294.508 130.46C293.681 131.927 293.268 133.58 293.268 135.42C293.268 137.292 293.665 138.976 294.461 140.474C295.256 141.971 296.354 143.156 297.754 144.03C299.154 144.872 300.792 145.293 302.67 145.293C303.942 145.293 304.929 145.184 305.629 144.966C306.329 144.747 306.933 144.498 307.442 144.217C308.047 143.874 308.476 143.546 308.731 143.234C309.017 142.891 309.383 142.72 309.829 142.72C310.242 142.72 310.545 142.845 310.735 143.094C310.958 143.312 311.07 143.609 311.07 143.983C311.07 144.482 310.688 145.044 309.924 145.668C309.192 146.26 308.174 146.791 306.87 147.258C305.565 147.695 304.07 147.914 302.383 147.914C299.997 147.914 297.897 147.368 296.083 146.276C294.302 145.184 292.902 143.702 291.884 141.831C290.897 139.928 290.404 137.791 290.404 135.42C290.404 133.143 290.913 131.069 291.931 129.197C292.949 127.325 294.365 125.828 296.179 124.705C298.024 123.551 300.156 122.974 302.574 122.974Z" fill="#CE5F34"/>
<path d="M304.564 104.257C322.355 104.257 336.778 118.398 336.778 135.841C336.778 153.285 322.355 167.425 304.564 167.425C288.117 167.425 274.55 155.342 272.592 139.737C274.858 152.8 286.457 162.747 300.427 162.747C316.022 162.747 328.665 150.352 328.665 135.062C328.665 119.772 316.022 107.377 300.427 107.376C290.232 107.376 281.299 112.673 276.335 120.613C281.819 110.863 292.404 104.257 304.564 104.257Z" fill="#2C3D4F"/>
<circle cx="272.487" cy="136.621" r="1.96902" fill="#2C3D4F"/>
<path d="M367.922 148.242C366.181 148.242 364.635 147.849 363.286 147.064C361.937 146.255 360.87 145.139 360.085 143.716C359.324 142.269 358.944 140.588 358.944 138.675C358.944 136.737 359.324 135.056 360.085 133.634C360.845 132.211 361.9 131.107 363.249 130.322C364.623 129.512 366.205 129.108 367.996 129.108C369.787 129.108 371.32 129.512 372.596 130.322C373.871 131.107 374.852 132.15 375.539 133.45C376.226 134.725 376.57 136.124 376.57 137.645C376.57 137.89 376.57 138.16 376.57 138.454C376.57 138.724 376.557 139.031 376.533 139.374H361.262V136.982H373.515C373.442 135.24 372.878 133.891 371.823 132.935C370.793 131.978 369.492 131.499 367.922 131.499C366.868 131.499 365.886 131.732 364.979 132.199C364.071 132.665 363.335 133.364 362.771 134.296C362.231 135.228 361.961 136.406 361.961 137.828V138.859C361.961 140.38 362.243 141.643 362.808 142.649C363.372 143.655 364.108 144.415 365.015 144.93C365.948 145.421 366.917 145.666 367.922 145.666C369.198 145.666 370.265 145.372 371.124 144.783C371.982 144.194 372.608 143.385 373 142.354H376.054C375.736 143.483 375.208 144.489 374.472 145.372C373.736 146.255 372.816 146.954 371.712 147.469C370.633 147.984 369.37 148.242 367.922 148.242Z" fill="#CE5F34"/>
<path d="M353.283 147.8V122.042H356.374V147.8H353.283Z" fill="#CE5F34"/>
<path d="M342.413 148.242C340.5 148.242 338.856 147.849 337.483 147.064C336.133 146.255 335.091 145.139 334.355 143.716C333.619 142.269 333.251 140.588 333.251 138.675C333.251 136.761 333.643 135.093 334.428 133.67C335.238 132.223 336.33 131.107 337.703 130.322C339.102 129.512 340.672 129.108 342.413 129.108C344.597 129.108 346.424 129.672 347.896 130.8C349.368 131.929 350.3 133.437 350.693 135.326H347.528C347.283 134.075 346.682 133.131 345.725 132.493C344.768 131.831 343.652 131.499 342.377 131.499C341.346 131.499 340.377 131.769 339.47 132.309C338.562 132.824 337.826 133.609 337.262 134.664C336.698 135.719 336.415 137.056 336.415 138.675C336.415 139.828 336.563 140.846 336.857 141.729C337.176 142.588 337.605 143.311 338.145 143.9C338.685 144.489 339.31 144.93 340.022 145.225C340.758 145.519 341.543 145.666 342.377 145.666C343.235 145.666 344.02 145.531 344.732 145.261C345.443 144.967 346.044 144.55 346.535 144.01C347.025 143.446 347.356 142.784 347.528 142.023H350.693C350.3 143.863 349.368 145.36 347.896 146.513C346.424 147.665 344.597 148.242 342.413 148.242Z" fill="#CE5F34"/>
<path d="M322.915 147.8V129.549H325.638L325.932 133.523H326.079C326.693 132.199 327.294 131.23 327.882 130.616C328.471 129.979 329.146 129.574 329.906 129.402C330.691 129.206 331.66 129.108 332.813 129.108V132.346H332.004C331.022 132.346 330.151 132.481 329.391 132.751C328.631 132.996 328.005 133.364 327.514 133.854C327.024 134.345 326.644 134.971 326.374 135.731C326.128 136.467 326.006 137.338 326.006 138.344V147.8H322.915Z" fill="#CE5F34"/>
<path d="M316.282 147.8V129.549H319.372V147.8H316.282ZM317.827 125.906C317.214 125.906 316.699 125.698 316.282 125.281C315.865 124.864 315.656 124.349 315.656 123.735C315.656 123.147 315.865 122.644 316.282 122.227C316.699 121.81 317.214 121.601 317.827 121.601C318.416 121.601 318.919 121.81 319.336 122.227C319.753 122.644 319.961 123.159 319.961 123.772C319.961 124.361 319.753 124.864 319.336 125.281C318.919 125.698 318.416 125.906 317.827 125.906Z" fill="#CE5F34"/>
<path d="M261.898 147.8V129.549H264.621L264.916 133.523H265.063C265.676 132.199 266.277 131.23 266.866 130.616C267.455 129.979 268.129 129.574 268.89 129.402C269.675 129.206 270.644 129.108 271.797 129.108V132.346H270.987C270.006 132.346 269.135 132.481 268.375 132.751C267.614 132.996 266.989 133.364 266.498 133.854C266.007 134.345 265.627 134.971 265.357 135.731C265.112 136.467 264.989 137.338 264.989 138.344V147.8H261.898Z" fill="#CE5F34"/>
<path d="M251.028 148.242C249.286 148.242 247.741 147.849 246.392 147.064C245.042 146.255 243.975 145.139 243.19 143.716C242.43 142.269 242.05 140.588 242.05 138.675C242.05 136.737 242.43 135.056 243.19 133.634C243.951 132.211 245.006 131.107 246.355 130.322C247.729 129.512 249.311 129.108 251.102 129.108C252.892 129.108 254.426 129.512 255.701 130.322C256.977 131.107 257.958 132.15 258.645 133.45C259.332 134.725 259.675 136.124 259.675 137.645C259.675 137.89 259.675 138.16 259.675 138.454C259.675 138.724 259.663 139.031 259.639 139.374H244.368V136.982H256.621C256.548 135.24 255.983 133.891 254.929 132.935C253.898 131.978 252.598 131.499 251.028 131.499C249.973 131.499 248.992 131.732 248.084 132.199C247.177 132.665 246.441 133.364 245.877 134.296C245.337 135.228 245.067 136.406 245.067 137.828V138.859C245.067 140.38 245.349 141.643 245.913 142.649C246.478 143.655 247.213 144.415 248.121 144.93C249.053 145.421 250.022 145.666 251.028 145.666C252.304 145.666 253.371 145.372 254.229 144.783C255.088 144.194 255.714 143.385 256.106 142.354H259.16C258.841 143.483 258.314 144.489 257.578 145.372C256.842 146.255 255.922 146.954 254.818 147.469C253.739 147.984 252.475 148.242 251.028 148.242Z" fill="#CE5F34"/>
<path d="M223.485 147.8V129.549H226.208L226.502 132.419H226.649C227.287 131.414 228.121 130.616 229.151 130.028C230.182 129.414 231.42 129.108 232.868 129.108C234.266 129.108 235.493 129.402 236.547 129.991C237.602 130.555 238.412 131.438 238.976 132.64C239.565 133.818 239.859 135.314 239.859 137.129V147.8H236.768V137.461C236.768 135.572 236.363 134.149 235.554 133.192C234.744 132.235 233.579 131.757 232.058 131.757C231.003 131.757 230.059 132.015 229.225 132.53C228.415 133.045 227.765 133.793 227.275 134.774C226.809 135.731 226.576 136.921 226.576 138.344V147.8H223.485Z" fill="#CE5F34"/>
<path d="M204.368 147.8V129.549H207.091L207.385 132.419H207.532C208.17 131.414 209.004 130.616 210.034 130.028C211.065 129.414 212.303 129.108 213.751 129.108C215.149 129.108 216.376 129.402 217.43 129.991C218.485 130.555 219.295 131.438 219.859 132.64C220.448 133.818 220.742 135.314 220.742 137.129V147.8H217.651V137.461C217.651 135.572 217.246 134.149 216.437 133.192C215.627 132.235 214.462 131.757 212.941 131.757C211.886 131.757 210.942 132.015 210.108 132.53C209.298 133.045 208.648 133.793 208.158 134.774C207.692 135.731 207.458 136.921 207.458 138.344V147.8H204.368Z" fill="#CE5F34"/>
<path d="M198.155 147.8V122.042H201.246V147.8H198.155Z" fill="#CE5F34"/>
<path d="M179.734 148.242C177.993 148.242 176.447 147.849 175.098 147.064C173.749 146.255 172.682 145.139 171.897 143.716C171.136 142.269 170.756 140.588 170.756 138.675C170.756 136.737 171.136 135.056 171.897 133.634C172.657 132.211 173.712 131.107 175.061 130.322C176.435 129.512 178.017 129.108 179.808 129.108C181.599 129.108 183.132 129.512 184.408 130.322C185.683 131.107 186.664 132.15 187.351 133.45C188.038 134.725 188.382 136.124 188.382 137.645C188.382 137.89 188.382 138.16 188.382 138.454C188.382 138.724 188.369 139.031 188.345 139.374H173.074V136.982H185.328C185.254 135.24 184.69 133.891 183.635 132.935C182.605 131.978 181.304 131.499 179.734 131.499C178.68 131.499 177.698 131.732 176.791 132.199C175.883 132.665 175.147 133.364 174.583 134.296C174.043 135.228 173.773 136.406 173.773 137.828V138.859C173.773 140.38 174.055 141.643 174.62 142.649C175.184 143.655 175.92 144.415 176.828 144.93C177.76 145.421 178.729 145.666 179.734 145.666C181.01 145.666 182.077 145.372 182.936 144.783C183.794 144.194 184.42 143.385 184.812 142.354H187.867C187.548 143.483 187.02 144.489 186.284 145.372C185.548 146.255 184.628 146.954 183.525 147.469C182.445 147.984 181.182 148.242 179.734 148.242Z" fill="#CE5F34"/>
<path d="M152.159 147.8V122.042H155.25V132.603H155.397C156.133 131.45 157.029 130.579 158.084 129.991C159.163 129.402 160.316 129.107 161.542 129.107C162.941 129.107 164.167 129.402 165.222 129.991C166.277 130.555 167.087 131.438 167.651 132.64C168.239 133.817 168.534 135.314 168.534 137.129V147.8H165.48V137.46C165.48 135.571 165.087 134.149 164.302 133.192C163.542 132.235 162.401 131.757 160.88 131.757C159.825 131.757 158.869 132.014 158.01 132.53C157.151 133.045 156.477 133.793 155.986 134.774C155.496 135.731 155.25 136.921 155.25 138.343V147.8H152.159Z" fill="#CE5F34"/>
<path d="M140.087 147.8V124.581H132.397V122.042H150.869V124.581H143.178V147.8H140.087Z" fill="#CE5F34"/>
<path d="M302.574 233.364C304.101 233.364 305.501 233.536 306.774 233.879C308.047 234.191 309.065 234.627 309.829 235.189C310.624 235.75 311.022 236.359 311.022 237.014C311.022 237.326 310.91 237.638 310.688 237.95C310.465 238.23 310.163 238.371 309.781 238.371C309.399 238.371 309.081 238.277 308.826 238.09C308.604 237.903 308.365 237.684 308.111 237.435C307.888 237.185 307.554 236.951 307.108 236.733C306.695 236.546 306.106 236.374 305.342 236.218C304.579 236.062 303.704 235.984 302.717 235.984C300.936 235.984 299.329 236.421 297.897 237.294C296.465 238.168 295.336 239.353 294.508 240.851C293.681 242.317 293.268 243.97 293.268 245.81C293.268 247.682 293.665 249.367 294.461 250.864C295.256 252.361 296.354 253.547 297.754 254.42C299.154 255.262 300.792 255.683 302.67 255.683C303.942 255.683 304.929 255.574 305.629 255.356C306.329 255.137 306.933 254.888 307.442 254.607C308.047 254.264 308.476 253.937 308.731 253.625C309.017 253.281 309.383 253.11 309.829 253.11C310.242 253.11 310.545 253.235 310.735 253.484C310.958 253.703 311.07 253.999 311.07 254.373C311.07 254.872 310.688 255.434 309.924 256.058C309.192 256.65 308.174 257.181 306.87 257.649C305.565 258.085 304.07 258.304 302.383 258.304C299.997 258.304 297.897 257.758 296.083 256.666C294.302 255.574 292.902 254.092 291.884 252.221C290.897 250.318 290.404 248.181 290.404 245.81C290.404 243.533 290.913 241.459 291.931 239.587C292.949 237.716 294.365 236.218 296.179 235.095C298.024 233.941 300.156 233.364 302.574 233.364Z" fill="#DCBBAC"/>
<path d="M304.564 214.647C322.355 214.648 336.778 228.788 336.778 246.231C336.778 263.675 322.355 277.815 304.564 277.815C288.117 277.815 274.55 265.732 272.592 250.127C274.858 263.19 286.457 273.137 300.427 273.137C316.022 273.137 328.665 260.742 328.665 245.452C328.665 230.162 316.022 217.767 300.427 217.767C290.229 217.767 281.294 223.067 276.33 231.011C281.813 221.256 292.401 214.647 304.564 214.647Z" fill="#BCCACD"/>
<circle cx="272.487" cy="247.012" r="1.96902" fill="#BCCACD"/>
<path d="M367.922 258.632C366.181 258.632 364.635 258.24 363.286 257.455C361.937 256.645 360.87 255.529 360.085 254.106C359.324 252.659 358.944 250.978 358.944 249.065C358.944 247.127 359.324 245.447 360.085 244.024C360.845 242.601 361.9 241.497 363.249 240.712C364.623 239.903 366.205 239.498 367.996 239.498C369.787 239.498 371.32 239.903 372.596 240.712C373.871 241.497 374.852 242.54 375.539 243.84C376.226 245.115 376.57 246.514 376.57 248.035C376.57 248.28 376.57 248.55 376.57 248.844C376.57 249.114 376.557 249.421 376.533 249.764H361.262V247.372H373.515C373.442 245.631 372.878 244.281 371.823 243.325C370.793 242.368 369.492 241.89 367.922 241.89C366.868 241.89 365.886 242.123 364.979 242.589C364.071 243.055 363.335 243.754 362.771 244.686C362.231 245.618 361.961 246.796 361.961 248.219V249.249C361.961 250.77 362.243 252.033 362.808 253.039C363.372 254.045 364.108 254.805 365.015 255.32C365.948 255.811 366.917 256.056 367.922 256.056C369.198 256.056 370.265 255.762 371.124 255.173C371.982 254.584 372.608 253.775 373 252.745H376.054C375.736 253.873 375.208 254.879 374.472 255.762C373.736 256.645 372.816 257.344 371.712 257.859C370.633 258.375 369.37 258.632 367.922 258.632Z" fill="#DCBBAC"/>
<path d="M353.283 258.19V232.433H356.374V258.19H353.283Z" fill="#DCBBAC"/>
<path d="M342.413 258.632C340.5 258.632 338.856 258.24 337.483 257.455C336.133 256.645 335.091 255.529 334.355 254.106C333.619 252.659 333.251 250.978 333.251 249.065C333.251 247.152 333.643 245.483 334.428 244.061C335.238 242.613 336.33 241.497 337.703 240.712C339.102 239.903 340.672 239.498 342.413 239.498C344.597 239.498 346.424 240.062 347.896 241.19C349.368 242.319 350.3 243.828 350.693 245.716H347.528C347.283 244.465 346.682 243.521 345.725 242.883C344.768 242.221 343.652 241.89 342.377 241.89C341.346 241.89 340.377 242.159 339.47 242.699C338.562 243.214 337.826 243.999 337.262 245.054C336.698 246.109 336.415 247.446 336.415 249.065C336.415 250.218 336.563 251.236 336.857 252.119C337.176 252.978 337.605 253.701 338.145 254.29C338.685 254.879 339.31 255.32 340.022 255.615C340.758 255.909 341.543 256.056 342.377 256.056C343.235 256.056 344.02 255.921 344.732 255.652C345.443 255.357 346.044 254.94 346.535 254.4C347.025 253.836 347.356 253.174 347.528 252.413H350.693C350.3 254.253 349.368 255.75 347.896 256.903C346.424 258.056 344.597 258.632 342.413 258.632Z" fill="#DCBBAC"/>
<path d="M322.915 258.191V239.939H325.638L325.932 243.913H326.079C326.693 242.589 327.294 241.62 327.882 241.006C328.471 240.369 329.146 239.964 329.906 239.792C330.691 239.596 331.66 239.498 332.813 239.498V242.736H332.004C331.022 242.736 330.151 242.871 329.391 243.141C328.631 243.386 328.005 243.754 327.514 244.245C327.024 244.735 326.644 245.361 326.374 246.121C326.128 246.857 326.006 247.728 326.006 248.734V258.191H322.915Z" fill="#DCBBAC"/>
<path d="M316.282 258.19V239.939H319.372V258.19H316.282ZM317.827 236.296C317.214 236.296 316.699 236.088 316.282 235.671C315.865 235.254 315.656 234.739 315.656 234.125C315.656 233.537 315.865 233.034 316.282 232.617C316.699 232.2 317.214 231.991 317.827 231.991C318.416 231.991 318.919 232.2 319.336 232.617C319.753 233.034 319.961 233.549 319.961 234.162C319.961 234.751 319.753 235.254 319.336 235.671C318.919 236.088 318.416 236.296 317.827 236.296Z" fill="#DCBBAC"/>
<path d="M261.898 258.191V239.939H264.621L264.916 243.913H265.063C265.676 242.589 266.277 241.62 266.866 241.006C267.455 240.369 268.129 239.964 268.89 239.792C269.675 239.596 270.644 239.498 271.797 239.498V242.736H270.987C270.006 242.736 269.135 242.871 268.375 243.141C267.614 243.386 266.989 243.754 266.498 244.245C266.007 244.735 265.627 245.361 265.357 246.121C265.112 246.857 264.989 247.728 264.989 248.734V258.191H261.898Z" fill="#DCBBAC"/>
<path d="M251.028 258.632C249.286 258.632 247.741 258.24 246.392 257.455C245.042 256.645 243.975 255.529 243.19 254.106C242.43 252.659 242.05 250.978 242.05 249.065C242.05 247.127 242.43 245.447 243.19 244.024C243.951 242.601 245.006 241.497 246.355 240.712C247.729 239.903 249.311 239.498 251.102 239.498C252.892 239.498 254.426 239.903 255.701 240.712C256.977 241.497 257.958 242.54 258.645 243.84C259.332 245.115 259.675 246.514 259.675 248.035C259.675 248.28 259.675 248.55 259.675 248.844C259.675 249.114 259.663 249.421 259.639 249.764H244.368V247.372H256.621C256.548 245.631 255.983 244.281 254.929 243.325C253.898 242.368 252.598 241.89 251.028 241.89C249.973 241.89 248.992 242.123 248.084 242.589C247.177 243.055 246.441 243.754 245.877 244.686C245.337 245.618 245.067 246.796 245.067 248.219V249.249C245.067 250.77 245.349 252.033 245.913 253.039C246.478 254.045 247.213 254.805 248.121 255.32C249.053 255.811 250.022 256.056 251.028 256.056C252.304 256.056 253.371 255.762 254.229 255.173C255.088 254.584 255.714 253.775 256.106 252.745H259.16C258.841 253.873 258.314 254.879 257.578 255.762C256.842 256.645 255.922 257.344 254.818 257.859C253.739 258.375 252.475 258.632 251.028 258.632Z" fill="#DCBBAC"/>
<path d="M223.485 258.191V239.939H226.208L226.502 242.81H226.649C227.287 241.804 228.121 241.006 229.151 240.418C230.182 239.804 231.42 239.498 232.868 239.498C234.266 239.498 235.493 239.792 236.547 240.381C237.602 240.945 238.412 241.828 238.976 243.03C239.565 244.208 239.859 245.704 239.859 247.519V258.191H236.768V247.851C236.768 245.962 236.363 244.539 235.554 243.582C234.744 242.626 233.579 242.147 232.058 242.147C231.003 242.147 230.059 242.405 229.225 242.92C228.415 243.435 227.765 244.183 227.275 245.164C226.809 246.121 226.576 247.311 226.576 248.734V258.191H223.485Z" fill="#DCBBAC"/>
<path d="M204.368 258.191V239.939H207.091L207.385 242.81H207.532C208.17 241.804 209.004 241.006 210.034 240.418C211.065 239.804 212.303 239.498 213.751 239.498C215.149 239.498 216.376 239.792 217.43 240.381C218.485 240.945 219.295 241.828 219.859 243.03C220.448 244.208 220.742 245.704 220.742 247.519V258.191H217.651V247.851C217.651 245.962 217.246 244.539 216.437 243.582C215.627 242.626 214.462 242.147 212.941 242.147C211.886 242.147 210.942 242.405 210.108 242.92C209.298 243.435 208.648 244.183 208.158 245.164C207.692 246.121 207.458 247.311 207.458 248.734V258.191H204.368Z" fill="#DCBBAC"/>
<path d="M198.155 258.19V232.433H201.246V258.19H198.155Z" fill="#DCBBAC"/>
<path d="M179.734 258.632C177.993 258.632 176.447 258.24 175.098 257.455C173.749 256.645 172.682 255.529 171.897 254.106C171.136 252.659 170.756 250.978 170.756 249.065C170.756 247.127 171.136 245.447 171.897 244.024C172.657 242.601 173.712 241.497 175.061 240.712C176.435 239.903 178.017 239.498 179.808 239.498C181.599 239.498 183.132 239.903 184.408 240.712C185.683 241.497 186.664 242.54 187.351 243.84C188.038 245.115 188.382 246.514 188.382 248.035C188.382 248.28 188.382 248.55 188.382 248.844C188.382 249.114 188.369 249.421 188.345 249.764H173.074V247.372H185.328C185.254 245.631 184.69 244.281 183.635 243.325C182.605 242.368 181.304 241.89 179.734 241.89C178.68 241.89 177.698 242.123 176.791 242.589C175.883 243.055 175.147 243.754 174.583 244.686C174.043 245.618 173.773 246.796 173.773 248.219V249.249C173.773 250.77 174.055 252.033 174.62 253.039C175.184 254.045 175.92 254.805 176.828 255.32C177.76 255.811 178.729 256.056 179.734 256.056C181.01 256.056 182.077 255.762 182.936 255.173C183.794 254.584 184.42 253.775 184.812 252.745H187.867C187.548 253.873 187.02 254.879 186.284 255.762C185.548 256.645 184.628 257.344 183.525 257.859C182.445 258.375 181.182 258.632 179.734 258.632Z" fill="#DCBBAC"/>
<path d="M152.159 258.19V232.433H155.25V242.993H155.397C156.133 241.84 157.029 240.969 158.084 240.381C159.163 239.792 160.316 239.498 161.542 239.498C162.941 239.498 164.167 239.792 165.222 240.381C166.277 240.945 167.087 241.828 167.651 243.03C168.239 244.208 168.534 245.704 168.534 247.519V258.19H165.48V247.85C165.48 245.962 165.087 244.539 164.302 243.582C163.542 242.625 162.401 242.147 160.88 242.147C159.825 242.147 158.869 242.405 158.01 242.92C157.151 243.435 156.477 244.183 155.986 245.164C155.496 246.121 155.25 247.311 155.25 248.734V258.19H152.159Z" fill="#DCBBAC"/>
<path d="M140.087 258.19V234.972H132.397V232.433H150.869V234.972H143.178V258.19H140.087Z" fill="#DCBBAC"/>
</svg>
