<svg width="399" height="103" viewBox="0 0 399 103" fill="none" xmlns="http://www.w3.org/2000/svg">
<path d="M277.488 30.5187C279.978 30.5187 282.261 30.7984 284.336 31.3579C286.411 31.8666 288.071 32.5787 289.317 33.4942C290.614 34.4098 291.262 35.4017 291.262 36.4698C291.262 36.9785 291.081 37.4871 290.717 37.9958C290.354 38.4535 289.861 38.6824 289.239 38.6824C288.616 38.6824 288.097 38.5298 287.682 38.2246C287.319 37.9195 286.93 37.5634 286.515 37.1565C286.152 36.7496 285.607 36.3681 284.881 36.012C284.206 35.7069 283.246 35.4271 282.001 35.1728C280.756 34.9185 279.329 34.7913 277.721 34.7913C274.816 34.7913 272.196 35.5034 269.861 36.9276C267.526 38.3518 265.685 40.2847 264.336 42.7261C262.987 45.1168 262.312 47.8126 262.312 50.8136C262.312 53.8655 262.961 56.6121 264.258 59.0536C265.555 61.4951 267.345 63.428 269.628 64.8522C271.91 66.2255 274.582 66.9122 277.643 66.9122C279.719 66.9122 281.327 66.7342 282.468 66.3781C283.61 66.0221 284.595 65.6151 285.425 65.1574C286.411 64.5979 287.112 64.0638 287.527 63.5551C287.994 62.9956 288.59 62.7159 289.317 62.7159C289.991 62.7159 290.484 62.9193 290.795 63.3262C291.158 63.6823 291.34 64.1655 291.34 64.7759C291.34 65.5897 290.717 66.5053 289.472 67.5226C288.279 68.489 286.619 69.3537 284.492 70.1166C282.364 70.8287 279.926 71.1848 277.176 71.1848C273.285 71.1848 269.861 70.2947 266.904 68.5144C263.999 66.7342 261.716 64.3181 260.056 61.2662C258.447 58.1635 257.643 54.6793 257.643 50.8136C257.643 47.1005 258.473 43.718 260.133 40.6661C261.794 37.6143 264.102 35.1728 267.06 33.3417C270.069 31.4597 273.545 30.5187 277.488 30.5187Z" fill="#2B3C50"/>
<path d="M280.731 0C309.742 0.000169624 333.26 23.0574 333.26 51.5C333.26 79.9427 309.742 103.001 280.731 103.001C253.902 103.001 231.771 83.2816 228.593 57.8203C232.275 79.1366 251.195 95.371 273.986 95.3711C299.415 95.3711 320.03 75.1599 320.03 50.2285C320.03 25.2972 299.415 5.08691 273.986 5.08691C257.337 5.087 242.753 13.7497 234.665 26.7285C243.597 10.7971 260.878 0 280.731 0Z" fill="#C77624"/>
<circle cx="228.428" cy="52.7718" r="3.21065" fill="#C77624"/>
<path d="M384.043 71.72C381.203 71.72 378.683 71.08 376.483 69.8C374.283 68.48 372.543 66.66 371.263 64.34C370.023 61.98 369.403 59.24 369.403 56.12C369.403 52.96 370.023 50.22 371.263 47.9C372.503 45.58 374.223 43.78 376.423 42.5C378.663 41.18 381.243 40.52 384.163 40.52C387.083 40.52 389.583 41.18 391.663 42.5C393.743 43.78 395.343 45.48 396.463 47.6C397.583 49.68 398.143 51.96 398.143 54.44C398.143 54.84 398.143 55.28 398.143 55.76C398.143 56.2 398.123 56.7 398.083 57.26H373.183V53.36H393.163C393.043 50.52 392.123 48.32 390.403 46.76C388.723 45.2 386.603 44.42 384.043 44.42C382.323 44.42 380.723 44.8 379.243 45.56C377.763 46.32 376.563 47.46 375.643 48.98C374.763 50.5 374.323 52.42 374.323 54.74V56.42C374.323 58.9 374.783 60.96 375.703 62.6C376.623 64.24 377.823 65.48 379.303 66.32C380.823 67.12 382.403 67.52 384.043 67.52C386.123 67.52 387.863 67.04 389.263 66.08C390.663 65.12 391.683 63.8 392.323 62.12H397.303C396.783 63.96 395.923 65.6 394.723 67.04C393.523 68.48 392.023 69.62 390.223 70.46C388.463 71.3 386.403 71.72 384.043 71.72Z" fill="#2B3C50"/>
<path d="M360.173 71V29H365.213V71H360.173Z" fill="#2B3C50"/>
<path d="M342.449 71.72C339.329 71.72 336.649 71.08 334.409 69.8C332.209 68.48 330.509 66.66 329.309 64.34C328.109 61.98 327.509 59.24 327.509 56.12C327.509 53 328.149 50.28 329.429 47.96C330.749 45.6 332.529 43.78 334.769 42.5C337.049 41.18 339.609 40.52 342.449 40.52C346.009 40.52 348.989 41.44 351.389 43.28C353.789 45.12 355.309 47.58 355.949 50.66H350.789C350.389 48.62 349.409 47.08 347.849 46.04C346.289 44.96 344.469 44.42 342.389 44.42C340.709 44.42 339.129 44.86 337.649 45.74C336.169 46.58 334.969 47.86 334.049 49.58C333.129 51.3 332.669 53.48 332.669 56.12C332.669 58 332.909 59.66 333.389 61.1C333.909 62.5 334.609 63.68 335.489 64.64C336.369 65.6 337.389 66.32 338.549 66.8C339.749 67.28 341.029 67.52 342.389 67.52C343.789 67.52 345.069 67.3 346.229 66.86C347.389 66.38 348.369 65.7 349.169 64.82C349.969 63.9 350.509 62.82 350.789 61.58H355.949C355.309 64.58 353.789 67.02 351.389 68.9C348.989 70.78 346.009 71.72 342.449 71.72Z" fill="#2B3C50"/>
<path d="M310.655 71V41.24H315.095L315.575 47.72H315.815C316.815 45.56 317.795 43.98 318.755 42.98C319.715 41.94 320.815 41.28 322.055 41C323.335 40.68 324.915 40.52 326.795 40.52V45.8H325.475C323.875 45.8 322.455 46.02 321.215 46.46C319.975 46.86 318.955 47.46 318.155 48.26C317.355 49.06 316.735 50.08 316.295 51.32C315.895 52.52 315.695 53.94 315.695 55.58V71H310.655Z" fill="#2B3C50"/>
<path d="M299.839 71V41.24H304.879V71H299.839ZM302.359 35.3C301.359 35.3 300.519 34.96 299.839 34.28C299.159 33.6 298.819 32.76 298.819 31.76C298.819 30.8 299.159 29.98 299.839 29.3C300.519 28.62 301.359 28.28 302.359 28.28C303.319 28.28 304.139 28.62 304.819 29.3C305.499 29.98 305.839 30.82 305.839 31.82C305.839 32.78 305.499 33.6 304.819 34.28C304.139 34.96 303.319 35.3 302.359 35.3Z" fill="#2B3C50"/>
<path d="M211.162 71V41.24H215.602L216.082 47.72H216.322C217.322 45.56 218.302 43.98 219.262 42.98C220.222 41.94 221.322 41.28 222.562 41C223.842 40.68 225.422 40.52 227.302 40.52V45.8H225.982C224.382 45.8 222.962 46.02 221.722 46.46C220.482 46.86 219.462 47.46 218.662 48.26C217.862 49.06 217.242 50.08 216.802 51.32C216.402 52.52 216.202 53.94 216.202 55.58V71H211.162Z" fill="#2B3C50"/>
<path d="M193.438 71.72C190.598 71.72 188.078 71.08 185.878 69.8C183.678 68.48 181.938 66.66 180.658 64.34C179.418 61.98 178.798 59.24 178.798 56.12C178.798 52.96 179.418 50.22 180.658 47.9C181.898 45.58 183.618 43.78 185.818 42.5C188.058 41.18 190.638 40.52 193.558 40.52C196.478 40.52 198.978 41.18 201.058 42.5C203.138 43.78 204.738 45.48 205.858 47.6C206.978 49.68 207.538 51.96 207.538 54.44C207.538 54.84 207.538 55.28 207.538 55.76C207.538 56.2 207.518 56.7 207.478 57.26H182.578V53.36H202.558C202.438 50.52 201.518 48.32 199.798 46.76C198.118 45.2 195.998 44.42 193.438 44.42C191.718 44.42 190.118 44.8 188.638 45.56C187.158 46.32 185.958 47.46 185.038 48.98C184.158 50.5 183.718 52.42 183.718 54.74V56.42C183.718 58.9 184.178 60.96 185.098 62.6C186.018 64.24 187.218 65.48 188.698 66.32C190.218 67.12 191.798 67.52 193.438 67.52C195.518 67.52 197.258 67.04 198.658 66.08C200.058 65.12 201.078 63.8 201.718 62.12H206.698C206.178 63.96 205.318 65.6 204.118 67.04C202.918 68.48 201.418 69.62 199.618 70.46C197.858 71.3 195.798 71.72 193.438 71.72Z" fill="#2B3C50"/>
<path d="M148.526 71V41.24H152.966L153.446 45.92H153.686C154.726 44.28 156.086 42.98 157.766 42.02C159.446 41.02 161.466 40.52 163.826 40.52C166.106 40.52 168.106 41 169.826 41.96C171.546 42.88 172.866 44.32 173.786 46.28C174.746 48.2 175.226 50.64 175.226 53.6V71H170.186V54.14C170.186 51.06 169.526 48.74 168.206 47.18C166.886 45.62 164.986 44.84 162.506 44.84C160.786 44.84 159.246 45.26 157.886 46.1C156.566 46.94 155.506 48.16 154.706 49.76C153.946 51.32 153.566 53.26 153.566 55.58V71H148.526Z" fill="#2B3C50"/>
<path d="M117.354 71V41.24H121.794L122.274 45.92H122.514C123.554 44.28 124.914 42.98 126.594 42.02C128.274 41.02 130.294 40.52 132.654 40.52C134.934 40.52 136.934 41 138.654 41.96C140.374 42.88 141.694 44.32 142.614 46.28C143.574 48.2 144.054 50.64 144.054 53.6V71H139.014V54.14C139.014 51.06 138.354 48.74 137.034 47.18C135.714 45.62 133.814 44.84 131.334 44.84C129.614 44.84 128.074 45.26 126.714 46.1C125.394 46.94 124.334 48.16 123.534 49.76C122.774 51.32 122.394 53.26 122.394 55.58V71H117.354Z" fill="#2B3C50"/>
<path d="M107.224 71V29H112.264V71H107.224Z" fill="#2B3C50"/>
<path d="M77.1876 71.72C74.3476 71.72 71.8276 71.08 69.6276 69.8C67.4276 68.48 65.6876 66.66 64.4076 64.34C63.1676 61.98 62.5476 59.24 62.5476 56.12C62.5476 52.96 63.1676 50.22 64.4076 47.9C65.6476 45.58 67.3676 43.78 69.5676 42.5C71.8076 41.18 74.3876 40.52 77.3076 40.52C80.2276 40.52 82.7276 41.18 84.8076 42.5C86.8876 43.78 88.4876 45.48 89.6076 47.6C90.7276 49.68 91.2876 51.96 91.2876 54.44C91.2876 54.84 91.2876 55.28 91.2876 55.76C91.2876 56.2 91.2676 56.7 91.2276 57.26H66.3276V53.36H86.3076C86.1876 50.52 85.2676 48.32 83.5476 46.76C81.8676 45.2 79.7476 44.42 77.1876 44.42C75.4676 44.42 73.8676 44.8 72.3876 45.56C70.9076 46.32 69.7076 47.46 68.7876 48.98C67.9076 50.5 67.4676 52.42 67.4676 54.74V56.42C67.4676 58.9 67.9276 60.96 68.8476 62.6C69.7676 64.24 70.9676 65.48 72.4476 66.32C73.9676 67.12 75.5476 67.52 77.1876 67.52C79.2676 67.52 81.0076 67.04 82.4076 66.08C83.8076 65.12 84.8276 63.8 85.4676 62.12H90.4476C89.9276 63.96 89.0676 65.6 87.8676 67.04C86.6676 68.48 85.1676 69.62 83.3676 70.46C81.6076 71.3 79.5476 71.72 77.1876 71.72Z" fill="#2B3C50"/>
<path d="M32.2241 71V29H37.2641V46.22H37.5041C38.7041 44.34 40.1641 42.92 41.8841 41.96C43.6441 41 45.5241 40.52 47.5241 40.52C49.8041 40.52 51.8041 41 53.5241 41.96C55.2441 42.88 56.5641 44.32 57.4841 46.28C58.4441 48.2 58.9241 50.64 58.9241 53.6V71H53.9441V54.14C53.9441 51.06 53.3041 48.74 52.0241 47.18C50.7841 45.62 48.9241 44.84 46.4441 44.84C44.7241 44.84 43.1641 45.26 41.7641 46.1C40.3641 46.94 39.2641 48.16 38.4641 49.76C37.6641 51.32 37.2641 53.26 37.2641 55.58V71H32.2241Z" fill="#2B3C50"/>
<path d="M12.54 71V33.14H0V29H30.12V33.14H17.58V71H12.54Z" fill="#2B3C50"/>
</svg>
