<svg width="50" height="50" viewBox="0 0 50 50" fill="none" xmlns="http://www.w3.org/2000/svg">
<path d="M6.95312 10.1875C6.85066 10.1887 6.74907 10.1685 6.65489 10.1282C6.5607 10.0878 6.47601 10.0282 6.40625 9.95312C6.09375 9.64062 6.09375 9.15625 6.40625 8.84375C10.1094 5.15625 15.0156 3.125 20.25 3.125C22.1719 3.125 24.0938 3.40625 25.9219 3.96875C26.1179 4.03003 26.2819 4.16604 26.3784 4.34735C26.4749 4.52865 26.4961 4.74066 26.4375 4.9375C26.3125 5.35938 25.875 5.59375 25.4688 5.45312C23.7749 4.94912 22.0173 4.69127 20.25 4.6875C15.4375 4.6875 10.9062 6.5625 7.51562 9.96875C7.35938 10.125 7.15625 10.1875 6.95312 10.1875Z" fill="#2F4157"/>
<path d="M3.90625 25.75C3.46875 25.75 3.125 25.4062 3.125 24.9688C3.125 15.5312 10.8125 7.84375 20.25 7.84375C20.6875 7.84375 21.0312 8.1875 21.0312 8.625C21.0312 9.0625 20.6875 9.40625 20.25 9.40625C11.6719 9.40625 4.6875 16.3906 4.6875 24.9688C4.6875 25.4062 4.34375 25.75 3.90625 25.75ZM34.8594 25.75C34.8594 26.1875 35.2031 26.5312 35.6406 26.5312C37.9688 26.5312 40.2031 25.8281 42.0938 24.4844C43.5706 23.4465 44.776 22.0684 45.6081 20.4666C46.4403 18.8648 46.8748 17.0863 46.875 15.2812C46.875 14.8594 46.5312 14.5 46.0938 14.5C45.6562 14.5 45.3125 14.8438 45.3125 15.2812C45.3125 18.4375 43.7656 21.3906 41.2031 23.2188C39.5727 24.3595 37.6305 24.9706 35.6406 24.9688C35.2031 24.9688 34.8594 25.3125 34.8594 25.75Z" fill="#2F4157"/>
<path d="M10.1562 23.5734L11.525 25H22.5719C32.6391 25 40.6719 33.5734 40.6719 43.9687V44.9531C40.6719 46.8172 39.2156 48.4688 37.2531 48.4688H25.9125C15.8438 48.4688 7.8125 39.8953 7.8125 29.5V20.5156C7.8125 19.875 8.34375 19.3438 8.98438 19.3438C9.625 19.3438 10.1562 19.875 10.1562 20.5156V23.5734ZM25.9125 45.3438H37.2531C37.2874 45.3425 37.321 45.3342 37.3519 45.3195C37.3828 45.3047 37.4103 45.2837 37.4328 45.2578C37.5086 45.1747 37.5494 45.0656 37.5469 44.9531V43.9687C37.5469 35.1453 30.7656 28.125 22.5719 28.125H11.1687C11.3604 28.3052 11.575 28.4615 11.8125 28.5937L30.4062 38.75C30.9687 39.0625 31.1875 39.7656 30.875 40.3438C30.6719 40.7344 30.2656 40.9531 29.8594 40.9531C29.6719 40.9531 29.4844 40.9062 29.2969 40.8125L10.9875 30.8125C11.6203 39.0094 18.1312 45.3438 25.9125 45.3438ZM43.75 3.95312C43.75 3.51562 43.3906 3.15625 42.9531 3.15625C42.5156 3.15625 42.1562 3.51562 42.1562 3.95312V6.64375L41.6609 7.03125H33.8797C27.125 7.03125 21.7344 12.9453 21.7344 19.8438V20.5156C21.7344 21.6531 22.6281 22.625 23.7953 22.625H31.6063C38.3406 22.625 43.75 16.9656 43.75 10.0469V3.95312ZM41.8766 8.59375C41.6813 8.94062 41.3906 9.23438 41.0312 9.4375L28.4062 16.3281C28.0156 16.5312 27.875 17.0156 28.0938 17.4063C28.1944 17.5915 28.3639 17.7298 28.5656 17.7912C28.7673 17.8525 28.9851 17.8322 29.1719 17.7344L41.7969 10.8438C41.9267 10.7696 42.0529 10.6893 42.175 10.6031C41.8953 16.4547 37.2453 21.0625 31.6063 21.0625H23.7937C23.5469 21.0625 23.2969 20.8469 23.2969 20.5156V19.8438C23.2969 13.7109 28.0812 8.59375 33.8781 8.59375H41.8766Z" fill="#2F4157"/>
</svg>
