<svg width="50" height="50" viewBox="0 0 50 50" fill="none" xmlns="http://www.w3.org/2000/svg">
<path d="M25.6099 7.53003C25.423 7.5297 25.2384 7.5713 25.0696 7.65177C24.9009 7.73225 24.7523 7.84955 24.6349 7.99503L24.4124 8.16003C20.0999 6.82503 15.1799 7.80503 11.7549 11.105C10.3203 12.4657 9.25304 14.1671 8.65247 16.051C8.0519 17.9349 7.93751 19.9401 8.31994 21.88L8.19494 21.995L6.24744 23.87C5.87072 24.2274 5.5707 24.6578 5.36568 25.1348C5.16066 25.6119 5.05493 26.1258 5.05493 26.645C5.05493 27.1643 5.16066 27.6781 5.36568 28.1552C5.5707 28.6323 5.87072 29.0627 6.24744 29.42C7.24244 30.38 8.62244 30.74 9.90494 30.5C10.0624 31.2225 10.4299 31.91 11.0124 32.47C11.7799 33.21 12.7774 33.5925 13.7824 33.62C13.8099 34.5875 14.2074 35.5475 14.9749 36.2875C15.7424 37.0275 16.7424 37.4125 17.7474 37.4375C17.7724 38.405 18.1724 39.3675 18.9399 40.1075C19.6747 40.8048 20.6372 41.2124 21.6493 41.2546C22.6614 41.2969 23.6546 40.9711 24.4449 40.3375L25.5374 41.3875C27.1374 42.93 29.7324 42.93 31.3324 41.3875C32.0974 40.6525 32.4949 39.6975 32.5299 38.7325C33.5299 38.7025 34.5174 38.32 35.2799 37.585C36.0424 36.85 36.4424 35.8925 36.4724 34.9275C37.4882 34.8907 38.4552 34.4824 39.1899 33.78C39.7974 33.1975 40.1724 32.475 40.3174 31.72C40.9609 31.8327 41.6219 31.7927 42.2471 31.6034C42.8724 31.4141 43.4445 31.0807 43.9174 30.63C44.2946 30.2726 44.5949 29.8421 44.8002 29.3648C45.0054 28.8875 45.1113 28.3734 45.1113 27.8538C45.1113 27.3342 45.0054 26.8201 44.8002 26.3428C44.5949 25.8654 44.2946 25.4349 43.9174 25.0775L42.1174 23.345L42.4849 21.97C43.2257 19.1588 42.8494 16.1699 41.4349 13.63C39.3449 9.86503 35.2899 7.54003 30.9049 7.54003H27.8299L27.4324 7.53003H25.6099ZM31.7424 16.82L37.7549 22.6125L37.7624 22.6175L42.1149 26.8125C42.2563 26.9466 42.3689 27.1081 42.4459 27.2871C42.5228 27.4661 42.5625 27.6589 42.5625 27.8538C42.5625 28.0486 42.5228 28.2414 42.4459 28.4205C42.3689 28.5995 42.2563 28.761 42.1149 28.895C41.8226 29.171 41.4357 29.3248 41.0337 29.3248C40.6316 29.3248 40.2448 29.171 39.9524 28.895L36.6499 25.715C36.4079 25.4828 36.0854 25.3531 35.7499 25.3531C35.4145 25.3531 35.092 25.4828 34.8499 25.715L34.8149 25.745C34.6977 25.8571 34.6044 25.9917 34.5407 26.1408C34.4769 26.2899 34.4441 26.4504 34.4441 26.6125C34.4441 26.7747 34.4769 26.9352 34.5407 27.0843C34.6044 27.2334 34.6977 27.368 34.8149 27.48L37.3899 29.96C37.9899 30.535 37.9899 31.47 37.3899 32.0475C37.1244 32.2991 36.7796 32.4505 36.4146 32.4756C36.0497 32.5007 35.6874 32.3979 35.3899 32.185C35.1417 32.0057 34.8384 31.919 34.5329 31.94C34.2273 31.961 33.9388 32.0884 33.7174 32.3C33.5011 32.5069 33.3705 32.7876 33.3515 33.0863C33.3325 33.385 33.4265 33.6799 33.6149 33.9125C33.8394 34.1936 33.95 34.5488 33.925 34.9076C33.9 35.2664 33.7412 35.6028 33.4799 35.85C33.2106 36.1054 32.8598 36.2575 32.4893 36.2794C32.1188 36.3014 31.7525 36.1918 31.4549 35.97C31.2079 35.7847 30.9034 35.6927 30.5951 35.71C30.2868 35.7274 29.9946 35.8531 29.7699 36.065C29.5508 36.2716 29.4179 36.5534 29.3979 36.8539C29.378 37.1544 29.4725 37.4513 29.6624 37.685C29.8932 37.9694 30.0079 38.3306 29.9833 38.6961C29.9587 39.0615 29.7968 39.4041 29.5299 39.655C29.234 39.9359 28.8416 40.0924 28.4337 40.0924C28.0257 40.0924 27.6333 39.9359 27.3374 39.655L26.2549 38.6125L26.6499 38.2325C27.0271 37.8751 27.3274 37.4446 27.5327 36.9673C27.7379 36.49 27.8438 35.9759 27.8438 35.4563C27.8438 34.9367 27.7379 34.4226 27.5327 33.9453C27.3274 33.4679 27.0271 33.0374 26.6499 32.68C25.9023 31.9648 24.9144 31.5546 23.8799 31.53C23.8491 30.5178 23.4206 29.5586 22.6874 28.86C21.9387 28.1451 20.9499 27.7358 19.9149 27.7125C19.8841 26.7003 19.4556 25.7411 18.7224 25.0425C18.2422 24.5854 17.6599 24.2492 17.0239 24.0619C16.3879 23.8745 15.7163 23.8413 15.0649 23.965C14.8997 23.2129 14.5142 22.5271 13.9574 21.995C13.5308 21.587 13.0219 21.2747 12.4649 21.0789C11.9079 20.8832 11.3156 20.8086 10.7274 20.86C10.5309 19.3951 10.6845 17.9044 11.1755 16.5103C11.6666 15.1162 12.4812 13.8584 13.5524 12.84C14.6352 11.8054 15.9335 11.0231 17.3542 10.5494C18.7749 10.0757 20.2829 9.92221 21.7699 10.1L18.1324 12.775C17.667 13.1132 17.275 13.5422 16.98 14.0361C16.685 14.53 16.4931 15.0786 16.416 15.6487C16.3389 16.2188 16.3782 16.7986 16.5314 17.3531C16.6846 17.9077 16.9486 18.4254 17.3074 18.875C18.0336 19.7845 19.0822 20.3792 20.2354 20.5357C21.3886 20.6921 22.5578 20.3982 23.4999 19.715L27.4399 16.8225L31.7424 16.82ZM19.6124 14.7875L26.0924 10.03H27.4324C27.555 10.0289 27.6776 10.0322 27.7999 10.04H30.9049C34.4149 10.04 37.6174 11.9025 39.2499 14.845C40.3549 16.835 40.6449 19.1475 40.0674 21.33L40.0599 21.355L33.1599 14.6875C32.9261 14.4529 32.6087 14.3208 32.2774 14.32H27.0274C26.7621 14.3205 26.5038 14.4055 26.2899 14.5625L22.0199 17.6975C21.6003 17.9973 21.0821 18.1256 20.5711 18.0564C20.0601 17.9872 19.5947 17.7256 19.2699 17.325C19.1188 17.1388 19.0073 16.9236 18.9424 16.6927C18.8776 16.4617 18.8606 16.22 18.8927 15.9823C18.9248 15.7445 19.0052 15.5159 19.129 15.3104C19.2528 15.105 19.4173 14.927 19.6124 14.7875ZM20.7174 36.3125L20.7424 36.2875L22.6874 34.4125L22.7099 34.3925C23.0039 34.126 23.3876 33.9803 23.7843 33.9845C24.1811 33.9887 24.5617 34.1424 24.8499 34.415C24.9913 34.5491 25.1039 34.7106 25.1809 34.8896C25.2578 35.0686 25.2975 35.2614 25.2975 35.4563C25.2975 35.6511 25.2578 35.8439 25.1809 36.023C25.1039 36.202 24.9913 36.3635 24.8499 36.4975L22.9024 38.3725C22.6101 38.6486 22.2233 38.8023 21.8212 38.8023C21.4191 38.8023 21.0323 38.6486 20.7399 38.3725C20.6004 38.2404 20.4888 38.0817 20.4118 37.9057C20.3348 37.7296 20.2939 37.5399 20.2916 37.3478C20.2892 37.1557 20.3255 36.9651 20.3982 36.7872C20.471 36.6094 20.5812 36.448 20.7174 36.3125ZM20.9074 32.6575L20.8824 32.68L18.9374 34.555L18.9124 34.5775C18.6183 34.843 18.235 34.9878 17.8388 34.9832C17.4426 34.9785 17.0628 34.8248 16.7749 34.5525C16.6351 34.4199 16.5235 34.2604 16.4467 34.0836C16.3698 33.9069 16.3294 33.7165 16.3277 33.5237C16.3261 33.331 16.3633 33.1399 16.4371 32.9619C16.511 32.7839 16.6199 32.6225 16.7574 32.4875L16.7749 32.47L18.7199 30.595L18.7374 30.5775C19.0311 30.3089 19.4155 30.1614 19.8134 30.1647C20.2113 30.1679 20.5932 30.3217 20.8824 30.595C21.0224 30.7272 21.1343 30.8861 21.2115 31.0623C21.2888 31.2386 21.3298 31.4286 21.3321 31.621C21.3344 31.8134 21.2981 32.0043 21.2251 32.1824C21.1521 32.3605 21.0441 32.5221 20.9074 32.6575ZM16.9199 28.86L14.9724 30.735L14.9549 30.7525C14.6613 31.0211 14.2769 31.1686 13.879 31.1654C13.4811 31.1621 13.0991 31.0084 12.8099 30.735C12.6686 30.601 12.556 30.4395 12.479 30.2605C12.4021 30.0814 12.3624 29.8886 12.3624 29.6938C12.3624 29.4989 12.4021 29.3061 12.479 29.1271C12.556 28.9481 12.6686 28.7866 12.8099 28.6525L14.7549 26.7775C15.0474 26.5008 15.4348 26.3466 15.8374 26.3466C16.2401 26.3466 16.6275 26.5008 16.9199 26.7775C17.0601 26.9102 17.1721 27.0698 17.2492 27.2468C17.3262 27.4238 17.3668 27.6145 17.3684 27.8076C17.3701 28.0006 17.3327 28.192 17.2587 28.3702C17.1846 28.5485 17.0754 28.71 16.9374 28.845L16.9199 28.86ZM12.1549 25.8125L10.2099 27.6875C9.91746 27.9643 9.5301 28.1185 9.12744 28.1185C8.72479 28.1185 8.33742 27.9643 8.04494 27.6875C7.90316 27.5534 7.79023 27.3918 7.71305 27.2125C7.63586 27.0333 7.59606 26.8402 7.59606 26.645C7.59606 26.4499 7.63586 26.2568 7.71305 26.0775C7.79023 25.8983 7.90316 25.7366 8.04494 25.6025L9.99244 23.7275C10.2848 23.4515 10.6716 23.2977 11.0737 23.2977C11.4758 23.2977 11.8626 23.4515 12.1549 23.7275C12.2967 23.8616 12.4097 24.0233 12.4868 24.2025C12.564 24.3818 12.6038 24.5749 12.6038 24.77C12.6038 24.9652 12.564 25.1583 12.4868 25.3375C12.4097 25.5168 12.2967 25.6784 12.1549 25.8125Z" fill="#2B3C50"/>
</svg>
