<svg width="40" height="191" viewBox="0 0 40 191" fill="none" xmlns="http://www.w3.org/2000/svg">
<circle cx="20" cy="20" r="20" fill="#62A1A4"/>
<path d="M30.4168 19.9999C30.4168 25.7529 25.7531 30.4166 20.0002 30.4166M30.4168 19.9999C30.4168 14.247 25.7531 9.58325 20.0002 9.58325M30.4168 19.9999H9.5835M20.0002 30.4166C14.2472 30.4166 9.5835 25.7529 9.5835 19.9999M20.0002 30.4166C22.6057 27.5641 24.0864 23.8624 24.1668 19.9999C24.0864 16.1375 22.6057 12.4357 20.0002 9.58325M20.0002 30.4166C17.3947 27.5641 15.914 23.8624 15.8335 19.9999C15.914 16.1375 17.3947 12.4357 20.0002 9.58325M9.5835 19.9999C9.5835 14.247 14.2472 9.58325 20.0002 9.58325" stroke="white" stroke-width="1.5" stroke-linecap="round"/>
<circle cx="20" cy="171" r="20" fill="#62A1A4"/>
<path d="M20 165.792V171L23.125 174.125M29.375 171C29.375 176.178 25.1777 180.375 20 180.375C14.8223 180.375 10.625 176.178 10.625 171C10.625 165.822 14.8223 161.625 20 161.625C25.1777 161.625 29.375 165.822 29.375 171Z" stroke="white" stroke-width="1.5" stroke-linecap="round" stroke-linejoin="round"/>
<circle cx="20" cy="70" r="20" fill="#62A1A4"/>
<path d="M10.625 70.5207C15.6167 73.4965 23.3929 73.3045 29.3445 70.5207M13.5096 64.7915H26.4904C28.125 64.7915 29.375 65.9891 29.375 67.5551V75.5696C29.375 77.1356 28.125 78.3332 26.4904 78.3332H13.5096C11.875 78.3332 10.625 77.1356 10.625 75.5696V67.5551C10.625 65.9891 11.875 64.7915 13.5096 64.7915ZM17.943 61.6665H22.057C23.2173 61.6665 24.1667 62.604 24.1667 63.7498V64.7915H15.8333V63.7498C15.8333 62.604 16.7827 61.6665 17.943 61.6665ZM21.0417 67.9165C21.0417 68.4918 20.5753 68.9582 20 68.9582C19.4247 68.9582 18.9583 68.4918 18.9583 67.9165C18.9583 67.3412 19.4247 66.8748 20 66.8748C20.5753 66.8748 21.0417 67.3412 21.0417 67.9165Z" stroke="white" stroke-width="1.5" stroke-miterlimit="10" stroke-linecap="round"/>
<circle cx="20" cy="120" r="20" fill="#62A1A4"/>
<path d="M15.4047 122.863C14.9452 115.87 18.3153 111.791 20.0003 110.625C21.6854 111.791 25.0555 115.87 24.5959 122.863M15.4047 122.863C14.3324 123.446 11.667 125.179 11.667 129.375L15.7372 127.343M15.4047 122.863C15.4962 124.254 15.6182 126.033 15.7372 127.343M15.7372 127.343C15.7805 127.819 15.8234 128.234 15.8643 128.545L20.0003 127.933L24.1364 128.545C24.1772 128.234 24.2201 127.819 24.2634 127.343M24.5959 122.863C25.6682 123.446 28.3337 125.179 28.3337 129.375L24.2634 127.343M24.5959 122.863C24.5045 124.254 24.3824 126.033 24.2634 127.343M21.379 118.929C21.379 119.653 20.7617 120.24 20.0003 120.24C19.2389 120.24 18.6216 119.653 18.6216 118.929C18.6216 118.205 19.2389 117.618 20.0003 117.618C20.7617 117.618 21.379 118.205 21.379 118.929Z" stroke="white" stroke-width="1.5" stroke-linecap="round"/>
</svg>
