<svg width="50" height="50" viewBox="0 0 50 50" fill="none" xmlns="http://www.w3.org/2000/svg">
<path d="M16.6667 43.75H33.3333M25 35.4167V43.75M25 35.4167C27.7627 35.4167 30.4122 34.3192 32.3657 32.3657C34.3192 30.4122 35.4167 27.7627 35.4167 25V8.33337H14.5833V25C14.5833 27.7627 15.6808 30.4122 17.6343 32.3657C19.5878 34.3192 22.2373 35.4167 25 35.4167ZM6.25 18.75C6.25 19.8551 6.68899 20.9149 7.47039 21.6963C8.25179 22.4777 9.3116 22.9167 10.4167 22.9167C11.5217 22.9167 12.5815 22.4777 13.3629 21.6963C14.1443 20.9149 14.5833 19.8551 14.5833 18.75C14.5833 17.645 14.1443 16.5852 13.3629 15.8038C12.5815 15.0224 11.5217 14.5834 10.4167 14.5834C9.3116 14.5834 8.25179 15.0224 7.47039 15.8038C6.68899 16.5852 6.25 17.645 6.25 18.75ZM35.4167 18.75C35.4167 19.8551 35.8557 20.9149 36.6371 21.6963C37.4185 22.4777 38.4783 22.9167 39.5833 22.9167C40.6884 22.9167 41.7482 22.4777 42.5296 21.6963C43.311 20.9149 43.75 19.8551 43.75 18.75C43.75 17.645 43.311 16.5852 42.5296 15.8038C41.7482 15.0224 40.6884 14.5834 39.5833 14.5834C38.4783 14.5834 37.4185 15.0224 36.6371 15.8038C35.8557 16.5852 35.4167 17.645 35.4167 18.75Z" stroke="#2F4157" stroke-width="1.5" stroke-linecap="round" stroke-linejoin="round"/>
</svg>
