<svg width="50" height="50" viewBox="0 0 50 50" fill="none" xmlns="http://www.w3.org/2000/svg">
<path d="M16.6667 39.5833H10.4167C9.3116 39.5833 8.25179 39.1443 7.47039 38.3629C6.68899 37.5815 6.25 36.5217 6.25 35.4166V14.5833C6.25 13.4782 6.68899 12.4184 7.47039 11.637C8.25179 10.8556 9.3116 10.4166 10.4167 10.4166H39.5833C40.6884 10.4166 41.7482 10.8556 42.5296 11.637C43.311 12.4184 43.75 13.4782 43.75 14.5833V37.5C43.75 38.0525 43.5305 38.5824 43.1398 38.9731C42.7491 39.3638 42.2192 39.5833 41.6667 39.5833" stroke="#2F4157" stroke-width="1.5" stroke-linecap="round" stroke-linejoin="round"/>
<path d="M35.4167 39.5833C35.4167 38.4783 34.9778 37.4185 34.1964 36.6371C33.415 35.8557 32.3551 35.4167 31.2501 35.4167H27.0834C25.9783 35.4167 24.9185 35.8557 24.1371 36.6371C23.3557 37.4185 22.9167 38.4783 22.9167 39.5833M25.0001 29.1667C25.0002 29.714 25.1082 30.2559 25.3177 30.7615C25.5273 31.2671 25.8344 31.7265 26.2215 32.1134C26.6086 32.5003 27.0681 32.8072 27.5738 33.0165C28.0795 33.2258 28.6215 33.3335 29.1688 33.3333C29.7161 33.3332 30.2581 33.2253 30.7637 33.0157C31.2693 32.8061 31.7286 32.499 32.1155 32.1119C32.5025 31.7248 32.8093 31.2653 33.0186 30.7596C33.228 30.2539 33.3356 29.7119 33.3355 29.1646C33.3352 28.0592 32.8959 26.9993 32.1141 26.2179C31.3323 25.4365 30.2721 24.9976 29.1667 24.9979C28.0614 24.9982 27.0014 25.4376 26.22 26.2194C25.4386 27.0011 24.9998 28.0613 25.0001 29.1667Z" stroke="#2F4157" stroke-width="1.5" stroke-linecap="round" stroke-linejoin="round"/>
</svg>
