<svg width="240" height="175" viewBox="0 0 240 175" fill="none" xmlns="http://www.w3.org/2000/svg">
<path d="M76.6586 94.4789C76.8402 95.2791 77.3227 95.9427 77.6602 96.4622C78.2559 97.3815 78.831 98.1301 79.6327 99.0561C79.7282 99.1662 80.6133 100.103 80.7039 100.19C82.2803 101.697 83.3517 102.309 85.1746 103.362C85.7768 103.71 86.2041 104.276 86.7461 104.664C86.8261 104.721 86.9414 104.81 87.0306 104.874C86.7793 104.947 86.5266 105.021 86.2746 105.091C86.2647 105.093 86.2442 105.084 86.2371 105.082C86.1982 105.076 86.1925 105.071 86.1522 105.062C86.1111 105.051 86.1239 105.054 86.0531 105.041C85.9823 105.028 85.8281 105 85.7262 104.982C85.6497 104.968 85.5294 104.946 85.4452 104.932C85.3404 104.957 85.2166 104.985 85.1168 105.006C84.9887 105.032 84.8514 105.061 84.7381 105.097C84.6249 105.132 84.5286 105.187 84.4359 105.23C84.3191 105.284 84.2589 105.322 84.1336 105.351C84.0961 105.359 84.0798 105.343 84.0098 105.347C83.9843 105.348 84.0239 105.371 83.9071 105.365C83.3777 105.34 82.8023 105.483 82.3345 105.6C82.0995 105.659 81.9855 105.886 81.7958 105.934C81.7391 105.949 81.7462 105.966 81.7059 105.985C81.6655 106.005 81.6478 106.027 81.6103 106.047C81.5862 106.033 81.5494 106.014 81.5275 106.003C81.4143 105.945 81.3223 105.911 81.2034 105.861C81.052 105.798 80.9168 105.747 80.7618 105.654C80.6069 105.562 80.4328 105.435 80.2757 105.318C80.1547 105.228 80.0252 105.138 79.8936 105.043C79.8738 105.028 79.8455 104.954 79.8108 104.936C79.7988 104.929 79.7839 104.924 79.7627 104.914C79.7415 104.903 79.704 104.897 79.6742 104.914C79.6714 104.916 79.6226 104.919 79.6126 104.927C79.5695 104.957 79.5334 104.962 79.5227 105.031C79.5192 105.052 79.4767 105.148 79.4682 105.182C79.4597 105.216 79.3733 105.4 79.369 105.435C79.3648 105.471 79.3754 105.482 79.3789 105.5C79.3832 105.519 79.3931 105.524 79.403 105.53C79.6634 105.675 80.054 105.827 80.2833 105.976C80.5642 106.159 81.0731 106.265 81.2762 106.384C81.4792 106.503 81.4679 106.488 81.5946 106.52C81.7213 106.551 81.7057 106.529 81.8133 106.553C81.9209 106.577 82.1296 106.734 82.2627 106.721C82.3377 106.713 82.3242 106.727 82.4729 106.705C82.7468 106.665 82.9874 106.749 83.2868 106.672C83.3569 106.653 83.3377 106.663 83.4014 106.649C83.6074 106.606 83.7568 106.478 83.9684 106.405C84.0569 106.375 84.311 106.232 84.3981 106.178C84.4859 106.125 84.5828 106.067 84.6784 106.023C84.6862 106.02 84.701 106.011 84.7117 106.009C84.7216 106.008 84.7364 106.008 84.7463 106.008C84.9233 106.007 85.0931 106.007 85.2701 106.006C85.3812 106.005 85.4859 106.005 85.6048 106.004C85.6466 106.003 85.6947 106.004 85.7443 106.038C85.7598 106.049 85.8278 106.102 85.8554 106.111C85.9226 106.134 85.9955 106.148 86.0627 106.167C86.1561 106.194 86.1802 106.223 86.2764 106.238C86.326 106.245 86.3783 106.247 86.4314 106.248C86.5156 106.374 86.5893 106.259 86.5659 106.419C86.6083 106.549 86.6401 106.69 86.611 106.819C86.6032 106.854 86.6117 106.857 86.6117 106.878C86.6124 106.992 86.611 107.082 86.5656 107.187C86.5593 107.201 86.5501 107.227 86.5359 107.239C86.5217 107.251 86.6498 107.382 86.4623 107.328C86.3979 107.309 86.2578 107.255 86.1863 107.263C86.0893 107.272 86.0206 107.31 85.9336 107.327C85.8699 107.339 85.8161 107.359 85.7545 107.375C85.7404 107.378 85.7241 107.387 85.7106 107.388C85.6972 107.389 85.6781 107.382 85.6682 107.379C85.637 107.372 85.6144 107.359 85.5889 107.344C85.5882 107.345 85.5861 107.345 85.5832 107.347C85.5655 107.356 85.5337 107.375 85.5075 107.393C85.4806 107.411 85.4353 107.441 85.4013 107.457C85.3673 107.473 85.3341 107.483 85.2966 107.491C85.2909 107.492 85.2895 107.494 85.2803 107.499C85.2095 107.539 85.133 107.579 85.0616 107.624C85.0276 107.646 84.9766 107.662 84.9483 107.692C84.9179 107.725 84.9108 107.774 84.8768 107.809C84.8435 107.844 84.8046 107.88 84.7649 107.908C84.7557 107.915 84.7501 107.919 84.7402 107.926C84.6934 107.957 84.6531 107.964 84.5951 107.969C84.5844 107.969 84.5533 107.983 84.542 107.994C84.5306 108.006 84.5328 108.014 84.5228 108.034C84.491 108.096 84.4683 108.151 84.423 108.215C84.3784 108.279 84.3019 108.364 84.246 108.423C84.1901 108.481 84.1249 108.555 84.0839 108.611C84.0605 108.643 84.0549 108.662 84.0414 108.679C84.0046 108.725 84.0067 108.811 83.9628 108.848C83.6633 109.108 83.547 109.913 83.5477 110.168C83.5483 110.522 83.6063 110.502 83.6537 110.707C83.7145 110.972 83.9438 111.093 84.0265 111.272C84.0732 111.373 84.0329 111.329 84.0548 111.374C84.0767 111.419 84.0824 111.411 84.0881 111.419C84.1397 111.512 84.1447 111.468 84.1949 111.596C84.2451 111.724 84.2055 111.73 84.2762 111.882C83.6951 111.863 83.3695 111.945 82.7333 111.922C82.2867 111.906 81.4855 112.04 80.9773 112.078C80.2851 112.131 79.5568 112.191 78.9178 112.146C78.3233 112.104 77.8838 111.768 77.3637 111.683C77.2009 111.656 77.1768 111.831 77.1039 111.936C77.0954 111.949 77.2644 112.411 77.2899 112.438C77.3995 112.555 77.4696 112.636 77.6118 112.675C77.9083 112.757 77.8687 112.701 78.1638 112.789C78.2502 112.814 78.7541 112.678 78.8546 112.692C79.2262 112.743 78.9077 112.659 79.4647 112.685C79.791 112.7 80.9262 112.743 81.4811 112.758C82.1173 112.775 83.4486 112.663 83.9745 112.69C84.5421 112.72 84.8067 112.897 84.818 112.914C84.8506 112.962 84.9525 113.113 85.0069 113.177C85.026 113.194 85.0536 113.217 85.0826 113.242C85.1053 113.273 85.1265 113.301 85.1442 113.321C85.2058 113.378 85.3494 113.485 85.3968 113.518C85.4131 113.529 85.5822 113.806 85.6103 114.399C85.6363 114.949 85.5277 116.338 85.5438 117.002C85.5578 117.581 85.5985 118.766 85.6133 119.107C85.6379 119.688 85.5573 119.356 85.606 119.744C85.6194 119.849 85.4876 120.375 85.5124 120.465C85.5965 120.773 85.5427 120.731 85.6212 121.041C85.6587 121.19 85.7358 121.263 85.8483 121.377C85.8738 121.404 86.3168 121.581 86.3288 121.572C86.43 121.496 86.5971 121.471 86.5716 121.301C86.4911 120.758 86.1692 120.299 86.129 119.678C86.0861 119.011 86.1436 118.251 86.1947 117.528C86.2317 116.998 86.3607 116.161 86.346 115.695C86.325 115.032 86.4029 114.692 86.3847 114.084C86.5312 114.158 86.5375 114.117 86.6585 114.169C86.781 114.222 86.7392 114.227 86.8277 114.281C86.8369 114.286 86.8277 114.293 86.8708 114.316C86.914 114.339 86.8723 114.297 86.9685 114.345C87.1405 114.432 87.2565 114.671 87.5098 114.735C87.7051 114.784 87.6867 114.844 88.0264 114.846C88.2706 114.847 89.0428 114.725 89.2906 114.413C89.3267 114.368 89.4088 114.37 89.4527 114.331C89.469 114.317 89.4874 114.311 89.5178 114.287C89.5716 114.244 89.6424 114.176 89.6983 114.118C89.7543 114.059 89.8364 113.98 89.898 113.933C89.9596 113.887 90.0119 113.863 90.0714 113.829C90.0891 113.819 90.0969 113.822 90.1089 113.809C90.1202 113.797 90.133 113.765 90.1337 113.754C90.138 113.693 90.1443 113.651 90.1741 113.602C90.1798 113.592 90.1847 113.587 90.1918 113.576C90.2187 113.535 90.2534 113.494 90.2867 113.46C90.3199 113.425 90.3666 113.418 90.3992 113.385C90.4282 113.356 90.4438 113.303 90.4644 113.267C90.5083 113.193 90.5458 113.112 90.584 113.039C90.589 113.029 90.5904 113.028 90.5918 113.022C90.5996 112.982 90.6088 112.948 90.6244 112.912C90.64 112.877 90.6676 112.83 90.6853 112.801C90.7023 112.773 90.7207 112.741 90.7299 112.722C90.732 112.719 90.732 112.717 90.7327 112.717C90.7179 112.689 90.7059 112.666 90.6988 112.634C90.6967 112.623 90.6896 112.603 90.6903 112.589C90.691 112.575 90.6995 112.558 90.7031 112.544C90.7179 112.479 90.7371 112.424 90.7491 112.357C90.7654 112.266 90.8015 112.194 90.8108 112.093C90.8179 112.018 90.7655 111.871 90.7486 111.805C90.6963 111.608 90.8222 111.743 90.8335 111.728C90.8448 111.713 90.8696 111.704 90.8831 111.697C90.9836 111.65 91.0692 111.648 91.1796 111.649C91.1994 111.649 91.2023 111.658 91.2355 111.65C91.3601 111.619 91.4946 111.653 91.6191 111.697C91.7727 111.673 91.6616 111.749 91.7833 111.838C91.7833 111.892 91.7854 111.948 91.7924 111.999C91.8066 112.1 91.8356 112.124 91.8603 112.223C91.8787 112.292 91.8914 112.369 91.9133 112.439C91.9225 112.468 91.9728 112.54 91.9834 112.555C92.0166 112.608 92.0173 112.657 92.0166 112.701C92.0152 112.825 92.0151 112.933 92.0144 113.05C92.0136 113.236 92.0129 113.412 92.0114 113.597C92.0114 113.606 92.0128 113.622 92.0107 113.633C92.0093 113.643 92.0015 113.659 91.9972 113.668C91.954 113.767 91.8995 113.869 91.8485 113.96C91.7975 114.052 91.6595 114.317 91.6311 114.409C91.5617 114.63 91.4385 114.785 91.3967 115C91.3839 115.067 91.3924 115.046 91.3754 115.12C91.301 115.433 91.3816 115.684 91.3426 115.97C91.3214 116.123 91.3348 116.111 91.3277 116.189C91.3142 116.327 91.4656 116.546 91.4882 116.658C91.5109 116.771 91.4889 116.754 91.52 116.887C91.5504 117.019 91.5363 117.007 91.6502 117.219C91.764 117.431 91.8644 117.963 92.0398 118.256C92.1834 118.496 92.3284 118.903 92.4671 119.175C92.4727 119.186 92.4763 119.197 92.4954 119.2C92.5138 119.205 92.5237 119.215 92.5576 119.211C92.5916 119.206 92.7665 119.115 92.7997 119.107C92.8323 119.098 92.9236 119.053 92.9448 119.05C93.0107 119.039 93.0156 119.002 93.0446 118.957C93.051 118.947 93.0539 118.895 93.0567 118.892C93.0737 118.861 93.0666 118.823 93.0574 118.8C93.0475 118.778 93.0426 118.762 93.0362 118.75C93.0185 118.714 92.9478 118.684 92.9336 118.663C92.8438 118.527 92.756 118.391 92.6704 118.264C92.5587 118.1 92.437 117.918 92.3486 117.757C92.2601 117.595 92.212 117.453 92.1505 117.295C92.1024 117.171 92.0692 117.076 92.0147 116.957C92.0034 116.933 91.9857 116.896 91.973 116.871C91.9921 116.831 92.0133 116.812 92.0318 116.771C92.0509 116.729 92.0672 116.735 92.0806 116.677C92.1274 116.479 92.3447 116.36 92.4014 116.115C92.5133 115.627 92.6501 115.025 92.6269 114.473C92.622 114.351 92.6425 114.393 92.6446 114.366C92.6482 114.293 92.6333 114.276 92.6411 114.237C92.6681 114.107 92.7042 114.044 92.7566 113.921C92.7976 113.825 92.85 113.723 92.8848 113.606C92.9188 113.488 92.9471 113.344 92.9719 113.211C92.9918 113.106 93.018 112.976 93.0428 112.868C93.0294 112.78 93.0075 112.655 92.9955 112.575C92.9785 112.468 92.9524 112.308 92.9389 112.233C92.9262 112.159 92.929 112.173 92.9191 112.13C92.9092 112.087 92.905 112.081 92.8994 112.041C92.8979 112.034 92.8894 112.012 92.8916 112.002C92.9589 111.738 93.0297 111.475 93.0999 111.213C93.1607 111.306 93.2463 111.426 93.3008 111.51C93.6715 112.076 94.2135 112.522 94.5467 113.151C95.554 115.055 96.1397 116.174 97.583 117.82C97.6665 117.915 98.563 118.839 98.6684 118.939C99.555 119.776 100.272 120.377 101.152 121C101.649 121.351 102.285 121.856 103.051 122.046C104.001 122.281 104.521 122.017 104.919 121.322C105.186 120.857 105.304 120.074 105.303 120.073C105.305 120.022 105.319 119.96 105.314 119.9C105.207 118.524 104.739 117.258 103.95 116.14C103.913 116.088 103.866 115.987 103.967 115.893C104.067 115.798 104.277 115.85 104.471 115.752C104.666 115.654 104.701 115.514 104.73 115.329C104.714 114.369 104.426 114.231 104.284 113.682C103.981 112.971 103.652 112.496 103.072 111.974C102.782 111.712 102.373 111.405 102.107 111.088C101.359 110.632 99.6519 109.572 98.8842 109.159C98.916 109.021 99.5332 109.142 99.5884 109.005C100.032 108.883 101.192 109.249 101.564 109.184C101.937 109.119 101.922 108.799 102.245 108.767C102.969 109.071 104.584 109.947 105.133 110.169C105.681 110.392 105.356 110.295 105.658 110.42C105.847 110.498 105.731 110.427 105.878 110.402C105.872 110.355 105.888 110.223 105.896 110.181C105.904 110.139 106.005 109.666 106.011 109.622C105.962 109.555 105.899 109.564 105.816 109.551C105.644 109.526 105.489 109.507 105.322 109.484C105.11 109.363 104.897 109.241 104.685 109.119C104.665 109.072 104.632 109.023 104.623 108.975C104.412 108.856 104.419 108.773 104.152 108.646C103.885 108.518 103.011 108.376 102.761 108.279C102.512 108.182 102.689 108.28 102.527 108.223C102.477 108.164 102.376 108.108 102.33 108.042C102.142 108.033 102.332 107.99 102.066 107.986C101.8 107.981 101.603 107.906 101.142 107.946C100.681 107.985 99.782 107.643 99.1818 107.711C98.5816 107.78 98.5944 107.792 97.9708 107.797C97.9369 107.75 97.1379 107.622 97.1202 107.574C97.0197 107.537 96.9263 107.447 96.777 107.397C96.6276 107.348 96.4635 107.045 96.2541 106.883C95.8953 106.606 96.0489 106.541 96.1898 106.518C96.371 106.488 96.7772 106.577 96.8005 106.59C96.8968 106.644 96.9216 106.593 97.5705 106.803C97.7786 106.869 98.2903 106.752 98.4807 106.816C98.6045 106.858 98.7461 106.776 98.8501 106.794C98.8961 106.802 98.9174 106.804 98.957 106.808C98.9966 106.813 98.9945 106.809 99.0384 106.8C99.0823 106.791 99.3632 106.857 99.4163 106.864C99.4453 106.867 99.4786 106.877 99.509 106.891C99.6902 106.896 99.727 106.82 99.8969 106.829C100.122 106.84 100.792 106.738 100.959 106.741C101.096 106.744 101.109 106.733 101.167 106.721C101.271 106.699 101.281 106.682 101.358 106.678C102.34 105.996 103.047 105.494 104.1 104.751C104.747 104.295 105.684 103.824 106.413 103.302C106.421 103.296 106.446 103.276 106.454 103.273C106.462 103.271 106.486 103.268 106.495 103.266C106.959 103.207 107.433 103.136 107.893 103.102C108.218 103.078 108.493 103.139 108.822 103.143C108.957 103.145 109.327 102.861 109.377 102.668C109.38 102.658 109.378 102.552 109.374 102.543C109.349 102.488 109.293 102.355 109.27 102.334C109.174 102.244 109.111 102.207 109.015 102.139C108.757 102.184 108.43 102.278 108.18 102.272C107.909 102.266 107.608 102.252 107.388 102.291C107.167 102.329 107.078 102.329 106.889 102.345C106.702 102.362 106.661 102.396 106.465 102.476C106.318 102.536 105.776 102.421 105.549 102.506C105.191 102.641 105.046 102.607 104.612 102.903C104.217 103.171 104.05 103.391 103.412 103.731C102.814 104.05 101.861 104.997 101.858 105C101.579 105.284 101.332 105.83 101.317 105.746C101.289 105.597 100.908 105.632 100.675 105.651C100.37 105.675 100.279 105.775 99.9403 105.761C99.7415 105.753 99.423 105.818 99.2595 105.772C99.1392 105.738 99.0868 105.711 98.9608 105.692C98.8349 105.673 98.6678 105.656 98.5355 105.635C98.6466 105.554 98.8024 105.445 98.9064 105.372C99.0452 105.274 99.179 105.192 99.3064 105.113C99.4572 105.019 99.6101 104.924 99.7361 104.828C99.8621 104.732 99.913 104.672 100.023 104.566C100.133 104.46 100.198 104.387 100.338 104.273C100.55 104.1 100.821 103.889 101.056 103.704C101.1 103.669 101.895 102.601 102.214 102.154C102.615 101.592 103.059 100.987 103.386 100.423C103.714 99.8593 103.864 99.4589 104.12 98.8553C104.318 98.3906 104.6 97.377 104.665 96.9544C104.736 96.4949 104.725 96.3028 104.724 96.0036C104.723 95.4753 104.661 95.1399 104.6 94.6633C104.569 94.4306 104.47 94.217 104.398 94.0109C104.346 93.8601 104.292 93.7301 104.256 93.5963C104.234 93.5158 104.23 93.4981 104.211 93.4286C104.164 93.4145 104.141 93.4079 104.103 93.3968C104.093 93.3576 104.087 93.334 104.073 93.2837C104.006 93.2645 103.989 93.2601 103.912 93.2372C103.784 93.1994 103.66 93.1433 103.515 93.0885C103.317 93.0131 103.112 92.9089 102.89 92.8778C102.434 92.8134 102.112 92.7483 101.606 92.7474C101.321 92.7473 101.137 92.734 100.696 92.8085C100.29 92.8771 99.3196 93.1701 98.8744 93.3761C98.2954 93.6434 97.9124 93.7992 97.3723 94.1411C96.8322 94.4831 96.2524 94.9447 95.713 95.3642C95.2904 95.6928 94.2625 96.526 94.2278 96.5725C94.0508 96.8177 93.8483 97.0999 93.6827 97.3215C93.5729 97.4685 93.5028 97.5357 93.4016 97.6502C93.2996 97.7655 93.2423 97.8179 93.1503 97.9494C93.0582 98.0809 92.969 98.2404 92.8776 98.3978C92.8019 98.53 92.7233 98.6696 92.6291 98.8152C92.559 98.9237 92.4535 99.0855 92.377 99.2022C92.3566 99.0641 92.3396 98.8897 92.3227 98.7582C92.3043 98.6267 92.2788 98.572 92.2463 98.4464C92.2018 98.2757 92.2642 97.9432 92.2564 97.7356C92.2438 97.3824 92.3394 97.2872 92.3628 96.9687C92.3806 96.7257 92.4154 96.3274 92.2717 96.2986C92.1924 96.2823 92.7155 96.0246 92.9867 95.7343C92.9902 95.7306 93.8978 94.7364 94.203 94.1122C94.5288 93.4458 94.7404 93.2708 94.9975 92.8608C95.2807 92.4072 95.2482 92.2565 95.3778 91.882C95.46 91.6456 95.3497 91.0796 95.4078 90.9259C95.485 90.7213 95.5176 90.6799 95.5332 90.4834C95.5488 90.2869 95.5481 90.193 95.585 89.9625C95.6219 89.732 95.6099 89.418 95.6036 89.1365C95.598 88.875 95.6887 88.5337 95.732 88.264C95.6669 88.1635 95.6322 88.0977 95.5452 87.998C95.5247 87.9736 95.3973 87.9159 95.3449 87.8893C95.3364 87.8849 95.2338 87.8841 95.2246 87.8863C95.0413 87.9387 94.7694 88.3243 94.7701 88.4654C94.7735 88.809 94.8315 89.0957 94.808 89.4348C94.7761 89.9158 94.7066 90.4108 94.6505 90.8947C94.6491 90.9035 94.6463 90.9301 94.6434 90.9375C94.6413 90.9457 94.6215 90.9722 94.6165 90.9804C94.1152 91.7412 93.6641 92.7186 93.2265 93.3938C92.5142 94.4929 92.0335 95.2309 91.3792 96.2547C91.3757 96.3353 91.3587 96.3456 91.3381 96.4542C91.3254 96.5163 91.3162 96.5288 91.3182 96.6714C91.321 96.8458 91.2239 97.5454 91.2337 97.7804C91.2415 97.957 91.17 97.9961 91.1742 98.1853C91.1869 98.2163 91.1968 98.2518 91.2003 98.2821C91.2067 98.3389 91.2696 98.6308 91.2611 98.6766C91.2526 98.7224 91.249 98.7202 91.2533 98.7616C91.2575 98.8029 91.2582 98.8244 91.2667 98.8731C91.2843 98.9818 91.205 99.1295 91.2453 99.2588C91.3069 99.4576 91.1942 99.9917 91.2578 100.209C91.4579 100.887 91.4091 100.912 91.4614 101.013C91.4742 101.038 91.5583 101.461 91.5299 101.65C91.5079 101.798 91.4456 101.959 91.1796 101.583C91.0254 101.364 90.7352 101.193 90.6879 101.037C90.6405 100.881 90.5542 100.784 90.5188 100.679C90.4728 100.66 90.3506 99.826 90.3053 99.7905C90.3111 99.1403 90.3225 99.1536 90.3885 98.5264C90.4552 97.8999 90.127 96.9615 90.1647 96.4805C90.2023 95.9995 90.1309 95.7934 90.1267 95.5156C90.1225 95.2378 90.0814 95.4358 90.073 95.2392C90.01 95.1912 89.9556 95.087 89.9004 95.0338C89.8452 94.8653 89.9393 95.0493 89.8459 94.7892C89.7526 94.5291 89.6177 93.6151 89.496 93.3373C89.3736 93.0587 89.2951 93.0654 89.1805 92.8451C89.1345 92.8355 89.0885 92.8008 89.0425 92.7808C88.9265 92.5591 88.8098 92.3367 88.6938 92.115C88.6712 91.9407 88.6542 91.7781 88.6295 91.6001C88.6175 91.5136 88.626 91.4471 88.5616 91.3961C88.5199 91.4013 88.0662 91.5068 88.0265 91.5157C87.9862 91.5238 87.8595 91.5407 87.8149 91.5341C87.7901 91.6885 87.7222 91.5673 87.7971 91.7638C87.9181 92.0794 87.824 91.7402 88.0369 92.3129C88.2498 92.8855 89.0894 94.5725 89.3787 95.3284C89.3482 95.6646 89.0417 95.649 88.9786 96.0383C88.9162 96.4269 89.2669 97.6387 89.1493 98.1012C89.0177 98.1588 89.1335 98.8031 89.0012 98.8363C88.6058 98.0331 87.5914 96.2522 87.1556 95.4704C86.8521 95.1918 86.5578 94.7661 86.3073 94.4631C85.8078 93.8572 85.3528 93.5149 84.672 93.1971C84.1462 93.0484 84.014 92.7477 83.0946 92.7304C82.9169 92.7607 82.7832 92.7968 82.689 93C82.5948 93.2031 82.6443 93.4218 82.5537 93.5267C82.463 93.6316 82.3675 93.5821 82.3166 93.5436C81.246 92.7195 80.0337 92.2308 78.7159 92.1182C78.6579 92.1137 78.5991 92.1277 78.5503 92.1299C78.5496 92.1292 77.7987 92.2509 77.3534 92.5293C76.6873 92.9451 76.4338 93.4873 76.6586 94.4789ZM96.4387 114.776L95.282 113.278C94.7528 112.542 94.3949 111.665 93.7851 110.68C93.8559 110.635 93.9309 110.595 93.9982 110.549C94.9004 111.302 95.7354 111.793 96.5002 112.748C96.8064 113.597 97.2021 115.999 97.2021 115.999L96.4387 114.776ZM98.7715 114.775C98.5451 114.552 98.088 114.144 97.9019 113.978C97.7151 113.81 97.674 113.766 97.5722 113.68C97.4703 113.595 97.5113 113.652 97.4384 113.591C97.2389 113.188 97.1619 112.788 96.9157 112.381C96.6688 111.976 96.3483 111.796 96.0625 111.373C96.4962 111.673 96.8727 111.88 97.3878 112.257C97.903 112.634 98.4875 112.951 99.055 113.439C99.0797 113.622 99.0852 113.942 99.0852 113.942C99.0852 113.942 98.8154 114.672 98.7715 114.775ZM99.5489 113.748C100.143 114.238 101.235 115.082 101.75 115.6C101.768 115.618 101.852 115.706 101.875 115.731C102.279 116.175 102.55 116.734 102.55 116.734C102.55 116.734 101.284 117.022 100.923 117.078C100.562 117.135 100.391 117.058 100.391 117.058L100.165 116.788L99.6042 115.877L99.2894 115.396C99.2901 115.396 99.4489 114.284 99.5489 113.748ZM96.2438 110.772L99.2373 111.859L100.713 112.768L99.0785 112.732C98.0857 111.986 96.8389 111.16 96.2438 110.772ZM99.89 118.74C99.3806 118.186 98.286 117.251 97.6881 116.617C97.6175 116.028 97.7785 114.962 97.6357 114.351C98.1472 114.927 97.7178 114.363 98.4748 115.282C99.108 116.052 101.529 120.078 101.529 120.078C101.529 120.078 100.392 119.286 99.89 118.74ZM104.862 120.238C104.855 120.262 104.821 120.334 104.77 120.435C104.388 121.201 103.46 121.462 102.734 121.005C102.442 120.821 102.201 120.67 102.146 120.636C102.009 120.297 101.054 118.257 100.671 117.603C101.387 117.464 102.137 117.388 102.869 117.292C103.065 117.763 103.428 118.711 103.428 118.711C103.428 118.711 104.841 120.235 104.862 120.238ZM104.558 119.213C104.217 118.802 103.96 118.611 103.617 118.2C103.392 117.61 103.078 116.806 102.831 116.225C102.578 115.946 102.072 115.388 102.072 115.388L103.294 115.89C103.294 115.89 104.405 118.145 104.558 119.213ZM103.819 114.707C103.914 115.223 103.565 115.061 103.242 115.024C102.753 114.97 101.962 114.757 101.696 114.637C101.228 114.426 100.209 113.635 99.837 113.337C99.7047 113.224 99.559 113.104 99.404 112.98L101.316 113.056L103.257 113.706C103.504 113.895 103.787 114.525 103.819 114.707ZM101.151 111.124C101.974 111.739 102.525 112.481 102.885 113.133L101.326 112.811L99.6223 111.701L101.102 111.092C101.119 111.102 101.136 111.113 101.151 111.124ZM95.737 108.529C96.2705 108.921 96.4545 109.019 96.4545 109.019C96.4545 109.019 97.1225 109.359 97.981 109.559C99.01 109.799 100.2 110.312 100.756 110.87L99.1164 111.424L95.6374 110.447L95.2269 110.205C95.2269 110.205 94.9849 110.062 94.6644 109.854C94.6651 109.853 94.6658 109.852 94.6658 109.852L94.7515 109.556C94.806 109.461 95.337 108.913 95.4002 108.163C95.4009 108.162 95.5261 108.374 95.737 108.529ZM96.283 104.633C96.1655 104.592 96.1018 104.603 95.9936 104.576C95.8853 104.549 95.8046 104.5 95.69 104.422C95.276 104.138 94.9265 103.76 94.5657 103.385C94.5593 103.378 94.5529 103.371 94.5466 103.365C94.5402 103.358 94.5338 103.351 94.5275 103.345C94.168 102.968 93.805 102.603 93.5348 102.17C93.4598 102.051 93.4138 101.967 93.387 101.853C93.3608 101.74 93.3722 101.674 93.3326 101.551C93.2647 101.338 93.2187 101.098 93.1714 100.885C93.2846 101.062 93.4013 101.186 93.5542 101.316C93.7353 101.469 93.8768 101.523 94.0254 101.697C94.0855 101.767 94.0905 101.84 94.1457 101.91C94.1612 101.929 94.1867 101.957 94.1952 101.97C94.215 102.003 94.2829 102.021 94.2879 102.026C94.486 102.23 94.6997 102.518 94.8794 102.688C94.9777 102.78 94.9516 102.762 95.0145 102.841C95.0209 102.846 95.0273 102.851 95.0322 102.857C95.0365 102.862 95.0414 102.868 95.0471 102.875C95.1228 102.941 95.1051 102.913 95.1935 103.016C95.3563 103.204 95.6322 103.427 95.8275 103.634C95.8332 103.64 95.8501 103.709 95.8806 103.731C95.8933 103.74 95.9202 103.766 95.9386 103.783C96.0044 103.839 96.0752 103.845 96.1424 103.908C96.3094 104.063 96.3603 104.213 96.5074 104.4C96.632 104.56 96.7501 104.682 96.9199 104.8C96.7175 104.751 96.4875 104.703 96.283 104.633ZM101.47 93.6849C101.513 93.6731 101.607 93.6894 101.621 93.7544C101.625 93.7751 101.787 93.8845 101.792 93.883C101.816 93.8771 101.843 93.8757 101.864 93.8816C101.962 93.9082 102.028 93.9415 102.099 94.0109C102.109 94.0213 102.118 94.0398 102.123 94.0575C102.135 94.0908 102.153 94.1151 102.181 94.1373C102.21 94.1595 102.224 94.195 102.227 94.2348C102.227 94.2393 102.284 94.3464 102.34 94.3501C102.397 94.3531 102.437 94.345 102.484 94.3672C102.536 94.3583 102.577 94.3628 102.586 94.4197C102.627 94.4647 102.656 94.5194 102.7 94.5623C102.713 94.5741 102.735 94.566 102.757 94.5712C102.778 94.5771 102.798 94.5897 102.816 94.6081C102.834 94.6266 102.854 94.6569 102.859 94.6783C102.86 94.6805 102.862 94.6828 102.865 94.6857C102.868 94.6887 102.87 94.6909 102.872 94.6916C102.893 94.6975 102.922 94.7182 102.939 94.7367C102.957 94.7552 102.969 94.7766 102.975 94.7988C102.98 94.821 102.972 94.8446 102.983 94.8579C103.023 94.903 103.077 94.9348 103.12 94.9769C103.174 94.9865 103.178 95.0286 103.17 95.084C103.192 95.1335 103.183 95.1749 103.186 95.234C103.189 95.2931 103.292 95.3523 103.297 95.3523C103.335 95.356 103.369 95.37 103.39 95.3996C103.411 95.4291 103.435 95.4476 103.466 95.4602C103.483 95.4668 103.501 95.4757 103.511 95.4861C103.577 95.56 103.609 95.6287 103.635 95.7306C103.64 95.7521 103.64 95.7801 103.633 95.806C103.631 95.8127 103.737 95.9811 103.756 95.9848C103.819 95.9989 103.836 96.0972 103.823 96.143C103.792 96.2656 103.683 96.6232 103.577 96.649C103.472 96.6741 103.433 96.479 103.364 96.4591C103.237 96.4236 103.216 96.3113 103.134 96.2381C103.111 96.2167 103.136 96.1664 103.124 96.1442C103.092 96.0918 103.037 95.9388 103.029 95.8975C102.998 95.7415 102.739 95.6698 102.698 95.6506C102.536 95.5767 102.564 95.502 102.502 95.4082C102.478 95.3705 102.454 95.3816 102.442 95.3712C102.407 95.3424 102.407 95.3321 102.382 95.3062C102.359 95.2818 102.348 95.2811 102.323 95.2486C102.292 95.2227 102.292 95.2116 102.268 95.1865C102.243 95.1606 102.233 95.1606 102.205 95.1244C102.195 95.1111 102.206 95.0867 102.17 95.0609C102.08 94.9965 102.01 95.0253 101.938 94.8569C101.919 94.814 101.851 94.5428 101.702 94.511C101.662 94.5022 101.515 94.4452 101.465 94.412C101.443 94.3979 101.396 94.4252 101.375 94.4008C101.305 94.3159 101.198 94.2929 101.164 94.1607C101.145 94.0883 100.958 94.0476 100.982 93.9382C101.009 93.8318 101.351 93.7182 101.47 93.6849ZM99.0985 94.3404C99.1982 94.3943 99.24 94.4498 99.3143 94.5022C99.4346 94.5865 99.4756 94.6028 99.5931 94.6545C99.7686 94.7314 99.8726 94.9021 99.9943 95.0469C100.044 95.1061 100.1 95.1534 100.146 95.2066C100.191 95.2598 100.187 95.327 100.235 95.3721C100.325 95.4571 100.451 95.4608 100.547 95.5192C100.642 95.5783 100.651 95.65 100.734 95.7239C100.818 95.7978 100.867 95.7986 100.967 95.8592C101.325 96.0765 101.385 96.1933 101.402 96.2125C101.42 96.2302 101.533 96.2916 101.74 96.6662C101.798 96.7711 101.799 96.8221 101.869 96.9093C101.94 96.9965 102.009 97.0054 102.065 97.1052C102.122 97.2042 102.125 97.3372 102.206 97.431C102.25 97.4813 102.314 97.4769 102.365 97.5242C102.415 97.5715 102.461 97.6299 102.517 97.6823C102.656 97.8094 102.82 97.9181 102.893 98.1014C102.943 98.224 102.958 98.2669 103.039 98.3925C103.09 98.4708 103.142 98.5137 103.194 98.6179C103.291 98.8152 102.881 99.4224 102.84 99.5613C102.781 99.5214 102.615 99.2819 102.527 99.2235C102.416 99.1504 102.406 98.9302 102.322 98.823C102.275 98.7639 102.234 98.7728 102.192 98.7004C102.15 98.6279 102.113 98.571 102.054 98.4905C101.995 98.4092 101.923 98.3057 101.842 98.2481C101.761 98.189 101.623 98.0707 101.574 98.0138C101.509 97.9384 101.484 97.8978 101.464 97.8505C101.432 97.7744 101.379 97.7108 101.31 97.6687C101.307 97.6672 101.306 97.6657 101.304 97.6657C101.278 97.6295 101.253 97.5623 101.231 97.5312C101.151 97.4241 101.106 97.3716 101.029 97.2467C101.013 97.2194 100.928 97.0775 100.892 97.0324C100.873 97.0088 100.824 96.9704 100.82 96.9659C100.815 96.9615 100.779 96.9098 100.755 96.8898L100.755 96.8891L100.754 96.8883C100.735 96.8647 100.686 96.8263 100.681 96.8211C100.677 96.8166 100.641 96.7657 100.617 96.7457C100.574 96.708 100.439 96.62 100.412 96.6023C100.291 96.5217 100.242 96.4752 100.14 96.3917C100.11 96.368 100.046 96.3414 100.011 96.3148C100.01 96.3126 100.009 96.3111 100.008 96.3089C99.9678 96.2372 99.9069 96.181 99.834 96.1478C99.7894 96.1278 99.7498 96.1012 99.6776 96.0332C99.6232 95.9822 99.5092 95.8366 99.4534 95.7531C99.3968 95.6689 99.2977 95.5935 99.2213 95.5314C99.1434 95.4693 99.0897 95.4309 99.0203 95.388C98.951 95.3451 98.9595 95.3008 98.9029 95.252C98.8003 95.1641 98.5887 95.1529 98.5193 95.0377C98.4641 94.946 98.2342 94.7723 98.196 94.7103C98.3283 94.6667 98.9102 94.2384 99.0985 94.3404ZM95.7849 96.4207C96.0037 96.2427 96.1169 96.0714 96.3569 95.886C96.6125 95.6873 96.6181 95.841 96.8353 95.9925C96.996 96.1041 97.2323 96.1751 97.4099 96.2838C97.5026 96.3333 97.5748 96.3629 97.5925 96.4626C97.6151 96.5188 97.6845 96.5099 97.7142 96.569C97.7956 96.6466 98.0241 96.8824 98.0991 96.9046C98.4388 97.0052 98.4798 97.0953 98.6871 97.3237C98.7763 97.4212 98.8817 97.4323 98.9666 97.5121C99.0685 97.6067 99.1103 97.5706 99.1881 97.674C99.3282 97.8602 99.1697 97.6622 99.4556 97.9268C99.4846 97.9541 99.4853 97.9918 99.5093 98.0199C99.5136 98.0243 99.5285 98.0398 99.5327 98.0443C99.5553 98.065 99.5844 98.0687 99.6084 98.0879C99.6254 98.113 99.6296 98.144 99.6502 98.1669C99.6544 98.1714 99.6693 98.1869 99.6735 98.1913C99.7004 98.2165 99.7365 98.2172 99.7627 98.2475C100.016 98.5461 99.827 98.3798 100.005 98.5269C100.104 98.6082 100.069 98.6532 100.16 98.7582C100.236 98.8468 100.246 98.9577 100.34 99.05C100.559 99.2666 100.645 99.3095 100.741 99.6641C100.763 99.7432 100.988 99.9812 101.062 100.066C101.12 100.096 101.111 100.169 101.164 100.193C101.259 100.212 101.288 100.287 101.335 100.384C101.438 100.569 101.507 100.815 101.614 100.984C101.758 101.21 101.906 101.216 101.716 101.483C101.537 101.733 101.374 101.852 101.203 102.08C101.111 101.826 101.144 101.69 101.005 101.469C100.927 101.347 100.784 101.321 100.731 101.172C100.704 101.093 100.676 101.051 100.649 100.966C100.621 100.881 100.431 100.91 100.398 100.84C100.29 100.607 100.053 100.36 99.9044 100.206C99.6673 99.9616 99.6249 99.7399 99.4261 99.4791C99.3306 99.3542 99.2054 99.1761 99.0993 99.0401C99.0604 98.9906 98.928 98.8923 98.8913 98.8391C98.841 98.8014 98.7462 98.6624 98.6988 98.6218C98.5693 98.5102 98.3988 98.3794 98.2785 98.2803C98.0287 98.0727 97.8164 98.0283 97.5822 97.7807C97.4343 97.6248 97.198 97.3779 96.9751 97.2648C96.9086 97.2308 96.9362 97.0321 96.8549 97.0032C96.7735 96.9744 96.7332 96.9456 96.6574 96.9167C96.5145 96.862 96.4898 96.712 96.373 96.6315C96.1579 96.4822 96.0284 96.5154 95.7849 96.4207ZM94.1868 98.9153C94.0715 98.7786 93.9569 98.7786 94.0305 98.5451C94.0511 98.4794 94.2062 98.1048 94.3838 98.1322C94.4567 98.1433 94.664 98.4086 94.7525 98.4626C94.9216 98.5653 95.1155 98.5861 95.2627 98.7073C95.3624 98.7893 95.3674 98.9363 95.4664 99.0147C95.5443 99.0768 95.6681 99.0702 95.7502 99.1056C95.954 99.1944 95.9405 99.2232 96.075 99.4005C96.099 99.433 96.2023 99.5971 96.2221 99.6281C96.2426 99.6599 96.2858 99.6355 96.3049 99.6629C96.4216 99.8306 96.5872 99.9238 96.711 100.083C96.7634 100.149 96.728 100.22 96.7853 100.299C96.8433 100.379 96.9657 100.482 97.0457 100.553C97.0584 100.565 97.0655 100.568 97.0754 100.579C97.0853 100.589 97.0888 100.597 97.0995 100.61C97.1122 100.624 97.1256 100.641 97.1391 100.658C97.1561 100.673 97.1716 100.686 97.1858 100.7C97.1985 100.712 97.2056 100.714 97.2155 100.725C97.2254 100.735 97.2289 100.743 97.2396 100.756C97.3082 100.839 97.4065 100.967 97.4829 101.028C97.5594 101.088 97.6266 101.052 97.6903 101.105C97.8424 101.235 97.9315 101.408 98.0922 101.53C98.1184 101.55 98.0957 101.595 98.1254 101.616C98.1558 101.638 98.3122 101.745 98.3434 101.77C98.5125 101.91 98.5408 101.896 98.6257 102.109C98.6596 102.195 98.6539 102.325 98.7126 102.405C98.7876 102.509 98.9285 102.514 99.007 102.618C99.123 102.772 99.1421 102.975 99.2411 103.151C99.2927 103.243 99.5468 103.46 99.5574 103.536C99.5835 103.721 99.2239 103.884 99.1616 103.905C98.938 103.981 98.9373 103.861 98.8071 103.741C98.7335 103.673 98.6755 103.592 98.6189 103.509C98.5623 103.426 98.551 103.367 98.4696 103.29C98.4024 103.225 98.263 103.188 98.1887 103.115C98.1144 103.041 98.0048 102.848 97.9326 102.807C97.7918 102.727 97.6977 102.59 97.605 102.509C97.4719 102.394 97.5774 102.288 97.4649 102.177C97.3531 102.066 97.2236 102.038 97.0913 101.931C97.0205 101.875 96.9052 101.778 96.8522 101.679C96.7934 101.568 96.4948 101.362 96.4786 101.343C96.4609 101.326 96.2628 101.014 96.1574 100.953C96.0625 100.898 95.9698 100.778 95.9154 100.703C95.8142 100.565 95.7881 100.43 95.6805 100.313C95.5744 100.196 95.4724 100.305 95.3621 100.167C95.2842 100.069 95.1533 99.9707 95.0769 99.8243C95.0373 99.749 94.8526 99.6344 94.7826 99.5568C94.7125 99.4792 94.6772 99.3329 94.6149 99.2634C94.5413 99.1792 94.484 99.1681 94.4048 99.1075C94.3298 99.0528 94.2519 98.9922 94.1868 98.9153ZM81.8554 100.079C81.2491 99.454 80.3541 98.3108 79.8234 97.7787C79.3005 97.2547 78.5429 96.0672 78.5429 96.0672C78.5429 96.0672 82.398 98.5966 83.1345 99.258C84.0148 100.047 83.4756 99.5995 84.0261 100.135C83.4401 99.9851 82.4195 100.153 81.8554 100.079ZM86.031 100.396C86.3918 100.934 86.5906 101.328 86.8764 101.78C86.471 101.481 86.2998 101.147 85.9113 100.889C85.5228 100.631 85.1407 100.551 84.7529 100.342C84.6941 100.266 84.7493 100.309 84.6673 100.203C84.5852 100.096 84.542 100.053 84.3829 99.8583C84.223 99.6632 83.8331 99.1865 83.6194 98.9501C83.7185 98.9043 84.4165 98.6237 84.4165 98.6237C84.4165 98.6237 84.7243 98.6305 84.8984 98.6556C85.3661 99.2476 85.6702 99.8579 86.031 100.396ZM85.5772 98.63L85.5437 96.9232L86.4138 98.4647L87.4533 101.59C87.0812 100.968 86.291 99.6667 85.5772 98.63ZM83.0251 98.4076L82.5644 98.0787L81.6919 97.4925L81.4337 97.2568C81.4337 97.2568 81.3594 97.0772 81.414 96.7012C81.4679 96.3244 81.745 95.0027 81.745 95.0027C81.745 95.0027 82.28 95.2865 82.7052 95.7085C82.7293 95.7322 82.8142 95.8209 82.8312 95.8386C83.3264 96.3766 84.1351 97.5169 84.6034 98.1376C84.0903 98.2416 83.0251 98.4076 83.0251 98.4076ZM85.0523 102.593L83.6181 101.385L82.447 100.587C82.447 100.587 84.747 101.001 85.5601 101.322C86.475 102.12 86.9447 102.992 87.6657 103.935C87.6204 104.006 87.5828 104.083 87.5403 104.157C86.5964 103.52 85.7564 103.146 85.0523 102.593ZM88.6166 99.7767C88.8075 100.672 89.1335 101.371 89.1335 101.371C89.1335 101.371 89.2269 101.564 89.6019 102.12C89.7504 102.34 89.9528 102.47 89.9528 102.47C89.2344 102.536 88.7091 103.09 88.6178 103.147L88.334 103.236C88.3333 103.237 88.3326 103.237 88.3326 103.237C88.1338 102.903 87.9965 102.65 87.9965 102.65L87.7645 102.221L86.8313 98.5889L87.3626 96.8779C87.8968 97.4595 88.3883 98.7031 88.6166 99.7767ZM87.1185 96.4678C87.1291 96.4833 87.139 96.5011 87.1497 96.5181L86.5653 98.0628L85.5028 96.2834L85.1954 94.6557C85.8195 95.0326 86.5306 95.6069 87.1185 96.4678ZM83.6881 93.68C83.8615 93.7147 84.4659 94.009 84.6463 94.2684L85.2671 96.2944L85.3387 98.2908C85.2206 98.1289 85.106 97.9767 84.9977 97.8385C84.7126 97.4505 83.9549 96.3857 83.7533 95.8972C83.6395 95.6201 83.4345 94.7941 83.3829 94.2835C83.3491 93.9451 83.1942 93.5808 83.6881 93.68ZM82.5542 94.2279L83.0337 95.5047C83.0337 95.5047 82.4995 94.9748 82.2327 94.711C81.6772 94.4544 80.9066 94.124 80.3411 93.8896C79.9484 93.5326 79.7659 93.2637 79.3711 92.9074C80.3952 93.0666 82.5542 94.2279 82.5542 94.2279ZM78.2012 92.6832C78.2982 92.6308 78.3662 92.5954 78.3895 92.5872C78.3931 92.6101 79.852 94.0853 79.852 94.0853C79.852 94.0853 80.7593 94.4653 81.2107 94.6693C81.1171 95.4332 81.0447 96.2164 80.9114 96.9641C80.2852 96.5642 78.3314 95.5655 78.0066 95.4228C77.974 95.3651 77.8297 95.1139 77.6536 94.8087C77.2164 94.0505 77.4665 93.082 78.2012 92.6832Z" fill="url(#paint0_linear_138_373)"/>
<path d="M186.547 174.426C180.305 174.426 175.486 173.232 172.09 170.846C168.693 168.367 166.307 164.787 164.93 160.106C163.645 155.332 163.002 149.504 163.002 142.619V124.444C163.002 117.376 163.69 111.501 165.067 106.82C166.444 102.138 168.831 98.604 172.227 96.2174C175.715 93.8308 180.489 92.6375 186.547 92.6375C193.248 92.6375 198.159 94.0144 201.28 96.7682C204.493 99.522 206.604 103.515 207.614 108.747C208.623 113.888 209.128 120.084 209.128 127.335V133.807H177.735V149.779C177.735 152.992 178.01 155.608 178.561 157.627C179.204 159.647 180.167 161.161 181.452 162.171C182.829 163.089 184.573 163.548 186.685 163.548C188.888 163.548 190.54 163.043 191.642 162.033C192.835 160.932 193.615 159.417 193.982 157.49C194.441 155.47 194.671 153.129 194.671 150.467V145.648H208.991V148.677C208.991 156.663 207.292 162.951 203.896 167.541C200.5 172.131 194.717 174.426 186.547 174.426ZM177.735 125.821H194.671V118.661C194.671 115.356 194.487 112.603 194.12 110.4C193.753 108.105 192.973 106.406 191.779 105.305C190.678 104.112 188.888 103.515 186.409 103.515C184.023 103.515 182.187 104.066 180.902 105.167C179.708 106.269 178.882 108.151 178.423 110.813C177.964 113.383 177.735 116.963 177.735 121.552V125.821Z" fill="#1E1E1E"/>
<path d="M120.488 173.324L104.791 93.7391H119.662L129.438 157.765L139.351 93.7391H153.671L138.525 173.324H120.488Z" fill="#1E1E1E"/>
<path d="M78.1589 172.689V93.7734H95.5276V172.689H78.1589Z" fill="#1E1E1E"/>
<path d="M0 173.324V61.795H15.559V109.987H44.1986V61.795H59.7576V173.324H44.1986V121.14H15.559V173.324H0Z" fill="#1E1E1E"/>
<path d="M126.581 42.5122C127.486 41.9993 128.391 41.5058 129.296 41.031L130.05 42.4705C129.159 42.9374 128.269 43.423 127.379 43.9276L126.581 42.5122ZM135.575 39.81C134.651 40.216 133.728 40.6412 132.804 41.0857L132.097 39.6228C133.037 39.1705 133.976 38.7379 134.916 38.3248L135.575 39.81ZM121.268 45.7575C122.138 45.1875 123.009 44.636 123.881 44.1031L124.721 45.4932C123.863 46.0177 123.006 46.5605 122.149 47.1217L121.268 45.7575ZM141.27 37.5425C140.317 37.8832 139.363 38.2436 138.408 38.6236L137.799 37.1172C138.771 36.7305 139.742 36.3643 140.712 36.0174L141.27 37.5425ZM116.167 49.3275C117.001 48.7057 117.837 48.1017 118.673 47.5158L119.594 48.8538C118.77 49.431 117.947 50.0258 117.125 50.6386L116.167 49.3275ZM147.113 35.6892C146.133 35.9612 145.153 36.2528 144.171 36.5642L143.666 35.0212C144.665 34.7041 145.664 34.4074 146.661 34.1305L147.113 35.6892ZM111.285 53.1913C112.081 52.5238 112.879 51.8732 113.679 51.2401L114.672 52.5243C113.884 53.1485 113.097 53.7896 112.311 54.4481L111.285 53.1913ZM153.076 34.2655C152.075 34.4662 151.073 34.6861 150.069 34.9261L149.67 33.3531C150.693 33.1088 151.713 32.885 152.732 32.6806L153.076 34.2655ZM106.621 57.3195C107.379 56.6121 108.139 55.921 108.901 55.2463L109.958 56.4758C109.207 57.1417 108.457 57.824 107.708 58.5225L106.621 57.3195ZM159.129 33.2787C158.119 33.4059 157.106 33.5521 156.09 33.7175L155.802 32.1226C156.836 31.9541 157.868 31.8056 158.897 31.676L159.129 33.2787ZM165.248 32.7307C164.232 32.7854 163.211 32.8581 162.188 32.9496L162.011 31.3406C163.052 31.2474 164.091 31.1735 165.126 31.1179L165.248 32.7307ZM171.411 32.6163C170.389 32.5996 169.361 32.6006 168.331 32.6196L168.263 31.0049C169.312 30.9855 170.357 30.9848 171.398 31.0018L171.411 32.6163ZM177.575 32.9268C176.551 32.8407 175.522 32.7712 174.488 32.7191L174.527 31.1062C175.579 31.1592 176.626 31.2295 177.667 31.317L177.575 32.9268ZM183.711 33.6459C182.696 33.4937 181.675 33.357 180.649 33.2365L180.792 31.6319C181.835 31.7544 182.873 31.8936 183.904 32.0483L183.711 33.6459ZM189.812 34.7579C188.806 34.5421 187.792 34.3406 186.772 34.1544L187.014 32.565C188.051 32.7541 189.08 32.9588 190.102 33.1779L189.812 34.7579ZM195.844 36.2429C194.848 35.9663 193.844 35.703 192.832 35.4538L193.169 33.8845C194.196 34.1376 195.216 34.4046 196.226 34.6852L195.844 36.2429ZM201.782 38.0784C200.807 37.7464 199.822 37.4262 198.828 37.1187L199.255 35.5742C200.264 35.8862 201.263 36.2112 202.252 36.548L201.782 38.0784ZM207.636 40.255C206.677 39.8681 205.706 39.4915 204.724 39.1263L205.236 37.6112C206.232 37.9815 207.216 38.3631 208.188 38.7555L207.636 40.255ZM213.357 42.745C212.422 42.308 211.473 41.8797 210.511 41.4612L211.104 39.9783C212.079 40.4026 213.041 40.837 213.989 41.2801L213.357 42.745ZM218.962 45.5491C218.05 45.0623 217.122 44.5822 216.179 44.1104L216.85 42.6642C217.806 43.1425 218.747 43.6293 219.671 44.1228L218.962 45.5491ZM224.398 48.6403C223.518 48.1083 222.619 47.5806 221.702 47.0592L222.449 45.6538C223.379 46.1825 224.29 46.7175 225.183 47.257L224.398 48.6403ZM229.686 52.041C228.835 51.4595 227.961 50.8796 227.065 50.3033L227.888 48.9439C228.797 49.5285 229.684 50.1168 230.547 50.7071L229.686 52.041ZM234.765 55.7415C233.958 55.1137 233.12 54.4834 232.254 53.8529L233.155 52.5469C234.035 53.1875 234.887 53.8283 235.708 54.4668L234.765 55.7415ZM238.392 58.712C238.008 58.3801 237.615 58.0462 237.213 57.7111L238.2 56.4716C238.609 56.8131 239.01 57.1531 239.401 57.4916L238.392 58.712Z" fill="#1E1E1E"/>
<defs>
<linearGradient id="paint0_linear_138_373" x1="104.33" y1="93.1583" x2="80.5873" y2="115.889" gradientUnits="userSpaceOnUse">
<stop stop-color="#D4622C"/>
<stop offset="1" stop-color="#F0C845"/>
</linearGradient>
</defs>
</svg>
