<svg width="50" height="50" viewBox="0 0 50 50" fill="none" xmlns="http://www.w3.org/2000/svg">
<path d="M35.7471 14.2578C34.9347 13.4451 34.459 12.3557 34.4152 11.2074C34.3713 10.0592 34.7626 8.93667 35.5107 8.06445C35.5726 7.99191 35.6048 7.89866 35.6008 7.8034C35.5968 7.70814 35.557 7.6179 35.4893 7.55078L31.1797 3.23632C31.1084 3.16512 31.0118 3.12512 30.9111 3.12512C30.8104 3.12512 30.7138 3.16512 30.6426 3.23632L23.7734 10.1055C23.5199 10.3588 23.329 10.6678 23.2158 11.0078C23.103 11.3486 22.9123 11.6584 22.6589 11.9127C22.4055 12.167 22.0963 12.3587 21.7559 12.4727C21.4156 12.586 21.1064 12.7769 20.8525 13.0303L3.23632 30.6426C3.16512 30.7138 3.12512 30.8104 3.12512 30.9111C3.12512 31.0118 3.16512 31.1084 3.23632 31.1797L7.54589 35.4893C7.61302 35.557 7.70325 35.5968 7.79851 35.6008C7.89378 35.6048 7.98702 35.5726 8.05957 35.5107C8.93161 34.7618 10.0543 34.3699 11.203 34.4135C12.3517 34.457 13.4415 34.9328 14.2543 35.7457C15.0672 36.5585 15.543 37.6483 15.5865 38.797C15.6301 39.9456 15.2382 41.0684 14.4893 41.9404C14.4274 42.013 14.3952 42.1062 14.3992 42.2015C14.4032 42.2967 14.443 42.387 14.5107 42.4541L18.8203 46.7637C18.8915 46.8349 18.9881 46.8749 19.0889 46.8749C19.1896 46.8749 19.2862 46.8349 19.3574 46.7637L36.9746 29.1475C37.228 28.8936 37.4188 28.5844 37.5322 28.2441C37.6451 27.9033 37.8357 27.5935 38.0892 27.3392C38.3426 27.085 38.6518 26.8933 38.9922 26.7793C39.3322 26.6661 39.6412 26.4752 39.8945 26.2217L46.7637 19.3525C46.8349 19.2813 46.8749 19.1847 46.8749 19.084C46.8749 18.9833 46.8349 18.8867 46.7637 18.8154L42.4541 14.5059C42.387 14.4381 42.2967 14.3983 42.2015 14.3943C42.1062 14.3903 42.013 14.4225 41.9404 14.4844C41.0694 15.2338 39.9476 15.6267 38.7994 15.5847C37.6511 15.5427 36.561 15.0688 35.7471 14.2578Z" stroke="#2D3E52" stroke-width="1.5" stroke-miterlimit="10"/>
<path d="M24.4629 13.7148L22.8506 12.1025M28.7617 18.0137L27.6865 16.9395M33.0605 22.3135L31.9863 21.2383M37.8975 27.1494L36.2852 25.5371" stroke="#2D3E52" stroke-miterlimit="10" stroke-linecap="round"/>
</svg>
