<svg width="50" height="50" viewBox="0 0 50 50" fill="none" xmlns="http://www.w3.org/2000/svg">
<path d="M41.6666 20.8333C41.6666 34.375 24.9999 45.8333 24.9999 45.8333C24.9999 45.8333 8.33325 34.375 8.33325 20.8333C8.33325 16.413 10.0892 12.1738 13.2148 9.04818C16.3404 5.92257 20.5796 4.16663 24.9999 4.16663C29.4202 4.16663 33.6594 5.92257 36.785 9.04818C39.9106 12.1738 41.6666 16.413 41.6666 20.8333Z" stroke="#2D3E52" stroke-width="1.5"/>
<path d="M31.25 20.8333C31.25 22.4909 30.5915 24.0806 29.4194 25.2527C28.2473 26.4248 26.6576 27.0833 25 27.0833C23.3424 27.0833 21.7527 26.4248 20.5806 25.2527C19.4085 24.0806 18.75 22.4909 18.75 20.8333C18.75 19.1756 19.4085 17.5859 20.5806 16.4138C21.7527 15.2417 23.3424 14.5833 25 14.5833C26.6576 14.5833 28.2473 15.2417 29.4194 16.4138C30.5915 17.5859 31.25 19.1756 31.25 20.8333Z" stroke="#2D3E52" stroke-width="1.5"/>
</svg>
