<svg width="50" height="50" viewBox="0 0 50 50" fill="none" xmlns="http://www.w3.org/2000/svg">
<path d="M31.0103 37.5C29.7923 37.5 28.7534 37.0695 27.8937 36.2084C27.0339 35.3473 26.6034 34.3091 26.602 33.0938C26.6006 31.8785 27.0312 30.8389 27.8937 29.975C28.7562 29.1112 29.7951 28.6813 31.0103 28.6855C32.2256 28.6896 33.2645 29.1202 34.127 29.9771C34.9895 30.8341 35.4194 31.873 35.4166 33.0938C35.4138 34.3146 34.9832 35.3535 34.1249 36.2105C33.2666 37.0674 32.2284 37.4973 31.0103 37.5ZM11.6978 43.75C10.7395 43.75 9.9395 43.4292 9.29783 42.7875C8.65617 42.1459 8.33464 41.3452 8.33325 40.3855V13.7813C8.33325 12.823 8.65478 12.023 9.29783 11.3813C9.94089 10.7396 10.7416 10.4181 11.6999 10.4167H15.3853V5.77087H17.6291V10.4167H32.5333V5.77087H34.6166V10.4167H38.302C39.2603 10.4167 40.061 10.7382 40.7041 11.3813C41.3471 12.0243 41.668 12.825 41.6666 13.7834V40.3855C41.6666 41.3438 41.3457 42.1445 40.7041 42.7875C40.0624 43.4306 39.261 43.7514 38.2999 43.75H11.6978ZM11.6978 41.6667H38.302C38.6214 41.6667 38.9152 41.5334 39.1833 41.2667C39.4513 41 39.5846 40.7056 39.5833 40.3834V22.1167H10.4166V40.3855C10.4166 40.7049 10.5499 40.9986 10.8166 41.2667C11.0833 41.5348 11.377 41.6681 11.6978 41.6667ZM10.4166 20.0313H39.5833V13.7813C39.5833 13.4618 39.4499 13.1681 39.1833 12.9C38.9166 12.632 38.6221 12.4987 38.2999 12.5H11.6999C11.3791 12.5 11.0846 12.6334 10.8166 12.9C10.5485 13.1667 10.4152 13.4612 10.4166 13.7834V20.0313Z" fill="#2D3E52"/>
</svg>
