<svg width="412" height="412" viewBox="0 0 412 412" fill="none" xmlns="http://www.w3.org/2000/svg">
<circle cx="206" cy="206" r="206" fill="#577C8E"/>
<path d="M264.361 156.591C259.47 142.661 251.287 132.307 239.811 125.53C228.524 118.565 213.098 115.083 193.533 115.083C184.88 115.083 179.236 116.683 176.602 119.883C173.969 123.083 172.652 129.577 172.652 139.366C172.652 139.366 174.411 188.292 170.504 200.967C167.243 211.545 149.643 208.9 147.762 201.309C144.117 186.604 146.409 139.931 146.409 139.931C146.409 132.966 145.845 127.883 144.716 124.683C143.587 121.295 141.33 119.036 137.944 117.906C134.746 116.589 128.431 115.647 123.552 115.647C118.673 115.647 118.793 110.529 124.081 110.529C129.37 110.529 132.676 110.471 139.072 110.847C145.468 111.035 151.771 111.035 157.979 110.847C164.563 110.659 171.994 110.471 180.271 110.282C188.548 110.094 195.321 110 200.588 110C234.262 110 259.282 118.471 275.648 135.413C292.015 152.167 300.198 176.262 300.198 207.699C300.198 228.218 296.153 246.195 288.064 261.631C280.163 276.879 268.594 288.739 253.356 297.21C238.118 305.681 219.682 309.916 198.048 309.916C195.226 309.916 191.301 310.105 186.598 309.916C184.262 309.823 155.07 309.963 152.641 309.916L164.276 302.707C167.484 304.382 187.556 304.834 193.816 304.834C214.321 304.834 230.217 301.163 241.504 293.821C252.792 286.292 260.693 275.373 265.208 261.067C269.722 246.76 271.98 229.347 271.98 208.829C271.98 187.745 269.44 170.333 264.361 156.591Z" fill="#F4EFEB"/>
<circle cx="139.897" cy="260.799" r="2.21484" transform="rotate(-15 139.897 260.799)" fill="#F4EFEB"/>
<g filter="url(#filter0_d_3_3)">
<path d="M134.714 267.501C130.588 272.842 128.524 278.616 128.524 284.821C128.524 292.204 131.659 297.938 137.928 302.022C141.578 304.457 145.704 305.675 150.306 305.675C154.988 305.675 159.035 304.772 162.447 302.965C168.874 299.666 172.485 294.129 173.278 286.352C173.358 285.803 173.397 285.253 173.397 284.703C173.397 281.797 172.564 278.655 170.898 275.277C169.311 271.9 166.692 268.797 163.042 265.97L141.617 249.239C136.936 245.626 134.595 240.953 134.595 235.219C134.595 229.485 136.46 224.654 140.189 220.727C143.918 216.721 148.957 214.718 155.305 214.718C158.479 214.718 162.967 215.776 165.744 217.363C168.52 218.949 169.975 220.007 172.09 223.18C173.429 225.189 174.206 227.411 174.941 229.527C175.184 230.226 176.003 234.423 173.254 230.388C170.504 226.353 168.442 223.714 165.744 221.594C163.125 219.394 159.352 218.253 155.305 218.253C151.338 218.253 148.005 219.588 145.307 222.259C142.609 224.851 141.26 228.228 141.26 232.391C141.26 236.476 143.006 239.892 146.497 242.641L168.517 259.843C177.246 266.677 181.61 274.924 181.61 284.585C181.61 291.811 178.714 298.017 172.921 303.201C167.922 307.678 161.257 309.916 152.925 309.916C147.846 309.916 143.323 308.974 139.356 307.089C131.897 303.633 127.414 297.742 125.906 289.416C125.668 288.159 125.549 286.588 125.549 284.703C125.549 282.739 126.104 280.108 127.215 276.809C128.326 273.432 130.469 270.054 133.643 266.677C136.817 263.299 138.84 262.16 134.714 267.501Z" fill="#F4EFEB"/>
</g>
<defs>
<filter id="filter0_d_3_3" x="119.049" y="214.218" width="62.5613" height="98.1982" filterUnits="userSpaceOnUse" color-interpolation-filters="sRGB">
<feFlood flood-opacity="0" result="BackgroundImageFix"/>
<feColorMatrix in="SourceAlpha" type="matrix" values="0 0 0 0 0 0 0 0 0 0 0 0 0 0 0 0 0 0 127 0" result="hardAlpha"/>
<feOffset dx="-5" dy="1"/>
<feGaussianBlur stdDeviation="0.75"/>
<feComposite in2="hardAlpha" operator="out"/>
<feColorMatrix type="matrix" values="0 0 0 0 0 0 0 0 0 0 0 0 0 0 0 0 0 0 0.25 0"/>
<feBlend mode="normal" in2="BackgroundImageFix" result="effect1_dropShadow_3_3"/>
<feBlend mode="normal" in="SourceGraphic" in2="effect1_dropShadow_3_3" result="shape"/>
</filter>
</defs>
</svg>
