<svg width="37" height="37" viewBox="0 0 37 37" fill="none" xmlns="http://www.w3.org/2000/svg">
<path d="M26.5938 8.09375H31.2188V12.7188H26.5938V8.09375ZM26.5938 15.0312H31.2188V19.6562H26.5938V15.0312ZM19.6562 8.09375H24.2812V12.7188H19.6562V8.09375ZM19.6562 15.0312H24.2812V19.6562H19.6562V15.0312Z" fill="black"/>
<path d="M16.7656 30.0625C17.7235 30.0625 18.5 29.286 18.5 28.3281C18.5 27.3703 17.7235 26.5938 16.7656 26.5938C15.8078 26.5938 15.0312 27.3703 15.0312 28.3281C15.0312 29.286 15.8078 30.0625 16.7656 30.0625Z" fill="black"/>
<path d="M24.2812 34.6875H9.25C8.63669 34.6875 8.04849 34.4439 7.61482 34.0102C7.18114 33.5765 6.9375 32.9883 6.9375 32.375V4.625C6.9375 4.01169 7.18114 3.42349 7.61482 2.98982C8.04849 2.55614 8.63669 2.3125 9.25 2.3125H24.2812V4.625H9.25V32.375H24.2812V23.125H26.5938V32.375C26.5938 32.9883 26.3501 33.5765 25.9164 34.0102C25.4828 34.4439 24.8946 34.6875 24.2812 34.6875Z" fill="black"/>
</svg>
