<svg width="85" height="85" viewBox="0 0 85 85" fill="none" xmlns="http://www.w3.org/2000/svg">
<g clip-path="url(#clip0_54_412)">
<path d="M9.55586 17.4615C9.23225 17.5001 8.91556 17.5835 8.61488 17.7092L2.17746 20.3654C1.53537 20.6331 0.986397 21.0841 0.599129 21.662C0.211862 22.2399 0.00347316 22.9191 0 23.6147L0 61.3866C0.00352805 62.0823 0.212015 62.7615 0.599406 63.3394C0.986797 63.9173 1.53591 64.3683 2.17812 64.6358L8.61488 67.3359C9.21928 67.5889 9.88204 67.6691 10.5293 67.5677C11.1767 67.4663 11.7831 67.1872 12.2812 66.7615L13.7235 65.5217C13.4308 65.7319 13.0858 65.8572 12.7264 65.8838C12.367 65.9104 12.0073 65.8372 11.6869 65.6724C11.3664 65.5076 11.0977 65.2575 10.9103 64.9497C10.723 64.6419 10.6242 64.2883 10.625 63.9279V21.0733C10.6242 20.713 10.723 20.3594 10.9103 20.0516C11.0977 19.7438 11.3664 19.4937 11.6869 19.3289C12.0073 19.1641 12.367 19.0909 12.7264 19.1175C13.0858 19.1441 13.4308 19.2694 13.7235 19.4796L12.2812 18.2849C11.9087 17.9666 11.4743 17.729 11.0053 17.5873C10.5363 17.4455 10.0423 17.4027 9.55586 17.4615Z" fill="#52218A"/>
<path d="M62.9199 0.276235C62.108 0.162766 61.2809 0.238725 60.5033 0.498166C59.7257 0.757608 59.0186 1.19349 58.4375 1.7717L3.54211 62.467C3.26348 62.7663 2.90156 62.9751 2.50305 63.0667C2.10454 63.1582 1.68775 63.1282 1.30647 62.9805C0.925188 62.8328 0.596922 62.5742 0.364042 62.2382C0.131162 61.9021 0.00435856 61.5039 0 61.0951L0 61.3872C0.00365827 62.0828 0.212206 62.762 0.599589 63.3397C0.986972 63.9175 1.53601 64.3683 2.17812 64.6358L8.61488 67.3359C9.21928 67.5889 9.88204 67.6691 10.5293 67.5677C11.1767 67.4663 11.7831 67.1872 12.2812 66.7615L13.7235 65.5217L79.5188 11.5733C80.0102 11.171 80.6057 10.9164 81.2361 10.839C81.8664 10.7617 82.5058 10.8649 83.0798 11.1366C83.6538 11.4082 84.139 11.8372 84.4789 12.3737C84.8188 12.9101 84.9995 13.532 85 14.1671V13.9632C85.0004 12.9623 84.7181 11.9817 84.1855 11.1343C83.6529 10.2868 82.8918 9.6071 81.9898 9.17334L64.4765 0.744399C63.9847 0.509422 63.4597 0.35152 62.9199 0.276235Z" fill="#6C33AF"/>
<path d="M9.87527 17.4237C9.44112 17.4402 9.01379 17.537 8.61488 17.7092L2.17746 20.3654C1.53537 20.6331 0.986397 21.0841 0.599129 21.662C0.211862 22.2399 0.00347316 22.9191 0 23.6147L0 23.9076C0.00435856 23.4987 0.131162 23.1005 0.364042 22.7644C0.596922 22.4284 0.925188 22.1698 1.30647 22.0221C1.68775 21.8744 2.10454 21.8444 2.50305 21.936C2.90156 22.0275 3.26348 22.2364 3.54211 22.5356L58.4375 83.2296C59.2149 84.0033 60.2127 84.5174 61.294 84.7013C62.3753 84.8852 63.487 84.73 64.4765 84.2569L81.9898 75.8273C82.8917 75.3936 83.6528 74.7139 84.1853 73.8666C84.7179 73.0193 85.0003 72.0388 85 71.0381V70.8342C84.9995 71.4693 84.8188 72.0912 84.4789 72.6276C84.139 73.1641 83.6538 73.5931 83.0798 73.8647C82.5058 74.1364 81.8664 74.2395 81.2361 74.1622C80.6057 74.0849 80.0102 73.8303 79.5188 73.428L13.7235 19.4796L12.2812 18.2411C11.6079 17.6805 10.7507 17.3888 9.87527 17.4237Z" fill="#854CC7"/>
<path d="M62.9199 0.276254C61.5858 0.113068 60.2394 0.461653 59.152 1.25176C59.6268 0.995208 60.1601 0.866345 60.6996 0.87779C61.2392 0.889235 61.7665 1.0406 62.23 1.31705C62.6935 1.59351 63.0772 1.98559 63.3437 2.4549C63.6101 2.92421 63.7501 3.45467 63.75 3.99434V81.0256C63.7486 81.6404 63.5653 82.2411 63.2233 82.7521C62.8812 83.263 62.3957 83.6613 61.8278 83.8969C61.2599 84.1325 60.635 84.1949 60.0317 84.0762C59.4284 83.9574 58.8738 83.6629 58.4375 83.2296C59.2149 84.0033 60.2128 84.5174 61.294 84.7013C62.3753 84.8853 63.487 84.73 64.4765 84.2569L81.9898 75.8366C82.8918 75.4028 83.6529 74.7231 84.1855 73.8757C84.7181 73.0282 85.0004 72.0476 85 71.0467V13.9559C85.0007 12.9548 84.7184 11.9739 84.1859 11.1262C83.6533 10.2785 82.892 9.59858 81.9898 9.16473L64.4765 0.743754C63.9847 0.509007 63.4597 0.351328 62.9199 0.276254ZM59.152 1.25176C58.8904 1.39032 58.6498 1.56539 58.4375 1.77172C58.6608 1.57886 58.8998 1.40494 59.152 1.25176Z" fill="#B179F1"/>
<path opacity="0.25" fill-rule="evenodd" clip-rule="evenodd" d="M62.5182 0.231052C61.8381 0.186816 61.1559 0.273841 60.5087 0.487381C59.7281 0.749197 59.0191 1.18886 58.4375 1.77168L30.2109 32.9919L13.7235 19.4796L12.2812 18.2411C11.8472 17.8696 11.3298 17.6086 10.7732 17.4805C10.2165 17.3524 9.63705 17.3609 9.08438 17.5053C8.9225 17.541 8.76505 17.5945 8.61488 17.6647L2.17746 20.3654C1.5749 20.6141 1.05272 21.0244 0.668499 21.551C0.284278 22.0775 0.0529423 22.7 0 23.3497L0 61.6522C0.0531187 62.3018 0.284608 62.9242 0.668944 63.4507C1.05328 63.9772 1.57553 64.3873 2.17812 64.6358L8.61488 67.2921C8.76505 67.3623 8.9225 67.4157 9.08438 67.4514C9.6369 67.5961 10.2162 67.605 10.7729 67.4772C11.3296 67.3494 11.8471 67.0888 12.2812 66.7177L13.7235 65.5217L30.2109 52.0107L58.4375 83.2296C59.1411 83.9324 60.0278 84.4236 60.9968 84.6473C62.1675 84.9142 63.394 84.7765 64.4765 84.2569L81.9898 75.8366C82.8918 75.4028 83.6529 74.7231 84.1855 73.8756C84.7181 73.0282 85.0004 72.0476 85 71.0467V13.9559C85.0007 12.9548 84.7184 11.9739 84.1859 11.1262C83.6533 10.2785 82.892 9.59854 81.9898 9.16469L64.4765 0.743709C63.8624 0.448573 63.1974 0.2743 62.5175 0.230388L62.5182 0.231052ZM63.75 24.5092V60.4921L41.8007 42.5013L63.75 24.5092ZM10.625 30.3443L21.6132 42.5013L10.625 54.6583V30.3443Z" fill="url(#paint0_linear_54_412)"/>
</g>
<defs>
<linearGradient id="paint0_linear_54_412" x1="31.875" y1="-4.13152e-05" x2="31.875" y2="63.4179" gradientUnits="userSpaceOnUse">
<stop stop-color="white"/>
<stop offset="1" stop-color="white" stop-opacity="0"/>
</linearGradient>
<clipPath id="clip0_54_412">
<rect width="85" height="85" fill="white"/>
</clipPath>
</defs>
</svg>
