<svg width="85" height="85" viewBox="0 0 85 85" fill="none" xmlns="http://www.w3.org/2000/svg">
<path d="M15.0523 1.0625H69.9477C78.2711 1.0625 85 7.79144 85 16.1148V68.8852C85 77.2086 78.2711 83.9375 69.9477 83.9375H15.0523C6.72894 83.9375 0 77.2086 0 68.8852V16.1148C0 7.79144 6.72894 1.0625 15.0523 1.0625Z" fill="#001E36"/>
<path d="M30.4586 22.1353C29.3961 22.1353 28.3336 22.1353 27.2359 22.1711C26.1375 22.2063 25.1102 22.2063 24.1539 22.2422C23.1977 22.2774 22.3125 22.2774 21.4625 22.3126C20.6477 22.3478 20.0813 22.3478 19.4789 22.3478C19.2313 22.3478 19.125 22.4892 19.125 22.7376V59.1813C19.125 59.5001 19.2664 59.6422 19.55 59.6422H26.4211C26.6687 59.6063 26.8461 59.3938 26.8102 59.1461V47.7774C27.4829 47.7774 27.9789 47.7774 28.3336 47.8126C28.6875 47.8478 29.2539 47.8478 30.1039 47.8478C33.0086 47.8478 35.6648 47.529 38.0727 46.6438C40.375 45.7938 42.3586 44.3063 43.775 42.3228C45.1917 40.3394 45.9 37.8248 45.9 34.779C45.9 33.1853 45.6171 31.6626 45.0859 30.1751C44.5229 28.6596 43.6411 27.2827 42.5 26.1376C41.1532 24.8291 39.5319 23.8369 37.7539 23.2329C35.7704 22.4892 33.3625 22.1353 30.4586 22.1353ZM31.2488 29.1112C32.5105 29.1351 33.739 29.3556 34.8852 29.8204C35.9125 30.2103 36.7625 30.9188 37.3648 31.8392C37.9297 32.7917 38.2123 33.8852 38.1796 34.9922C38.1796 36.5501 37.825 37.7547 37.0813 38.6399C36.3016 39.5251 35.3102 40.1984 34.1773 40.5172C32.8664 40.9422 31.4852 41.154 30.1039 41.154H28.2266C27.8016 41.154 27.3421 41.1188 26.8461 41.0836V29.1836C27.0937 29.1478 27.5898 29.1126 28.2984 29.1484C28.9711 29.1126 29.7852 29.1126 30.7063 29.1126C30.8878 29.1081 31.0686 29.1077 31.2488 29.1112ZM60.9523 30.9195C58.4375 30.9195 56.3477 31.3086 54.6836 32.1586C53.1609 32.8672 51.85 34.0001 50.9648 35.4165C50.1859 36.7274 49.7602 38.179 49.7602 39.7024C49.7299 40.9553 50.0098 42.1962 50.575 43.3149C51.2374 44.506 52.1571 45.5343 53.2671 46.3251C54.8251 47.3907 56.5157 48.2479 58.2961 48.8751C60.0313 49.5478 61.2 50.079 61.7671 50.5392C62.3336 51.0001 62.6171 51.4603 62.6171 51.9563C62.6171 52.5938 62.2273 53.1961 61.6609 53.4438C61.0234 53.7626 60.0671 53.9399 58.7211 53.9399C57.3046 53.9399 55.8875 53.7626 54.5414 53.4086C52.9959 53.0634 51.5141 52.4779 50.15 51.6734C50.0437 51.6024 49.9375 51.5672 49.8313 51.6382C49.725 51.7086 49.6898 51.8501 49.6898 51.9563V58.1188C49.6546 58.4024 49.8313 58.6501 50.0796 58.7915C51.2281 59.3281 52.443 59.7093 53.6921 59.9251C55.2859 60.2438 56.8789 60.3853 58.5079 60.3853C61.0579 60.3853 63.1836 59.9961 64.9188 59.2524C66.5125 58.6149 67.8937 57.5172 68.8852 56.1001C69.8137 54.7069 70.2956 53.0638 70.2664 51.3899C70.3014 50.1253 70.0216 48.8719 69.4523 47.7422C68.7789 46.5376 67.8227 45.5461 66.6539 44.8024C64.9441 43.7286 63.1135 42.8607 61.2 42.2165C60.3455 41.8628 59.5065 41.4729 58.6852 41.0478C58.225 40.8001 57.8 40.4813 57.4813 40.0915C57.2687 39.8079 57.1273 39.4899 57.1273 39.1711C57.1273 38.8524 57.2336 38.4984 57.4102 38.2149C57.6586 37.8609 58.0477 37.6126 58.5079 37.5063C59.1813 37.3297 59.925 37.2228 60.6329 37.2579C61.9789 37.2579 63.2891 37.4353 64.6 37.7188C65.8046 37.9665 66.9375 38.3563 68 38.9234C68.1414 38.9938 68.3187 38.9938 68.6375 38.9234C68.6928 38.8824 68.7377 38.8289 68.7685 38.7673C68.7994 38.7057 68.8152 38.6377 68.8148 38.5688V32.7961C68.8148 32.654 68.7789 32.5126 68.7438 32.3711C68.6727 32.2297 68.5312 32.0876 68.3898 32.0524C67.413 31.6531 66.3895 31.3793 65.3438 31.2376C63.8895 31.0258 62.4219 30.92 60.9523 30.9195Z" fill="#31A8FF"/>
</svg>
