<svg width="181" height="203" viewBox="0 0 181 203" fill="none" xmlns="http://www.w3.org/2000/svg">
<path d="M145.16 46.5395C140.274 32.6246 132.1 22.2825 120.637 15.5131C109.362 8.55573 93.953 5.07702 74.4099 5.07702C65.7658 5.07702 60.1284 6.67535 57.4976 9.872C54.8668 13.0687 53.5514 19.556 53.5514 29.334C53.5514 29.334 55.3084 78.2057 51.4053 90.8673C48.1483 101.433 30.568 98.7917 28.6885 91.2089C25.0475 76.5194 27.3373 29.8981 27.3373 29.8981C27.3373 22.9407 26.7736 17.8636 25.6461 14.667C24.5186 11.2823 22.2636 9.02583 18.8812 7.89761C15.6866 6.58133 9.37933 5.64114 4.50574 5.64114C-0.367855 5.64114 -0.248896 0.528303 5.03404 0.528298C10.317 0.528293 13.6196 0.47009 20.0087 0.846161C26.3978 1.0342 32.6929 1.0342 38.894 0.846161C45.471 0.658126 52.8937 0.47009 61.1619 0.282054C69.4301 0.0940179 76.195 0 81.4567 0C115.093 0 140.086 8.46172 156.434 25.3852C172.783 42.1206 180.957 66.1895 180.957 97.5919C180.957 118.088 176.917 136.046 168.837 151.465C160.944 166.696 149.388 178.542 134.167 187.004C118.946 195.466 100.53 199.697 78.9198 199.697C76.1011 199.697 72.1799 199.885 67.4821 199.697C65.1486 199.603 35.9884 199.744 33.5621 199.697L45.1847 192.495C48.3893 194.168 68.4389 194.62 74.6917 194.62C95.1744 194.62 111.053 190.953 122.328 183.619C133.603 176.098 141.495 165.192 146.005 150.901C150.515 136.61 152.77 119.216 152.77 98.7201C152.77 77.6598 150.233 60.2663 145.16 46.5395Z" fill="#577C8E"/>
<circle cx="20.8322" cy="150.633" r="2.2124" transform="rotate(-15 20.8322 150.633)" fill="#577C8E"/>
<g filter="url(#filter0_d_1_358)">
<path d="M15.6549 157.328C11.5332 162.664 9.47238 168.43 9.47238 174.629C9.47238 182.004 12.6033 187.732 18.8651 191.811C22.5112 194.244 26.6329 195.46 31.2302 195.46C35.9067 195.46 39.9492 194.558 43.3575 192.753C49.7778 189.458 53.3843 183.926 54.1769 176.159C54.2562 175.609 54.2958 175.06 54.2958 174.511C54.2958 171.608 53.4636 168.47 51.799 165.096C50.2138 161.722 47.5981 158.623 43.952 155.798L22.5508 139.086C17.8743 135.477 15.536 130.809 15.536 125.081C15.536 119.354 17.3987 114.528 21.1241 110.605C24.8495 106.604 29.8827 104.603 36.2238 104.603C39.3943 104.603 43.8771 105.66 46.6507 107.245C49.4242 108.829 50.877 109.886 52.9902 113.056C54.3279 115.062 55.1034 117.282 55.838 119.395C56.0807 120.094 56.8992 124.286 54.1523 120.256C51.4053 116.226 49.3456 113.589 46.6507 111.471C44.035 109.274 40.2662 108.134 36.2238 108.134C32.2606 108.134 28.9315 109.468 26.2366 112.135C23.5416 114.724 22.1942 118.098 22.1942 122.257C22.1942 126.336 23.9379 129.749 27.4255 132.496L49.4211 149.678C58.1401 156.504 62.4996 164.743 62.4996 174.393C62.4996 181.612 59.6065 187.81 53.8203 192.988C48.8267 197.461 42.1685 199.697 33.8459 199.697C28.773 199.697 24.255 198.755 20.2918 196.872C12.8411 193.42 8.36269 187.535 6.85669 179.219C6.6189 177.963 6.5 176.394 6.5 174.511C6.5 172.549 7.05484 169.921 8.16453 166.626C9.27422 163.252 11.4143 159.878 14.5849 156.504C17.7554 153.131 19.7766 151.993 15.6549 157.328Z" fill="#577C8E"/>
</g>
<defs>
<filter id="filter0_d_1_358" x="0" y="104.103" width="62.4995" height="98.0938" filterUnits="userSpaceOnUse" color-interpolation-filters="sRGB">
<feFlood flood-opacity="0" result="BackgroundImageFix"/>
<feColorMatrix in="SourceAlpha" type="matrix" values="0 0 0 0 0 0 0 0 0 0 0 0 0 0 0 0 0 0 127 0" result="hardAlpha"/>
<feOffset dx="-5" dy="1"/>
<feGaussianBlur stdDeviation="0.75"/>
<feComposite in2="hardAlpha" operator="out"/>
<feColorMatrix type="matrix" values="0 0 0 0 0 0 0 0 0 0 0 0 0 0 0 0 0 0 0.25 0"/>
<feBlend mode="normal" in2="BackgroundImageFix" result="effect1_dropShadow_1_358"/>
<feBlend mode="normal" in="SourceGraphic" in2="effect1_dropShadow_1_358" result="shape"/>
</filter>
</defs>
</svg>
