<svg width="412" height="412" viewBox="0 0 412 412" fill="none" xmlns="http://www.w3.org/2000/svg">
<circle cx="206" cy="206" r="206" fill="#577C8E"/>
<path d="M329.688 266.6H332.728L344.328 295H340.488L337.128 286.68H325.208L321.888 295H318.048L329.688 266.6ZM336.328 283.88L331.208 270.76L325.928 283.88H336.328Z" fill="#F4EFEB"/>
<path d="M284.955 295V266.64H288.555V282.32L303.195 266.6H307.075L295.675 279.12L307.715 295H303.675L293.395 281.28L288.555 286.32V295H284.955Z" fill="#F4EFEB"/>
<path d="M267.26 272.56C266.94 272.187 266.513 271.827 265.98 271.48C265.447 271.133 264.847 270.827 264.18 270.56C263.513 270.267 262.78 270.04 261.98 269.88C261.207 269.693 260.393 269.6 259.54 269.6C257.353 269.6 255.74 270.013 254.7 270.84C253.66 271.667 253.14 272.8 253.14 274.24C253.14 275.253 253.407 276.053 253.94 276.64C254.473 277.227 255.287 277.707 256.38 278.08C257.5 278.453 258.913 278.84 260.62 279.24C262.593 279.667 264.3 280.187 265.74 280.8C267.18 281.413 268.287 282.24 269.06 283.28C269.833 284.293 270.22 285.653 270.22 287.36C270.22 288.72 269.953 289.907 269.42 290.92C268.913 291.907 268.193 292.733 267.26 293.4C266.327 294.04 265.233 294.52 263.98 294.84C262.727 295.133 261.367 295.28 259.9 295.28C258.46 295.28 257.047 295.133 255.66 294.84C254.3 294.52 253.007 294.067 251.78 293.48C250.553 292.893 249.407 292.16 248.34 291.28L250.06 288.24C250.487 288.693 251.033 289.147 251.7 289.6C252.393 290.027 253.167 290.427 254.02 290.8C254.9 291.173 255.847 291.48 256.86 291.72C257.873 291.933 258.913 292.04 259.98 292.04C262.007 292.04 263.58 291.68 264.7 290.96C265.82 290.213 266.38 289.133 266.38 287.72C266.38 286.653 266.06 285.8 265.42 285.16C264.807 284.52 263.887 283.987 262.66 283.56C261.433 283.133 259.94 282.707 258.18 282.28C256.26 281.8 254.647 281.28 253.34 280.72C252.033 280.133 251.047 279.373 250.38 278.44C249.74 277.507 249.42 276.293 249.42 274.8C249.42 272.987 249.86 271.453 250.74 270.2C251.62 268.947 252.833 268 254.38 267.36C255.927 266.72 257.673 266.4 259.62 266.4C260.9 266.4 262.087 266.533 263.18 266.8C264.3 267.067 265.34 267.44 266.3 267.92C267.26 268.4 268.14 268.973 268.94 269.64L267.26 272.56Z" fill="#F4EFEB"/>
<path d="M222.178 295.2C220.178 295.2 218.365 294.8 216.738 294C215.111 293.2 213.698 292.12 212.498 290.76C211.325 289.373 210.418 287.827 209.778 286.12C209.138 284.387 208.818 282.613 208.818 280.8C208.818 278.907 209.151 277.107 209.818 275.4C210.511 273.667 211.458 272.133 212.658 270.8C213.885 269.44 215.311 268.373 216.938 267.6C218.565 266.8 220.338 266.4 222.258 266.4C224.258 266.4 226.071 266.813 227.698 267.64C229.325 268.467 230.725 269.573 231.898 270.96C233.071 272.347 233.978 273.893 234.618 275.6C235.258 277.307 235.578 279.053 235.578 280.84C235.578 282.733 235.245 284.547 234.578 286.28C233.911 287.987 232.965 289.52 231.738 290.88C230.538 292.213 229.125 293.267 227.498 294.04C225.871 294.813 224.098 295.2 222.178 295.2ZM212.458 280.8C212.458 282.24 212.685 283.64 213.138 285C213.618 286.333 214.285 287.52 215.138 288.56C215.991 289.6 217.018 290.427 218.218 291.04C219.418 291.653 220.751 291.96 222.218 291.96C223.738 291.96 225.098 291.64 226.298 291C227.498 290.36 228.511 289.507 229.338 288.44C230.191 287.373 230.831 286.173 231.258 284.84C231.711 283.507 231.938 282.16 231.938 280.8C231.938 279.36 231.698 277.973 231.218 276.64C230.765 275.307 230.098 274.12 229.218 273.08C228.365 272.013 227.338 271.187 226.138 270.6C224.965 269.987 223.658 269.68 222.218 269.68C220.698 269.68 219.338 270 218.138 270.64C216.938 271.253 215.911 272.093 215.058 273.16C214.231 274.227 213.591 275.427 213.138 276.76C212.685 278.067 212.458 279.413 212.458 280.8Z" fill="#F4EFEB"/>
<path d="M175.364 266.6L184.764 290.48L194.124 266.6H197.924L186.404 295H183.124L171.564 266.6H175.364Z" fill="#F4EFEB"/>
<path d="M159.625 291.8V295H140.345V266.6H159.265V269.8H143.945V279H157.265V282H143.945V291.8H159.625Z" fill="#F4EFEB"/>
<path d="M126.255 269.8H116.455V295H112.855V269.8H103.055V266.6H126.255V269.8Z" fill="#F4EFEB"/>
<path d="M88.0799 272.56C87.7599 272.187 87.3332 271.827 86.7999 271.48C86.2666 271.133 85.6666 270.827 84.9999 270.56C84.3332 270.267 83.5999 270.04 82.7999 269.88C82.0266 269.693 81.2132 269.6 80.3599 269.6C78.1732 269.6 76.5599 270.013 75.5199 270.84C74.4799 271.667 73.9599 272.8 73.9599 274.24C73.9599 275.253 74.2266 276.053 74.7599 276.64C75.2932 277.227 76.1066 277.707 77.1999 278.08C78.3199 278.453 79.7332 278.84 81.4399 279.24C83.4132 279.667 85.1199 280.187 86.5599 280.8C87.9999 281.413 89.1066 282.24 89.8799 283.28C90.6532 284.293 91.0399 285.653 91.0399 287.36C91.0399 288.72 90.7732 289.907 90.2399 290.92C89.7332 291.907 89.0132 292.733 88.0799 293.4C87.1466 294.04 86.0532 294.52 84.7999 294.84C83.5466 295.133 82.1866 295.28 80.7199 295.28C79.2799 295.28 77.8666 295.133 76.4799 294.84C75.1199 294.52 73.8266 294.067 72.5999 293.48C71.3732 292.893 70.2266 292.16 69.1599 291.28L70.8799 288.24C71.3066 288.693 71.8532 289.147 72.5199 289.6C73.2132 290.027 73.9866 290.427 74.8399 290.8C75.7199 291.173 76.6666 291.48 77.6799 291.72C78.6932 291.933 79.7332 292.04 80.7999 292.04C82.8266 292.04 84.3999 291.68 85.5199 290.96C86.6399 290.213 87.1999 289.133 87.1999 287.72C87.1999 286.653 86.8799 285.8 86.2399 285.16C85.6266 284.52 84.7066 283.987 83.4799 283.56C82.2532 283.133 80.7599 282.707 78.9999 282.28C77.0799 281.8 75.4666 281.28 74.1599 280.72C72.8532 280.133 71.8666 279.373 71.1999 278.44C70.5599 277.507 70.2399 276.293 70.2399 274.8C70.2399 272.987 70.6799 271.453 71.5599 270.2C72.4399 268.947 73.6532 268 75.1999 267.36C76.7466 266.72 78.4932 266.4 80.4399 266.4C81.7199 266.4 82.9066 266.533 83.9999 266.8C85.1199 267.067 86.1599 267.44 87.1199 267.92C88.0799 268.4 88.9599 268.973 89.7599 269.64L88.0799 272.56Z" fill="#F4EFEB"/>
<path d="M249.862 315.146C249.75 315.015 249.6 314.889 249.414 314.768C249.227 314.647 249.017 314.539 248.784 314.446C248.55 314.343 248.294 314.264 248.014 314.208C247.743 314.143 247.458 314.11 247.16 314.11C246.394 314.11 245.83 314.255 245.466 314.544C245.102 314.833 244.92 315.23 244.92 315.734C244.92 316.089 245.013 316.369 245.2 316.574C245.386 316.779 245.671 316.947 246.054 317.078C246.446 317.209 246.94 317.344 247.538 317.484C248.228 317.633 248.826 317.815 249.33 318.03C249.834 318.245 250.221 318.534 250.492 318.898C250.762 319.253 250.898 319.729 250.898 320.326C250.898 320.802 250.804 321.217 250.618 321.572C250.44 321.917 250.188 322.207 249.862 322.44C249.535 322.664 249.152 322.832 248.714 322.944C248.275 323.047 247.799 323.098 247.286 323.098C246.782 323.098 246.287 323.047 245.802 322.944C245.326 322.832 244.873 322.673 244.444 322.468C244.014 322.263 243.613 322.006 243.24 321.698L243.842 320.634C243.991 320.793 244.182 320.951 244.416 321.11C244.658 321.259 244.929 321.399 245.228 321.53C245.536 321.661 245.867 321.768 246.222 321.852C246.576 321.927 246.94 321.964 247.314 321.964C248.023 321.964 248.574 321.838 248.966 321.586C249.358 321.325 249.554 320.947 249.554 320.452C249.554 320.079 249.442 319.78 249.218 319.556C249.003 319.332 248.681 319.145 248.252 318.996C247.822 318.847 247.3 318.697 246.684 318.548C246.012 318.38 245.447 318.198 244.99 318.002C244.532 317.797 244.187 317.531 243.954 317.204C243.73 316.877 243.618 316.453 243.618 315.93C243.618 315.295 243.772 314.759 244.08 314.32C244.388 313.881 244.812 313.55 245.354 313.326C245.895 313.102 246.506 312.99 247.188 312.99C247.636 312.99 248.051 313.037 248.434 313.13C248.826 313.223 249.19 313.354 249.526 313.522C249.862 313.69 250.17 313.891 250.45 314.124L249.862 315.146Z" fill="#F4EFEB"/>
<path d="M229.61 315.384V323H228.35V313.06H229.414L235.49 320.83V313.074H236.75V323H235.602L229.61 315.384Z" fill="#F4EFEB"/>
<path d="M217.446 323.07C216.793 323.07 216.181 322.93 215.612 322.65C215.052 322.361 214.562 321.978 214.142 321.502C213.722 321.017 213.395 320.475 213.162 319.878C212.929 319.271 212.812 318.646 212.812 318.002C212.812 317.33 212.929 316.695 213.162 316.098C213.395 315.491 213.717 314.955 214.128 314.488C214.548 314.021 215.038 313.657 215.598 313.396C216.167 313.125 216.783 312.99 217.446 312.99C218.407 312.99 219.201 313.191 219.826 313.592C220.451 313.993 220.923 314.516 221.24 315.16L220.274 315.832C219.985 315.253 219.588 314.824 219.084 314.544C218.58 314.264 218.025 314.124 217.418 314.124C216.914 314.124 216.457 314.231 216.046 314.446C215.635 314.661 215.281 314.955 214.982 315.328C214.693 315.692 214.469 316.107 214.31 316.574C214.161 317.041 214.086 317.526 214.086 318.03C214.086 318.562 214.17 319.066 214.338 319.542C214.515 320.009 214.763 320.424 215.08 320.788C215.397 321.143 215.766 321.423 216.186 321.628C216.606 321.833 217.059 321.936 217.544 321.936C218.113 321.936 218.655 321.791 219.168 321.502C219.681 321.213 220.167 320.769 220.624 320.172V321.474C219.728 322.538 218.669 323.07 217.446 323.07ZM220.47 318.996H218.328V318.044H221.534V323H220.47V318.996Z" fill="#F4EFEB"/>
<path d="M204.919 323V313.06H206.179V323H204.919Z" fill="#F4EFEB"/>
<path d="M197.326 315.146C197.214 315.015 197.065 314.889 196.878 314.768C196.691 314.647 196.481 314.539 196.248 314.446C196.015 314.343 195.758 314.264 195.478 314.208C195.207 314.143 194.923 314.11 194.624 314.11C193.859 314.11 193.294 314.255 192.93 314.544C192.566 314.833 192.384 315.23 192.384 315.734C192.384 316.089 192.477 316.369 192.664 316.574C192.851 316.779 193.135 316.947 193.518 317.078C193.91 317.209 194.405 317.344 195.002 317.484C195.693 317.633 196.29 317.815 196.794 318.03C197.298 318.245 197.685 318.534 197.956 318.898C198.227 319.253 198.362 319.729 198.362 320.326C198.362 320.802 198.269 321.217 198.082 321.572C197.905 321.917 197.653 322.207 197.326 322.44C196.999 322.664 196.617 322.832 196.178 322.944C195.739 323.047 195.263 323.098 194.75 323.098C194.246 323.098 193.751 323.047 193.266 322.944C192.79 322.832 192.337 322.673 191.908 322.468C191.479 322.263 191.077 322.006 190.704 321.698L191.306 320.634C191.455 320.793 191.647 320.951 191.88 321.11C192.123 321.259 192.393 321.399 192.692 321.53C193 321.661 193.331 321.768 193.686 321.852C194.041 321.927 194.405 321.964 194.778 321.964C195.487 321.964 196.038 321.838 196.43 321.586C196.822 321.325 197.018 320.947 197.018 320.452C197.018 320.079 196.906 319.78 196.682 319.556C196.467 319.332 196.145 319.145 195.716 318.996C195.287 318.847 194.764 318.697 194.148 318.548C193.476 318.38 192.911 318.198 192.454 318.002C191.997 317.797 191.651 317.531 191.418 317.204C191.194 316.877 191.082 316.453 191.082 315.93C191.082 315.295 191.236 314.759 191.544 314.32C191.852 313.881 192.277 313.55 192.818 313.326C193.359 313.102 193.971 312.99 194.652 312.99C195.1 312.99 195.515 313.037 195.898 313.13C196.29 313.223 196.654 313.354 196.99 313.522C197.326 313.69 197.634 313.891 197.914 314.124L197.326 315.146Z" fill="#F4EFEB"/>
<path d="M184.86 321.88V323H178.112V313.06H184.734V314.18H179.372V317.4H184.034V318.45H179.372V321.88H184.86Z" fill="#F4EFEB"/>
<path d="M163.19 323V313.06H166.634C167.698 313.06 168.585 313.284 169.294 313.732C170.013 314.171 170.549 314.768 170.904 315.524C171.259 316.271 171.436 317.101 171.436 318.016C171.436 319.024 171.24 319.901 170.848 320.648C170.456 321.395 169.901 321.973 169.182 322.384C168.463 322.795 167.614 323 166.634 323H163.19ZM170.162 318.016C170.162 317.269 170.022 316.607 169.742 316.028C169.471 315.449 169.075 314.997 168.552 314.67C168.029 314.343 167.39 314.18 166.634 314.18H164.45V321.88H166.634C167.399 321.88 168.043 321.712 168.566 321.376C169.089 321.031 169.485 320.569 169.756 319.99C170.027 319.402 170.162 318.744 170.162 318.016Z" fill="#F4EFEB"/>
<path d="M247.758 122.423C244.04 111.832 237.818 103.96 229.093 98.8077C220.511 93.5121 208.783 90.8643 193.908 90.8643C187.328 90.8643 183.038 92.0809 181.035 94.514C179.033 96.9471 178.032 101.885 178.032 109.327C178.032 109.327 179.369 146.526 176.398 156.163C173.919 164.205 160.538 162.194 159.107 156.423C156.336 145.242 158.079 109.757 158.079 109.757C158.079 104.461 157.65 100.597 156.792 98.1636C155.934 95.5874 154.217 93.8699 151.643 93.0112C149.211 92.0093 144.41 91.2937 140.701 91.2937C136.991 91.2937 137.082 87.4021 141.103 87.4021C145.124 87.4021 147.638 87.3578 152.501 87.644C157.364 87.7872 162.155 87.7872 166.875 87.644C171.881 87.5009 177.531 87.3578 183.824 87.2147C190.117 87.0716 195.267 87 199.271 87C224.874 87 243.897 93.4406 256.34 106.322C268.784 119.06 275.005 137.38 275.005 161.281C275.005 176.882 271.93 190.55 265.78 202.286C259.773 213.879 250.976 222.896 239.391 229.336C227.806 235.777 213.789 238.997 197.34 238.997C195.195 238.997 192.211 239.14 188.635 238.997C186.859 238.926 164.664 239.033 162.817 238.997L171.663 233.516C174.102 234.789 189.363 235.133 194.122 235.133C209.713 235.133 221.799 232.342 230.38 226.76C238.962 221.035 244.969 212.734 248.402 201.857C251.835 190.979 253.551 177.74 253.551 162.14C253.551 146.11 251.62 132.871 247.758 122.423Z" fill="#F4EFEB"/>
<circle cx="153.128" cy="201.653" r="1.68395" transform="rotate(-15 153.128 201.653)" fill="#F4EFEB"/>
<g filter="url(#filter0_d_1_294)">
<path d="M149.187 206.749C146.05 210.81 144.481 215.199 144.481 219.917C144.481 225.531 146.864 229.89 151.63 232.996C154.406 234.847 157.543 235.773 161.042 235.773C164.601 235.773 167.678 235.086 170.272 233.712C175.159 231.204 177.904 226.994 178.508 221.082C178.568 220.664 178.598 220.246 178.598 219.827C178.598 217.618 177.965 215.229 176.698 212.661C175.491 210.093 173.5 207.734 170.725 205.584L154.436 192.864C150.876 190.117 149.096 186.564 149.096 182.204C149.096 177.845 150.514 174.172 153.35 171.186C156.185 168.141 160.016 166.618 164.843 166.618C167.256 166.618 170.668 167.422 172.779 168.628C174.89 169.835 175.996 170.639 177.604 173.051C178.623 174.579 179.213 176.268 179.772 177.877C179.957 178.408 180.58 181.599 178.489 178.532C176.398 175.464 174.83 173.458 172.779 171.845C170.788 170.173 167.92 169.305 164.843 169.305C161.826 169.305 159.292 170.32 157.241 172.351C155.19 174.321 154.164 176.889 154.164 180.055C154.164 183.16 155.491 185.758 158.146 187.848L174.888 200.926C181.524 206.122 184.842 212.392 184.842 219.738C184.842 225.232 182.64 229.95 178.236 233.891C174.435 237.295 169.368 238.997 163.033 238.997C159.172 238.997 155.733 238.281 152.716 236.847C147.045 234.22 143.637 229.741 142.49 223.411C142.309 222.455 142.219 221.261 142.219 219.827C142.219 218.335 142.641 216.334 143.486 213.826C144.33 211.258 145.959 208.69 148.372 206.122C150.786 203.554 152.324 202.688 149.187 206.749Z" fill="#F4EFEB"/>
</g>
<defs>
<filter id="filter0_d_1_294" x="135.719" y="166.118" width="49.1235" height="75.3796" filterUnits="userSpaceOnUse" color-interpolation-filters="sRGB">
<feFlood flood-opacity="0" result="BackgroundImageFix"/>
<feColorMatrix in="SourceAlpha" type="matrix" values="0 0 0 0 0 0 0 0 0 0 0 0 0 0 0 0 0 0 127 0" result="hardAlpha"/>
<feOffset dx="-5" dy="1"/>
<feGaussianBlur stdDeviation="0.75"/>
<feComposite in2="hardAlpha" operator="out"/>
<feColorMatrix type="matrix" values="0 0 0 0 0 0 0 0 0 0 0 0 0 0 0 0 0 0 0.25 0"/>
<feBlend mode="normal" in2="BackgroundImageFix" result="effect1_dropShadow_1_294"/>
<feBlend mode="normal" in="SourceGraphic" in2="effect1_dropShadow_1_294" result="shape"/>
</filter>
</defs>
</svg>
