<svg width="37" height="37" viewBox="0 0 37 37" fill="none" xmlns="http://www.w3.org/2000/svg">
<path d="M23.125 3.7894C21.6282 3.32012 20.0686 3.08202 18.5 3.08332C9.98536 3.08332 3.08331 9.98536 3.08331 18.5C3.08331 27.0146 9.98536 33.9167 18.5 33.9167C27.0146 33.9167 33.9166 27.0146 33.9166 18.5C33.9179 16.9314 33.6798 15.3718 33.2106 13.875" stroke="black" stroke-width="1.5" stroke-linecap="round" stroke-linejoin="round"/>
<path d="M8.47913 30.0625L9.34246 28.5516C10.0166 27.3714 10.9909 26.3904 12.1665 25.7081C13.3421 25.0258 14.6772 24.6665 16.0364 24.6666H20.9635C22.3225 24.6668 23.6573 25.0262 24.8326 25.7085C26.0078 26.3908 26.9819 27.3716 27.6559 28.5516L28.5193 30.0625M23.125 15.4166C23.125 16.6433 22.6377 17.8197 21.7703 18.687C20.903 19.5544 19.7266 20.0416 18.5 20.0416C17.2733 20.0416 16.0969 19.5544 15.2296 18.687C14.3622 17.8197 13.875 16.6433 13.875 15.4166C13.875 14.19 14.3622 13.0136 15.2296 12.1463C16.0969 11.2789 17.2733 10.7916 18.5 10.7916C19.7266 10.7916 20.903 11.2789 21.7703 12.1463C22.6377 13.0136 23.125 14.19 23.125 15.4166ZM29.2515 3.11569C29.2608 3.07252 29.3225 3.07252 29.3317 3.11569C29.5612 4.23701 30.115 5.26623 30.9244 6.07556C31.7337 6.8849 32.7629 7.43871 33.8843 7.66823C33.9274 7.67748 33.9274 7.73915 33.8843 7.7484C32.7629 7.97792 31.7337 8.53173 30.9244 9.34106C30.115 10.1504 29.5612 11.1796 29.3317 12.3009C29.3225 12.3441 29.2608 12.3441 29.2515 12.3009C29.022 11.1796 28.4682 10.1504 27.6589 9.34106C26.8495 8.53173 25.8203 7.97792 24.699 7.7484C24.6558 7.73915 24.6558 7.67748 24.699 7.66823C25.8203 7.43871 26.8495 6.8849 27.6589 6.07556C28.4682 5.26623 29.022 4.23701 29.2515 3.11569Z" stroke="black" stroke-width="1.5" stroke-linecap="round" stroke-linejoin="round"/>
</svg>
