<svg width="277" height="239" viewBox="0 0 277 239" fill="none" xmlns="http://www.w3.org/2000/svg">
<path d="M20.08 185.56C19.76 185.187 19.3333 184.827 18.8 184.48C18.2667 184.133 17.6667 183.827 17 183.56C16.3333 183.267 15.6 183.04 14.8 182.88C14.0267 182.693 13.2133 182.6 12.36 182.6C10.1733 182.6 8.56 183.013 7.52 183.84C6.48 184.667 5.96 185.8 5.96 187.24C5.96 188.253 6.22667 189.053 6.76 189.64C7.29333 190.227 8.10667 190.707 9.2 191.08C10.32 191.453 11.7333 191.84 13.44 192.24C15.4133 192.667 17.12 193.187 18.56 193.8C20 194.413 21.1067 195.24 21.88 196.28C22.6533 197.293 23.04 198.653 23.04 200.36C23.04 201.72 22.7733 202.907 22.24 203.92C21.7333 204.907 21.0133 205.733 20.08 206.4C19.1467 207.04 18.0533 207.52 16.8 207.84C15.5467 208.133 14.1867 208.28 12.72 208.28C11.28 208.28 9.86667 208.133 8.48 207.84C7.12 207.52 5.82667 207.067 4.6 206.48C3.37333 205.893 2.22667 205.16 1.16 204.28L2.88 201.24C3.30667 201.693 3.85333 202.147 4.52 202.6C5.21333 203.027 5.98667 203.427 6.84 203.8C7.72 204.173 8.66667 204.48 9.68 204.72C10.6933 204.933 11.7333 205.04 12.8 205.04C14.8267 205.04 16.4 204.68 17.52 203.96C18.64 203.213 19.2 202.133 19.2 200.72C19.2 199.653 18.88 198.8 18.24 198.16C17.6267 197.52 16.7067 196.987 15.48 196.56C14.2533 196.133 12.76 195.707 11 195.28C9.08 194.8 7.46667 194.28 6.16 193.72C4.85333 193.133 3.86667 192.373 3.2 191.44C2.56 190.507 2.24 189.293 2.24 187.8C2.24 185.987 2.68 184.453 3.56 183.2C4.44 181.947 5.65333 181 7.2 180.36C8.74667 179.72 10.4933 179.4 12.44 179.4C13.72 179.4 14.9067 179.533 16 179.8C17.12 180.067 18.16 180.44 19.12 180.92C20.08 181.4 20.96 181.973 21.76 182.64L20.08 185.56ZM58.255 182.8H48.455V208H44.855V182.8H35.055V179.6H58.255V182.8ZM91.6253 204.8V208H72.3453V179.6H91.2653V182.8H75.9453V192H89.2653V195H75.9453V204.8H91.6253ZM107.364 179.6L116.764 203.48L126.124 179.6H129.924L118.404 208H115.124L103.564 179.6H107.364ZM154.178 208.2C152.178 208.2 150.364 207.8 148.738 207C147.111 206.2 145.698 205.12 144.498 203.76C143.324 202.373 142.418 200.827 141.778 199.12C141.138 197.387 140.818 195.613 140.818 193.8C140.818 191.907 141.151 190.107 141.818 188.4C142.511 186.667 143.458 185.133 144.658 183.8C145.884 182.44 147.311 181.373 148.938 180.6C150.564 179.8 152.338 179.4 154.258 179.4C156.258 179.4 158.071 179.813 159.698 180.64C161.324 181.467 162.724 182.573 163.898 183.96C165.071 185.347 165.978 186.893 166.618 188.6C167.258 190.307 167.578 192.053 167.578 193.84C167.578 195.733 167.244 197.547 166.578 199.28C165.911 200.987 164.964 202.52 163.738 203.88C162.538 205.213 161.124 206.267 159.498 207.04C157.871 207.813 156.098 208.2 154.178 208.2ZM144.458 193.8C144.458 195.24 144.684 196.64 145.138 198C145.618 199.333 146.284 200.52 147.138 201.56C147.991 202.6 149.018 203.427 150.218 204.04C151.418 204.653 152.751 204.96 154.218 204.96C155.738 204.96 157.098 204.64 158.298 204C159.498 203.36 160.511 202.507 161.338 201.44C162.191 200.373 162.831 199.173 163.258 197.84C163.711 196.507 163.938 195.16 163.938 193.8C163.938 192.36 163.698 190.973 163.218 189.64C162.764 188.307 162.098 187.12 161.218 186.08C160.364 185.013 159.338 184.187 158.138 183.6C156.964 182.987 155.658 182.68 154.218 182.68C152.698 182.68 151.338 183 150.138 183.64C148.938 184.253 147.911 185.093 147.058 186.16C146.231 187.227 145.591 188.427 145.138 189.76C144.684 191.067 144.458 192.413 144.458 193.8ZM199.26 185.56C198.94 185.187 198.513 184.827 197.98 184.48C197.446 184.133 196.846 183.827 196.18 183.56C195.513 183.267 194.78 183.04 193.98 182.88C193.206 182.693 192.393 182.6 191.54 182.6C189.353 182.6 187.74 183.013 186.7 183.84C185.66 184.667 185.14 185.8 185.14 187.24C185.14 188.253 185.406 189.053 185.94 189.64C186.473 190.227 187.286 190.707 188.38 191.08C189.5 191.453 190.913 191.84 192.62 192.24C194.593 192.667 196.3 193.187 197.74 193.8C199.18 194.413 200.286 195.24 201.06 196.28C201.833 197.293 202.22 198.653 202.22 200.36C202.22 201.72 201.953 202.907 201.42 203.92C200.913 204.907 200.193 205.733 199.26 206.4C198.326 207.04 197.233 207.52 195.98 207.84C194.726 208.133 193.366 208.28 191.9 208.28C190.46 208.28 189.046 208.133 187.66 207.84C186.3 207.52 185.006 207.067 183.78 206.48C182.553 205.893 181.406 205.16 180.34 204.28L182.06 201.24C182.486 201.693 183.033 202.147 183.7 202.6C184.393 203.027 185.166 203.427 186.02 203.8C186.9 204.173 187.846 204.48 188.86 204.72C189.873 204.933 190.913 205.04 191.98 205.04C194.006 205.04 195.58 204.68 196.7 203.96C197.82 203.213 198.38 202.133 198.38 200.72C198.38 199.653 198.06 198.8 197.42 198.16C196.806 197.52 195.886 196.987 194.66 196.56C193.433 196.133 191.94 195.707 190.18 195.28C188.26 194.8 186.646 194.28 185.34 193.72C184.033 193.133 183.046 192.373 182.38 191.44C181.74 190.507 181.42 189.293 181.42 187.8C181.42 185.987 181.86 184.453 182.74 183.2C183.62 181.947 184.833 181 186.38 180.36C187.926 179.72 189.673 179.4 191.62 179.4C192.9 179.4 194.086 179.533 195.18 179.8C196.3 180.067 197.34 180.44 198.3 180.92C199.26 181.4 200.14 181.973 200.94 182.64L199.26 185.56ZM216.955 208V179.64H220.555V195.32L235.195 179.6H239.075L227.675 192.12L239.715 208H235.675L225.395 194.28L220.555 199.32V208H216.955ZM261.688 179.6H264.728L276.328 208H272.488L269.128 199.68H257.208L253.888 208H250.048L261.688 179.6ZM268.328 196.88L263.208 183.76L257.928 196.88H268.328Z" fill="#577C8E"/>
<path d="M95.19 236V226.06H98.634C99.698 226.06 100.585 226.284 101.294 226.732C102.013 227.171 102.549 227.768 102.904 228.524C103.259 229.271 103.436 230.101 103.436 231.016C103.436 232.024 103.24 232.901 102.848 233.648C102.456 234.395 101.901 234.973 101.182 235.384C100.463 235.795 99.614 236 98.634 236H95.19ZM102.162 231.016C102.162 230.269 102.022 229.607 101.742 229.028C101.471 228.449 101.075 227.997 100.552 227.67C100.029 227.343 99.39 227.18 98.634 227.18H96.45V234.88H98.634C99.3993 234.88 100.043 234.712 100.566 234.376C101.089 234.031 101.485 233.569 101.756 232.99C102.027 232.402 102.162 231.744 102.162 231.016ZM116.859 234.88V236H110.111V226.06H116.733V227.18H111.371V230.4H116.033V231.45H111.371V234.88H116.859ZM129.326 228.146C129.214 228.015 129.065 227.889 128.878 227.768C128.691 227.647 128.481 227.539 128.248 227.446C128.015 227.343 127.758 227.264 127.478 227.208C127.207 227.143 126.923 227.11 126.624 227.11C125.859 227.11 125.294 227.255 124.93 227.544C124.566 227.833 124.384 228.23 124.384 228.734C124.384 229.089 124.477 229.369 124.664 229.574C124.851 229.779 125.135 229.947 125.518 230.078C125.91 230.209 126.405 230.344 127.002 230.484C127.693 230.633 128.29 230.815 128.794 231.03C129.298 231.245 129.685 231.534 129.956 231.898C130.227 232.253 130.362 232.729 130.362 233.326C130.362 233.802 130.269 234.217 130.082 234.572C129.905 234.917 129.653 235.207 129.326 235.44C128.999 235.664 128.617 235.832 128.178 235.944C127.739 236.047 127.263 236.098 126.75 236.098C126.246 236.098 125.751 236.047 125.266 235.944C124.79 235.832 124.337 235.673 123.908 235.468C123.479 235.263 123.077 235.006 122.704 234.698L123.306 233.634C123.455 233.793 123.647 233.951 123.88 234.11C124.123 234.259 124.393 234.399 124.692 234.53C125 234.661 125.331 234.768 125.686 234.852C126.041 234.927 126.405 234.964 126.778 234.964C127.487 234.964 128.038 234.838 128.43 234.586C128.822 234.325 129.018 233.947 129.018 233.452C129.018 233.079 128.906 232.78 128.682 232.556C128.467 232.332 128.145 232.145 127.716 231.996C127.287 231.847 126.764 231.697 126.148 231.548C125.476 231.38 124.911 231.198 124.454 231.002C123.997 230.797 123.651 230.531 123.418 230.204C123.194 229.877 123.082 229.453 123.082 228.93C123.082 228.295 123.236 227.759 123.544 227.32C123.852 226.881 124.277 226.55 124.818 226.326C125.359 226.102 125.971 225.99 126.652 225.99C127.1 225.99 127.515 226.037 127.898 226.13C128.29 226.223 128.654 226.354 128.99 226.522C129.326 226.69 129.634 226.891 129.914 227.124L129.326 228.146ZM136.919 236V226.06H138.179V236H136.919ZM149.446 236.07C148.793 236.07 148.181 235.93 147.612 235.65C147.052 235.361 146.562 234.978 146.142 234.502C145.722 234.017 145.395 233.475 145.162 232.878C144.929 232.271 144.812 231.646 144.812 231.002C144.812 230.33 144.929 229.695 145.162 229.098C145.395 228.491 145.717 227.955 146.128 227.488C146.548 227.021 147.038 226.657 147.598 226.396C148.167 226.125 148.783 225.99 149.446 225.99C150.407 225.99 151.201 226.191 151.826 226.592C152.451 226.993 152.923 227.516 153.24 228.16L152.274 228.832C151.985 228.253 151.588 227.824 151.084 227.544C150.58 227.264 150.025 227.124 149.418 227.124C148.914 227.124 148.457 227.231 148.046 227.446C147.635 227.661 147.281 227.955 146.982 228.328C146.693 228.692 146.469 229.107 146.31 229.574C146.161 230.041 146.086 230.526 146.086 231.03C146.086 231.562 146.17 232.066 146.338 232.542C146.515 233.009 146.763 233.424 147.08 233.788C147.397 234.143 147.766 234.423 148.186 234.628C148.606 234.833 149.059 234.936 149.544 234.936C150.113 234.936 150.655 234.791 151.168 234.502C151.681 234.213 152.167 233.769 152.624 233.172V234.474C151.728 235.538 150.669 236.07 149.446 236.07ZM152.47 231.996H150.328V231.044H153.534V236H152.47V231.996ZM161.61 228.384V236H160.35V226.06H161.414L167.49 233.83V226.074H168.75V236H167.602L161.61 228.384ZM181.862 228.146C181.75 228.015 181.6 227.889 181.414 227.768C181.227 227.647 181.017 227.539 180.784 227.446C180.55 227.343 180.294 227.264 180.014 227.208C179.743 227.143 179.458 227.11 179.16 227.11C178.394 227.11 177.83 227.255 177.466 227.544C177.102 227.833 176.92 228.23 176.92 228.734C176.92 229.089 177.013 229.369 177.2 229.574C177.386 229.779 177.671 229.947 178.054 230.078C178.446 230.209 178.94 230.344 179.538 230.484C180.228 230.633 180.826 230.815 181.33 231.03C181.834 231.245 182.221 231.534 182.492 231.898C182.762 232.253 182.898 232.729 182.898 233.326C182.898 233.802 182.804 234.217 182.618 234.572C182.44 234.917 182.188 235.207 181.862 235.44C181.535 235.664 181.152 235.832 180.714 235.944C180.275 236.047 179.799 236.098 179.286 236.098C178.782 236.098 178.287 236.047 177.802 235.944C177.326 235.832 176.873 235.673 176.444 235.468C176.014 235.263 175.613 235.006 175.24 234.698L175.842 233.634C175.991 233.793 176.182 233.951 176.416 234.11C176.658 234.259 176.929 234.399 177.228 234.53C177.536 234.661 177.867 234.768 178.222 234.852C178.576 234.927 178.94 234.964 179.314 234.964C180.023 234.964 180.574 234.838 180.966 234.586C181.358 234.325 181.554 233.947 181.554 233.452C181.554 233.079 181.442 232.78 181.218 232.556C181.003 232.332 180.681 232.145 180.252 231.996C179.822 231.847 179.3 231.697 178.684 231.548C178.012 231.38 177.447 231.198 176.99 231.002C176.532 230.797 176.187 230.531 175.954 230.204C175.73 229.877 175.618 229.453 175.618 228.93C175.618 228.295 175.772 227.759 176.08 227.32C176.388 226.881 176.812 226.55 177.354 226.326C177.895 226.102 178.506 225.99 179.188 225.99C179.636 225.99 180.051 226.037 180.434 226.13C180.826 226.223 181.19 226.354 181.526 226.522C181.862 226.69 182.17 226.891 182.45 227.124L181.862 228.146Z" fill="#577C8E"/>
<path d="M179.758 35.4231C176.04 24.8319 169.818 16.9601 161.093 11.8077C152.511 6.51212 140.783 3.86433 125.908 3.86433C119.328 3.86433 115.038 5.08088 113.035 7.51398C111.033 9.94709 110.032 14.8849 110.032 22.3273C110.032 22.3273 111.369 59.5256 108.398 69.1628C105.919 77.205 92.538 75.1944 91.1074 69.4229C88.3361 58.2421 90.0789 22.7567 90.0789 22.7567C90.0789 17.4611 89.6499 13.5967 88.7917 11.1636C87.9335 8.58742 86.2172 6.86993 83.6426 6.01119C81.2111 5.00932 76.4104 4.29371 72.7009 4.29371C68.9914 4.29371 69.0819 0.402113 73.103 0.402109C77.124 0.402106 79.6378 0.357805 84.5008 0.644048C89.3638 0.78717 94.1553 0.78717 98.8752 0.644048C103.881 0.500926 109.531 0.357805 115.824 0.214683C122.117 0.0715609 127.267 0 131.271 0C156.874 0 175.897 6.44056 188.34 19.3217C200.784 32.0597 207.005 50.3795 207.005 74.2812C207.005 89.8817 203.93 103.55 197.78 115.286C191.773 126.879 182.976 135.896 171.391 142.336C159.806 148.777 145.789 151.997 129.34 151.997C127.195 151.997 124.211 152.14 120.635 151.997C118.859 151.926 96.6636 152.033 94.8169 151.997L103.663 146.516C106.102 147.789 121.363 148.133 126.122 148.133C141.713 148.133 153.799 145.342 162.38 139.76C170.962 134.035 176.969 125.734 180.402 114.857C183.835 103.979 185.551 90.7404 185.551 75.1399C185.551 59.1101 183.62 45.8711 179.758 35.4231Z" fill="#577C8E"/>
<circle cx="85.1276" cy="114.653" r="1.68395" transform="rotate(-15 85.1276 114.653)" fill="#577C8E"/>
<g filter="url(#filter0_d_1_375)">
<path d="M81.1869 119.749C78.0497 123.81 76.4811 128.199 76.4811 132.917C76.4811 138.531 78.8642 142.89 83.6303 145.996C86.4055 147.847 89.5427 148.772 93.0419 148.772C96.6014 148.772 99.6783 148.086 102.272 146.712C107.159 144.204 109.904 139.994 110.508 134.082C110.568 133.663 110.598 133.245 110.598 132.827C110.598 130.618 109.965 128.229 108.698 125.661C107.491 123.093 105.5 120.734 102.725 118.584L86.4357 105.864C82.8762 103.117 81.0964 99.5638 81.0964 95.2043C81.0964 90.8448 82.5142 87.1721 85.3498 84.1861C88.1853 81.1405 92.0163 79.6176 96.8427 79.6176C99.256 79.6176 102.668 80.4218 104.779 81.6282C106.89 82.8345 107.996 83.6387 109.604 86.0514C110.623 87.5787 111.213 89.2682 111.772 90.8767C111.957 91.4081 112.58 94.5992 110.489 91.5316C108.398 88.464 106.83 86.4575 104.779 84.845C102.788 83.1729 99.9196 82.305 96.8427 82.305C93.8262 82.305 91.2923 83.3202 89.2411 85.3507C87.1898 87.3214 86.1642 89.8893 86.1642 93.0544C86.1642 96.1598 87.4915 98.7576 90.146 100.848L106.888 113.926C113.524 119.122 116.842 125.392 116.842 132.738C116.842 138.232 114.64 142.95 110.236 146.891C106.435 150.295 101.368 151.997 95.0328 151.997C91.1717 151.997 87.7328 151.281 84.7163 149.847C79.0452 147.22 75.6365 142.741 74.4902 136.411C74.3092 135.455 74.2188 134.261 74.2188 132.827C74.2188 131.334 74.6411 129.334 75.4857 126.826C76.3303 124.258 77.9592 121.69 80.3725 119.122C82.7857 116.554 84.3241 115.688 81.1869 119.749Z" fill="#577C8E"/>
</g>
<defs>
<filter id="filter0_d_1_375" x="67.7188" y="79.1176" width="49.1235" height="75.3797" filterUnits="userSpaceOnUse" color-interpolation-filters="sRGB">
<feFlood flood-opacity="0" result="BackgroundImageFix"/>
<feColorMatrix in="SourceAlpha" type="matrix" values="0 0 0 0 0 0 0 0 0 0 0 0 0 0 0 0 0 0 127 0" result="hardAlpha"/>
<feOffset dx="-5" dy="1"/>
<feGaussianBlur stdDeviation="0.75"/>
<feComposite in2="hardAlpha" operator="out"/>
<feColorMatrix type="matrix" values="0 0 0 0 0 0 0 0 0 0 0 0 0 0 0 0 0 0 0.25 0"/>
<feBlend mode="normal" in2="BackgroundImageFix" result="effect1_dropShadow_1_375"/>
<feBlend mode="normal" in="SourceGraphic" in2="effect1_dropShadow_1_375" result="shape"/>
</filter>
</defs>
</svg>
