<svg width="85" height="85" viewBox="0 0 85 85" fill="none" xmlns="http://www.w3.org/2000/svg">
<path d="M31.875 10.625H42.5V31.875H31.875C29.0571 31.875 26.3546 30.7556 24.362 28.763C22.3694 26.7704 21.25 24.0679 21.25 21.25C21.25 18.4321 22.3694 15.7296 24.362 13.737C26.3546 11.7444 29.0571 10.625 31.875 10.625Z" fill="#F4511E"/>
<path d="M53.125 31.875H42.5V10.625H53.125C55.9429 10.625 58.6454 11.7444 60.638 13.737C62.6306 15.7296 63.75 18.4321 63.75 21.25C63.75 24.0679 62.6306 26.7704 60.638 28.763C58.6454 30.7556 55.9429 31.875 53.125 31.875Z" fill="#FF8A65"/>
<path d="M42.5 42.5C42.5 48.368 47.257 53.125 53.125 53.125C58.993 53.125 63.75 48.368 63.75 42.5C63.75 36.632 58.993 31.875 53.125 31.875C47.257 31.875 42.5 36.632 42.5 42.5Z" fill="#29B6F6"/>
<path d="M31.875 31.875H42.5V53.125H31.875C29.0571 53.125 26.3546 52.0056 24.362 50.013C22.3694 48.0204 21.25 45.3179 21.25 42.5C21.25 39.6821 22.3694 36.9796 24.362 34.987C26.3546 32.9944 29.0571 31.875 31.875 31.875Z" fill="#7C4DFF"/>
<path d="M31.875 53.125H42.5V63.75C42.5 66.5679 41.3806 69.2704 39.388 71.263C37.3954 73.2556 34.6929 74.375 31.875 74.375C29.0571 74.375 26.3546 73.2556 24.362 71.263C22.3694 69.2704 21.25 66.5679 21.25 63.75C21.25 60.9321 22.3694 58.2296 24.362 56.237C26.3546 54.2444 29.0571 53.125 31.875 53.125Z" fill="#00E676"/>
</svg>
