<svg width="50" height="50" viewBox="0 0 50 50" fill="none" xmlns="http://www.w3.org/2000/svg">
<path d="M37.5001 40.1844H11.6251C11.433 40.1844 11.2427 40.1465 11.0652 40.073C10.8877 39.9994 10.7264 39.8916 10.5906 39.7557C10.4548 39.6197 10.3471 39.4584 10.2736 39.2808C10.2002 39.1033 10.1625 38.913 10.1626 38.7208V6.15C10.1626 5.34271 10.8168 4.6875 11.6251 4.6875H37.5022C38.1222 4.68778 38.7168 4.93428 39.1551 5.37281C39.5934 5.81134 39.8397 6.406 39.8397 7.02604V37.8458C39.8397 38.4659 39.5934 39.0605 39.1551 39.4991C38.7168 39.9376 38.1222 40.1841 37.5022 40.1844M14.1366 4.6875V40.1844M26.9366 4.69167V25.7521M33.8928 25.6854V4.69167M26.9366 13.9281H20.3751M26.9366 22.4333H20.3751M26.9366 18.1802H20.3751" stroke="#2F4157" stroke-width="1.5" stroke-linecap="round" stroke-linejoin="round"/>
<path d="M35.9481 27.0229C35.6461 26.6307 35.2699 26.3019 34.8408 26.0552C34.4117 25.8085 33.9382 25.6488 33.4474 25.5851C32.9566 25.5215 32.458 25.5552 31.9802 25.6843C31.5024 25.8133 31.0547 26.0353 30.6627 26.3375L30.5408 26.4312L30.4189 26.3375C30.0276 26.0294 29.579 25.802 29.0992 25.6684C28.6194 25.5348 28.1178 25.4976 27.6236 25.5591C27.1293 25.6205 26.6521 25.7794 26.2197 26.0264C25.7872 26.2735 25.408 26.6038 25.104 26.9984C24.8 27.3929 24.5772 27.8438 24.4486 28.325C24.32 28.8062 24.288 29.3081 24.3546 29.8017C24.4212 30.2953 24.585 30.7708 24.8365 31.2007C25.0881 31.6306 25.4223 32.0063 25.82 32.3062L30.5408 35.9448L35.2617 32.3073C35.6538 32.0053 35.9826 31.629 36.2293 31.1999C36.476 30.7709 36.6357 30.2974 36.6994 29.8065C36.763 29.3157 36.7294 28.8172 36.6003 28.3393C36.4712 27.8615 36.2492 27.4138 35.9471 27.0218M33.345 40.1843V45.3125L30.4867 43.7156L27.6294 45.3125V40.1843" stroke="#2F4157" stroke-width="1.5" stroke-linecap="round" stroke-linejoin="round"/>
</svg>
