<svg width="50" height="50" viewBox="0 0 50 50" fill="none" xmlns="http://www.w3.org/2000/svg">
<path d="M16.4289 20.8335C17.8581 23.7439 19.3831 26.4689 19.0331 29.821C18.4685 35.1814 11.9706 37.1981 7.81226 39.6668C5.08934 41.2856 6.10809 45.8335 9.44976 45.8335C13.4998 45.8335 17.1164 45.5106 20.7727 43.7918L27.9393 39.3814C28.9352 38.9127 30.1893 39.1127 31.2498 39.5835" stroke="#2F4157" stroke-width="2" stroke-linecap="round" stroke-linejoin="round"/>
<path d="M33.3542 20.8335C31.8958 23.7439 30.3375 26.4689 30.6979 29.821C31.2729 35.1814 37.9104 37.1981 42.1542 39.6668C44.9333 41.2856 43.8937 45.8335 40.4833 45.8335C36.3458 45.8335 32.6521 45.5106 28.9208 43.7918L21.6 39.3814C20.7458 38.9877 19.7042 39.0668 18.75 39.3814" stroke="#2F4157" stroke-width="2" stroke-linecap="round" stroke-linejoin="round"/>
<path d="M20.833 8.33341C20.833 9.43848 21.272 10.4983 22.0534 11.2797C22.8348 12.0611 23.8946 12.5001 24.9997 12.5001C26.1047 12.5001 27.1646 12.0611 27.946 11.2797C28.7274 10.4983 29.1663 9.43848 29.1663 8.33341C29.1663 7.22835 28.7274 6.16854 27.946 5.38714C27.1646 4.60573 26.1047 4.16675 24.9997 4.16675C23.8946 4.16675 22.8348 4.60573 22.0534 5.38714C21.272 6.16854 20.833 7.22835 20.833 8.33341Z" stroke="#2F4157" stroke-width="2"/>
<path d="M6.25 33.3334C11.3458 33.3334 13.6333 27.698 14.3604 23.8126C14.5521 22.7959 14.8604 21.7855 15.5333 21.0022C16.7061 19.6405 18.159 18.5482 19.7929 17.8C21.4268 17.0517 23.203 16.6652 25 16.6668C28.7833 16.6668 32.175 18.348 34.4667 21.0022C35.1396 21.7855 35.4479 22.7959 35.6396 23.8105C36.3687 27.698 38.6542 33.3334 43.75 33.3334" stroke="#2F4157" stroke-width="2" stroke-linecap="round" stroke-linejoin="round"/>
</svg>
