<svg width="342" height="106" viewBox="0 0 342 106" fill="none" xmlns="http://www.w3.org/2000/svg">
<circle cx="50.5367" cy="6.74179" r="6.74179" fill="#3E3A5D"/>
<path d="M61.2089 23.3848C61.8621 27.1195 64.1891 32.842 69.0351 37.4772C73.8117 42.046 81.1388 45.6624 92.0691 45.164C102.999 44.6655 104.499 49.3605 92.2859 49.9175C80.073 50.4744 71.4741 46.3956 65.7456 40.9163C60.0865 35.5034 57.3293 28.8248 56.5213 24.2043C55.7133 19.5839 60.5558 19.6502 61.2089 23.3848Z" fill="#3E3A5D"/>
<path d="M40.6596 23.3755C39.993 27.0985 37.6148 32.8186 32.6491 37.4579C27.7507 42.0341 20.2266 45.6631 9.00244 45.1632C-2.22173 44.6633 -3.67958 49.362 8.79021 49.9175C21.26 50.4729 30.0407 46.4073 35.8976 40.9356C41.6869 35.5269 44.5138 30.5813 45.3441 24.2136C46.1744 17.8459 41.3262 19.6526 40.6596 23.3755Z" fill="#3E3A5D"/>
<path d="M16.2337 84.1903C15.9447 76.0036 17.0808 72.2066 25.0123 65.8614C32.9438 59.5162 25.0123 57.1069 18.5424 62.8468C12.0724 68.5867 9.20036 74.4055 9.54583 84.1903C9.7199 89.1198 11.6832 94.09 14.7569 98.0681C17.9049 102.142 22.7025 104.745 29.2033 105.467L29.2389 105.471L29.2746 105.474C32.9286 105.807 38.311 104.969 43.1872 101.551C48.1813 98.0506 53.6421 89.9602 55.0397 80.5266C57.2511 65.6005 66.8061 64.2697 71.585 64.2461C74.882 64.3647 79.4672 66.1096 82.2415 71.2063C87.3148 80.5266 82.8767 91.8057 75.7383 98.9131C68.6 106.02 75.7383 108.58 82.5483 101.054C89.3582 93.5276 96.1674 81.8595 88.5108 67.7936C84.3217 60.0978 77.1667 57.2728 71.7431 57.1085L71.6888 57.1069H71.6346C64.2258 57.1071 50.8351 60.1954 47.978 79.4809C46.8375 87.1789 42.3179 93.4428 39.0898 95.7057C35.7582 98.0411 32.1151 98.5567 29.9492 98.3671C25.0548 97.8145 22.1702 95.9869 20.4058 93.7034C18.5623 91.3175 16.377 88.2462 16.2337 84.1903Z" fill="#3E3A5D"/>
<path d="M319.536 46.7009C319.282 46.5106 319.076 46.3202 318.917 46.1299C318.759 45.9078 318.679 45.5271 318.679 44.9877C318.679 44.3849 318.885 43.9249 319.298 43.6076C319.742 43.2586 320.25 43.0842 320.821 43.0842C321.931 43.0842 322.883 43.3697 323.676 43.9408C324.501 44.5118 325.104 45.305 325.484 46.3202C326.182 45.0194 327.071 44.1311 328.149 43.6552C329.228 43.1476 330.719 42.8938 332.623 42.8938C333.384 42.8938 334.162 43.1317 334.955 43.6076C335.78 44.0518 336.525 44.607 337.191 45.2733C337.731 45.9712 338.191 46.8437 338.571 47.8907C338.952 48.9059 339.143 49.8259 339.143 50.6508C339.143 51.1267 339.111 51.904 339.047 52.9827C338.984 54.1248 338.952 55.029 338.952 55.6953C338.952 57.9161 339.38 59.2803 340.237 59.7879C340.364 59.8514 340.602 59.9307 340.951 60.0259C341.3 60.1211 341.554 60.2162 341.712 60.3114C341.903 60.4066 341.998 60.5494 341.998 60.7397C342.03 61.5011 341.744 62.1357 341.141 62.6433C340.57 63.1192 339.872 63.3571 339.047 63.3571C337.81 63.3571 336.842 63.024 336.144 62.3577C335.446 61.6915 334.955 60.6763 334.669 59.312C334.511 58.8044 334.431 58.0589 334.431 57.0754C334.431 56.536 334.463 55.6635 334.526 54.458C334.622 53.5062 334.669 52.4909 334.669 51.4122C334.669 50.3018 334.352 49.3342 333.717 48.5093C333.083 47.6527 332.21 47.2244 331.1 47.2244C330.434 47.2244 329.736 47.4306 329.006 47.8431C328.276 48.2238 327.769 48.6997 327.483 49.2707C327.007 50.2542 326.69 51.2536 326.531 52.2689C326.151 54.2359 325.96 56.1236 325.96 57.932C325.96 58.3761 325.992 59.2327 326.056 60.5018C326.056 60.5969 326.056 60.8349 326.056 61.2156C326.056 61.5646 326.008 61.8977 325.913 62.215C325.849 62.5322 325.722 62.8178 325.532 63.0716C325.405 63.1985 325.167 63.3254 324.818 63.4523C324.469 63.5792 324.168 63.6427 323.914 63.6427C323.47 63.6427 322.915 63.4523 322.248 63.0716C321.582 62.6909 321.186 62.2626 321.059 61.7867L321.011 61.1204C321.011 60.8666 321.043 60.4859 321.106 59.9783C321.487 57.7575 321.677 55.8222 321.677 54.1724C321.677 53.4427 321.661 52.8875 321.63 52.5068L321.582 50.3177C321.582 49.6515 321.392 49.0169 321.011 48.4141C320.63 47.7796 320.139 47.2085 319.536 46.7009Z" fill="#3E3A5D"/>
<path d="M305.408 32.9C306.519 32.9951 307.486 33.2965 308.311 33.8042C309.136 34.2801 309.549 35.0098 309.549 35.9933C309.549 36.723 309.2 37.3099 308.502 37.7541C307.835 38.1665 307.026 38.3727 306.075 38.3727C305.154 38.3727 304.52 38.1348 304.171 37.6589C303.822 37.183 303.647 36.6912 303.647 36.1836C303.647 35.2318 303.743 34.4387 303.933 33.8042C304.155 33.1696 304.647 32.8682 305.408 32.9ZM309.215 53.9819V55.362C309.215 56.5993 309.247 57.7732 309.311 58.8836C309.406 59.9623 309.517 61.0569 309.644 62.1673C309.612 62.4845 309.374 62.8177 308.93 63.1666C308.486 63.4839 308.089 63.6425 307.74 63.6425C307.137 63.6425 306.519 63.5315 305.884 63.3094C305.281 63.0556 304.917 62.7542 304.79 62.4052C304.599 61.39 304.504 60.4858 304.504 59.6926C304.504 57.0911 304.425 54.1723 304.266 50.9362C304.139 48.0809 304.076 46.0822 304.076 44.94C304.076 44.3689 304.361 43.8772 304.932 43.4648C305.503 43.0523 306.106 42.8461 306.741 42.8461C307.661 42.8461 308.295 43.0523 308.644 43.4648C309.025 43.8772 309.215 44.5276 309.215 45.4159V53.9819Z" fill="#3E3A5D"/>
<path d="M278.373 33.2807C278.373 34.1056 278.357 35.0733 278.326 36.1837C278.294 37.2624 278.262 38.0872 278.231 38.6583C278.135 40.2763 278.088 41.8944 278.088 43.5124C278.088 44.718 278.135 45.9712 278.231 47.2719C279.214 45.8443 280.277 44.7973 281.419 44.1311C282.561 43.4648 283.941 43.1317 285.559 43.1317C286.733 43.1317 287.828 43.6552 288.843 44.7021C289.858 45.7491 290.509 46.9705 290.794 48.3665C290.889 49.6038 290.937 51.1108 290.937 52.8875C290.937 54.0296 291 55.5207 291.127 57.3608C291.191 58.0588 291.365 58.7092 291.651 59.312C291.968 59.9148 292.412 60.2162 292.983 60.2162C293.269 60.2162 293.491 60.2003 293.649 60.1686C293.84 60.1369 294.014 60.121 294.173 60.121C294.617 60.121 294.918 60.232 295.077 60.4541C295.267 60.6762 295.363 60.9935 295.363 61.4059C295.363 62.1673 294.982 62.7384 294.22 63.1191C293.459 63.4998 292.761 63.6902 292.127 63.6902C289.842 63.6902 288.272 62.7384 287.415 60.8348C286.939 59.7562 286.638 58.3602 286.511 56.647C286.384 54.9021 286.321 52.8716 286.321 50.5556C286.321 48.2713 285.543 47.1292 283.989 47.1292C283.132 47.1292 282.26 47.5892 281.371 48.5093C280.515 49.3976 279.801 50.5873 279.23 52.0784C278.659 53.5378 278.373 55.0607 278.373 56.647L278.421 61.5963C278.421 62.2942 278.151 62.8177 277.612 63.1667C277.073 63.484 276.565 63.6426 276.089 63.6426C275.391 63.6426 274.757 63.4364 274.185 63.0239C273.614 62.5798 273.329 62.088 273.329 61.5487C273.551 59.1692 273.662 55.1876 273.662 49.6038C273.662 48.5886 273.583 44.829 273.424 38.3252L273.281 33.947C273.281 33.249 273.599 32.6462 274.233 32.1386C274.868 31.5993 275.581 31.3296 276.375 31.3296C277.073 31.3296 277.58 31.4882 277.897 31.8055C278.215 32.1227 278.373 32.6145 278.373 33.2807Z" fill="#3E3A5D"/>
<path d="M250.059 46.9863C249.615 46.9228 249.25 46.7324 248.965 46.4152C248.711 46.0979 248.584 45.7172 248.584 45.273C248.584 45.051 248.632 44.813 248.727 44.5592C248.854 44.3054 249.028 44.0833 249.25 43.893C249.663 43.544 250.218 43.2109 250.916 42.8936C251.646 42.6081 252.169 42.2591 252.486 41.8466C252.804 41.4342 252.962 40.6569 252.962 39.5148C252.962 39.0389 252.93 38.6264 252.867 38.2774C252.835 37.9285 252.819 37.6588 252.819 37.4684C252.819 36.7705 253.073 36.247 253.581 35.898C254.088 35.549 254.675 35.3745 255.342 35.3745C256.167 35.3745 256.722 35.5807 257.007 35.9932C257.325 36.4056 257.483 37.167 257.483 38.2774C257.483 39.3561 257.436 40.2921 257.34 41.0852C257.245 41.8466 257.039 42.5287 256.722 43.1315C257.166 43.1315 257.896 43.0998 258.911 43.0364C260.307 42.9729 261.274 42.9412 261.814 42.9412C262.353 42.9412 262.829 43.0839 263.241 43.3695C263.654 43.6233 263.86 43.9881 263.86 44.464C263.86 45.1303 263.717 45.622 263.432 45.9393C263.146 46.2566 262.734 46.4628 262.194 46.558C260.894 46.9069 259.054 47.1132 256.674 47.1766C256.611 48.4139 256.579 49.7623 256.579 51.2217C256.579 53.6646 256.722 55.5364 257.007 56.8372C257.198 57.8524 257.515 58.598 257.959 59.0739C258.435 59.5181 259.133 59.7401 260.053 59.7401C260.529 59.7401 260.91 59.6767 261.195 59.5498C261.512 59.4229 261.687 59.3436 261.719 59.3118C262.099 59.0898 262.448 58.9787 262.766 58.9787C263.21 58.9787 263.527 59.1215 263.717 59.407C263.939 59.6926 264.05 60.0733 264.05 60.5492C264.05 61.4375 263.575 62.183 262.623 62.7858C261.671 63.3569 260.45 63.6424 258.958 63.6424C257.277 63.6424 255.849 63.1507 254.675 62.1672C253.533 61.1519 252.851 59.8195 252.629 58.1697C252.312 56.6786 252.153 54.5847 252.153 51.8879C252.153 50.7141 252.217 49.1436 252.344 47.1766L250.059 46.9863Z" fill="#3E3A5D"/>
<path d="M235.453 32.9001C236.564 32.9953 237.516 33.2967 238.309 33.8043C239.134 34.2802 239.546 35.0099 239.546 35.9934C239.546 36.7231 239.213 37.31 238.547 37.7542C237.88 38.1666 237.056 38.3729 236.072 38.3729C235.152 38.3729 234.517 38.1349 234.169 37.659C233.82 37.1831 233.645 36.6914 233.645 36.1838C233.645 35.2637 233.756 34.4864 233.978 33.8519C234.2 33.1856 234.692 32.8684 235.453 32.9001ZM234.502 52.5544V51.1743C234.502 49.588 234.422 48.1445 234.264 46.8437C234.137 45.5112 234.057 44.6863 234.026 44.3691C234.057 44.0201 234.295 43.687 234.74 43.3697C235.184 43.0525 235.58 42.8938 235.929 42.8938C236.532 42.8938 237.135 43.0207 237.738 43.2745C238.372 43.4966 238.769 43.7822 238.927 44.1311C239.086 45.305 239.165 46.2092 239.165 46.8437C239.165 48.2397 239.229 50.5239 239.356 53.6966L239.403 55.5525L239.498 57.3609C239.53 57.8685 239.562 58.4713 239.594 59.1693C239.625 59.8673 239.641 60.6604 239.641 61.5488C239.641 62.1516 239.34 62.6592 238.737 63.0716C238.166 63.484 237.563 63.6903 236.929 63.6903C236.009 63.6903 235.358 63.484 234.978 63.0716C234.629 62.6592 234.454 62.0088 234.454 61.1205L234.502 52.5544Z" fill="#3E3A5D"/>
<path d="M217.957 52.126C218.147 51.4281 218.354 50.4763 218.576 49.2707C218.893 47.843 219.147 46.7643 219.337 46.0346C219.528 45.3049 219.781 44.6863 220.099 44.1786C220.448 43.6076 220.749 43.2269 221.003 43.0365C221.288 42.8462 221.59 42.751 221.907 42.751C223.557 42.751 224.382 43.3855 224.382 44.6545C224.382 45.2891 224.128 46.4788 223.62 48.2237C221.939 53.2999 220.733 57.2339 220.003 60.0258C219.686 61.1997 219.21 62.1039 218.576 62.7384C217.941 63.3412 217.085 63.6426 216.006 63.6426C215.467 63.6426 214.911 63.3888 214.34 62.8812C213.801 62.3418 213.357 61.6914 213.008 60.93L212.484 59.6451C211.596 57.3926 210.93 55.6635 210.486 54.4579C210.073 53.2206 209.803 52.1102 209.677 51.1267L209.248 52.6495C208.487 55.378 207.694 57.916 206.869 60.2638C206.456 61.4694 205.949 62.3418 205.346 62.8812C204.743 63.3888 203.966 63.6426 203.014 63.6426C202.443 63.6426 201.935 63.5157 201.491 63.2619C201.079 63.0081 200.682 62.5798 200.302 61.977C199.794 61.1521 199.302 60.0417 198.826 58.6457C198.382 57.2498 197.732 55.0766 196.875 52.126C196.463 50.857 196.082 49.5245 195.733 48.1285C195.384 46.7009 195.209 45.7015 195.209 45.1304C195.209 44.4642 195.384 43.9407 195.733 43.56C196.082 43.1793 196.59 42.9889 197.256 42.9889C198.112 42.9889 198.715 43.1634 199.064 43.5124C199.413 43.8297 199.73 44.3214 200.016 44.9877C200.175 46.1298 200.524 47.7478 201.063 49.8418L202.11 54.3151C202.173 54.6641 202.364 55.3938 202.681 56.5042L203.062 57.8843C203.76 56.3932 204.347 54.9655 204.822 53.6013C205.298 52.2371 205.822 50.5556 206.393 48.5568C206.425 48.4299 206.742 47.3354 207.345 45.2732C207.757 44.607 208.122 44.1152 208.439 43.7979C208.757 43.4489 209.074 43.2745 209.391 43.2745C210.026 43.2745 210.565 43.4807 211.009 43.8931C211.485 44.2738 211.834 44.7497 212.056 45.3208C212.437 46.5581 212.77 47.6844 213.055 48.6996C213.182 49.1121 213.468 50.1114 213.912 51.6977C214.388 53.2523 214.816 54.5689 215.197 55.6476C215.578 56.7263 215.895 57.4877 216.149 57.9319L217.957 52.126Z" fill="#3E3A5D"/>
<path d="M166.015 32.9C167.125 32.9951 168.093 33.2965 168.918 33.8042C169.743 34.2801 170.155 35.0098 170.155 35.9933C170.155 36.723 169.806 37.3099 169.108 37.7541C168.442 38.1665 167.633 38.3727 166.681 38.3727C165.761 38.3727 165.126 38.1348 164.777 37.6589C164.428 37.183 164.254 36.6912 164.254 36.1836C164.254 35.2318 164.349 34.4387 164.539 33.8042C164.762 33.1696 165.253 32.8682 166.015 32.9ZM169.822 53.9819V55.362C169.822 56.5993 169.854 57.7732 169.917 58.8836C170.012 59.9623 170.123 61.0569 170.25 62.1673C170.25 62.548 170.028 62.897 169.584 63.2142C169.14 63.4998 168.727 63.6425 168.347 63.6425C167.744 63.6425 167.125 63.5315 166.491 63.3094C165.888 63.0556 165.523 62.7542 165.396 62.4052C165.206 61.39 165.111 60.4858 165.111 59.6926C165.111 57.0911 165.031 54.1723 164.873 50.9362C164.746 48.0809 164.682 46.0822 164.682 44.94C164.682 44.3689 164.968 43.8772 165.539 43.4648C166.11 43.0523 166.713 42.8461 167.347 42.8461C168.267 42.8461 168.902 43.0523 169.251 43.4648C169.631 43.8772 169.822 44.5276 169.822 45.4159V53.9819Z" fill="#3E3A5D"/>
<path d="M149.08 32.9C150.19 32.9951 151.158 33.2965 151.983 33.8042C152.807 34.2801 153.22 35.0098 153.22 35.9933C153.22 36.723 152.871 37.3099 152.173 37.7541C151.507 38.1665 150.698 38.3727 149.746 38.3727C148.826 38.3727 148.191 38.1348 147.842 37.6589C147.493 37.183 147.319 36.6912 147.319 36.1836C147.319 35.2318 147.414 34.4387 147.604 33.8042C147.826 33.1696 148.318 32.8682 149.08 32.9ZM152.887 53.9819V55.362C152.887 56.5993 152.918 57.7732 152.982 58.8836C153.077 59.9623 153.188 61.0569 153.315 62.1673C153.283 62.4845 153.045 62.8177 152.601 63.1666C152.157 63.4839 151.76 63.6425 151.412 63.6425C150.809 63.6425 150.19 63.5315 149.556 63.3094C148.953 63.0556 148.588 62.7542 148.461 62.4052C148.271 61.39 148.175 60.4858 148.175 59.6926C148.175 57.0911 148.096 54.1723 147.938 50.9362C147.811 48.0809 147.747 46.0822 147.747 44.94C147.747 44.3689 148.033 43.8772 148.604 43.4648C149.175 43.0523 149.778 42.8461 150.412 42.8461C151.332 42.8461 151.967 43.0523 152.316 43.4648C152.696 43.8772 152.887 44.5276 152.887 45.4159V53.9819Z" fill="#3E3A5D"/>
<path d="M134.027 52.7447C134.281 52.9034 134.773 53.2048 135.502 53.6489C136.264 54.0614 136.771 54.5531 137.025 55.1242C137.279 55.6953 137.406 56.4884 137.406 57.5037C137.406 58.6458 137.073 59.661 136.406 60.5494C135.74 61.406 134.884 62.0722 133.837 62.5481C133.075 62.8971 132.139 63.1668 131.029 63.3571C129.95 63.5475 129.094 63.6427 128.459 63.6427C127.825 63.6427 127 63.5475 125.984 63.3571C125.001 63.1668 124.319 62.9923 123.938 62.8336C122.955 62.2626 122.098 61.5646 121.368 60.7397C120.67 59.9148 120.321 59.0741 120.321 58.2175C120.321 57.583 120.528 57.0912 120.94 56.7422C121.352 56.3615 121.892 56.1712 122.558 56.1712C122.875 56.1712 123.208 56.2981 123.557 56.5519C123.906 56.774 124.144 57.0119 124.271 57.2657C124.62 58.0906 125.207 58.7092 126.032 59.1217C126.857 59.5341 127.698 59.7403 128.554 59.7403C129.665 59.7403 130.696 59.5659 131.647 59.2169C132.599 58.8362 133.075 58.3285 133.075 57.694C133.075 57.4085 132.996 57.1864 132.837 57.0278C132.71 56.8374 132.52 56.6471 132.266 56.4567C131.822 56.1394 131.156 55.8856 130.267 55.6953C129.379 55.4732 128.808 55.3304 128.554 55.267C127.253 54.9814 125.984 54.5531 124.747 53.9821C123.51 53.3793 122.526 52.6654 121.797 51.8406C121.067 51.0157 120.702 49.9529 120.702 48.6521C120.702 47.7955 121.019 46.9071 121.654 45.9871C122.288 45.0353 123.002 44.3691 123.795 43.9883C124.366 43.7663 125.318 43.5283 126.651 43.2745C128.015 43.0207 128.935 42.8938 129.411 42.8938C130.141 42.8938 130.934 42.9731 131.79 43.1317C132.647 43.2586 133.297 43.4807 133.741 43.798C134.598 44.3056 135.296 44.845 135.835 45.416C136.375 45.9554 136.644 46.574 136.644 47.272C136.644 47.621 136.565 48.0017 136.406 48.4141C136.248 48.7948 136.057 49.0328 135.835 49.128C135.359 49.3501 134.804 49.4611 134.17 49.4611C133.884 49.4611 133.646 49.3818 133.456 49.2231C133.297 49.0645 133.075 48.8107 132.79 48.4617C132.441 47.9224 132.108 47.6051 131.79 47.5099C131.41 47.4148 130.854 47.3037 130.125 47.1768C129.395 47.0182 128.903 46.9389 128.649 46.9389C127.92 46.9389 127.158 47.1451 126.365 47.5575C125.604 47.97 125.223 48.4459 125.223 48.9852C125.223 49.2707 125.334 49.4928 125.556 49.6515C125.81 49.8101 126.064 49.9528 126.318 50.0798C126.603 50.2067 126.793 50.286 126.889 50.3177C127.555 50.635 128.285 50.9046 129.078 51.1267C129.903 51.3488 130.41 51.4916 130.601 51.555C132.314 51.9675 133.456 52.364 134.027 52.7447Z" fill="#3E3A5D"/>
<path d="M334.806 99.4415C334.251 99.4415 333.729 99.3622 333.24 99.2036C332.751 99.0582 332.301 98.8335 331.892 98.5294C331.839 98.4765 331.779 98.417 331.713 98.351C331.66 98.2716 331.621 98.1923 331.594 98.113C331.502 97.809 331.436 97.4322 331.396 96.9828C331.369 96.5201 331.35 96.1103 331.336 95.7534C331.336 95.6608 331.376 95.5948 331.455 95.5551C331.535 95.5022 331.627 95.4758 331.733 95.4758C331.826 95.4758 331.898 95.4956 331.951 95.5353C332.017 95.5617 332.063 95.6212 332.09 95.7137C332.368 96.7184 332.777 97.4719 333.319 97.9742C333.861 98.4633 334.45 98.7079 335.084 98.7079C335.534 98.7079 335.917 98.6087 336.234 98.4104C336.565 98.2122 336.822 97.9478 337.007 97.6173C337.193 97.2736 337.285 96.8902 337.285 96.4672C337.285 95.9649 337.199 95.5551 337.027 95.2378C336.855 94.9206 336.604 94.6364 336.274 94.3852C335.943 94.134 335.534 93.863 335.044 93.5722C334.516 93.255 333.993 92.9245 333.478 92.5808C332.976 92.2371 332.559 91.8339 332.229 91.3712C331.898 90.9085 331.733 90.3401 331.733 89.6659C331.733 88.9521 331.898 88.3242 332.229 87.7822C332.572 87.227 333.068 86.7908 333.716 86.4735C334.364 86.143 335.144 85.9778 336.056 85.9778C336.532 85.9778 336.961 86.0307 337.345 86.1364C337.741 86.2289 338.058 86.3281 338.296 86.4338C338.415 86.4735 338.508 86.5396 338.574 86.6321C338.653 86.7247 338.713 86.837 338.752 86.9692C338.818 87.2468 338.891 87.5707 338.971 87.9408C339.05 88.311 339.089 88.6877 339.089 89.0711C339.089 89.2165 338.984 89.2892 338.772 89.2892C338.653 89.2892 338.541 89.2628 338.435 89.2099C338.329 89.157 338.263 89.0909 338.237 89.0116C337.972 88.2713 337.642 87.7095 337.245 87.3261C336.862 86.9428 336.373 86.7511 335.778 86.7511C335.382 86.7511 335.018 86.8238 334.687 86.9692C334.37 87.1014 334.112 87.3261 333.914 87.6434C333.729 87.9474 333.637 88.3506 333.637 88.853C333.637 89.2099 333.756 89.547 333.993 89.8642C334.245 90.1683 334.575 90.4657 334.985 90.7565C335.408 91.0341 335.877 91.3249 336.393 91.629C336.935 91.9595 337.424 92.3032 337.86 92.6601C338.296 93.017 338.64 93.4268 338.891 93.8895C339.142 94.3389 339.268 94.8809 339.268 95.5154C339.268 96.3482 339.083 97.0621 338.713 97.6569C338.343 98.2386 337.82 98.6814 337.146 98.9855C336.485 99.2895 335.705 99.4415 334.806 99.4415Z" fill="#3E3A5D"/>
<path d="M324.206 99.4415C323.651 99.4415 323.129 99.3622 322.639 99.2036C322.15 99.0582 321.701 98.8335 321.291 98.5294C321.238 98.4765 321.179 98.417 321.113 98.351C321.06 98.2716 321.02 98.1923 320.994 98.113C320.901 97.809 320.835 97.4322 320.795 96.9828C320.769 96.5201 320.749 96.1103 320.736 95.7534C320.736 95.6608 320.775 95.5948 320.855 95.5551C320.934 95.5022 321.027 95.4758 321.132 95.4758C321.225 95.4758 321.298 95.4956 321.351 95.5353C321.417 95.5617 321.463 95.6212 321.489 95.7137C321.767 96.7184 322.177 97.4719 322.719 97.9742C323.261 98.4633 323.849 98.7079 324.483 98.7079C324.933 98.7079 325.316 98.6087 325.634 98.4104C325.964 98.2122 326.222 97.9478 326.407 97.6173C326.592 97.2736 326.684 96.8902 326.684 96.4672C326.684 95.9649 326.599 95.5551 326.427 95.2378C326.255 94.9206 326.004 94.6364 325.673 94.3852C325.343 94.134 324.933 93.863 324.444 93.5722C323.915 93.255 323.393 92.9245 322.877 92.5808C322.375 92.2371 321.959 91.8339 321.628 91.3712C321.298 90.9085 321.132 90.3401 321.132 89.6659C321.132 88.9521 321.298 88.3242 321.628 87.7822C321.972 87.227 322.468 86.7908 323.115 86.4735C323.763 86.143 324.543 85.9778 325.455 85.9778C325.931 85.9778 326.361 86.0307 326.744 86.1364C327.141 86.2289 327.458 86.3281 327.696 86.4338C327.815 86.4735 327.907 86.5396 327.973 86.6321C328.053 86.7247 328.112 86.837 328.152 86.9692C328.218 87.2468 328.291 87.5707 328.37 87.9408C328.449 88.311 328.489 88.6877 328.489 89.0711C328.489 89.2165 328.383 89.2892 328.172 89.2892C328.053 89.2892 327.94 89.2628 327.835 89.2099C327.729 89.157 327.663 89.0909 327.636 89.0116C327.372 88.2713 327.041 87.7095 326.645 87.3261C326.261 86.9428 325.772 86.7511 325.177 86.7511C324.781 86.7511 324.417 86.8238 324.087 86.9692C323.77 87.1014 323.512 87.3261 323.314 87.6434C323.129 87.9474 323.036 88.3506 323.036 88.853C323.036 89.2099 323.155 89.547 323.393 89.8642C323.644 90.1683 323.975 90.4657 324.384 90.7565C324.807 91.0341 325.277 91.3249 325.792 91.629C326.334 91.9595 326.823 92.3032 327.26 92.6601C327.696 93.017 328.039 93.4268 328.291 93.8895C328.542 94.3389 328.667 94.8809 328.667 95.5154C328.667 96.3482 328.482 97.0621 328.112 97.6569C327.742 98.2386 327.22 98.6814 326.546 98.9855C325.885 99.2895 325.105 99.4415 324.206 99.4415Z" fill="#3E3A5D"/>
<path d="M308.732 99.2433C308.574 99.2433 308.448 99.2234 308.356 99.1838C308.263 99.1441 308.217 99.0846 308.217 99.0053C308.217 98.8335 308.408 98.7079 308.792 98.6286C309.281 98.5228 309.631 98.3774 309.843 98.1923C310.067 97.994 310.18 97.6636 310.18 97.2009V88.2383C310.18 87.7888 310.087 87.465 309.902 87.2667C309.717 87.0684 309.38 86.923 308.891 86.8304C308.693 86.7908 308.547 86.7379 308.455 86.6718C308.362 86.6057 308.316 86.5264 308.316 86.4339C308.316 86.3545 308.362 86.2951 308.455 86.2554C308.547 86.2025 308.673 86.1761 308.831 86.1761C309.268 86.1761 309.658 86.1827 310.001 86.1959C310.358 86.2091 310.702 86.2223 311.032 86.2356C311.376 86.2488 311.746 86.2554 312.143 86.2554C312.672 86.2554 313.227 86.2554 313.809 86.2554C314.403 86.2422 314.939 86.229 315.415 86.2157C315.864 86.2157 316.234 86.2091 316.525 86.1959C316.829 86.1695 317.008 86.1562 317.06 86.1562C317.14 86.1562 317.219 86.1761 317.298 86.2157C317.391 86.2422 317.444 86.3017 317.457 86.3942C317.523 86.804 317.589 87.2072 317.655 87.6038C317.735 87.9871 317.774 88.3242 317.774 88.615C317.774 88.7472 317.741 88.8397 317.675 88.8926C317.622 88.9323 317.563 88.9521 317.497 88.9521C317.431 88.9521 317.378 88.9323 317.338 88.8926C317.298 88.853 317.259 88.7935 317.219 88.7142C317.127 88.4498 317.041 88.2118 316.961 88.0003C316.882 87.7756 316.789 87.6104 316.684 87.5046C316.512 87.3195 316.314 87.1807 316.089 87.0882C315.864 86.9957 315.613 86.9494 315.335 86.9494H313.115C312.943 86.9494 312.758 87.0155 312.559 87.1477C312.374 87.2667 312.282 87.4385 312.282 87.6632V91.7083C312.282 91.8405 312.321 91.9463 312.401 92.0256C312.48 92.1049 312.573 92.1445 312.678 92.1445H314.562C314.945 92.1445 315.21 92.0586 315.355 91.8868C315.501 91.7149 315.62 91.4505 315.712 91.0936C315.805 90.8292 315.93 90.697 316.089 90.697C316.155 90.697 316.214 90.7301 316.267 90.7962C316.32 90.8491 316.347 90.935 316.347 91.054C316.347 91.1333 316.34 91.2655 316.327 91.4505C316.314 91.6356 316.3 91.8273 316.287 92.0256C316.274 92.2239 316.267 92.3825 316.267 92.5015C316.267 92.6469 316.267 92.8253 316.267 93.0368C316.281 93.2351 316.294 93.4334 316.307 93.6317C316.32 93.83 316.327 93.9754 316.327 94.0679C316.34 94.1869 316.327 94.2861 316.287 94.3654C316.261 94.4315 316.214 94.4645 316.148 94.4645C315.937 94.4645 315.778 94.2728 315.672 93.8895C315.593 93.5458 315.481 93.288 315.335 93.1162C315.203 92.9443 315.005 92.8584 314.74 92.8584H312.896C312.685 92.8584 312.526 92.8914 312.421 92.9575C312.328 93.0236 312.282 93.1624 312.282 93.3739V97.1612C312.282 97.6239 312.381 97.9478 312.579 98.1328C312.777 98.3047 313.081 98.3906 313.491 98.3906H315.058C315.428 98.3906 315.752 98.3642 316.029 98.3113C316.307 98.2584 316.545 98.1593 316.743 98.0139C316.968 97.8552 317.166 97.6503 317.338 97.3992C317.51 97.148 317.688 96.8374 317.873 96.4672C317.926 96.3879 317.979 96.3284 318.032 96.2888C318.085 96.2359 318.144 96.2161 318.211 96.2293C318.29 96.2293 318.343 96.2623 318.369 96.3284C318.409 96.3813 318.429 96.454 318.429 96.5465C318.429 96.692 318.396 96.9101 318.329 97.2009C318.263 97.4917 318.177 97.7958 318.072 98.113C317.979 98.4303 317.893 98.7013 317.814 98.926C317.774 99.0185 317.728 99.0912 317.675 99.1441C317.622 99.2102 317.556 99.2433 317.477 99.2433C317.001 99.2433 316.505 99.2366 315.99 99.2234C315.474 99.2102 314.945 99.197 314.403 99.1838C313.861 99.1705 313.319 99.1573 312.777 99.1441C312.235 99.1309 311.7 99.1243 311.171 99.1243C310.894 99.1243 310.629 99.1309 310.378 99.1441C310.127 99.1706 309.869 99.1904 309.605 99.2036C309.354 99.23 309.063 99.2433 308.732 99.2433Z" fill="#3E3A5D"/>
<path d="M303.917 99.5009C303.785 99.5009 303.534 99.3952 303.163 99.1837C302.806 98.9854 302.456 98.6549 302.112 98.1922C301.967 98.0336 301.742 97.7825 301.438 97.4388C301.147 97.0818 300.797 96.672 300.387 96.2094C299.991 95.7467 299.561 95.251 299.099 94.7222C298.649 94.1934 298.193 93.6713 297.73 93.1557C297.281 92.627 296.851 92.1312 296.441 91.6686C296.045 91.2059 295.688 90.7961 295.371 90.4392C295.067 90.0823 294.835 89.8245 294.677 89.6659C294.611 89.5733 294.544 89.5006 294.478 89.4477C294.426 89.3949 294.373 89.3684 294.32 89.3684C294.267 89.3684 294.227 89.4213 294.201 89.5271C294.174 89.6196 294.161 89.7055 294.161 89.7848C294.148 90.4194 294.141 91.153 294.141 91.9858C294.141 92.8186 294.135 93.6779 294.121 94.5636C294.121 95.436 294.121 96.2556 294.121 97.0223C294.121 97.4057 294.227 97.7428 294.439 98.0336C294.65 98.3112 295.007 98.5029 295.509 98.6087C295.695 98.6483 295.84 98.6946 295.946 98.7475C296.065 98.8003 296.124 98.8796 296.124 98.9854C296.124 99.0647 296.071 99.1242 295.966 99.1639C295.86 99.2035 295.728 99.2233 295.569 99.2233C295.212 99.2233 294.934 99.2101 294.736 99.1837C294.551 99.1705 294.379 99.1572 294.221 99.144C294.062 99.144 293.85 99.144 293.586 99.144C293.335 99.144 293.117 99.1506 292.932 99.1639C292.76 99.1771 292.588 99.1903 292.416 99.2035C292.244 99.2167 292.033 99.2233 291.782 99.2233C291.636 99.2233 291.504 99.2035 291.385 99.1639C291.279 99.1374 291.226 99.0779 291.226 98.9854C291.226 98.8929 291.279 98.8202 291.385 98.7673C291.491 98.7012 291.643 98.6417 291.841 98.5888C292.198 98.4831 292.462 98.2914 292.634 98.0138C292.806 97.723 292.905 97.3793 292.932 96.9827C292.985 96.4804 293.037 95.8194 293.09 94.9998C293.156 94.1802 293.209 93.2615 293.249 92.2436C293.289 91.2257 293.308 90.1748 293.308 89.0908C293.308 88.3902 293.13 87.8879 292.773 87.5838C292.416 87.2798 291.96 87.0352 291.405 86.8502C291.339 86.8237 291.22 86.7709 291.048 86.6915C290.889 86.6122 290.81 86.5131 290.81 86.3941C290.81 86.2751 290.87 86.1958 290.989 86.1562C291.107 86.1165 291.207 86.0967 291.286 86.0967C291.63 86.1099 291.927 86.1231 292.178 86.1363C292.443 86.1363 292.694 86.1429 292.932 86.1562C293.17 86.1694 293.421 86.1826 293.685 86.1958C293.95 86.1958 294.26 86.1958 294.617 86.1958C294.736 86.1958 294.829 86.2289 294.895 86.295C294.961 86.3478 295.02 86.4139 295.073 86.4933C295.219 86.6651 295.443 86.9361 295.747 87.3062C296.065 87.6764 296.428 88.1126 296.838 88.6149C297.261 89.1173 297.71 89.6526 298.186 90.2211C298.662 90.7763 299.138 91.3381 299.614 91.9065C300.09 92.4749 300.539 93.0103 300.962 93.5127C301.385 94.015 301.749 94.4512 302.053 94.8214C302.37 95.1783 302.595 95.436 302.727 95.5947C302.78 95.6476 302.846 95.7203 302.925 95.8128C303.018 95.9053 303.097 95.9516 303.163 95.9516C303.282 95.9516 303.348 95.826 303.362 95.5748C303.362 95.3105 303.362 94.9139 303.362 94.3851C303.362 93.8563 303.362 93.2417 303.362 92.541C303.375 91.8404 303.382 91.1068 303.382 90.34C303.382 89.5601 303.375 88.7868 303.362 88.0201C303.348 87.7293 303.21 87.4847 302.945 87.2864C302.681 87.0749 302.397 86.9361 302.093 86.87C301.908 86.8436 301.736 86.7973 301.577 86.7312C301.418 86.6651 301.339 86.5792 301.339 86.4734C301.339 86.3941 301.418 86.3346 301.577 86.295C301.736 86.2553 301.888 86.2355 302.033 86.2355C302.231 86.2355 302.403 86.2355 302.549 86.2355C302.707 86.2355 302.859 86.2355 303.005 86.2355C303.15 86.2355 303.296 86.2355 303.441 86.2355C303.745 86.2355 303.99 86.2355 304.175 86.2355C304.36 86.2223 304.558 86.209 304.77 86.1958C304.994 86.1826 305.298 86.176 305.682 86.176C305.84 86.176 305.966 86.1958 306.058 86.2355C306.164 86.2751 306.217 86.3412 306.217 86.4338C306.217 86.6188 306.012 86.751 305.602 86.8303C305.126 86.9229 304.803 87.0485 304.631 87.2071C304.459 87.3525 304.366 87.5971 304.353 87.9408C304.353 88.1523 304.347 88.5026 304.333 88.9917C304.32 89.4676 304.307 90.0294 304.294 90.6771C304.294 91.3249 304.287 92.0057 304.274 92.7195C304.261 93.4333 304.254 94.134 304.254 94.8214C304.254 95.5087 304.254 96.1301 304.254 96.6853C304.254 97.0025 304.267 97.3132 304.294 97.6172C304.32 97.908 304.34 98.1658 304.353 98.3905C304.38 98.602 304.393 98.7607 304.393 98.8664C304.393 99.1176 304.347 99.2828 304.254 99.3621C304.161 99.4547 304.049 99.5009 303.917 99.5009Z" fill="#3E3A5D"/>
<path d="M278.795 99.2432C278.649 99.2432 278.53 99.2168 278.438 99.1639C278.345 99.111 278.299 99.0515 278.299 98.9854C278.299 98.8797 278.352 98.8004 278.457 98.7475C278.563 98.6814 278.649 98.6417 278.715 98.6285C279.218 98.5095 279.588 98.3575 279.826 98.1724C280.077 97.9874 280.202 97.6767 280.202 97.2405V88.0994C280.202 87.7822 280.169 87.5508 280.103 87.4054C280.037 87.2468 279.912 87.1278 279.727 87.0485C279.555 86.9692 279.303 86.8965 278.973 86.8304C278.59 86.7511 278.398 86.6189 278.398 86.4338C278.398 86.3413 278.444 86.2752 278.537 86.2355C278.643 86.1959 278.768 86.176 278.914 86.176C279.244 86.176 279.541 86.1826 279.806 86.1959C280.07 86.2091 280.321 86.2223 280.559 86.2355C280.797 86.2487 281.062 86.2553 281.352 86.2553C281.657 86.2553 281.947 86.2553 282.225 86.2553C282.503 86.2421 282.787 86.2289 283.078 86.2157C283.368 86.2025 283.679 86.1959 284.01 86.1959C284.168 86.1959 284.287 86.2157 284.366 86.2553C284.459 86.2818 284.505 86.3413 284.505 86.4338C284.505 86.5396 284.459 86.6255 284.366 86.6916C284.274 86.7445 284.128 86.7907 283.93 86.8304C283.428 86.9493 283.031 87.0815 282.74 87.227C282.45 87.3591 282.304 87.6169 282.304 88.0003V97.181C282.304 97.5908 282.39 97.8882 282.562 98.0733C282.747 98.2452 283.117 98.3311 283.672 98.3311H285.973C286.316 98.3311 286.614 98.2782 286.865 98.1724C287.129 98.0667 287.334 97.9477 287.48 97.8155C287.731 97.5908 287.922 97.3793 288.055 97.181C288.2 96.9695 288.352 96.6919 288.511 96.3482C288.577 96.2028 288.649 96.064 288.729 95.9318C288.808 95.7996 288.894 95.7335 288.987 95.7335C289.079 95.7335 289.145 95.7798 289.185 95.8723C289.225 95.9516 289.244 96.0309 289.244 96.1103C289.244 96.1367 289.238 96.1697 289.224 96.2094C289.211 96.2491 289.205 96.2887 289.205 96.3284C289.112 96.6853 289.026 97.0025 288.947 97.2802C288.868 97.5578 288.801 97.8221 288.749 98.0733C288.709 98.3245 288.676 98.5955 288.649 98.8863C288.636 98.9788 288.61 99.0647 288.57 99.1441C288.53 99.2102 288.458 99.2432 288.352 99.2432C287.836 99.2432 287.288 99.2366 286.706 99.2234C286.125 99.2102 285.536 99.1969 284.941 99.1837C284.347 99.1837 283.758 99.1771 283.177 99.1639C282.608 99.1507 282.06 99.1441 281.531 99.1441C281.214 99.1441 280.857 99.1507 280.46 99.1639C280.077 99.1771 279.72 99.1903 279.389 99.2035C279.072 99.23 278.874 99.2432 278.795 99.2432Z" fill="#3E3A5D"/>
<path d="M266.005 99.2432C265.86 99.2432 265.741 99.2168 265.649 99.1639C265.556 99.111 265.51 99.0515 265.51 98.9854C265.51 98.8797 265.563 98.8004 265.668 98.7475C265.774 98.6814 265.86 98.6417 265.926 98.6285C266.428 98.5095 266.799 98.3575 267.037 98.1724C267.288 97.9874 267.413 97.6767 267.413 97.2405V88.0994C267.413 87.7822 267.38 87.5508 267.314 87.4054C267.248 87.2468 267.123 87.1278 266.937 87.0485C266.766 86.9692 266.514 86.8965 266.184 86.8304C265.801 86.7511 265.609 86.6189 265.609 86.4338C265.609 86.3413 265.655 86.2752 265.748 86.2355C265.853 86.1959 265.979 86.176 266.124 86.176C266.455 86.176 266.752 86.1826 267.017 86.1959C267.281 86.2091 267.532 86.2223 267.77 86.2355C268.008 86.2487 268.273 86.2553 268.563 86.2553C268.867 86.2553 269.158 86.2553 269.436 86.2553C269.713 86.2421 269.998 86.2289 270.289 86.2157C270.579 86.2025 270.89 86.1959 271.22 86.1959C271.379 86.1959 271.498 86.2157 271.577 86.2553C271.67 86.2818 271.716 86.3413 271.716 86.4338C271.716 86.5396 271.67 86.6255 271.577 86.6916C271.485 86.7445 271.339 86.7907 271.141 86.8304C270.639 86.9493 270.242 87.0815 269.951 87.227C269.661 87.3591 269.515 87.6169 269.515 88.0003V97.181C269.515 97.5908 269.601 97.8882 269.773 98.0733C269.958 98.2452 270.328 98.3311 270.883 98.3311H273.184C273.527 98.3311 273.825 98.2782 274.076 98.1724C274.34 98.0667 274.545 97.9477 274.69 97.8155C274.942 97.5908 275.133 97.3793 275.266 97.181C275.411 96.9695 275.563 96.6919 275.722 96.3482C275.788 96.2028 275.86 96.064 275.94 95.9318C276.019 95.7996 276.105 95.7335 276.197 95.7335C276.29 95.7335 276.356 95.7798 276.396 95.8723C276.435 95.9516 276.455 96.0309 276.455 96.1103C276.455 96.1367 276.449 96.1697 276.435 96.2094C276.422 96.2491 276.416 96.2887 276.416 96.3284C276.323 96.6853 276.237 97.0025 276.158 97.2802C276.079 97.5578 276.012 97.8221 275.96 98.0733C275.92 98.3245 275.887 98.5955 275.86 98.8863C275.847 98.9788 275.821 99.0647 275.781 99.1441C275.741 99.2102 275.669 99.2432 275.563 99.2432C275.047 99.2432 274.499 99.2366 273.917 99.2234C273.336 99.2102 272.747 99.1969 272.152 99.1837C271.558 99.1837 270.969 99.1771 270.388 99.1639C269.819 99.1507 269.271 99.1441 268.742 99.1441C268.425 99.1441 268.068 99.1507 267.671 99.1639C267.288 99.1771 266.931 99.1903 266.6 99.2035C266.283 99.23 266.085 99.2432 266.005 99.2432Z" fill="#3E3A5D"/>
<path d="M253.685 99.2433C253.526 99.2433 253.4 99.2234 253.308 99.1838C253.215 99.1441 253.169 99.0846 253.169 99.0053C253.169 98.8335 253.361 98.7079 253.744 98.6286C254.233 98.5228 254.583 98.3774 254.795 98.1923C255.02 97.994 255.132 97.6636 255.132 97.2009V88.2383C255.132 87.7888 255.039 87.465 254.854 87.2667C254.669 87.0684 254.332 86.923 253.843 86.8304C253.645 86.7908 253.499 86.7379 253.407 86.6718C253.314 86.6057 253.268 86.5264 253.268 86.4339C253.268 86.3545 253.314 86.2951 253.407 86.2554C253.499 86.2025 253.625 86.1761 253.784 86.1761C254.22 86.1761 254.61 86.1827 254.954 86.1959C255.31 86.2091 255.654 86.2223 255.985 86.2356C256.328 86.2488 256.698 86.2554 257.095 86.2554C257.624 86.2554 258.179 86.2554 258.761 86.2554C259.356 86.2422 259.891 86.229 260.367 86.2157C260.816 86.2157 261.186 86.2091 261.477 86.1959C261.781 86.1695 261.96 86.1562 262.013 86.1562C262.092 86.1562 262.171 86.1761 262.251 86.2157C262.343 86.2422 262.396 86.3017 262.409 86.3942C262.475 86.804 262.541 87.2072 262.607 87.6038C262.687 87.9871 262.726 88.3242 262.726 88.615C262.726 88.7472 262.693 88.8397 262.627 88.8926C262.574 88.9323 262.515 88.9521 262.449 88.9521C262.383 88.9521 262.33 88.9323 262.29 88.8926C262.251 88.853 262.211 88.7935 262.171 88.7142C262.079 88.4498 261.993 88.2118 261.913 88.0003C261.834 87.7756 261.742 87.6104 261.636 87.5046C261.464 87.3195 261.266 87.1807 261.041 87.0882C260.816 86.9957 260.565 86.9494 260.287 86.9494H258.067C257.895 86.9494 257.71 87.0155 257.511 87.1477C257.326 87.2667 257.234 87.4385 257.234 87.6632V91.7083C257.234 91.8405 257.274 91.9463 257.353 92.0256C257.432 92.1049 257.525 92.1445 257.63 92.1445H259.514C259.898 92.1445 260.162 92.0586 260.307 91.8868C260.453 91.7149 260.572 91.4505 260.664 91.0936C260.757 90.8292 260.882 90.697 261.041 90.697C261.107 90.697 261.167 90.7301 261.219 90.7962C261.272 90.8491 261.299 90.935 261.299 91.054C261.299 91.1333 261.292 91.2655 261.279 91.4505C261.266 91.6356 261.252 91.8273 261.239 92.0256C261.226 92.2239 261.219 92.3825 261.219 92.5015C261.219 92.6469 261.219 92.8253 261.219 93.0368C261.233 93.2351 261.246 93.4334 261.259 93.6317C261.272 93.83 261.279 93.9754 261.279 94.0679C261.292 94.1869 261.279 94.2861 261.239 94.3654C261.213 94.4315 261.167 94.4645 261.1 94.4645C260.889 94.4645 260.73 94.2728 260.625 93.8895C260.545 93.5458 260.433 93.288 260.287 93.1162C260.155 92.9443 259.957 92.8584 259.693 92.8584H257.849C257.637 92.8584 257.478 92.8914 257.373 92.9575C257.28 93.0236 257.234 93.1624 257.234 93.3739V97.1612C257.234 97.6239 257.333 97.9478 257.531 98.1328C257.73 98.3047 258.034 98.3906 258.443 98.3906H260.01C260.38 98.3906 260.704 98.3642 260.981 98.3113C261.259 98.2584 261.497 98.1593 261.695 98.0139C261.92 97.8552 262.118 97.6503 262.29 97.3992C262.462 97.148 262.641 96.8374 262.826 96.4672C262.878 96.3879 262.931 96.3284 262.984 96.2888C263.037 96.2359 263.097 96.2161 263.163 96.2293C263.242 96.2293 263.295 96.2623 263.321 96.3284C263.361 96.3813 263.381 96.454 263.381 96.5465C263.381 96.692 263.348 96.9101 263.282 97.2009C263.216 97.4917 263.13 97.7958 263.024 98.113C262.931 98.4303 262.845 98.7013 262.766 98.926C262.726 99.0185 262.68 99.0912 262.627 99.1441C262.574 99.2102 262.508 99.2433 262.429 99.2433C261.953 99.2433 261.457 99.2366 260.942 99.2234C260.426 99.2102 259.898 99.197 259.356 99.1838C258.814 99.1705 258.272 99.1573 257.73 99.1441C257.188 99.1309 256.652 99.1243 256.123 99.1243C255.846 99.1243 255.581 99.1309 255.33 99.1441C255.079 99.1706 254.821 99.1904 254.557 99.2036C254.306 99.23 254.015 99.2433 253.685 99.2433Z" fill="#3E3A5D"/>
<path d="M239.346 99.4613C239.293 99.4613 239.24 99.4018 239.187 99.2829C239.134 99.1771 239.082 99.0581 239.029 98.9259L234.488 88.1589C234.342 87.8284 234.164 87.5574 233.952 87.3459C233.741 87.1212 233.457 86.9626 233.1 86.87C232.915 86.8039 232.763 86.7445 232.644 86.6916C232.525 86.6255 232.465 86.5396 232.465 86.4338C232.465 86.3413 232.518 86.2818 232.624 86.2553C232.743 86.2157 232.875 86.1959 233.021 86.1959C233.351 86.1959 233.688 86.2091 234.032 86.2355C234.389 86.2487 234.739 86.2553 235.083 86.2553C235.466 86.2553 235.836 86.2487 236.193 86.2355C236.55 86.2091 236.867 86.1959 237.145 86.1959C237.317 86.1959 237.456 86.2157 237.561 86.2553C237.667 86.295 237.72 86.3545 237.72 86.4338C237.72 86.5396 237.667 86.6189 237.561 86.6717C237.456 86.7246 237.297 86.7841 237.085 86.8502C236.9 86.8899 236.781 86.9692 236.729 87.0882C236.689 87.2071 236.669 87.3393 236.669 87.4847C236.669 87.6566 236.689 87.8218 236.729 87.9804C236.768 88.1391 236.795 88.225 236.808 88.2382C237.099 88.9521 237.37 89.6262 237.621 90.2608C237.872 90.8821 238.123 91.4901 238.374 92.085C238.625 92.6667 238.883 93.2681 239.148 93.8894C239.412 94.4975 239.696 95.1519 240 95.8525C240.066 95.9979 240.119 96.0706 240.159 96.0706C240.212 96.0706 240.265 96.0045 240.318 95.8723L241.706 92.6799C241.745 92.5873 241.772 92.508 241.785 92.4419C241.811 92.3626 241.825 92.2965 241.825 92.2436C241.825 92.1775 241.811 92.1048 241.785 92.0255C241.758 91.9462 241.725 91.8537 241.686 91.7479L240.238 88.377C240.08 87.9937 239.828 87.6698 239.485 87.4054C239.154 87.141 238.811 86.9626 238.454 86.87C238.269 86.8039 238.123 86.7445 238.017 86.6916C237.912 86.6255 237.859 86.5396 237.859 86.4338C237.859 86.3413 237.905 86.2818 237.998 86.2553C238.103 86.2157 238.229 86.1959 238.374 86.1959C238.612 86.1959 238.85 86.2025 239.088 86.2157C239.339 86.2289 239.59 86.2421 239.842 86.2553C240.093 86.2553 240.337 86.2553 240.575 86.2553C240.906 86.2553 241.223 86.2487 241.527 86.2355C241.844 86.2091 242.135 86.1959 242.4 86.1959C242.585 86.1959 242.73 86.2157 242.836 86.2553C242.955 86.295 243.014 86.3545 243.014 86.4338C243.014 86.5396 242.955 86.6255 242.836 86.6916C242.73 86.7445 242.611 86.8039 242.479 86.87C242.36 86.9361 242.274 87.0287 242.221 87.1476C242.142 87.1873 242.096 87.2402 242.082 87.3063C242.082 87.3724 242.096 87.4385 242.122 87.5046C242.162 87.5839 242.214 87.7293 242.281 87.9408C242.36 88.1523 242.446 88.3836 242.538 88.6348C242.644 88.8727 242.737 89.1041 242.816 89.3288C242.909 89.5535 242.981 89.7188 243.034 89.8245C243.113 89.9964 243.173 90.0757 243.213 90.0625C243.265 90.0493 243.325 89.9699 243.391 89.8245C243.484 89.5998 243.589 89.342 243.708 89.0512C243.827 88.7472 243.933 88.4563 244.026 88.1787C244.118 87.8879 244.184 87.6896 244.224 87.5839C244.25 87.5178 244.263 87.4385 244.263 87.3459C244.263 87.1741 244.197 87.0485 244.065 86.9692C243.933 86.8899 243.794 86.8172 243.649 86.7511C243.517 86.6717 243.45 86.5726 243.45 86.4536C243.45 86.3743 243.49 86.3148 243.569 86.2752C243.662 86.2355 243.801 86.2157 243.986 86.2157C244.29 86.2157 244.495 86.2223 244.601 86.2355C244.72 86.2487 244.872 86.2553 245.057 86.2553C245.268 86.2553 245.46 86.2421 245.632 86.2157C245.804 86.1892 246.035 86.176 246.326 86.176C246.484 86.176 246.616 86.1959 246.722 86.2355C246.841 86.2752 246.901 86.3413 246.901 86.4338C246.901 86.5396 246.848 86.6189 246.742 86.6717C246.636 86.7246 246.484 86.7775 246.286 86.8304C245.876 86.9229 245.585 87.0551 245.414 87.227C245.255 87.3856 245.09 87.6037 244.918 87.8813C244.839 88.0532 244.726 88.2845 244.581 88.5753C244.449 88.8661 244.31 89.1768 244.164 89.5073C244.019 89.8377 243.887 90.1484 243.768 90.4392C243.715 90.5582 243.682 90.7036 243.669 90.8755C243.655 91.0341 243.669 91.1663 243.708 91.272L245.552 95.912C245.592 96.0045 245.632 96.0375 245.671 96.0111C245.711 95.9715 245.751 95.912 245.79 95.8326C246.174 94.8676 246.583 93.7308 247.02 92.4221C247.469 91.1134 247.912 89.7849 248.348 88.4365C248.414 88.2382 248.454 88.0796 248.467 87.9606C248.494 87.8284 248.507 87.7161 248.507 87.6235C248.494 87.4385 248.441 87.2798 248.348 87.1476C248.269 87.0022 248.123 86.9097 247.912 86.87C247.78 86.8304 247.641 86.7775 247.496 86.7114C247.35 86.6453 247.277 86.5594 247.277 86.4536C247.277 86.3743 247.33 86.3148 247.436 86.2752C247.555 86.2355 247.694 86.2157 247.852 86.2157C248.17 86.2157 248.428 86.2223 248.626 86.2355C248.824 86.2487 249.036 86.2553 249.26 86.2553C249.551 86.2421 249.835 86.2289 250.113 86.2157C250.391 86.1892 250.675 86.176 250.966 86.176C251.137 86.176 251.283 86.1959 251.402 86.2355C251.521 86.262 251.58 86.328 251.58 86.4338C251.58 86.5263 251.521 86.6057 251.402 86.6717C251.283 86.7246 251.131 86.7775 250.946 86.8304C250.642 86.8965 250.384 87.0221 250.172 87.2071C249.961 87.379 249.796 87.5773 249.677 87.802C249.558 88.0267 249.452 88.2382 249.359 88.4365L245.473 98.9656C245.447 99.0449 245.4 99.1375 245.334 99.2432C245.268 99.349 245.195 99.4018 245.116 99.4018C245.05 99.4018 244.977 99.3622 244.898 99.2829C244.832 99.2168 244.779 99.1308 244.739 99.0251C244.462 98.3906 244.204 97.7957 243.966 97.2405C243.728 96.6721 243.484 96.0772 243.232 95.4559C242.994 94.8346 242.704 94.134 242.36 93.354C242.32 93.2615 242.281 93.2219 242.241 93.2351C242.214 93.2483 242.175 93.3144 242.122 93.4334C241.831 94.1075 241.56 94.7288 241.309 95.2973C241.058 95.8525 240.807 96.4209 240.555 97.0025C240.318 97.5842 240.06 98.2187 239.782 98.9061C239.729 99.0383 239.663 99.1639 239.584 99.2829C239.518 99.4018 239.438 99.4613 239.346 99.4613Z" fill="#3E3A5D"/>
<path d="M214.751 99.4415C214.116 99.4415 213.535 99.3291 213.006 99.1044C212.477 98.8664 212.054 98.536 211.737 98.113C211.433 97.6767 211.281 97.1744 211.281 96.606C211.281 95.641 211.578 94.8148 212.173 94.1274C212.768 93.4267 213.548 92.8517 214.513 92.4023L214.909 92.2238L214.671 91.9462C214.553 91.8008 214.387 91.6223 214.176 91.4108C213.964 91.1861 213.773 90.9283 213.601 90.6375C213.442 90.3335 213.363 89.9898 213.363 89.6064C213.363 89.1437 213.502 88.7339 213.779 88.377C214.07 88.0201 214.447 87.7491 214.909 87.564C215.372 87.3657 215.874 87.2666 216.416 87.2666C216.998 87.2666 217.487 87.3856 217.884 87.6235C218.294 87.8482 218.604 88.1391 218.816 88.496C219.027 88.8529 219.133 89.2164 219.133 89.5866C219.146 90.1286 218.961 90.578 218.578 90.9349C218.208 91.2918 217.699 91.5893 217.051 91.8272L216.714 91.9462L217.011 92.2833C217.474 92.7592 217.904 93.1954 218.3 93.592C218.697 93.9886 219.087 94.4446 219.47 94.9602L219.748 95.3171L220.065 94.98C220.369 94.676 220.66 94.3389 220.937 93.9687C221.228 93.5986 221.466 93.2615 221.651 92.9575C221.836 92.6402 221.929 92.4221 221.929 92.3031C221.929 92.1841 221.876 92.0652 221.77 91.9462C221.664 91.8272 221.532 91.7479 221.374 91.7083C221.321 91.6818 221.255 91.6488 221.175 91.6091C221.109 91.5562 221.076 91.5034 221.076 91.4505C221.076 91.3315 221.136 91.2588 221.255 91.2324C221.387 91.2059 221.493 91.1927 221.572 91.1927C221.651 91.1927 221.79 91.2059 221.988 91.2324C222.187 91.2456 222.391 91.2654 222.603 91.2918C222.828 91.3051 223.006 91.3117 223.138 91.3117C223.363 91.3117 223.608 91.2852 223.872 91.2324C224.136 91.1795 224.394 91.1266 224.645 91.0737C224.897 91.0076 225.108 90.9746 225.28 90.9746C225.333 90.9746 225.392 91.001 225.458 91.0539C225.524 91.0936 225.557 91.1332 225.557 91.1729C225.557 91.2654 225.498 91.3579 225.379 91.4505C225.26 91.543 225.134 91.5959 225.002 91.6091C224.659 91.6488 224.355 91.7479 224.09 91.9065C223.826 92.052 223.601 92.2106 223.416 92.3824C223.323 92.4485 223.158 92.6005 222.92 92.8385C222.696 93.0764 222.431 93.354 222.127 93.6713C221.823 93.9753 221.526 94.2794 221.235 94.5834C220.944 94.8875 220.686 95.1452 220.461 95.3568C220.25 95.5683 220.118 95.7005 220.065 95.7533L220.402 96.2292C220.825 96.7976 221.235 97.2603 221.631 97.6172C222.028 97.9742 222.464 98.1526 222.94 98.1526C223.191 98.1526 223.449 98.1328 223.713 98.0931C223.978 98.0402 224.236 97.9543 224.487 97.8354C224.54 97.8089 224.599 97.7825 224.665 97.756C224.731 97.7296 224.797 97.7164 224.863 97.7164C224.956 97.7164 225.022 97.7362 225.062 97.7759C225.115 97.8023 225.141 97.8684 225.141 97.9742C225.141 98.1063 224.996 98.2914 224.705 98.5294C224.427 98.7673 224.077 98.9788 223.654 99.1639C223.231 99.3489 222.795 99.4415 222.345 99.4415C221.843 99.4415 221.413 99.3622 221.056 99.2035C220.713 99.0581 220.395 98.8334 220.105 98.5294C219.827 98.2121 219.516 97.8089 219.173 97.3198L218.895 96.9034L218.776 97.0224C218.366 97.4718 217.963 97.8816 217.566 98.2518C217.17 98.6219 216.747 98.9127 216.297 99.1242C215.848 99.3357 215.332 99.4415 214.751 99.4415ZM215.584 97.9543C216.126 97.9543 216.615 97.8486 217.051 97.6371C217.5 97.4256 217.943 97.0951 218.379 96.6456L218.538 96.487L218.28 96.1102C217.923 95.5947 217.5 95.0791 217.011 94.5636C216.535 94.0481 216.033 93.4995 215.504 92.9178L215.266 92.6402L214.87 92.8187C214.394 93.017 214.03 93.2747 213.779 93.592C213.541 93.896 213.383 94.2265 213.303 94.5834C213.224 94.9403 213.184 95.2973 213.184 95.6542C213.184 96.3151 213.402 96.8637 213.839 97.3C214.288 97.7362 214.87 97.9543 215.584 97.9543ZM216.397 91.5695L216.635 91.4306C216.952 91.272 217.183 91.0142 217.329 90.6573C217.474 90.3004 217.547 89.9303 217.547 89.5469C217.547 89.1107 217.448 88.7207 217.249 88.377C217.051 88.0201 216.74 87.8416 216.317 87.8416C215.974 87.8416 215.67 87.9606 215.405 88.1986C215.141 88.4233 215.009 88.7009 215.009 89.0314C215.009 89.3354 215.035 89.5998 215.088 89.8245C215.154 90.0492 215.266 90.2674 215.425 90.4789C215.584 90.6904 215.795 90.9349 216.06 91.2125L216.397 91.5695Z" fill="#3E3A5D"/>
<path d="M189.082 99.2234C188.936 99.2234 188.817 99.1969 188.725 99.1441C188.632 99.1044 188.586 99.0449 188.586 98.9656C188.586 98.807 188.771 98.688 189.141 98.6087C189.63 98.5161 189.954 98.3707 190.113 98.1724C190.271 97.9742 190.351 97.6503 190.351 97.2008V88.2184C190.351 87.7689 190.291 87.4517 190.172 87.2666C190.053 87.0815 189.749 86.9361 189.26 86.8304C188.877 86.7511 188.685 86.6255 188.685 86.4536C188.685 86.3743 188.725 86.3082 188.804 86.2553C188.897 86.2025 189.022 86.176 189.181 86.176C189.525 86.176 189.815 86.1826 190.053 86.1959C190.291 86.2091 190.516 86.2223 190.727 86.2355C190.952 86.2487 191.197 86.2553 191.461 86.2553C191.739 86.2553 191.99 86.2553 192.215 86.2553C192.453 86.2421 192.697 86.2289 192.948 86.2157C193.213 86.2025 193.51 86.1959 193.841 86.1959C194.184 86.1959 194.356 86.2818 194.356 86.4536C194.356 86.5594 194.303 86.6387 194.197 86.6916C194.105 86.7445 193.966 86.7907 193.781 86.8304C193.279 86.9493 192.928 87.1146 192.73 87.3261C192.545 87.5376 192.453 87.835 192.453 88.2184V92.0057C192.453 92.0982 192.479 92.1577 192.532 92.1842C192.598 92.2106 192.664 92.2238 192.73 92.2238H199.353C199.472 92.2238 199.531 92.1379 199.531 91.966V88.2184C199.531 87.8483 199.439 87.5574 199.254 87.3459C199.082 87.1212 198.738 86.9493 198.223 86.8304C198.024 86.7907 197.879 86.7445 197.786 86.6916C197.694 86.6387 197.648 86.5594 197.648 86.4536C197.648 86.2818 197.813 86.1959 198.143 86.1959C198.474 86.1959 198.778 86.2025 199.056 86.2157C199.333 86.2289 199.598 86.2421 199.849 86.2553C200.113 86.2553 200.384 86.2553 200.662 86.2553C200.913 86.2553 201.131 86.2487 201.316 86.2355C201.514 86.2223 201.719 86.2091 201.931 86.1959C202.155 86.1826 202.44 86.176 202.783 86.176C202.942 86.176 203.068 86.2025 203.16 86.2553C203.253 86.3082 203.299 86.3743 203.299 86.4536C203.299 86.6255 203.107 86.7511 202.724 86.8304C202.235 86.9361 201.931 87.0948 201.812 87.3063C201.693 87.5046 201.633 87.802 201.633 88.1986V97.181C201.633 97.6437 201.699 97.9742 201.832 98.1724C201.977 98.3707 202.288 98.5161 202.764 98.6087C203.134 98.688 203.319 98.807 203.319 98.9656C203.319 99.0449 203.266 99.1044 203.16 99.1441C203.068 99.1969 202.949 99.2234 202.803 99.2234C202.486 99.2234 202.202 99.2102 201.951 99.1837C201.713 99.1705 201.481 99.1573 201.257 99.1441C201.032 99.1308 200.787 99.1242 200.523 99.1242C200.245 99.1242 199.987 99.1308 199.75 99.1441C199.525 99.1573 199.28 99.1705 199.016 99.1837C198.752 99.2102 198.454 99.2234 198.124 99.2234C197.965 99.2234 197.839 99.1969 197.747 99.1441C197.668 99.1044 197.628 99.0449 197.628 98.9656C197.628 98.8598 197.668 98.7871 197.747 98.7475C197.839 98.6946 197.985 98.6483 198.183 98.6087C198.633 98.5161 198.97 98.3641 199.194 98.1526C199.419 97.9411 199.531 97.6305 199.531 97.2207V93.3937C199.531 93.3144 199.525 93.2483 199.512 93.1954C199.498 93.1293 199.452 93.0963 199.373 93.0963H192.611C192.505 93.0963 192.453 93.1756 192.453 93.3342V97.0819C192.453 97.4784 192.585 97.8089 192.849 98.0733C193.114 98.3377 193.477 98.5161 193.94 98.6087C194.138 98.6483 194.283 98.6946 194.376 98.7475C194.468 98.7871 194.515 98.8598 194.515 98.9656C194.515 99.0449 194.468 99.1044 194.376 99.1441C194.283 99.1969 194.158 99.2234 193.999 99.2234C193.669 99.2234 193.365 99.2102 193.087 99.1837C192.809 99.1705 192.538 99.1573 192.274 99.1441C192.023 99.1308 191.752 99.1242 191.461 99.1242C191.197 99.1242 190.946 99.1308 190.708 99.1441C190.47 99.1573 190.219 99.1705 189.954 99.1837C189.703 99.2102 189.412 99.2234 189.082 99.2234Z" fill="#3E3A5D"/>
<path d="M177.508 99.2234C177.362 99.2234 177.237 99.2036 177.131 99.1639C177.025 99.1375 176.972 99.078 176.972 98.9855C176.972 98.8929 177.025 98.8202 177.131 98.7674C177.237 98.7013 177.382 98.6484 177.567 98.6087C178.07 98.5162 178.446 98.3642 178.698 98.1527C178.949 97.9412 179.074 97.6041 179.074 97.1414V89.2892C179.074 88.7075 179.061 88.2713 179.035 87.9805C179.008 87.6765 178.969 87.4716 178.916 87.3658C178.863 87.2468 178.79 87.1741 178.698 87.1477C178.539 87.108 178.36 87.0882 178.162 87.0882C177.964 87.075 177.733 87.0684 177.468 87.0684H176.695C176.351 87.0684 176.007 87.1477 175.664 87.3063C175.333 87.4517 175.082 87.6632 174.91 87.9408C174.857 88.0201 174.778 88.1325 174.672 88.2779C174.58 88.4101 174.474 88.5291 174.355 88.6348C174.236 88.7274 174.117 88.7736 173.998 88.7736C173.932 88.7736 173.879 88.7472 173.839 88.6943C173.813 88.6415 173.8 88.5754 173.8 88.496C173.8 88.3506 173.839 88.2052 173.919 88.0598C174.13 87.6368 174.282 87.2667 174.375 86.9494C174.467 86.6321 174.54 86.2554 174.593 85.8192C174.619 85.6076 174.672 85.4755 174.752 85.4226C174.831 85.3697 174.91 85.3433 174.99 85.3433C175.056 85.3433 175.142 85.4292 175.247 85.601C175.366 85.7597 175.459 85.8919 175.525 85.9976C175.631 86.1166 175.829 86.2091 176.12 86.2752C176.411 86.3413 176.682 86.3744 176.933 86.3744L184.091 86.3545C184.501 86.3545 184.838 86.3281 185.102 86.2752C185.38 86.2223 185.605 86.1562 185.776 86.0769C185.961 85.9844 186.107 85.8852 186.213 85.7795C186.318 85.6605 186.457 85.601 186.629 85.601C186.682 85.601 186.722 85.6473 186.748 85.7398C186.774 85.8192 186.788 85.9117 186.788 86.0174C186.788 86.0703 186.781 86.1496 186.768 86.2554C186.755 86.3611 186.741 86.4471 186.728 86.5132C186.675 86.7643 186.622 86.9626 186.57 87.108C186.53 87.2534 186.497 87.3922 186.47 87.5244C186.457 87.6434 186.451 87.802 186.451 88.0003V88.2779C186.451 88.4366 186.424 88.5886 186.371 88.734C186.318 88.8794 186.239 88.9521 186.133 88.9521C186.028 88.9521 185.942 88.886 185.876 88.7538C185.809 88.6084 185.743 88.4035 185.677 88.1391C185.598 87.7954 185.419 87.531 185.142 87.346C184.877 87.1609 184.435 87.0684 183.813 87.0684H182.148C181.883 87.0684 181.678 87.1146 181.533 87.2072C181.388 87.2865 181.288 87.4848 181.236 87.802C181.196 88.1061 181.176 88.6018 181.176 89.2892V97.1414C181.176 97.5908 181.302 97.9213 181.553 98.1328C181.817 98.3443 182.201 98.503 182.703 98.6087C182.888 98.6484 183.027 98.6947 183.119 98.7475C183.225 98.8004 183.278 98.8797 183.278 98.9855C183.278 99.0648 183.232 99.1243 183.139 99.1639C183.047 99.2036 182.921 99.2234 182.762 99.2234C182.432 99.2234 182.128 99.2102 181.85 99.1838C181.573 99.1705 181.302 99.1573 181.037 99.1441C180.773 99.1309 180.495 99.1243 180.205 99.1243C179.887 99.1243 179.59 99.1309 179.312 99.1441C179.035 99.1573 178.75 99.1705 178.46 99.1838C178.169 99.2102 177.851 99.2234 177.508 99.2234Z" fill="#3E3A5D"/>
<path d="M163.85 99.2432C163.705 99.2432 163.586 99.2168 163.493 99.1639C163.401 99.111 163.354 99.0515 163.354 98.9854C163.354 98.8797 163.407 98.8004 163.513 98.7475C163.619 98.6814 163.705 98.6417 163.771 98.6285C164.273 98.5095 164.643 98.3575 164.881 98.1724C165.132 97.9874 165.258 97.6767 165.258 97.2405V88.0994C165.258 87.7822 165.225 87.5508 165.159 87.4054C165.093 87.2468 164.967 87.1278 164.782 87.0485C164.61 86.9692 164.359 86.8965 164.029 86.8304C163.645 86.7511 163.454 86.6189 163.454 86.4338C163.454 86.3413 163.5 86.2752 163.592 86.2355C163.698 86.1959 163.824 86.176 163.969 86.176C164.3 86.176 164.597 86.1826 164.861 86.1959C165.126 86.2091 165.377 86.2223 165.615 86.2355C165.853 86.2487 166.117 86.2553 166.408 86.2553C166.712 86.2553 167.003 86.2553 167.281 86.2553C167.558 86.2421 167.842 86.2289 168.133 86.2157C168.424 86.2025 168.735 86.1959 169.065 86.1959C169.224 86.1959 169.343 86.2157 169.422 86.2553C169.515 86.2818 169.561 86.3413 169.561 86.4338C169.561 86.5396 169.515 86.6255 169.422 86.6916C169.33 86.7445 169.184 86.7907 168.986 86.8304C168.484 86.9493 168.087 87.0815 167.796 87.227C167.505 87.3591 167.36 87.6169 167.36 88.0003V97.181C167.36 97.5908 167.446 97.8882 167.618 98.0733C167.803 98.2452 168.173 98.3311 168.728 98.3311H171.028C171.372 98.3311 171.669 98.2782 171.921 98.1724C172.185 98.0667 172.39 97.9477 172.535 97.8155C172.786 97.5908 172.978 97.3793 173.11 97.181C173.256 96.9695 173.408 96.6919 173.566 96.3482C173.632 96.2028 173.705 96.064 173.784 95.9318C173.864 95.7996 173.95 95.7335 174.042 95.7335C174.135 95.7335 174.201 95.7798 174.241 95.8723C174.28 95.9516 174.3 96.0309 174.3 96.1103C174.3 96.1367 174.293 96.1697 174.28 96.2094C174.267 96.2491 174.26 96.2887 174.26 96.3284C174.168 96.6853 174.082 97.0025 174.003 97.2802C173.923 97.5578 173.857 97.8221 173.804 98.0733C173.765 98.3245 173.732 98.5955 173.705 98.8863C173.692 98.9788 173.665 99.0647 173.626 99.1441C173.586 99.2102 173.513 99.2432 173.408 99.2432C172.892 99.2432 172.344 99.2366 171.762 99.2234C171.18 99.2102 170.592 99.1969 169.997 99.1837C169.402 99.1837 168.814 99.1771 168.232 99.1639C167.664 99.1507 167.115 99.1441 166.587 99.1441C166.269 99.1441 165.912 99.1507 165.516 99.1639C165.132 99.1771 164.776 99.1903 164.445 99.2035C164.128 99.23 163.93 99.2432 163.85 99.2432Z" fill="#3E3A5D"/>
<path d="M148.319 99.2433C148.161 99.2433 148.029 99.2169 147.923 99.164C147.817 99.1244 147.764 99.0583 147.764 98.9657C147.764 98.86 147.817 98.7741 147.923 98.708C148.029 98.6419 148.174 98.5758 148.359 98.5097C148.716 98.4039 149.04 98.2453 149.331 98.0338C149.621 97.8223 149.859 97.4984 150.044 97.0622C150.401 96.2558 150.732 95.4891 151.036 94.762C151.34 94.0218 151.631 93.2947 151.908 92.5809C152.186 91.867 152.47 91.1334 152.761 90.3799C153.052 89.6132 153.349 88.8002 153.653 87.9409C153.772 87.6369 153.858 87.3857 153.911 87.1874C153.964 86.9759 153.997 86.7909 154.01 86.6322C154.182 86.5926 154.341 86.5529 154.486 86.5133C154.632 86.4604 154.79 86.3877 154.962 86.2951C155.121 86.2158 155.24 86.1035 155.319 85.9581C155.411 85.7994 155.484 85.6871 155.537 85.621C155.563 85.6077 155.59 85.6011 155.616 85.6011C155.656 85.5879 155.689 85.6077 155.716 85.6606C155.755 85.7267 155.782 85.7994 155.795 85.8787C155.821 85.9581 155.848 86.044 155.874 86.1365C156.178 87.1015 156.489 88.0863 156.806 89.091C157.137 90.0824 157.46 91.0541 157.778 92.0058C158.095 92.9576 158.392 93.8433 158.67 94.6629C158.948 95.4693 159.186 96.1765 159.384 96.7846C159.529 97.2208 159.701 97.5579 159.899 97.7958C160.098 98.0206 160.309 98.1924 160.534 98.3114C160.759 98.4171 161.003 98.4965 161.268 98.5493C161.466 98.589 161.611 98.6485 161.704 98.7278C161.81 98.8071 161.862 98.8996 161.862 99.0054C161.862 99.0847 161.81 99.1376 161.704 99.164C161.611 99.2037 161.492 99.2235 161.347 99.2235C161.135 99.2235 160.858 99.2103 160.514 99.1839C160.17 99.1706 159.813 99.1574 159.443 99.1442C159.073 99.131 158.736 99.1244 158.432 99.1244C158.181 99.1244 157.903 99.1244 157.599 99.1244C157.295 99.1244 157.004 99.131 156.727 99.1442C156.462 99.1574 156.231 99.164 156.033 99.164C155.874 99.164 155.742 99.1442 155.636 99.1045C155.544 99.0517 155.497 98.9856 155.497 98.9063C155.497 98.8005 155.557 98.7146 155.676 98.6485C155.795 98.5824 155.934 98.5361 156.092 98.5097C156.542 98.4304 156.866 98.3114 157.064 98.1528C157.275 97.9941 157.361 97.7826 157.322 97.5182C157.308 97.2935 157.262 97.0159 157.183 96.6854C157.104 96.3417 157.011 95.9848 156.905 95.6147C156.799 95.2313 156.7 94.881 156.608 94.5638C156.581 94.458 156.535 94.3919 156.469 94.3655C156.403 94.339 156.291 94.3258 156.132 94.3258H152.464C152.397 94.3258 152.338 94.3522 152.285 94.4051C152.232 94.4448 152.179 94.5307 152.126 94.6629C152.087 94.8215 152.021 95.0264 151.928 95.2776C151.849 95.5155 151.77 95.7733 151.69 96.0509C151.611 96.3153 151.538 96.5665 151.472 96.8044C151.419 97.0291 151.386 97.1944 151.373 97.3001C151.333 97.6306 151.413 97.895 151.611 98.0933C151.822 98.2783 152.133 98.4238 152.543 98.5295C152.939 98.6353 153.138 98.7675 153.138 98.9261C153.138 99.0186 153.085 99.0847 152.979 99.1244C152.887 99.1508 152.761 99.164 152.602 99.164C152.351 99.164 152.06 99.1574 151.73 99.1442C151.399 99.131 151.049 99.1244 150.679 99.1244C150.256 99.1244 149.846 99.1442 149.45 99.1839C149.053 99.2235 148.676 99.2433 148.319 99.2433ZM153.019 93.5128H155.914C156.099 93.5128 156.191 93.4798 156.191 93.4137C156.191 93.374 156.185 93.341 156.172 93.3145C156.172 93.2881 156.165 93.2484 156.152 93.1956L154.684 88.4961C154.618 88.2846 154.565 88.1789 154.526 88.1789C154.499 88.1789 154.453 88.278 154.387 88.4763L152.662 93.1956C152.635 93.2749 152.622 93.3278 152.622 93.3542C152.622 93.4203 152.655 93.4666 152.721 93.493C152.801 93.5062 152.9 93.5128 153.019 93.5128Z" fill="#3E3A5D"/>
<path d="M136.494 99.2433C136.335 99.2433 136.21 99.2234 136.117 99.1838C136.025 99.1441 135.979 99.0846 135.979 99.0053C135.979 98.8335 136.17 98.7079 136.554 98.6286C137.043 98.5228 137.393 98.3774 137.604 98.1923C137.829 97.994 137.942 97.6636 137.942 97.2009V88.2383C137.942 87.7888 137.849 87.465 137.664 87.2667C137.479 87.0684 137.142 86.923 136.653 86.8304C136.454 86.7908 136.309 86.7379 136.216 86.6718C136.124 86.6057 136.078 86.5264 136.078 86.4339C136.078 86.3545 136.124 86.2951 136.216 86.2554C136.309 86.2025 136.435 86.1761 136.593 86.1761C137.029 86.1761 137.419 86.1827 137.763 86.1959C138.12 86.2091 138.464 86.2223 138.794 86.2356C139.138 86.2488 139.508 86.2554 139.905 86.2554C140.433 86.2554 140.989 86.2554 141.57 86.2554C142.165 86.2422 142.7 86.229 143.176 86.2157C143.626 86.2157 143.996 86.2091 144.287 86.1959C144.591 86.1695 144.769 86.1562 144.822 86.1562C144.901 86.1562 144.981 86.1761 145.06 86.2157C145.153 86.2422 145.206 86.3017 145.219 86.3942C145.285 86.804 145.351 87.2072 145.417 87.6038C145.496 87.9871 145.536 88.3242 145.536 88.615C145.536 88.7472 145.503 88.8397 145.437 88.8926C145.384 88.9323 145.324 88.9521 145.258 88.9521C145.192 88.9521 145.139 88.9323 145.1 88.8926C145.06 88.853 145.02 88.7935 144.981 88.7142C144.888 88.4498 144.802 88.2118 144.723 88.0003C144.644 87.7756 144.551 87.6104 144.445 87.5046C144.274 87.3195 144.075 87.1807 143.851 87.0882C143.626 86.9957 143.375 86.9494 143.097 86.9494H140.876C140.704 86.9494 140.519 87.0155 140.321 87.1477C140.136 87.2667 140.043 87.4385 140.043 87.6632V91.7083C140.043 91.8405 140.083 91.9463 140.162 92.0256C140.242 92.1049 140.334 92.1445 140.44 92.1445H142.324C142.707 92.1445 142.971 92.0586 143.117 91.8868C143.262 91.7149 143.381 91.4505 143.474 91.0936C143.566 90.8292 143.692 90.697 143.851 90.697C143.917 90.697 143.976 90.7301 144.029 90.7962C144.082 90.8491 144.108 90.935 144.108 91.054C144.108 91.1333 144.102 91.2655 144.088 91.4505C144.075 91.6356 144.062 91.8273 144.049 92.0256C144.036 92.2239 144.029 92.3825 144.029 92.5015C144.029 92.6469 144.029 92.8253 144.029 93.0368C144.042 93.2351 144.055 93.4334 144.069 93.6317C144.082 93.83 144.088 93.9754 144.088 94.0679C144.102 94.1869 144.088 94.2861 144.049 94.3654C144.022 94.4315 143.976 94.4645 143.91 94.4645C143.699 94.4645 143.54 94.2728 143.434 93.8895C143.355 93.5458 143.242 93.288 143.097 93.1162C142.965 92.9443 142.767 92.8584 142.502 92.8584H140.658C140.447 92.8584 140.288 92.8914 140.182 92.9575C140.09 93.0236 140.043 93.1624 140.043 93.3739V97.1612C140.043 97.6239 140.143 97.9478 140.341 98.1328C140.539 98.3047 140.843 98.3906 141.253 98.3906H142.819C143.19 98.3906 143.513 98.3642 143.791 98.3113C144.069 98.2584 144.307 98.1593 144.505 98.0139C144.73 97.8552 144.928 97.6503 145.1 97.3992C145.272 97.148 145.45 96.8374 145.635 96.4672C145.688 96.3879 145.741 96.3284 145.794 96.2888C145.847 96.2359 145.906 96.2161 145.972 96.2293C146.052 96.2293 146.104 96.2623 146.131 96.3284C146.171 96.3813 146.19 96.454 146.19 96.5465C146.19 96.692 146.157 96.9101 146.091 97.2009C146.025 97.4917 145.939 97.7958 145.833 98.113C145.741 98.4303 145.655 98.7013 145.576 98.926C145.536 99.0185 145.49 99.0912 145.437 99.1441C145.384 99.2102 145.318 99.2433 145.239 99.2433C144.763 99.2433 144.267 99.2366 143.751 99.2234C143.236 99.2102 142.707 99.197 142.165 99.1838C141.623 99.1705 141.081 99.1573 140.539 99.1441C139.997 99.1309 139.462 99.1243 138.933 99.1243C138.655 99.1243 138.391 99.1309 138.14 99.1441C137.889 99.1706 137.631 99.1904 137.367 99.2036C137.115 99.23 136.825 99.2433 136.494 99.2433Z" fill="#3E3A5D"/>
<path d="M119.29 99.2234C119.145 99.2234 119.026 99.1969 118.933 99.1441C118.841 99.1044 118.794 99.0449 118.794 98.9656C118.794 98.807 118.98 98.688 119.35 98.6087C119.839 98.5161 120.163 98.3707 120.321 98.1724C120.48 97.9742 120.559 97.6503 120.559 97.2008V88.2184C120.559 87.7689 120.5 87.4517 120.381 87.2666C120.262 87.0815 119.958 86.9361 119.469 86.8304C119.085 86.7511 118.894 86.6255 118.894 86.4536C118.894 86.3743 118.933 86.3082 119.013 86.2553C119.105 86.2025 119.231 86.176 119.389 86.176C119.733 86.176 120.024 86.1826 120.262 86.1959C120.5 86.2091 120.724 86.2223 120.936 86.2355C121.161 86.2487 121.405 86.2553 121.67 86.2553C121.947 86.2553 122.198 86.2553 122.423 86.2553C122.661 86.2421 122.906 86.2289 123.157 86.2157C123.421 86.2025 123.719 86.1959 124.049 86.1959C124.393 86.1959 124.565 86.2818 124.565 86.4536C124.565 86.5594 124.512 86.6387 124.406 86.6916C124.313 86.7445 124.175 86.7907 123.99 86.8304C123.487 86.9493 123.137 87.1146 122.939 87.3261C122.754 87.5376 122.661 87.835 122.661 88.2184V92.0057C122.661 92.0982 122.687 92.1577 122.74 92.1842C122.806 92.2106 122.873 92.2238 122.939 92.2238H129.561C129.68 92.2238 129.74 92.1379 129.74 91.966V88.2184C129.74 87.8483 129.647 87.5574 129.462 87.3459C129.29 87.1212 128.947 86.9493 128.431 86.8304C128.233 86.7907 128.088 86.7445 127.995 86.6916C127.902 86.6387 127.856 86.5594 127.856 86.4536C127.856 86.2818 128.021 86.1959 128.352 86.1959C128.682 86.1959 128.986 86.2025 129.264 86.2157C129.542 86.2289 129.806 86.2421 130.057 86.2553C130.322 86.2553 130.593 86.2553 130.87 86.2553C131.121 86.2553 131.339 86.2487 131.525 86.2355C131.723 86.2223 131.928 86.2091 132.139 86.1959C132.364 86.1826 132.648 86.176 132.992 86.176C133.15 86.176 133.276 86.2025 133.369 86.2553C133.461 86.3082 133.507 86.3743 133.507 86.4536C133.507 86.6255 133.316 86.7511 132.932 86.8304C132.443 86.9361 132.139 87.0948 132.02 87.3063C131.901 87.5046 131.842 87.802 131.842 88.1986V97.181C131.842 97.6437 131.908 97.9742 132.04 98.1724C132.185 98.3707 132.496 98.5161 132.972 98.6087C133.342 98.688 133.527 98.807 133.527 98.9656C133.527 99.0449 133.474 99.1044 133.369 99.1441C133.276 99.1969 133.157 99.2234 133.012 99.2234C132.694 99.2234 132.41 99.2102 132.159 99.1837C131.921 99.1705 131.69 99.1573 131.465 99.1441C131.24 99.1308 130.996 99.1242 130.731 99.1242C130.454 99.1242 130.196 99.1308 129.958 99.1441C129.733 99.1573 129.489 99.1705 129.224 99.1837C128.96 99.2102 128.663 99.2234 128.332 99.2234C128.173 99.2234 128.048 99.1969 127.955 99.1441C127.876 99.1044 127.836 99.0449 127.836 98.9656C127.836 98.8598 127.876 98.7871 127.955 98.7475C128.048 98.6946 128.193 98.6483 128.392 98.6087C128.841 98.5161 129.178 98.3641 129.403 98.1526C129.628 97.9411 129.74 97.6305 129.74 97.2207V93.3937C129.74 93.3144 129.733 93.2483 129.72 93.1954C129.707 93.1293 129.661 93.0963 129.581 93.0963H122.82C122.714 93.0963 122.661 93.1756 122.661 93.3342V97.0819C122.661 97.4784 122.793 97.8089 123.058 98.0733C123.322 98.3377 123.686 98.5161 124.148 98.6087C124.346 98.6483 124.492 98.6946 124.584 98.7475C124.677 98.7871 124.723 98.8598 124.723 98.9656C124.723 99.0449 124.677 99.1044 124.584 99.1441C124.492 99.1969 124.366 99.2234 124.208 99.2234C123.877 99.2234 123.573 99.2102 123.296 99.1837C123.018 99.1705 122.747 99.1573 122.483 99.1441C122.231 99.1308 121.96 99.1242 121.67 99.1242C121.405 99.1242 121.154 99.1308 120.916 99.1441C120.678 99.1573 120.427 99.1705 120.163 99.1837C119.911 99.2102 119.621 99.2234 119.29 99.2234Z" fill="#3E3A5D"/>
</svg>
