<svg width="156" height="201" viewBox="0 0 156 201" fill="none" xmlns="http://www.w3.org/2000/svg">
<circle cx="77.7163" cy="8.5" r="8.5" fill="#3E3A5D"/>
<path d="M91.1714 29.4835C91.9948 34.1921 94.9288 41.407 101.039 47.251C107.061 53.0113 116.299 57.5709 130.08 56.9424C143.86 56.314 145.751 62.2334 130.353 62.9356C114.955 63.6378 104.114 58.4953 96.8911 51.587C89.7562 44.7624 86.2799 36.3421 85.2612 30.5167C84.2425 24.6912 90.348 24.7748 91.1714 29.4835Z" fill="#3E3A5D"/>
<path d="M65.2631 29.4716C64.4227 34.1655 61.4243 41.3773 55.1635 47.2265C48.9877 52.9963 39.5014 57.5716 25.35 56.9414C11.1987 56.3111 9.36064 62.2352 25.0825 62.9355C40.8043 63.6358 51.8749 58.5099 59.2592 51.6113C66.5583 44.7921 70.1226 38.5566 71.1694 30.5283C72.2162 22.4999 66.1036 24.7778 65.2631 29.4716Z" fill="#3E3A5D"/>
<path d="M34.467 106.146C34.1026 95.8248 35.535 91.0376 45.535 83.0376C55.535 75.0376 45.535 72 37.3778 79.2368C29.2205 86.4736 25.5994 93.8099 26.035 106.146C26.2545 112.362 28.7298 118.628 32.6051 123.644C36.5741 128.78 42.6228 132.062 50.819 132.973L50.8639 132.978L50.9088 132.981C55.5159 133.4 62.302 132.345 68.4498 128.035C74.7464 123.621 81.6313 113.421 83.3933 101.527C86.1814 82.7087 98.2283 81.0308 104.254 81.001C108.41 81.1505 114.191 83.3505 117.689 89.7764C124.086 101.527 118.49 115.748 109.49 124.709C100.49 133.67 109.49 136.897 118.076 127.408C126.662 117.919 135.247 103.208 125.593 85.4736C120.312 75.7709 111.291 72.2092 104.453 72.002L104.384 72H104.316C94.9751 72.0002 78.0922 75.8939 74.49 100.209C73.0521 109.915 67.3538 117.812 63.2838 120.665C59.0833 123.609 54.4902 124.26 51.7594 124.02C45.5886 123.324 41.9517 121.02 39.7272 118.141C37.4028 115.132 34.6476 111.26 34.467 106.146Z" fill="#3E3A5D"/>
<path d="M16.672 187.208C16.672 188.211 16.4373 189.075 15.968 189.8C15.52 190.504 14.7733 191.155 13.728 191.752C13.024 192.179 12.2027 192.499 11.264 192.712C10.3253 192.925 9.376 193.032 8.416 193.032C7.43467 193.032 6.21867 192.712 4.768 192.072C3.72267 191.56 2.89067 190.952 2.272 190.248C1.67467 189.544 1.376 188.776 1.376 187.944C1.376 187.368 1.504 186.952 1.76 186.696C2.016 186.419 2.432 186.28 3.008 186.28C3.30667 186.28 3.616 186.408 3.936 186.664C4.256 186.899 4.448 187.133 4.512 187.368C4.81067 188.243 5.33333 188.915 6.08 189.384C6.82667 189.832 7.75467 190.056 8.864 190.056C10.144 190.056 11.2107 189.821 12.064 189.352C12.9387 188.883 13.376 188.253 13.376 187.464C13.376 186.696 12.9067 186.013 11.968 185.416C11.0293 184.819 10.0693 184.403 9.088 184.168C7.68 183.784 6.432 183.325 5.344 182.792C4.21333 182.237 3.37067 181.555 2.816 180.744C2.26133 179.933 1.984 179.08 1.984 178.184C1.984 177.352 2.272 176.509 2.848 175.656C3.424 174.781 4.10667 174.152 4.896 173.768C5.32267 173.555 6.048 173.331 7.072 173.096C8.11733 172.84 8.87467 172.712 9.344 172.712C9.96267 172.712 10.6453 172.787 11.392 172.936C12.1387 173.085 12.7467 173.299 13.216 173.576C14.1547 174.109 14.848 174.589 15.296 175.016C15.744 175.443 15.968 175.976 15.968 176.616C15.968 177 15.8187 177.341 15.52 177.64C15.2427 177.939 14.752 178.088 14.048 178.088C13.8773 178.088 13.7067 178.013 13.536 177.864C13.3653 177.715 13.152 177.491 12.896 177.192C12.5547 176.744 12.224 176.445 11.904 176.296C11.584 176.189 11.1147 176.072 10.496 175.944C9.89867 175.816 9.36533 175.752 8.896 175.752C8.384 175.752 7.85067 175.859 7.296 176.072C6.74133 176.285 6.272 176.595 5.888 177C5.52533 177.384 5.344 177.832 5.344 178.344C5.344 178.771 5.536 179.144 5.92 179.464C6.32533 179.763 6.80533 180.008 7.36 180.2C8 180.456 8.69333 180.68 9.44 180.872C10.4213 181.171 11.2213 181.448 11.84 181.704C12.48 181.939 13.0987 182.237 13.696 182.6C14.7413 183.219 15.4987 183.859 15.968 184.52C16.4373 185.16 16.672 186.056 16.672 187.208ZM24.4968 172.456C25.2434 172.52 25.8941 172.723 26.4488 173.064C27.0034 173.384 27.2808 173.875 27.2808 174.536C27.2808 175.027 27.0461 175.421 26.5768 175.72C26.1288 175.997 25.5848 176.136 24.9448 176.136C24.3261 176.136 23.8994 175.976 23.6648 175.656C23.4301 175.336 23.3128 175.005 23.3128 174.664C23.3128 174.024 23.3768 173.491 23.5048 173.064C23.6541 172.637 23.9848 172.435 24.4968 172.456ZM27.0568 186.632V187.56C27.0568 188.392 27.0781 189.181 27.1208 189.928C27.1848 190.653 27.2594 191.389 27.3448 192.136C27.3234 192.349 27.1634 192.573 26.8648 192.808C26.5661 193.021 26.2994 193.128 26.0648 193.128C25.6594 193.128 25.2434 193.053 24.8168 192.904C24.4114 192.733 24.1661 192.531 24.0808 192.296C23.9528 191.613 23.8888 191.005 23.8888 190.472C23.8888 188.723 23.8354 186.76 23.7288 184.584C23.6434 182.664 23.6008 181.32 23.6008 180.552C23.6008 180.168 23.7928 179.837 24.1768 179.56C24.5608 179.283 24.9661 179.144 25.3928 179.144C26.0114 179.144 26.4381 179.283 26.6728 179.56C26.9288 179.837 27.0568 180.275 27.0568 180.872V186.632ZM35.8843 172.456C36.6309 172.52 37.2816 172.723 37.8363 173.064C38.3909 173.384 38.6683 173.875 38.6683 174.536C38.6683 175.027 38.4336 175.421 37.9643 175.72C37.5163 175.997 36.9723 176.136 36.3323 176.136C35.7136 176.136 35.2869 175.976 35.0523 175.656C34.8176 175.336 34.7003 175.005 34.7003 174.664C34.7003 174.024 34.7643 173.491 34.8923 173.064C35.0416 172.637 35.3723 172.435 35.8843 172.456ZM38.4443 186.632V187.56C38.4443 188.392 38.4656 189.181 38.5083 189.928C38.5723 190.653 38.6469 191.389 38.7323 192.136C38.7323 192.392 38.5829 192.627 38.2843 192.84C37.9856 193.032 37.7083 193.128 37.4523 193.128C37.0469 193.128 36.6309 193.053 36.2043 192.904C35.7989 192.733 35.5536 192.531 35.4683 192.296C35.3403 191.613 35.2763 191.005 35.2763 190.472C35.2763 188.723 35.2229 186.76 35.1163 184.584C35.0309 182.664 34.9883 181.32 34.9883 180.552C34.9883 180.168 35.1803 179.837 35.5643 179.56C35.9483 179.283 36.3536 179.144 36.7803 179.144C37.3989 179.144 37.8256 179.283 38.0603 179.56C38.3163 179.837 38.4443 180.275 38.4443 180.872V186.632ZM70.8113 185.384C70.9393 184.915 71.0779 184.275 71.2272 183.464C71.4406 182.504 71.6113 181.779 71.7393 181.288C71.8672 180.797 72.0379 180.381 72.2512 180.04C72.4859 179.656 72.6886 179.4 72.8593 179.272C73.0512 179.144 73.2539 179.08 73.4673 179.08C74.5766 179.08 75.1313 179.507 75.1313 180.36C75.1313 180.787 74.9606 181.587 74.6192 182.76C73.4886 186.173 72.6779 188.819 72.1873 190.696C71.9739 191.485 71.6539 192.093 71.2272 192.52C70.8006 192.925 70.2246 193.128 69.4993 193.128C69.1366 193.128 68.7632 192.957 68.3792 192.616C68.0166 192.253 67.7179 191.816 67.4832 191.304L67.1312 190.44C66.5339 188.925 66.0859 187.763 65.7872 186.952C65.5099 186.12 65.3286 185.373 65.2432 184.712L64.9552 185.736C64.4433 187.571 63.9099 189.277 63.3552 190.856C63.0779 191.667 62.7366 192.253 62.3312 192.616C61.9259 192.957 61.4032 193.128 60.7632 193.128C60.3792 193.128 60.0379 193.043 59.7392 192.872C59.4619 192.701 59.1952 192.413 58.9392 192.008C58.5979 191.453 58.2672 190.707 57.9472 189.768C57.6486 188.829 57.2112 187.368 56.6352 185.384C56.3579 184.531 56.1019 183.635 55.8672 182.696C55.6326 181.736 55.5152 181.064 55.5152 180.68C55.5152 180.232 55.6326 179.88 55.8672 179.624C56.1019 179.368 56.4432 179.24 56.8912 179.24C57.4672 179.24 57.8726 179.357 58.1072 179.592C58.3419 179.805 58.5552 180.136 58.7472 180.584C58.8539 181.352 59.0886 182.44 59.4512 183.848L60.1552 186.856C60.1979 187.091 60.3259 187.581 60.5392 188.328L60.7952 189.256C61.2646 188.253 61.6592 187.293 61.9792 186.376C62.2992 185.459 62.6512 184.328 63.0352 182.984C63.0566 182.899 63.2699 182.163 63.6753 180.776C63.9526 180.328 64.1979 179.997 64.4113 179.784C64.6246 179.549 64.8379 179.432 65.0512 179.432C65.4779 179.432 65.8406 179.571 66.1392 179.848C66.4592 180.104 66.6939 180.424 66.8433 180.808C67.0993 181.64 67.3233 182.397 67.5153 183.08C67.6006 183.357 67.7926 184.029 68.0912 185.096C68.4112 186.141 68.6992 187.027 68.9552 187.752C69.2112 188.477 69.4246 188.989 69.5953 189.288L70.8113 185.384ZM82.5765 172.456C83.3232 172.52 83.9632 172.723 84.4965 173.064C85.0512 173.384 85.3285 173.875 85.3285 174.536C85.3285 175.027 85.1045 175.421 84.6565 175.72C84.2085 175.997 83.6538 176.136 82.9925 176.136C82.3738 176.136 81.9472 175.976 81.7125 175.656C81.4778 175.336 81.3605 175.005 81.3605 174.664C81.3605 174.045 81.4352 173.523 81.5845 173.096C81.7338 172.648 82.0645 172.435 82.5765 172.456ZM81.9365 185.672V184.744C81.9365 183.677 81.8832 182.707 81.7765 181.832C81.6912 180.936 81.6378 180.381 81.6165 180.168C81.6378 179.933 81.7978 179.709 82.0965 179.496C82.3952 179.283 82.6618 179.176 82.8965 179.176C83.3018 179.176 83.7072 179.261 84.1125 179.432C84.5392 179.581 84.8058 179.773 84.9125 180.008C85.0192 180.797 85.0725 181.405 85.0725 181.832C85.0725 182.771 85.1152 184.307 85.2005 186.44L85.2325 187.688L85.2965 188.904C85.3178 189.245 85.3392 189.651 85.3605 190.12C85.3818 190.589 85.3925 191.123 85.3925 191.72C85.3925 192.125 85.1898 192.467 84.7845 192.744C84.4005 193.021 83.9952 193.16 83.5685 193.16C82.9498 193.16 82.5125 193.021 82.2565 192.744C82.0218 192.467 81.9045 192.029 81.9045 191.432L81.9365 185.672ZM92.3335 181.864C92.0348 181.821 91.7895 181.704 91.5975 181.512C91.4268 181.299 91.3415 181.043 91.3415 180.744C91.3415 180.36 91.4908 180.04 91.7895 179.784C91.8535 179.72 91.9602 179.667 92.1095 179.624C92.2588 179.56 92.3762 179.507 92.4615 179.464C92.9308 179.315 93.2295 179.197 93.3575 179.112C93.8482 178.813 94.1788 178.323 94.3495 177.64C94.5202 176.829 94.6268 176.275 94.6695 175.976C94.7122 175.507 94.8615 175.155 95.1175 174.92C95.3948 174.664 95.7362 174.536 96.1415 174.536C96.6748 174.536 97.0482 174.675 97.2615 174.952C97.4748 175.229 97.5815 175.741 97.5815 176.488C97.5815 177.469 97.3468 178.397 96.8775 179.272C97.1762 179.272 97.6668 179.251 98.3495 179.208C99.3735 179.165 100.088 179.144 100.493 179.144C100.856 179.144 101.165 179.24 101.421 179.432C101.699 179.603 101.837 179.859 101.837 180.2C101.837 181.011 101.464 181.491 100.717 181.64C100.035 181.832 98.7975 181.949 97.0055 181.992C96.8562 184.083 96.7815 185.736 96.7815 186.952C96.7815 187.699 96.8135 188.232 96.8775 188.552C97.0055 189.213 97.2188 189.704 97.5175 190.024C97.8375 190.323 98.3068 190.472 98.9255 190.472C99.2242 190.472 99.6722 190.397 100.269 190.248C100.632 190.141 100.92 190.088 101.133 190.088C101.411 190.088 101.624 190.184 101.773 190.376C101.923 190.568 101.997 190.824 101.997 191.144C101.997 191.72 101.624 192.2 100.877 192.584C100.131 192.947 99.2455 193.128 98.2215 193.128C97.5815 193.128 96.9522 192.979 96.3335 192.68C95.7148 192.36 95.1922 191.976 94.7655 191.528C94.6802 191.485 94.5522 191.251 94.3815 190.824C94.2322 190.397 94.0828 189.928 93.9335 189.416C93.8695 189.16 93.8375 188.541 93.8375 187.56C93.8375 186.621 93.9015 185 94.0295 182.696L94.0615 181.992C93.9122 181.992 93.6348 181.981 93.2295 181.96C92.8242 181.917 92.5255 181.885 92.3335 181.864ZM111.374 172.712C111.374 173.267 111.364 173.917 111.342 174.664C111.321 175.389 111.3 175.944 111.278 176.328C111.214 177.416 111.182 178.504 111.182 179.592C111.182 181.021 111.214 182.173 111.278 183.048C111.769 181.832 112.462 180.915 113.358 180.296C114.254 179.656 115.278 179.336 116.43 179.336C117.22 179.336 117.956 179.688 118.638 180.392C119.321 181.096 119.758 181.917 119.95 182.856C119.972 182.963 119.982 183.123 119.982 183.336C119.982 183.592 119.961 183.997 119.918 184.552C119.854 185 119.822 185.448 119.822 185.896C119.822 187.048 119.865 187.944 119.95 188.584C120.036 189.203 120.217 189.715 120.494 190.12C120.772 190.504 121.209 190.813 121.806 191.048C122.041 191.133 122.201 191.251 122.286 191.4C122.393 191.528 122.446 191.731 122.446 192.008C122.446 192.392 122.244 192.68 121.838 192.872C121.454 193.064 121.081 193.16 120.718 193.16C119.972 193.16 119.3 192.957 118.702 192.552C118.105 192.147 117.657 191.613 117.358 190.952C117.145 190.504 117.006 189.971 116.942 189.352C116.878 188.733 116.846 188.008 116.846 187.176L116.878 184.392C116.878 182.877 116.388 182.12 115.406 182.12C114.702 182.12 114.02 182.696 113.358 183.848C112.697 185 112.164 186.355 111.758 187.912C111.353 189.469 111.15 190.749 111.15 191.752C111.15 192.221 111.001 192.573 110.702 192.808C110.425 193.021 110.137 193.128 109.838 193.128C109.369 193.128 108.942 192.989 108.558 192.712C108.174 192.413 107.982 192.083 107.982 191.72C108.132 190.12 108.206 187.443 108.206 183.688C108.206 183.005 108.153 180.477 108.046 176.104L107.95 173.16C107.95 172.691 108.164 172.285 108.59 171.944C109.017 171.581 109.497 171.4 110.03 171.4C110.5 171.4 110.841 171.507 111.054 171.72C111.268 171.933 111.374 172.264 111.374 172.712ZM129.365 172.456C130.112 172.52 130.763 172.723 131.317 173.064C131.872 173.384 132.149 173.875 132.149 174.536C132.149 175.027 131.915 175.421 131.445 175.72C130.997 175.997 130.453 176.136 129.813 176.136C129.195 176.136 128.768 175.976 128.533 175.656C128.299 175.336 128.181 175.005 128.181 174.664C128.181 174.024 128.245 173.491 128.373 173.064C128.523 172.637 128.853 172.435 129.365 172.456ZM131.925 186.632V187.56C131.925 188.392 131.947 189.181 131.989 189.928C132.053 190.653 132.128 191.389 132.213 192.136C132.192 192.349 132.032 192.573 131.733 192.808C131.435 193.021 131.168 193.128 130.933 193.128C130.528 193.128 130.112 193.053 129.685 192.904C129.28 192.733 129.035 192.531 128.949 192.296C128.821 191.613 128.757 191.005 128.757 190.472C128.757 188.723 128.704 186.76 128.597 184.584C128.512 182.664 128.469 181.32 128.469 180.552C128.469 180.168 128.661 179.837 129.045 179.56C129.429 179.283 129.835 179.144 130.261 179.144C130.88 179.144 131.307 179.283 131.541 179.56C131.797 179.837 131.925 180.275 131.925 180.872V186.632ZM153.713 190.536C153.82 190.579 153.99 190.632 154.225 190.696C154.46 190.76 154.63 190.824 154.737 190.888C154.844 190.952 154.897 191.048 154.897 191.176C154.918 191.688 154.726 192.115 154.321 192.456C153.937 192.776 153.478 192.936 152.945 192.936C152.113 192.936 151.462 192.712 150.993 192.264C150.524 191.816 150.182 191.133 149.969 190.216C149.884 189.853 149.841 189.352 149.841 188.712C149.841 188.349 149.862 187.763 149.905 186.952C149.948 186.099 149.969 185.416 149.969 184.904C149.969 184.157 149.756 183.507 149.329 182.952C148.924 182.376 148.348 182.088 147.601 182.088C147.153 182.088 146.684 182.227 146.193 182.504C145.702 182.76 145.361 183.08 145.169 183.464C144.849 184.083 144.625 184.755 144.497 185.48C144.262 186.76 144.145 188.093 144.145 189.48C144.145 190.141 144.156 190.653 144.177 191.016C144.177 191.101 144.177 191.272 144.177 191.528C144.198 191.763 144.177 191.987 144.113 192.2C144.07 192.392 143.985 192.573 143.857 192.744C143.75 192.851 143.58 192.936 143.345 193C143.132 193.085 142.929 193.128 142.737 193.128C142.438 193.128 142.065 193 141.617 192.744C141.169 192.488 140.913 192.2 140.849 191.88L140.817 191.336C140.817 191.144 140.838 190.92 140.881 190.664C141.137 189.171 141.265 187.869 141.265 186.76C141.265 186.269 141.254 185.885 141.233 185.608L141.201 184.104C141.201 183.592 141.073 183.101 140.817 182.632C140.561 182.141 140.262 181.896 139.921 181.896C139.814 181.896 139.665 181.939 139.473 182.024C139.281 182.088 139.121 182.12 138.993 182.12C138.78 182.12 138.545 182.013 138.289 181.8C138.054 181.587 137.937 181.363 137.937 181.128C137.937 180.68 138.086 180.317 138.385 180.04C138.705 179.784 139.014 179.581 139.313 179.432C139.633 179.283 139.996 179.208 140.401 179.208C140.742 179.208 141.02 179.24 141.233 179.304C141.446 179.368 141.734 179.507 142.097 179.72C142.289 179.827 142.513 180.061 142.769 180.424C143.025 180.787 143.238 181.299 143.409 181.96C143.964 180.936 144.646 180.221 145.457 179.816C146.289 179.389 147.345 179.176 148.625 179.176C149.116 179.176 149.638 179.336 150.193 179.656C150.769 179.976 151.26 180.349 151.665 180.776C152.049 181.245 152.369 181.832 152.625 182.536C152.881 183.219 153.009 183.837 153.009 184.392C153.009 184.712 152.988 185.235 152.945 185.96C152.881 186.536 152.849 187.144 152.849 187.784C152.849 189.277 153.137 190.195 153.713 190.536Z" fill="#3E3A5D"/>
</svg>
