<svg width="249" height="267" viewBox="0 0 249 267" fill="none" xmlns="http://www.w3.org/2000/svg">
<circle cx="124.5" cy="124.5" r="124.5" fill="#FFF6EF"/>
<path d="M161.737 224.927C183.177 215.9 230.936 177.004 230.936 124.5C230.936 65.7116 183.279 18.0543 124.49 18.0543C101.005 18.0543 79.2965 25.6599 61.6928 38.5425C61.6928 38.5425 41.7508 50.4017 60.1813 34.9916C78.6118 19.5816 100.489 14.293 124.49 14.293C185.356 14.293 234.697 63.6343 234.697 124.5C234.697 178.558 182.424 223.423 162.866 228.689C143.307 233.955 161.737 224.927 161.737 224.927Z" fill="#D96073"/>
<path d="M98.0816 130.234C95.6096 130.234 93.6773 129.903 92.2846 129.242C90.9268 128.615 89.8997 127.71 89.2033 126.526C88.5418 125.342 88.1414 123.915 88.0022 122.243C87.8629 120.572 87.7933 118.71 87.7933 116.655C87.7933 115.019 87.8455 113.383 87.9499 111.746C88.0544 110.075 88.2111 108.299 88.42 106.419C87.9325 106.419 87.5495 106.437 87.271 106.472C86.9925 106.472 86.7662 106.472 86.5921 106.472C85.478 106.472 84.5205 106.228 83.7197 105.74C82.8841 105.253 82.4663 104.504 82.4663 103.495C82.4663 102.868 82.71 102.311 83.1975 101.823C83.6501 101.336 84.242 100.918 84.9731 100.57C85.7043 100.222 86.4876 99.9434 87.3232 99.7345C88.1937 99.5256 89.0118 99.3863 89.7778 99.3167C89.7778 98.3418 89.8474 97.2625 89.9867 96.0787C90.126 94.895 90.3697 93.7982 90.7179 92.7886C91.1008 91.7441 91.6057 90.8736 92.2324 90.1773C92.8591 89.481 93.6599 89.1328 94.6347 89.1328C95.1918 89.1328 95.6792 89.3069 96.097 89.6551C96.5497 89.9684 96.9152 90.3862 97.1938 90.9085C97.4723 91.3959 97.6812 91.953 97.8205 92.5797C97.9597 93.2064 98.0294 93.8157 98.0294 94.4075C98.0294 95.1039 97.9771 95.8176 97.8727 96.5488C97.7682 97.2799 97.5768 98.1852 97.2982 99.2645C97.8901 99.1948 98.2905 99.16 98.4994 99.16C98.7083 99.1252 98.8998 99.1078 99.0739 99.1078C99.6658 99.1078 100.275 99.16 100.902 99.2645C101.563 99.3689 102.155 99.543 102.677 99.7867C103.234 100.03 103.687 100.361 104.035 100.779C104.383 101.162 104.557 101.632 104.557 102.189C104.557 102.816 104.296 103.373 103.774 103.86C103.287 104.348 102.66 104.766 101.894 105.114C101.128 105.462 100.31 105.74 99.4394 105.949C98.569 106.123 97.7508 106.245 96.9849 106.315C96.776 107.742 96.6193 109.065 96.5148 110.284C96.4452 111.468 96.3582 112.669 96.2537 113.887C96.1841 114.479 96.1145 115.089 96.0448 115.715C96.01 116.307 95.9926 116.917 95.9926 117.543C95.9926 117.996 96.01 118.536 96.0448 119.162C96.0796 119.754 96.2015 120.329 96.4104 120.886C96.6193 121.443 96.9501 121.93 97.4027 122.348C97.8553 122.731 98.482 122.922 99.2828 122.922C99.7702 122.922 100.275 122.888 100.797 122.818C101.32 122.714 101.842 122.661 102.364 122.661C103.269 122.661 103.913 122.975 104.296 123.601C104.714 124.228 104.923 125.029 104.923 126.004C104.923 126.735 104.697 127.379 104.244 127.936C103.826 128.458 103.287 128.876 102.625 129.189C101.964 129.538 101.215 129.799 100.379 129.973C99.5787 130.147 98.8127 130.234 98.0816 130.234Z" fill="#D96073"/>
<path d="M80.6154 119.058C80.6154 120.242 80.2324 121.408 79.4664 122.557C78.7353 123.671 77.7952 124.681 76.6463 125.586C75.5321 126.457 74.331 127.17 73.0427 127.727C71.7545 128.25 70.5708 128.511 69.4914 128.511C67.6462 128.511 65.9924 128.058 64.5301 127.153C63.1026 126.213 61.9014 125.029 60.9265 123.602C59.9517 122.174 59.2031 120.607 58.6809 118.901C58.1934 117.16 57.9497 115.472 57.9497 113.835C57.9497 112.095 58.1934 110.232 58.6809 108.247C59.1683 106.263 59.8994 104.435 60.8743 102.764C61.884 101.093 63.1374 99.6999 64.6345 98.5858C66.1664 97.4716 67.9769 96.9146 70.0659 96.9146C71.2497 96.9146 72.3812 97.1235 73.4605 97.5413C74.5399 97.9242 75.4799 98.4813 76.2807 99.2125C77.0815 99.9436 77.7256 100.814 78.213 101.824C78.7005 102.833 78.9442 103.965 78.9442 105.218C78.9442 106.855 78.596 108.387 77.8997 109.814C77.2033 111.242 76.2807 112.478 75.1317 113.522C73.9828 114.567 72.6598 115.42 71.1626 116.081C69.6655 116.708 68.1336 117.056 66.5668 117.126C66.7061 118.135 67.1065 118.866 67.768 119.319C68.4643 119.772 69.2825 119.998 70.2226 119.998C70.9189 119.998 71.5979 119.824 72.2594 119.476C72.9209 119.128 73.565 118.745 74.1917 118.327C74.8184 117.874 75.4277 117.474 76.0196 117.126C76.6463 116.777 77.273 116.603 77.8997 116.603C78.596 116.603 79.2227 116.83 79.7798 117.282C80.3368 117.735 80.6154 118.327 80.6154 119.058ZM72.1549 106.263C72.1549 105.81 72.0331 105.34 71.7893 104.853C71.5456 104.365 71.1626 104.122 70.6404 104.122C69.8744 104.122 69.2303 104.331 68.7081 104.748C68.1858 105.131 67.7506 105.636 67.4024 106.263C67.0543 106.855 66.7757 107.499 66.5668 108.195C66.3928 108.891 66.2883 109.536 66.2535 110.127C66.7409 110.023 67.3154 109.884 67.9769 109.71C68.6732 109.536 69.3174 109.309 69.9092 109.031C70.5359 108.717 71.0582 108.334 71.476 107.882C71.9286 107.429 72.1549 106.89 72.1549 106.263Z" fill="#D96073"/>
<path d="M54.271 100.361C54.271 102.241 53.8532 104.087 53.0176 105.897C52.2168 107.708 51.1375 109.344 49.7797 110.806C48.4218 112.234 46.8725 113.418 45.1316 114.358C43.3908 115.263 41.5977 115.768 39.7525 115.872C39.7176 116.499 39.6828 117.3 39.648 118.274C39.648 119.215 39.5958 120.207 39.4913 121.251C39.3869 122.296 39.2302 123.34 39.0213 124.385C38.8472 125.429 38.5687 126.369 38.1857 127.205C37.8375 128.041 37.3675 128.719 36.7756 129.242C36.2186 129.764 35.5222 130.025 34.6866 130.025C33.7118 130.025 32.9284 129.694 32.3365 129.033C31.7794 128.406 31.3442 127.64 31.0309 126.735C30.7523 125.83 30.5608 124.89 30.4564 123.915C30.3519 122.905 30.2823 122.052 30.2475 121.356C30.1779 120.346 30.1256 119.354 30.0908 118.379C30.0908 117.404 30.0908 116.412 30.0908 115.402C30.0908 114.949 30.0908 114.114 30.0908 112.895C30.0908 111.642 30.0908 110.232 30.0908 108.665C30.1256 107.064 30.1605 105.41 30.1953 103.704C30.2301 101.963 30.2823 100.361 30.3519 98.899C30.4216 97.4019 30.4912 96.1311 30.5608 95.0866C30.6653 94.0421 30.7872 93.4328 30.9264 93.2587C30.9612 93.2239 31.0657 93.1542 31.2398 93.0498C31.4139 92.9105 31.6053 92.7887 31.8142 92.6842C32.0231 92.5449 32.2146 92.4231 32.3887 92.3186C32.5628 92.2142 32.6847 92.1446 32.7543 92.1097C34.3559 91.2045 36.1141 90.4211 38.029 89.7596C39.9439 89.0981 41.8415 88.7673 43.7216 88.7673C45.3231 88.7673 46.768 89.0981 48.0562 89.7596C49.3793 90.3863 50.4934 91.2393 51.3986 92.3186C52.3387 93.3631 53.0524 94.5991 53.5399 96.0266C54.0273 97.4193 54.271 98.8642 54.271 100.361ZM45.2361 101.562C45.2361 100.866 45.062 100.257 44.7138 99.7346C44.4005 99.2123 43.8608 98.9512 43.0949 98.9512C42.4333 98.9512 41.7718 99.0905 41.1103 99.369C40.4488 99.6127 39.8395 99.8739 39.2824 100.152C39.3869 101.371 39.4739 102.555 39.5436 103.704C39.648 104.853 39.6654 106.036 39.5958 107.255C40.1528 106.976 40.7621 106.663 41.4237 106.315C42.0852 105.932 42.6945 105.514 43.2515 105.062C43.8086 104.609 44.2786 104.104 44.6616 103.547C45.0446 102.955 45.2361 102.294 45.2361 101.562Z" fill="#D96073"/>
<path d="M134.788 139.793C137.086 138.707 174.062 110.389 132.282 110.389C110.52 110.389 102.827 122.936 134.788 139.793Z" fill="#D96073"/>
<path d="M119.552 109.553C123.408 108.141 127.193 106.593 132.793 106.593C138.117 106.593 140.601 107.081 144.829 109.135C149.057 111.189 151.051 113.191 152.561 114.97C154.161 116.856 154.505 119.075 154.08 121.22C153.674 123.267 152.573 125.275 151.25 127.101C148.592 130.768 144.546 134.364 141.126 137.058C139.678 138.198 138.314 139.198 137.171 139.999C145.159 144.499 162.426 147.314 173.24 139.999C184.054 132.683 189.005 134.753 176.004 143.67C163.004 152.586 140.9 147.02 132.793 141.932C132.295 142.141 131.668 142.768 129.782 144.017L125.61 140.888C126.655 140.261 126.982 140.249 127.782 139.879C121.809 136.439 117.49 133.197 114.643 130.175C111.245 126.568 109.551 122.824 110.491 119.253C111.418 115.738 115.787 110.932 119.552 109.553ZM132.793 111.189C127.513 111.189 124.31 112.705 121.132 113.868C117.863 115.065 115.284 119.101 114.935 120.424C114.601 121.692 114.99 123.841 117.988 127.023C120.793 130 125.546 133.496 132.793 137.411C133.116 137.203 133.5 136.948 133.935 136.65C135.114 135.843 136.64 134.741 138.283 133.448C141.606 130.83 145.25 127.548 147.528 124.404C148.672 122.826 149.35 121.446 149.572 120.326C149.775 119.304 149.595 118.578 149.057 117.944C148.429 117.204 146.478 114.545 143.785 113.868C141.122 113.2 137.915 111.189 132.793 111.189Z" fill="#D96073" stroke="#D96073" stroke-width="2"/>
<mask id="path-8-outside-1_204_696" maskUnits="userSpaceOnUse" x="115.21" y="139.888" width="31" height="40" fill="black">
<rect fill="white" x="115.21" y="139.888" width="31" height="40"/>
<path fill-rule="evenodd" clip-rule="evenodd" d="M120.597 145.484C121.502 143.847 123.939 141.515 125.193 140.888L129.788 144.23C129.092 144.787 127.177 146.876 126.655 147.782C126.583 147.907 126.514 148.022 126.448 148.133C126.036 148.825 125.703 149.383 124.984 151.542C124.409 153.265 124.37 153.639 124.322 154.089C124.3 154.294 124.277 154.514 124.2 154.884C124.038 156.31 124.017 156.999 123.999 157.574C123.988 157.926 123.979 158.235 123.939 158.644C123.868 159.384 123.894 160.025 123.918 160.601C123.929 160.867 123.939 161.119 123.939 161.36C123.939 161.731 124.006 162.248 124.075 162.782C124.123 163.15 124.172 163.526 124.2 163.867C124.268 164.646 124.515 165.387 124.754 166.104L124.775 166.165C124.984 166.792 125.576 167.523 126.028 168.045C126.481 168.567 127.177 168.567 127.908 168.567C129.162 168.567 130.171 168.184 130.937 167.418C131.703 166.617 132.226 165.608 132.504 164.389C132.017 164.32 131.529 164.215 131.042 164.076C130.589 163.902 130.154 163.675 129.736 163.397C129.353 163.084 129.04 162.718 128.796 162.3C128.552 161.848 128.431 161.325 128.431 160.733C128.431 159.654 128.796 158.819 129.527 158.227C130.258 157.6 131.112 157.13 132.086 156.817C133.096 156.503 134.123 156.312 135.168 156.242C136.212 156.138 137.048 156.085 137.674 156.085C138.127 156.085 138.789 156.12 139.659 156.19C140.529 156.26 141.382 156.416 142.218 156.66C143.088 156.869 143.837 157.182 144.464 157.6C145.09 158.018 145.404 158.557 145.404 159.219C145.404 160.542 145.038 161.691 144.307 162.666C143.611 163.606 142.566 164.163 141.174 164.337C140.86 165.904 140.355 167.54 139.659 169.246C138.997 170.917 138.127 172.449 137.048 173.842C136.003 175.235 134.75 176.366 133.288 177.237C131.825 178.142 130.154 178.594 128.274 178.594C126.881 178.594 125.628 178.316 124.514 177.759C123.4 177.202 122.39 176.453 121.485 175.513C120.579 174.573 119.796 173.494 119.135 172.275C118.473 171.057 117.916 169.803 117.463 168.515C117.046 167.192 116.732 165.886 116.523 164.598C116.314 163.31 116.21 162.109 116.21 160.995C116.21 159.428 116.349 157.757 116.628 155.981C116.91 154.349 117.561 152.448 118.12 150.814C118.181 150.635 118.241 150.46 118.299 150.288C118.891 148.513 119.692 147.085 120.597 145.484Z"/>
</mask>
<path fill-rule="evenodd" clip-rule="evenodd" d="M120.597 145.484C121.502 143.847 123.939 141.515 125.193 140.888L129.788 144.23C129.092 144.787 127.177 146.876 126.655 147.782C126.583 147.907 126.514 148.022 126.448 148.133C126.036 148.825 125.703 149.383 124.984 151.542C124.409 153.265 124.37 153.639 124.322 154.089C124.3 154.294 124.277 154.514 124.2 154.884C124.038 156.31 124.017 156.999 123.999 157.574C123.988 157.926 123.979 158.235 123.939 158.644C123.868 159.384 123.894 160.025 123.918 160.601C123.929 160.867 123.939 161.119 123.939 161.36C123.939 161.731 124.006 162.248 124.075 162.782C124.123 163.15 124.172 163.526 124.2 163.867C124.268 164.646 124.515 165.387 124.754 166.104L124.775 166.165C124.984 166.792 125.576 167.523 126.028 168.045C126.481 168.567 127.177 168.567 127.908 168.567C129.162 168.567 130.171 168.184 130.937 167.418C131.703 166.617 132.226 165.608 132.504 164.389C132.017 164.32 131.529 164.215 131.042 164.076C130.589 163.902 130.154 163.675 129.736 163.397C129.353 163.084 129.04 162.718 128.796 162.3C128.552 161.848 128.431 161.325 128.431 160.733C128.431 159.654 128.796 158.819 129.527 158.227C130.258 157.6 131.112 157.13 132.086 156.817C133.096 156.503 134.123 156.312 135.168 156.242C136.212 156.138 137.048 156.085 137.674 156.085C138.127 156.085 138.789 156.12 139.659 156.19C140.529 156.26 141.382 156.416 142.218 156.66C143.088 156.869 143.837 157.182 144.464 157.6C145.09 158.018 145.404 158.557 145.404 159.219C145.404 160.542 145.038 161.691 144.307 162.666C143.611 163.606 142.566 164.163 141.174 164.337C140.86 165.904 140.355 167.54 139.659 169.246C138.997 170.917 138.127 172.449 137.048 173.842C136.003 175.235 134.75 176.366 133.288 177.237C131.825 178.142 130.154 178.594 128.274 178.594C126.881 178.594 125.628 178.316 124.514 177.759C123.4 177.202 122.39 176.453 121.485 175.513C120.579 174.573 119.796 173.494 119.135 172.275C118.473 171.057 117.916 169.803 117.463 168.515C117.046 167.192 116.732 165.886 116.523 164.598C116.314 163.31 116.21 162.109 116.21 160.995C116.21 159.428 116.349 157.757 116.628 155.981C116.91 154.349 117.561 152.448 118.12 150.814C118.181 150.635 118.241 150.46 118.299 150.288C118.891 148.513 119.692 147.085 120.597 145.484Z" fill="#D96073"/>
<path d="M120.159 145.242C120.451 145.403 120.743 145.564 121.034 145.726C121.064 145.672 121.097 145.615 121.13 145.56C122.199 143.917 123.782 142.308 125.416 141.335L124.899 141.292C125.036 141.393 125.174 141.493 125.312 141.593C126.706 142.607 128.1 143.621 129.494 144.635L129.476 143.84C128.209 144.989 127.189 146.085 126.222 147.532C126.156 147.646 126.088 147.761 126.018 147.877C125.328 148.969 124.907 150.209 124.509 151.384C124.241 152.228 123.918 153.067 123.825 154.036C123.798 154.299 123.763 154.531 123.711 154.783L123.704 154.828C123.601 155.728 123.521 156.649 123.5 157.558C123.489 157.917 123.476 158.254 123.442 158.596C123.373 159.281 123.389 159.969 123.418 160.622C123.429 160.875 123.439 161.122 123.439 161.36C123.447 161.903 123.521 162.37 123.58 162.846C123.626 163.207 123.673 163.563 123.702 163.908C123.776 164.757 124.037 165.533 124.28 166.262C124.287 166.282 124.294 166.303 124.301 166.323C124.624 167.195 125.15 167.776 125.65 168.372C126.319 169.131 127.277 169.055 127.908 169.067C129.097 169.084 130.41 168.682 131.291 167.772L131.299 167.764C132.171 166.86 132.725 165.688 132.992 164.501L133.113 163.971L132.575 163.894C132.104 163.827 131.638 163.726 131.179 163.595L131.221 163.609C130.798 163.447 130.394 163.235 130.014 162.981L130.053 163.01C129.721 162.739 129.442 162.415 129.228 162.048L129.236 162.063C129.024 161.671 128.93 161.213 128.931 160.733C128.923 159.883 129.213 159.109 129.842 158.615L129.853 158.606C130.544 158.012 131.361 157.574 132.239 157.293C133.198 156.995 134.195 156.808 135.201 156.741L135.217 156.74C136.042 156.659 136.871 156.588 137.674 156.585C138.305 156.589 138.965 156.637 139.619 156.688C140.452 156.755 141.276 156.906 142.078 157.14L142.101 157.146C142.851 157.326 143.569 157.604 144.186 158.016C144.65 158.322 144.909 158.722 144.904 159.219C144.91 160.361 144.586 161.474 143.907 162.366C143.277 163.239 142.235 163.709 141.112 163.841L140.754 163.886L140.683 164.239C140.354 165.883 139.834 167.493 139.196 169.057C139.133 169.216 139.071 169.368 139.006 169.52C138.396 170.953 137.606 172.306 136.653 173.536C135.666 174.855 134.438 175.973 133.032 176.807C131.617 177.692 129.952 178.101 128.274 178.094C127.041 178.097 125.819 177.856 124.737 177.312C123.66 176.774 122.684 176.04 121.845 175.166C120.95 174.238 120.192 173.177 119.574 172.037C118.931 170.853 118.381 169.619 117.935 168.349L117.94 168.364C117.542 167.104 117.228 165.819 117.017 164.518C116.827 163.348 116.71 162.168 116.71 160.995C116.71 159.347 116.865 157.696 117.122 156.058C117.356 154.737 117.776 153.41 118.214 152.09C118.338 151.719 118.465 151.348 118.593 150.976C118.653 150.801 118.713 150.625 118.772 150.449C119.312 148.805 120.154 147.276 121.032 145.73C120.742 145.566 120.452 145.402 120.162 145.238C119.286 146.781 118.397 148.386 117.825 150.13C117.766 150.302 117.706 150.477 117.646 150.652C117.519 151.024 117.391 151.398 117.266 151.773C116.822 153.111 116.389 154.465 116.135 155.896C115.871 157.583 115.71 159.284 115.71 160.995C115.71 162.236 115.834 163.466 116.03 164.678C116.249 166.031 116.575 167.363 116.987 168.666L116.992 168.681C117.456 170.002 118.028 171.284 118.695 172.514C119.352 173.725 120.162 174.862 121.125 175.86C122.035 176.808 123.106 177.616 124.29 178.206C125.528 178.829 126.919 179.098 128.274 179.094C130.099 179.103 131.976 178.648 133.551 177.662C135.062 176.766 136.395 175.552 137.448 174.142C138.449 172.851 139.284 171.421 139.926 169.912C139.994 169.752 140.06 169.592 140.124 169.43C140.779 167.824 141.319 166.155 141.664 164.435L141.236 164.833C142.517 164.691 143.897 164.096 144.709 162.963C145.523 161.899 145.915 160.528 145.904 159.219C145.937 158.389 145.375 157.572 144.741 157.184C143.999 156.689 143.169 156.374 142.335 156.174L142.358 156.18C141.492 155.927 140.598 155.763 139.699 155.691C139.031 155.64 138.369 155.589 137.674 155.585C136.803 155.589 135.96 155.662 135.118 155.745L135.134 155.743C134.05 155.815 132.974 156.017 131.938 156.339C130.945 156.656 129.999 157.161 129.202 157.847L129.213 157.838C128.327 158.517 127.906 159.703 127.931 160.733C127.929 161.336 128.05 161.974 128.356 162.537L128.364 162.552C128.638 163.022 129.001 163.443 129.42 163.784L129.459 163.813C129.896 164.105 130.368 164.352 130.862 164.543L130.905 164.557C131.405 164.7 131.916 164.81 132.433 164.884L132.017 164.278C131.779 165.332 131.307 166.315 130.576 167.073L130.584 167.065C129.903 167.761 128.929 168.075 127.908 168.067C127.234 168.075 126.654 168.038 126.406 167.717C125.931 167.166 125.448 166.567 125.249 166.007C125.242 165.986 125.236 165.966 125.229 165.945C124.984 165.217 124.758 164.516 124.699 163.824C124.667 163.445 124.618 163.079 124.571 162.717C124.512 162.249 124.443 161.77 124.439 161.36C124.439 161.092 124.428 160.834 124.418 160.581C124.388 159.929 124.376 159.309 124.437 158.693C124.474 158.323 124.489 157.946 124.499 157.589C124.52 156.7 124.596 155.83 124.697 154.941L124.69 154.985C124.747 154.712 124.793 154.413 124.819 154.142C124.888 153.353 125.192 152.53 125.458 151.7C125.855 150.529 126.237 149.4 126.877 148.389C126.947 148.272 127.018 148.153 127.088 148.032C127.872 146.846 129.026 145.587 130.101 144.621L130.613 144.211L130.083 143.826C128.688 142.812 127.294 141.798 125.9 140.784C125.762 140.684 125.625 140.584 125.487 140.484L125.241 140.305L124.969 140.441C122.979 141.643 121.525 143.163 120.273 145.044C120.235 145.109 120.195 145.176 120.159 145.242ZM121.034 145.726L120.159 145.242L121.032 145.73L121.034 145.726Z" fill="#D96073" mask="url(#path-8-outside-1_204_696)"/>
<path d="M157.001 179.791C155.475 179.791 154.143 179.388 153.006 178.58C151.869 177.772 150.912 176.74 150.134 175.483C149.356 174.226 148.773 172.835 148.384 171.309C147.995 169.753 147.8 168.227 147.8 166.731C147.8 165.145 147.995 163.515 148.384 161.839C148.773 160.134 149.371 158.593 150.179 157.216C150.987 155.81 152.019 154.673 153.276 153.805C154.532 152.908 156.028 152.459 157.764 152.459C159.439 152.459 160.861 152.923 162.028 153.85C163.224 154.748 164.182 155.885 164.9 157.261C165.618 158.608 166.127 160.089 166.426 161.704C166.725 163.32 166.83 164.846 166.74 166.282C166.65 167.868 166.396 169.469 165.977 171.085C165.588 172.7 165.005 174.151 164.227 175.438C163.449 176.725 162.461 177.772 161.265 178.58C160.068 179.388 158.647 179.791 157.001 179.791ZM157.45 159.505C157.001 159.505 156.597 159.745 156.238 160.223C155.909 160.702 155.625 161.286 155.385 161.974C155.176 162.662 155.011 163.395 154.891 164.173C154.772 164.921 154.712 165.579 154.712 166.148C154.712 166.866 154.772 167.644 154.891 168.481C155.041 169.319 155.236 170.097 155.475 170.815C155.714 171.503 155.999 172.087 156.328 172.566C156.687 173.014 157.091 173.239 157.539 173.239C158.018 173.239 158.422 173.014 158.751 172.566C159.11 172.117 159.395 171.548 159.604 170.86C159.813 170.172 159.963 169.424 160.053 168.616C160.143 167.778 160.187 167 160.187 166.282C160.187 165.624 160.128 164.906 160.008 164.128C159.888 163.32 159.709 162.572 159.469 161.884C159.26 161.196 158.976 160.627 158.617 160.178C158.287 159.73 157.898 159.505 157.45 159.505Z" fill="#D96073"/>
<path d="M171.621 117.697C171.621 117.697 216.273 115.257 217.561 115.257C218.989 115.257 221.496 114.984 217.468 114.882C213.441 114.779 173.292 115.969 171.406 116.84C169.521 117.711 171.621 117.697 171.621 117.697Z" fill="#D96073" stroke="#D96073"/>
<path d="M171.046 126.104C171.046 126.104 210.755 128.667 211.114 128.667C212.054 128.667 213.558 128.772 211.043 128.255C208.527 127.739 172.543 124.447 170.88 125.165C169.217 125.883 171.046 126.104 171.046 126.104Z" fill="#D96073" stroke="#D96073"/>
<circle cx="165.928" cy="121.251" r="1.2534" fill="#D96073"/>
<circle cx="160.079" cy="116.238" r="1.2534" fill="#D96073"/>
<circle cx="160.079" cy="126.265" r="1.2534" fill="#D96073"/>
<circle cx="44.0075" cy="51.5302" r="6.39426" fill="#D96073"/>
<circle cx="140.298" cy="232.074" r="6.39426" fill="#D96073"/>
<path d="M38.0947 193.216C37.9042 193.341 37.6485 193.493 37.3277 193.673C37.0138 193.863 36.6844 194.018 36.3395 194.138C36.0052 194.25 35.6803 194.297 35.3648 194.276C35.0492 194.256 34.7979 194.103 34.611 193.817C34.3548 193.426 34.2845 193.041 34.4001 192.663C34.5157 192.285 34.7675 191.977 35.1555 191.738C34.6375 191.593 34.1519 191.359 33.6987 191.036C33.2524 190.723 32.8838 190.345 32.5931 189.9C32.3923 189.593 32.276 189.254 32.2441 188.881C32.2123 188.509 32.2436 188.141 32.338 187.777C32.4324 187.413 32.581 187.074 32.7837 186.76C32.9971 186.439 33.2466 186.185 33.5324 185.998C34.0405 185.666 34.5855 185.529 35.1674 185.586C35.7562 185.655 36.3317 185.83 36.8941 186.112C37.467 186.387 37.9991 186.727 38.4902 187.131C38.9882 187.546 39.3952 187.937 39.7113 188.305C39.7642 188.27 39.8118 188.239 39.8542 188.211C39.9034 188.194 39.9545 188.168 40.0075 188.134C40.3356 187.919 40.5414 187.656 40.6248 187.345C40.7082 187.033 40.6426 186.713 40.428 186.385C40.2549 186.12 40.0584 185.924 39.8385 185.796C39.6292 185.661 39.411 185.547 39.1837 185.453C38.9671 185.353 38.7558 185.25 38.5497 185.143C38.3543 185.029 38.1873 184.866 38.0488 184.654C37.8965 184.421 37.839 184.172 37.8765 183.905C37.9208 183.649 38.0594 183.445 38.2923 183.293C38.6416 183.065 39.025 182.958 39.4423 182.972C39.8666 182.996 40.2744 183.1 40.6657 183.282C41.0746 183.468 41.4496 183.707 41.7909 183.997C42.1496 184.292 42.4294 184.592 42.6302 184.899C42.8171 185.185 42.967 185.495 43.0799 185.83C43.2033 186.157 43.274 186.496 43.292 186.847C43.3205 187.191 43.2947 187.533 43.2145 187.873C43.1519 188.216 43.0245 188.541 42.8324 188.848C42.5653 189.295 42.2476 189.722 41.8792 190.129C41.5213 190.529 41.1303 190.913 40.706 191.282C40.2924 191.643 39.8596 191.986 39.4077 192.312C38.9664 192.631 38.5287 192.932 38.0947 193.216ZM36.9412 190.343L37.9897 189.59C37.9759 189.568 37.962 189.547 37.9482 189.526C37.9449 189.498 37.9364 189.473 37.9225 189.452C37.8325 189.315 37.6812 189.164 37.4686 189.001C37.2736 188.841 37.0502 188.708 36.7986 188.6C36.5575 188.486 36.3179 188.408 36.0797 188.368C35.8484 188.338 35.6534 188.375 35.4946 188.478C35.3464 188.575 35.2804 188.694 35.2967 188.834C35.3131 188.975 35.3662 189.114 35.4562 189.252C35.6085 189.484 35.8295 189.695 36.119 189.884C36.4191 190.065 36.6932 190.218 36.9412 190.343Z" fill="#D96073"/>
<path d="M40.4154 201.503C40.2796 201.336 40.2501 201.14 40.3271 200.914C40.3943 200.696 40.5059 200.483 40.6621 200.274C40.8182 200.065 40.9864 199.871 41.1665 199.692C41.3644 199.514 41.5173 199.381 41.6251 199.294C41.9193 199.054 42.2254 198.829 42.5436 198.618C42.8697 198.418 43.1958 198.218 43.5219 198.017C43.856 197.826 44.1821 197.626 44.5003 197.416C44.8264 197.215 45.1365 196.995 45.4307 196.755C45.5483 196.659 45.6718 196.551 45.8011 196.429C45.9304 196.307 46.0378 196.179 46.1235 196.044C46.227 195.91 46.286 195.773 46.3006 195.63C46.3151 195.488 46.2704 195.353 46.1665 195.225C46.0946 195.137 45.9412 195.099 45.7062 195.111C45.481 195.115 45.2353 195.144 44.9691 195.198C44.7207 195.253 44.4754 195.323 44.2332 195.406C44.0087 195.491 43.8524 195.569 43.7641 195.641C43.5484 195.817 43.3278 195.997 43.1023 196.181C42.8946 196.366 42.678 196.551 42.4524 196.735L41.5994 197.43C41.4149 197.564 41.2215 197.697 41.0193 197.829C40.817 197.961 40.6116 198.08 40.4032 198.184C40.2027 198.299 39.9951 198.395 39.7805 198.472C39.5757 198.541 39.3696 198.578 39.1622 198.584C38.9726 198.592 38.7867 198.564 38.6044 198.5C38.4221 198.437 38.259 198.316 38.1152 198.14C37.9553 197.944 37.8872 197.73 37.9108 197.499C37.9344 197.267 38.0123 197.033 38.1445 196.794C38.2865 196.548 38.464 196.306 38.6772 196.067C38.9082 195.829 39.1333 195.605 39.3526 195.394C39.5898 195.184 39.8064 194.999 40.0025 194.84C40.2164 194.682 40.3822 194.555 40.4998 194.459L41.1911 193.896C41.5637 193.592 41.9234 193.282 42.2702 192.967C42.625 192.662 42.9838 192.361 43.3466 192.065C43.5427 191.906 43.7927 191.702 44.0967 191.454C44.4086 191.216 44.7347 191.016 45.075 190.853C45.4251 190.682 45.767 190.591 46.1008 190.58C46.4345 190.569 46.7253 190.715 46.973 191.019C47.0849 191.157 47.1406 191.315 47.1403 191.495C47.1399 191.675 47.108 191.856 47.0444 192.038C46.9889 192.23 46.9075 192.411 46.8004 192.579C46.7013 192.758 46.6098 192.906 46.5259 193.023C46.7431 193.01 46.9673 193.015 47.1987 193.038C47.438 193.072 47.6746 193.132 47.9085 193.218C48.1424 193.305 48.3727 193.428 48.5993 193.586C48.8259 193.743 49.0471 193.955 49.2629 194.22C49.6704 194.72 49.8635 195.207 49.8421 195.681C49.8385 196.157 49.7072 196.607 49.4483 197.03C49.2072 197.455 48.8927 197.85 48.5049 198.215C48.117 198.58 47.7564 198.898 47.423 199.17C47.2564 199.306 46.9943 199.495 46.637 199.737C46.2895 199.971 45.8867 200.218 45.4288 200.477C44.9886 200.738 44.5138 200.986 44.0043 201.222C43.5046 201.45 43.0232 201.63 42.5601 201.762C42.0971 201.895 41.6738 201.946 41.2903 201.916C40.9148 201.896 40.6232 201.758 40.4154 201.503Z" fill="#D96073"/>
<path d="M56.0365 198.323C55.909 198.446 55.7601 198.519 55.5897 198.543C55.428 198.576 55.2536 198.577 55.0663 198.547C54.8881 198.508 54.7148 198.446 54.5463 198.363C54.387 198.27 54.2547 198.169 54.1493 198.06C53.9738 197.878 53.8657 197.675 53.8251 197.45C53.7845 197.226 53.8598 197.022 54.051 196.837C54.1876 196.706 54.3367 196.623 54.4984 196.591C54.6779 196.558 54.8478 196.561 55.0081 196.6C55.1775 196.63 55.3419 196.691 55.5012 196.783C55.6605 196.876 55.7972 196.981 55.9114 197.1C56.0781 197.273 56.1908 197.471 56.2493 197.696C56.3078 197.921 56.2368 198.13 56.0365 198.323ZM51.4975 202.909C51.37 203.032 51.2334 203.164 51.0877 203.304C50.9511 203.436 50.8146 203.559 50.6784 203.672C50.5148 203.812 50.3009 204.01 50.0368 204.264C49.7819 204.51 49.4953 204.769 49.1773 205.04C48.8592 205.312 48.5234 205.574 48.1699 205.827C47.8251 206.089 47.4814 206.297 47.1386 206.452C46.7958 206.607 46.4679 206.686 46.1547 206.689C45.8595 206.692 45.5975 206.585 45.369 206.366C45.1931 206.202 45.1209 205.99 45.1525 205.731C45.1841 205.472 45.2742 205.192 45.4229 204.891C45.5894 204.59 45.7963 204.285 46.0435 203.976C46.2998 203.659 46.5512 203.364 46.7977 203.091C47.0534 202.81 47.295 202.559 47.5227 202.34C47.7504 202.12 47.9188 201.958 48.0281 201.853C48.1738 201.712 48.3787 201.515 48.6428 201.26C48.916 200.997 49.2162 200.725 49.5434 200.445C49.8706 200.164 50.2155 199.893 50.5781 199.632C50.9495 199.379 51.3111 199.171 51.663 199.007C52.0237 198.853 52.3606 198.774 52.6737 198.771C52.9869 198.768 53.2576 198.885 53.4858 199.121C53.7228 199.367 53.7798 199.673 53.6568 200.037C53.5339 200.402 53.3392 200.774 53.0728 201.153C52.8064 201.533 52.5137 201.886 52.1946 202.211C51.8847 202.527 51.6523 202.76 51.4975 202.909Z" fill="#D96073"/>
<path d="M61.4323 212.588C61.277 212.772 61.0644 213.022 60.7946 213.341C60.5329 213.65 60.2371 213.979 59.9071 214.33C59.5868 214.688 59.243 215.035 58.8759 215.371C58.5169 215.697 58.1576 215.964 57.798 216.173C57.448 216.391 57.1141 216.531 56.7961 216.593C56.4782 216.655 56.1986 216.584 55.9573 216.379C55.745 216.2 55.6545 215.974 55.6859 215.702C55.7351 215.429 55.8378 215.151 55.9939 214.869C56.1501 214.587 56.3296 214.316 56.5326 214.057C56.7451 213.806 56.9128 213.608 57.0354 213.463C57.4033 213.029 57.7776 212.617 58.1581 212.226C58.5387 211.836 58.9129 211.423 59.2808 210.989C59.3217 210.941 59.3953 210.854 59.5016 210.729C59.6079 210.603 59.7045 210.469 59.7915 210.328C59.8785 210.186 59.9388 210.046 59.9723 209.909C60.0154 209.78 59.9936 209.678 59.9067 209.605C59.733 209.457 59.5154 209.431 59.2539 209.524C59.0006 209.608 58.7379 209.742 58.466 209.926C58.194 210.11 57.9413 210.31 57.708 210.527C57.4828 210.734 57.3163 210.891 57.2085 210.999C57.0829 211.108 56.9042 211.28 56.6723 211.514C56.4501 211.757 56.1977 212.016 55.9153 212.291C55.6426 212.573 55.3423 212.849 55.0146 213.119C54.7047 213.387 54.3959 213.614 54.0883 213.801C53.7985 213.987 53.5214 214.108 53.2569 214.166C52.9925 214.224 52.7686 214.175 52.5852 214.02C52.3536 213.824 52.2609 213.571 52.3071 213.262C52.3534 212.953 52.462 212.639 52.6331 212.32C52.8041 212 52.9985 211.693 53.2163 211.396C53.4438 211.108 53.6229 210.887 53.7538 210.733C53.8928 210.569 54.0277 210.409 54.1585 210.255C54.299 210.109 54.4387 209.954 54.5777 209.79C54.6349 209.722 54.729 209.611 54.8598 209.457C54.9906 209.302 55.1289 209.129 55.2746 208.938C55.4381 208.745 55.5961 208.539 55.7485 208.32C55.9105 208.109 56.0466 207.909 56.1566 207.721C56.2749 207.522 56.35 207.346 56.382 207.19C56.4141 207.035 56.3915 206.925 56.3143 206.859C56.1888 206.753 56.0035 206.737 55.7583 206.811C55.5214 206.876 55.2702 206.986 55.005 207.143C54.7479 207.29 54.5053 207.449 54.2771 207.62C54.0587 207.8 53.9085 207.938 53.8268 208.034L53.7532 208.121C53.3607 208.584 53.0054 209.063 52.6872 209.556C52.369 210.049 52.0136 210.527 51.6211 210.99C51.3922 211.26 51.0928 211.437 50.7228 211.522C50.361 211.597 50.0258 211.503 49.7169 211.242C49.495 211.054 49.3811 210.816 49.3753 210.529C49.3778 210.233 49.4452 209.909 49.5776 209.557C49.71 209.205 49.8822 208.845 50.0941 208.478C50.3239 208.109 50.5599 207.762 50.8023 207.436C51.0528 207.102 51.2795 206.805 51.4825 206.545C51.7032 206.285 51.8667 206.092 51.973 205.966C52.0957 205.822 52.2707 205.605 52.4982 205.317C52.7353 205.037 52.9977 204.737 53.2854 204.418C53.5827 204.106 53.8937 203.797 54.2185 203.492C54.5514 203.178 54.8799 202.917 55.2039 202.711C55.5278 202.504 55.831 202.372 56.1132 202.312C56.4134 202.252 56.6744 202.315 56.8964 202.503C57.1473 202.716 57.2927 202.955 57.3327 203.221C57.3822 203.495 57.2926 203.768 57.0636 204.038C57.0146 204.096 56.9607 204.149 56.902 204.199C56.8529 204.257 56.8031 204.306 56.7526 204.346C56.9896 204.282 57.2507 204.238 57.5359 204.214C57.8293 204.181 58.116 204.175 58.396 204.197C58.6939 204.217 58.9768 204.274 59.2449 204.369C59.5212 204.454 59.7606 204.582 59.9633 204.754C60.1563 204.917 60.285 205.118 60.3495 205.354C60.414 205.591 60.4346 205.841 60.4114 206.103C60.3964 206.356 60.3498 206.606 60.2717 206.855C60.1935 207.104 60.0994 207.323 59.9894 207.511C60.2331 207.419 60.4961 207.344 60.7783 207.284C61.0785 207.224 61.3678 207.195 61.6463 207.199C61.9248 207.203 62.1974 207.243 62.464 207.32C62.7403 207.405 62.9845 207.537 63.1969 207.717C63.3995 207.889 63.5119 208.108 63.534 208.376C63.5561 208.643 63.5222 208.938 63.4321 209.259C63.3502 209.571 63.2155 209.896 63.0282 210.235C62.8489 210.564 62.6601 210.885 62.4616 211.197C62.2712 211.5 62.0787 211.776 61.8839 212.026C61.6973 212.266 61.5468 212.453 61.4323 212.588Z" fill="#D96073"/>
<path d="M67.901 221.297C67.7761 221.487 67.6025 221.729 67.38 222.022C67.1682 222.321 66.9281 222.595 66.6598 222.842C66.3984 223.079 66.119 223.252 65.8216 223.359C65.5241 223.466 65.2327 223.426 64.9471 223.239C64.5559 222.982 64.3378 222.658 64.2928 222.265C64.2479 221.872 64.3556 221.489 64.616 221.115C64.0833 221.189 63.5447 221.169 63 221.053C62.466 220.945 61.9769 220.745 61.5328 220.454C61.2261 220.252 60.9839 219.988 60.8061 219.659C60.6283 219.331 60.51 218.981 60.4512 218.609C60.3923 218.238 60.3932 217.868 60.4537 217.499C60.5211 217.119 60.6485 216.787 60.8358 216.501C61.169 215.994 61.6138 215.65 62.1703 215.471C62.7373 215.298 63.335 215.229 63.9632 215.263C64.5984 215.287 65.2218 215.386 65.8335 215.56C66.4558 215.742 66.9852 215.938 67.4217 216.149C67.4564 216.096 67.4876 216.048 67.5154 216.006C67.5537 215.97 67.5902 215.926 67.6249 215.873C67.8401 215.546 67.9237 215.222 67.8758 214.903C67.8279 214.584 67.64 214.317 67.3122 214.102C67.0478 213.929 66.7892 213.827 66.5364 213.797C66.2905 213.757 66.0448 213.74 65.7993 213.745C65.5607 213.74 65.3256 213.729 65.0939 213.713C64.8692 213.687 64.6511 213.604 64.4396 213.465C64.2069 213.313 64.0546 213.107 63.9826 212.848C63.9211 212.596 63.9667 212.353 64.1194 212.12C64.3484 211.772 64.657 211.52 65.0453 211.367C65.4442 211.22 65.8594 211.152 66.291 211.163C66.7401 211.17 67.1792 211.239 67.6081 211.369C68.0546 211.496 68.4311 211.659 68.7378 211.861C69.0233 212.048 69.2846 212.273 69.5215 212.534C69.7654 212.785 69.9656 213.067 70.1223 213.382C70.2859 213.686 70.3987 214.01 70.4608 214.353C70.5405 214.693 70.5535 215.042 70.5 215.4C70.4336 215.916 70.3128 216.435 70.1376 216.955C69.9694 217.465 69.7644 217.973 69.5225 218.48C69.2875 218.977 69.0279 219.464 68.7437 219.944C68.4665 220.412 68.1856 220.863 67.901 221.297ZM65.6962 219.124L66.3564 218.014C66.3353 218 66.3141 217.986 66.293 217.972C66.2788 217.948 66.2611 217.929 66.24 217.915C66.1025 217.824 65.9037 217.747 65.6436 217.682C65.4011 217.614 65.143 217.581 64.8693 217.583C64.6027 217.574 64.352 217.599 64.1174 217.656C63.8933 217.721 63.7292 217.833 63.6251 217.992C63.528 218.14 63.5149 218.275 63.586 218.397C63.657 218.519 63.7613 218.626 63.8988 218.716C64.1314 218.868 64.4181 218.973 64.7588 219.031C65.1064 219.077 65.4189 219.108 65.6962 219.124Z" fill="#D96073"/>
<path d="M77.4689 216.561C77.1439 217.161 76.788 217.753 76.4013 218.334C76.0318 218.911 75.6815 219.505 75.3504 220.117C74.923 220.907 74.5179 221.709 74.135 222.523C73.7633 223.343 73.3607 224.153 72.9273 224.954C72.819 225.155 72.6845 225.377 72.5238 225.62C72.3691 225.853 72.1901 226.051 71.9867 226.214C71.7945 226.383 71.5758 226.495 71.3307 226.55C71.0856 226.604 70.8239 226.556 70.5458 226.405C70.2788 226.261 70.1174 226.001 70.0617 225.626C70.011 225.267 70.0272 224.852 70.1104 224.379C70.2108 223.901 70.3519 223.388 70.5338 222.839C70.7268 222.297 70.9274 221.78 71.1357 221.288C71.3612 220.792 71.5681 220.343 71.7566 219.942C71.9621 219.535 72.1161 219.237 72.2184 219.048C72.3328 218.837 72.5039 218.534 72.7317 218.139C72.9706 217.751 73.2443 217.338 73.5527 216.901C73.8612 216.464 74.1893 216.03 74.5371 215.6C74.9021 215.165 75.2678 214.794 75.6342 214.489C76.0067 214.173 76.3648 213.95 76.7086 213.82C77.0695 213.684 77.4002 213.698 77.7005 213.86C77.9453 213.992 78.0837 214.175 78.1158 214.408C78.165 214.636 78.1542 214.882 78.0834 215.146C78.0187 215.398 77.9226 215.656 77.7953 215.918C77.674 216.168 77.5652 216.383 77.4689 216.561Z" fill="#D96073"/>
<path d="M90.2925 229.186C90.2194 229.388 90.1038 229.69 89.9457 230.09C89.8038 230.482 89.6355 230.892 89.4407 231.319C89.2622 231.739 89.0782 232.137 88.8887 232.512C88.7035 232.875 88.543 233.133 88.4072 233.286C88.2303 233.478 88.0345 233.629 87.8196 233.739C87.6048 233.85 87.3665 233.858 87.1048 233.764C86.7004 233.617 86.467 233.351 86.4046 232.966C86.3423 232.58 86.3673 232.139 86.4798 231.641C86.5923 231.144 86.7556 230.618 86.9695 230.063C87.1835 229.508 87.3646 228.989 87.5128 228.504C87.661 228.02 87.7396 227.598 87.7486 227.238C87.7576 226.878 87.6194 226.646 87.3339 226.543C86.9413 226.401 86.6143 226.357 86.3529 226.411C86.1077 226.456 85.901 226.563 85.7327 226.731C85.5764 226.903 85.439 227.116 85.3206 227.369C85.2141 227.626 85.0974 227.894 84.9704 228.17C84.8477 228.435 84.6966 228.798 84.517 229.257C84.3375 229.717 84.1184 230.156 83.8599 230.573C83.6013 230.991 83.2989 231.325 82.9525 231.577C82.6223 231.821 82.243 231.865 81.8148 231.71C81.5531 231.616 81.3755 231.437 81.2821 231.175C81.2005 230.917 81.1702 230.61 81.1911 230.254C81.212 229.899 81.2696 229.516 81.3639 229.106C81.4701 228.701 81.5839 228.312 81.7053 227.939C81.8429 227.558 81.9676 227.213 82.0794 226.904C82.203 226.599 82.2928 226.369 82.3487 226.214C82.4347 225.976 82.5825 225.586 82.7922 225.043C83.0138 224.504 83.2747 223.913 83.5749 223.268C83.8795 222.612 84.2083 221.944 84.5614 221.264C84.9146 220.585 85.2738 219.982 85.6391 219.455C86.0087 218.916 86.3672 218.501 86.7146 218.209C87.0739 217.922 87.4001 217.838 87.6932 217.958C87.8792 218.039 88.0097 218.18 88.0847 218.382C88.1715 218.588 88.2115 218.831 88.2044 219.111C88.2136 219.383 88.1964 219.673 88.1526 219.98C88.1089 220.287 88.0474 220.587 87.968 220.882C87.9048 221.168 87.8302 221.43 87.7442 221.668C87.6701 221.91 87.6094 222.097 87.5621 222.228C87.4503 222.537 87.3326 222.844 87.2089 223.149C87.0853 223.454 86.9556 223.757 86.82 224.058C87.2269 223.788 87.6994 223.616 88.2374 223.541C88.7873 223.471 89.2942 223.52 89.7582 223.687C90.3529 223.902 90.7388 224.23 90.9158 224.671C91.109 225.103 91.1829 225.587 91.1375 226.122C91.0964 226.646 90.9829 227.183 90.797 227.734C90.6154 228.274 90.4472 228.758 90.2925 229.186Z" fill="#D96073"/>
<path d="M94.8402 236.151C94.2138 235.996 93.7081 235.696 93.323 235.249C92.938 234.803 92.6494 234.282 92.4571 233.688C92.2648 233.093 92.1659 232.463 92.1605 231.798C92.1582 231.12 92.2326 230.474 92.3838 229.86C92.5442 229.209 92.7888 228.559 93.1179 227.911C93.45 227.25 93.8514 226.678 94.3221 226.194C94.7959 225.699 95.3345 225.337 95.9381 225.107C96.5447 224.866 97.2041 224.833 97.9165 225.008C98.6042 225.178 99.1407 225.512 99.526 226.011C99.9265 226.5 100.205 227.064 100.36 227.701C100.519 228.326 100.578 228.986 100.537 229.679C100.497 230.373 100.386 231.01 100.204 231.59C100.006 232.232 99.7402 232.863 99.4049 233.484C99.0819 234.108 98.6957 234.645 98.2463 235.094C97.7969 235.544 97.2857 235.874 96.7128 236.084C96.1399 236.295 95.5156 236.317 94.8402 236.151ZM97.0752 227.869C96.891 227.824 96.701 227.881 96.5052 228.041C96.3217 228.205 96.146 228.415 95.9782 228.674C95.8227 228.935 95.681 229.219 95.5532 229.526C95.4285 229.821 95.3374 230.085 95.2799 230.319C95.2073 230.614 95.1532 230.939 95.1177 231.295C95.0944 231.654 95.0956 231.993 95.1212 232.312C95.1499 232.619 95.2076 232.887 95.2943 233.117C95.3963 233.337 95.5394 233.47 95.7236 233.515C95.9202 233.564 96.1086 233.513 96.2891 233.362C96.4819 233.214 96.656 233.009 96.8116 232.748C96.9671 232.486 97.1041 232.195 97.2226 231.872C97.3442 231.537 97.4412 231.222 97.5138 230.928C97.5804 230.657 97.6284 230.357 97.6579 230.025C97.6905 229.681 97.6924 229.356 97.6637 229.05C97.6473 228.746 97.5881 228.484 97.4861 228.263C97.3964 228.046 97.2594 227.914 97.0752 227.869Z" fill="#D96073"/>
<path d="M105.856 238.497C104.968 238.364 104.291 238.142 103.827 237.829C103.372 237.531 103.052 237.151 102.865 236.688C102.691 236.228 102.624 235.693 102.663 235.085C102.703 234.477 102.778 233.804 102.888 233.066C102.976 232.478 103.083 231.893 103.208 231.311C103.335 230.716 103.487 230.086 103.663 229.422C103.488 229.396 103.349 229.381 103.247 229.379C103.147 229.364 103.066 229.352 103.003 229.342C102.603 229.283 102.272 229.144 102.01 228.926C101.736 228.706 101.626 228.414 101.68 228.051C101.714 227.826 101.832 227.639 102.033 227.49C102.222 227.339 102.457 227.221 102.738 227.135C103.019 227.049 103.316 226.991 103.627 226.961C103.951 226.933 104.253 226.927 104.532 226.943C104.584 226.592 104.667 226.208 104.781 225.79C104.894 225.373 105.041 224.992 105.22 224.647C105.414 224.293 105.642 224.007 105.904 223.791C106.167 223.574 106.473 223.492 106.823 223.544C107.024 223.574 107.189 223.663 107.321 223.81C107.467 223.947 107.576 224.117 107.648 224.319C107.722 224.51 107.767 224.721 107.783 224.954C107.799 225.186 107.792 225.409 107.76 225.622C107.723 225.872 107.666 226.125 107.589 226.383C107.512 226.64 107.395 226.955 107.237 227.327C107.453 227.334 107.599 227.343 107.674 227.354C107.751 227.353 107.821 227.357 107.883 227.366C108.096 227.398 108.312 227.45 108.531 227.521C108.764 227.594 108.967 227.688 109.141 227.804C109.329 227.921 109.473 228.064 109.576 228.233C109.681 228.389 109.718 228.568 109.688 228.768C109.654 228.993 109.531 229.179 109.317 229.326C109.116 229.475 108.868 229.592 108.574 229.676C108.28 229.76 107.971 229.816 107.647 229.844C107.325 229.86 107.025 229.86 106.746 229.844C106.594 230.346 106.467 230.813 106.364 231.245C106.275 231.666 106.18 232.093 106.077 232.526C106.02 232.735 105.962 232.95 105.903 233.171C105.859 233.382 105.82 233.6 105.787 233.825C105.762 233.988 105.74 234.183 105.719 234.41C105.699 234.624 105.712 234.837 105.757 235.048C105.803 235.26 105.895 235.453 106.035 235.627C106.178 235.789 106.392 235.892 106.68 235.934C106.855 235.961 107.039 235.975 107.23 235.978C107.423 235.969 107.614 235.978 107.801 236.006C108.127 236.055 108.341 236.202 108.445 236.447C108.562 236.695 108.594 236.994 108.541 237.344C108.502 237.607 108.386 237.826 108.194 238.002C108.016 238.167 107.799 238.289 107.545 238.366C107.288 238.455 107.005 238.509 106.696 238.527C106.399 238.546 106.119 238.536 105.856 238.497Z" fill="#D96073"/>
<path d="M118.566 235.549C118.542 235.979 118.38 236.394 118.079 236.796C117.792 237.185 117.431 237.533 116.996 237.838C116.574 238.132 116.124 238.367 115.646 238.543C115.168 238.707 114.734 238.778 114.342 238.756C113.673 238.72 113.082 238.522 112.569 238.165C112.07 237.795 111.658 237.342 111.333 236.805C111.008 236.267 110.768 235.684 110.612 235.055C110.47 234.414 110.415 233.796 110.448 233.203C110.483 232.571 110.608 231.9 110.825 231.19C111.041 230.48 111.343 229.832 111.73 229.245C112.129 228.659 112.612 228.179 113.177 227.804C113.755 227.431 114.423 227.265 115.181 227.306C115.61 227.33 116.016 227.428 116.4 227.601C116.784 227.762 117.113 227.983 117.389 228.264C117.665 228.545 117.881 228.874 118.038 229.25C118.195 229.626 118.261 230.041 118.236 230.496C118.203 231.089 118.046 231.638 117.765 232.142C117.484 232.646 117.125 233.076 116.687 233.432C116.249 233.788 115.752 234.071 115.196 234.281C114.641 234.478 114.078 234.574 113.508 234.568C113.539 234.937 113.669 235.21 113.9 235.388C114.144 235.566 114.436 235.664 114.777 235.683C115.03 235.697 115.279 235.647 115.526 235.534C115.773 235.421 116.015 235.295 116.25 235.156C116.487 235.004 116.716 234.871 116.937 234.757C117.171 234.643 117.402 234.592 117.63 234.605C117.882 234.619 118.105 234.713 118.298 234.889C118.491 235.064 118.58 235.284 118.566 235.549ZM115.752 230.739C115.761 230.575 115.726 230.402 115.648 230.22C115.569 230.039 115.435 229.943 115.245 229.932C114.968 229.917 114.73 229.98 114.532 230.121C114.335 230.25 114.167 230.424 114.028 230.644C113.89 230.852 113.776 231.08 113.686 231.329C113.609 231.578 113.559 231.809 113.534 232.023C113.713 231.995 113.924 231.956 114.168 231.906C114.424 231.857 114.662 231.788 114.882 231.698C115.116 231.597 115.313 231.469 115.473 231.313C115.647 231.158 115.74 230.966 115.752 230.739Z" fill="#D96073"/>
<path d="M124.11 227.349C124.129 228.032 124.117 228.722 124.073 229.419C124.042 230.103 124.036 230.793 124.056 231.489C124.082 232.386 124.132 233.283 124.208 234.18C124.297 235.075 124.354 235.979 124.38 236.889C124.387 237.116 124.381 237.376 124.364 237.668C124.347 237.946 124.291 238.207 124.197 238.451C124.115 238.693 123.982 238.9 123.797 239.069C123.612 239.239 123.361 239.328 123.045 239.337C122.742 239.346 122.472 239.202 122.236 238.905C122.012 238.62 121.818 238.252 121.654 237.801C121.501 237.337 121.367 236.823 121.249 236.256C121.145 235.69 121.06 235.142 120.994 234.612C120.941 234.07 120.895 233.578 120.857 233.136C120.832 232.681 120.816 232.346 120.81 232.131C120.803 231.891 120.799 231.543 120.799 231.087C120.812 230.632 120.842 230.137 120.89 229.604C120.938 229.072 121.005 228.532 121.091 227.985C121.189 227.426 121.32 226.922 121.484 226.475C121.649 226.015 121.847 225.642 122.079 225.357C122.324 225.059 122.617 224.905 122.958 224.895C123.236 224.888 123.448 224.976 123.592 225.162C123.749 225.335 123.863 225.553 123.933 225.817C124.004 226.068 124.049 226.339 124.07 226.629C124.091 226.907 124.104 227.147 124.11 227.349Z" fill="#D96073"/>
</svg>
