<svg width="50" height="50" viewBox="0 0 50 50" fill="none" xmlns="http://www.w3.org/2000/svg">
<path d="M41.6667 8.33333L16.9167 33.0833M30.1458 30.1667L41.6667 41.6667M16.9167 16.9167L25 25M18.75 12.5C18.75 15.9518 15.9518 18.75 12.5 18.75C9.04822 18.75 6.25 15.9518 6.25 12.5C6.25 9.04822 9.04822 6.25 12.5 6.25C15.9518 6.25 18.75 9.04822 18.75 12.5ZM18.75 37.5C18.75 40.9518 15.9518 43.75 12.5 43.75C9.04822 43.75 6.25 40.9518 6.25 37.5C6.25 34.0482 9.04822 31.25 12.5 31.25C15.9518 31.25 18.75 34.0482 18.75 37.5Z" stroke="#2F4157" stroke-width="2" stroke-linecap="round" stroke-linejoin="round"/>
</svg>
