<svg width="486" height="223" viewBox="0 0 486 223" fill="none" xmlns="http://www.w3.org/2000/svg">
<rect width="486" height="223" rx="5" fill="#C7D9E5" fill-opacity="0.3"/>
<circle cx="423.5" cy="157.5" r="33.5" fill="#D96073"/>
<path d="M415.583 141.633V139.5" stroke="#FFF6EF" stroke-width="2" stroke-linecap="round" stroke-linejoin="round"/>
<path d="M425.6 141.633V139.5" stroke="#FFF6EF" stroke-width="2" stroke-linecap="round" stroke-linejoin="round"/>
<path d="M425.667 140.567H430.583V150.333C430.57 151.631 430.301 152.914 429.791 154.107C429.28 155.3 428.539 156.381 427.61 157.287C426.681 158.193 425.582 158.907 424.376 159.386C423.17 159.866 421.881 160.103 420.583 160.083C417.976 160.101 415.469 159.085 413.61 157.257C411.751 155.43 410.693 152.94 410.667 150.333V140.567H415.667" stroke="#FFF6EF" stroke-width="2" stroke-linecap="round" stroke-linejoin="round"/>
<path d="M420.667 160.05V161.417C420.682 162.713 420.953 163.994 421.464 165.185C421.975 166.377 422.717 167.455 423.646 168.36C424.575 169.264 425.673 169.976 426.878 170.455C428.083 170.934 429.37 171.17 430.667 171.15" stroke="#FFF6EF" stroke-width="2" stroke-linecap="round" stroke-linejoin="round"/>
<path d="M433.933 174.5C435.82 174.5 437.35 173 437.35 171.15C437.35 169.3 435.82 167.8 433.933 167.8C432.046 167.8 430.517 169.3 430.517 171.15C430.517 173 432.046 174.5 433.933 174.5Z" stroke="#FFF6EF" stroke-width="2" stroke-linecap="round" stroke-linejoin="round"/>
<g filter="url(#filter0_d_204_894)">
<rect x="46" y="141" width="131" height="33" rx="16.5" fill="#D96073"/>
</g>
<path d="M91.3712 162.098C90.7272 162.098 90.1486 161.986 89.6352 161.762C89.1312 161.529 88.7346 161.211 88.4452 160.81C88.1559 160.399 88.0066 159.928 87.9972 159.396H89.3552C89.4019 159.853 89.5886 160.241 89.9152 160.558C90.2512 160.866 90.7366 161.02 91.3712 161.02C91.9779 161.02 92.4539 160.871 92.7992 160.572C93.1539 160.264 93.3312 159.872 93.3312 159.396C93.3312 159.023 93.2286 158.719 93.0232 158.486C92.8179 158.253 92.5612 158.075 92.2532 157.954C91.9452 157.833 91.5299 157.702 91.0072 157.562C90.3632 157.394 89.8452 157.226 89.4532 157.058C89.0706 156.89 88.7392 156.629 88.4592 156.274C88.1886 155.91 88.0532 155.425 88.0532 154.818C88.0532 154.286 88.1886 153.815 88.4592 153.404C88.7299 152.993 89.1079 152.676 89.5932 152.452C90.0879 152.228 90.6526 152.116 91.2872 152.116C92.2019 152.116 92.9486 152.345 93.5272 152.802C94.1152 153.259 94.4466 153.866 94.5212 154.622H93.1212C93.0746 154.249 92.8786 153.922 92.5332 153.642C92.1879 153.353 91.7306 153.208 91.1612 153.208C90.6292 153.208 90.1952 153.348 89.8592 153.628C89.5232 153.899 89.3552 154.281 89.3552 154.776C89.3552 155.131 89.4532 155.42 89.6492 155.644C89.8546 155.868 90.1019 156.041 90.3912 156.162C90.6899 156.274 91.1052 156.405 91.6372 156.554C92.2812 156.731 92.7992 156.909 93.1912 157.086C93.5832 157.254 93.9192 157.52 94.1992 157.884C94.4792 158.239 94.6192 158.724 94.6192 159.34C94.6192 159.816 94.4932 160.264 94.2412 160.684C93.9892 161.104 93.6159 161.445 93.1212 161.706C92.6266 161.967 92.0432 162.098 91.3712 162.098ZM103.298 154.328V162H102.024V160.866C101.781 161.258 101.441 161.566 101.002 161.79C100.573 162.005 100.097 162.112 99.574 162.112C98.9767 162.112 98.44 161.991 97.964 161.748C97.488 161.496 97.11 161.123 96.83 160.628C96.5593 160.133 96.424 159.531 96.424 158.822V154.328H97.684V158.654C97.684 159.41 97.8753 159.993 98.258 160.404C98.6407 160.805 99.1633 161.006 99.826 161.006C100.507 161.006 101.044 160.796 101.436 160.376C101.828 159.956 102.024 159.345 102.024 158.542V154.328H103.298ZM106.723 155.756C106.984 155.299 107.367 154.925 107.871 154.636C108.375 154.347 108.949 154.202 109.593 154.202C110.284 154.202 110.904 154.365 111.455 154.692C112.006 155.019 112.44 155.481 112.757 156.078C113.074 156.666 113.233 157.352 113.233 158.136C113.233 158.911 113.074 159.601 112.757 160.208C112.44 160.815 112.001 161.286 111.441 161.622C110.89 161.958 110.274 162.126 109.593 162.126C108.93 162.126 108.347 161.981 107.843 161.692C107.348 161.403 106.975 161.034 106.723 160.586V162H105.449V151.64H106.723V155.756ZM111.931 158.136C111.931 157.557 111.814 157.053 111.581 156.624C111.348 156.195 111.03 155.868 110.629 155.644C110.237 155.42 109.803 155.308 109.327 155.308C108.86 155.308 108.426 155.425 108.025 155.658C107.633 155.882 107.316 156.213 107.073 156.652C106.84 157.081 106.723 157.581 106.723 158.15C106.723 158.729 106.84 159.237 107.073 159.676C107.316 160.105 107.633 160.437 108.025 160.67C108.426 160.894 108.86 161.006 109.327 161.006C109.803 161.006 110.237 160.894 110.629 160.67C111.03 160.437 111.348 160.105 111.581 159.676C111.814 159.237 111.931 158.724 111.931 158.136ZM124.136 154.188C124.733 154.188 125.265 154.314 125.732 154.566C126.199 154.809 126.567 155.177 126.838 155.672C127.109 156.167 127.244 156.769 127.244 157.478V162H125.984V157.66C125.984 156.895 125.793 156.311 125.41 155.91C125.037 155.499 124.528 155.294 123.884 155.294C123.221 155.294 122.694 155.509 122.302 155.938C121.91 156.358 121.714 156.969 121.714 157.772V162H120.454V157.66C120.454 156.895 120.263 156.311 119.88 155.91C119.507 155.499 118.998 155.294 118.354 155.294C117.691 155.294 117.164 155.509 116.772 155.938C116.38 156.358 116.184 156.969 116.184 157.772V162H114.91V154.328H116.184V155.434C116.436 155.033 116.772 154.725 117.192 154.51C117.621 154.295 118.093 154.188 118.606 154.188C119.25 154.188 119.819 154.333 120.314 154.622C120.809 154.911 121.177 155.336 121.42 155.896C121.635 155.355 121.989 154.935 122.484 154.636C122.979 154.337 123.529 154.188 124.136 154.188ZM129.992 153.082C129.749 153.082 129.544 152.998 129.376 152.83C129.208 152.662 129.124 152.457 129.124 152.214C129.124 151.971 129.208 151.766 129.376 151.598C129.544 151.43 129.749 151.346 129.992 151.346C130.225 151.346 130.421 151.43 130.58 151.598C130.748 151.766 130.832 151.971 130.832 152.214C130.832 152.457 130.748 152.662 130.58 152.83C130.421 152.998 130.225 153.082 129.992 153.082ZM130.608 154.328V162H129.334V154.328H130.608ZM134.333 155.378V159.9C134.333 160.273 134.413 160.539 134.571 160.698C134.73 160.847 135.005 160.922 135.397 160.922H136.335V162H135.187C134.478 162 133.946 161.837 133.591 161.51C133.237 161.183 133.059 160.647 133.059 159.9V155.378H132.065V154.328H133.059V152.396H134.333V154.328H136.335V155.378H134.333Z" fill="white"/>
<g filter="url(#filter1_d_204_894)">
<rect x="30" y="45" width="164" height="40" rx="5" fill="#D96073"/>
</g>
<path d="M63.0279 64.718C63.0279 63.494 63.3039 62.396 63.8559 61.424C64.4079 60.44 65.1579 59.672 66.1059 59.12C67.0659 58.568 68.1279 58.292 69.2919 58.292C70.6599 58.292 71.8539 58.622 72.8739 59.282C73.8939 59.942 74.6379 60.878 75.1059 62.09H73.1439C72.7959 61.334 72.2919 60.752 71.6319 60.344C70.9839 59.936 70.2039 59.732 69.2919 59.732C68.4159 59.732 67.6299 59.936 66.9339 60.344C66.2379 60.752 65.6919 61.334 65.2959 62.09C64.8999 62.834 64.7019 63.71 64.7019 64.718C64.7019 65.714 64.8999 66.59 65.2959 67.346C65.6919 68.09 66.2379 68.666 66.9339 69.074C67.6299 69.482 68.4159 69.686 69.2919 69.686C70.2039 69.686 70.9839 69.488 71.6319 69.092C72.2919 68.684 72.7959 68.102 73.1439 67.346H75.1059C74.6379 68.546 73.8939 69.476 72.8739 70.136C71.8539 70.784 70.6599 71.108 69.2919 71.108C68.1279 71.108 67.0659 70.838 66.1059 70.298C65.1579 69.746 64.4079 68.984 63.8559 68.012C63.3039 67.04 63.0279 65.942 63.0279 64.718ZM81.8462 71.162C80.9222 71.162 80.0822 70.952 79.3262 70.532C78.5822 70.112 77.9942 69.518 77.5622 68.75C77.1422 67.97 76.9322 67.07 76.9322 66.05C76.9322 65.042 77.1482 64.154 77.5802 63.386C78.0242 62.606 78.6242 62.012 79.3802 61.604C80.1362 61.184 80.9822 60.974 81.9182 60.974C82.8542 60.974 83.7002 61.184 84.4562 61.604C85.2122 62.012 85.8062 62.6 86.2382 63.368C86.6822 64.136 86.9042 65.03 86.9042 66.05C86.9042 67.07 86.6762 67.97 86.2202 68.75C85.7762 69.518 85.1702 70.112 84.4022 70.532C83.6342 70.952 82.7822 71.162 81.8462 71.162ZM81.8462 69.722C82.4342 69.722 82.9862 69.584 83.5022 69.308C84.0182 69.032 84.4322 68.618 84.7442 68.066C85.0682 67.514 85.2302 66.842 85.2302 66.05C85.2302 65.258 85.0742 64.586 84.7622 64.034C84.4502 63.482 84.0422 63.074 83.5382 62.81C83.0342 62.534 82.4882 62.396 81.9002 62.396C81.3002 62.396 80.7482 62.534 80.2442 62.81C79.7522 63.074 79.3562 63.482 79.0562 64.034C78.7562 64.586 78.6062 65.258 78.6062 66.05C78.6062 66.854 78.7502 67.532 79.0382 68.084C79.3382 68.636 79.7342 69.05 80.2262 69.326C80.7182 69.59 81.2582 69.722 81.8462 69.722ZM93.8639 60.956C95.0639 60.956 96.0359 61.322 96.7799 62.054C97.5239 62.774 97.8959 63.818 97.8959 65.186V71H96.2759V65.42C96.2759 64.436 96.0299 63.686 95.5379 63.17C95.0459 62.642 94.3739 62.378 93.5219 62.378C92.6579 62.378 91.9679 62.648 91.4519 63.188C90.9479 63.728 90.6959 64.514 90.6959 65.546V71H89.0579V61.136H90.6959V62.54C91.0199 62.036 91.4579 61.646 92.0099 61.37C92.5739 61.094 93.1919 60.956 93.8639 60.956ZM102.57 62.486V68.3C102.57 68.78 102.672 69.122 102.876 69.326C103.08 69.518 103.434 69.614 103.938 69.614H105.144V71H103.668C102.756 71 102.072 70.79 101.616 70.37C101.16 69.95 100.932 69.26 100.932 68.3V62.486H99.6535V61.136H100.932V58.652H102.57V61.136H105.144V62.486H102.57ZM106.516 66.032C106.516 65.024 106.72 64.142 107.128 63.386C107.536 62.618 108.094 62.024 108.802 61.604C109.522 61.184 110.32 60.974 111.196 60.974C112.06 60.974 112.81 61.16 113.446 61.532C114.082 61.904 114.556 62.372 114.868 62.936V61.136H116.524V71H114.868V69.164C114.544 69.74 114.058 70.22 113.41 70.604C112.774 70.976 112.03 71.162 111.178 71.162C110.302 71.162 109.51 70.946 108.802 70.514C108.094 70.082 107.536 69.476 107.128 68.696C106.72 67.916 106.516 67.028 106.516 66.032ZM114.868 66.05C114.868 65.306 114.718 64.658 114.418 64.106C114.118 63.554 113.71 63.134 113.194 62.846C112.69 62.546 112.132 62.396 111.52 62.396C110.908 62.396 110.35 62.54 109.846 62.828C109.342 63.116 108.94 63.536 108.64 64.088C108.34 64.64 108.19 65.288 108.19 66.032C108.19 66.788 108.34 67.448 108.64 68.012C108.94 68.564 109.342 68.99 109.846 69.29C110.35 69.578 110.908 69.722 111.52 69.722C112.132 69.722 112.69 69.578 113.194 69.29C113.71 68.99 114.118 68.564 114.418 68.012C114.718 67.448 114.868 66.794 114.868 66.05ZM118.68 66.05C118.68 65.03 118.884 64.142 119.292 63.386C119.7 62.618 120.264 62.024 120.984 61.604C121.716 61.184 122.55 60.974 123.486 60.974C124.698 60.974 125.694 61.268 126.474 61.856C127.266 62.444 127.788 63.26 128.04 64.304H126.276C126.108 63.704 125.778 63.23 125.286 62.882C124.806 62.534 124.206 62.36 123.486 62.36C122.55 62.36 121.794 62.684 121.218 63.332C120.642 63.968 120.354 64.874 120.354 66.05C120.354 67.238 120.642 68.156 121.218 68.804C121.794 69.452 122.55 69.776 123.486 69.776C124.206 69.776 124.806 69.608 125.286 69.272C125.766 68.936 126.096 68.456 126.276 67.832H128.04C127.776 68.84 127.248 69.65 126.456 70.262C125.664 70.862 124.674 71.162 123.486 71.162C122.55 71.162 121.716 70.952 120.984 70.532C120.264 70.112 119.7 69.518 119.292 68.75C118.884 67.982 118.68 67.082 118.68 66.05ZM132.224 62.486V68.3C132.224 68.78 132.326 69.122 132.53 69.326C132.734 69.518 133.088 69.614 133.592 69.614H134.798V71H133.322C132.41 71 131.726 70.79 131.27 70.37C130.814 69.95 130.586 69.26 130.586 68.3V62.486H129.308V61.136H130.586V58.652H132.224V61.136H134.798V62.486H132.224ZM143.183 58.454V66.392C143.183 67.508 143.453 68.336 143.993 68.876C144.545 69.416 145.307 69.686 146.279 69.686C147.239 69.686 147.989 69.416 148.529 68.876C149.081 68.336 149.357 67.508 149.357 66.392V58.454H150.995V66.374C150.995 67.418 150.785 68.3 150.365 69.02C149.945 69.728 149.375 70.256 148.655 70.604C147.947 70.952 147.149 71.126 146.261 71.126C145.373 71.126 144.569 70.952 143.849 70.604C143.141 70.256 142.577 69.728 142.157 69.02C141.749 68.3 141.545 67.418 141.545 66.374V58.454H143.183ZM157.22 71.162C156.464 71.162 155.786 71.036 155.186 70.784C154.586 70.52 154.112 70.16 153.764 69.704C153.416 69.236 153.224 68.702 153.188 68.102H154.88C154.928 68.594 155.156 68.996 155.564 69.308C155.984 69.62 156.53 69.776 157.202 69.776C157.826 69.776 158.318 69.638 158.678 69.362C159.038 69.086 159.218 68.738 159.218 68.318C159.218 67.886 159.026 67.568 158.642 67.364C158.258 67.148 157.664 66.938 156.86 66.734C156.128 66.542 155.528 66.35 155.06 66.158C154.604 65.954 154.208 65.66 153.872 65.276C153.548 64.88 153.386 64.364 153.386 63.728C153.386 63.224 153.536 62.762 153.836 62.342C154.136 61.922 154.562 61.592 155.114 61.352C155.666 61.1 156.296 60.974 157.004 60.974C158.096 60.974 158.978 61.25 159.65 61.802C160.322 62.354 160.682 63.11 160.73 64.07H159.092C159.056 63.554 158.846 63.14 158.462 62.828C158.09 62.516 157.586 62.36 156.95 62.36C156.362 62.36 155.894 62.486 155.546 62.738C155.198 62.99 155.024 63.32 155.024 63.728C155.024 64.052 155.126 64.322 155.33 64.538C155.546 64.742 155.81 64.91 156.122 65.042C156.446 65.162 156.89 65.3 157.454 65.456C158.162 65.648 158.738 65.84 159.182 66.032C159.626 66.212 160.004 66.488 160.316 66.86C160.64 67.232 160.808 67.718 160.82 68.318C160.82 68.858 160.67 69.344 160.37 69.776C160.07 70.208 159.644 70.55 159.092 70.802C158.552 71.042 157.928 71.162 157.22 71.162Z" fill="#FFF6EF"/>
<circle cx="423.5" cy="64.5" r="33.5" fill="#D96073"/>
<path d="M441.267 64.6333H406.733" stroke="white" stroke-width="2" stroke-linecap="round" stroke-linejoin="round"/>
<path d="M431.067 77.2333H416.933C415.448 77.2433 414.001 76.7568 412.824 75.8509C411.646 74.9451 410.805 73.6718 410.433 72.2333L408.383 64.6333H439.617L437.567 72.3333C437.176 73.7533 436.327 75.0041 435.151 75.8905C433.975 76.7769 432.539 77.2491 431.067 77.2333Z" stroke="white" stroke-width="2" stroke-linecap="round" stroke-linejoin="round"/>
<path d="M432.517 64.1665C432.517 62.1665 429.483 60.0499 427.517 60.0499C426.816 60.0532 426.13 60.2492 425.533 60.6165C425.31 59.6781 424.784 58.8391 424.037 58.2286C423.291 57.6181 422.364 57.27 421.4 57.2378C420.436 57.2056 419.488 57.4911 418.702 58.0504C417.916 58.6097 417.335 59.4118 417.05 60.3332C416.611 60.15 416.142 60.0538 415.667 60.0499C413.65 60.0499 410.667 62.1665 410.667 64.1665C410.667 64.3165 410.667 64.4665 410.667 64.6332H432.467C432.483 64.4665 432.517 64.3165 432.517 64.1665Z" stroke="white" stroke-width="2" stroke-linecap="round" stroke-linejoin="round"/>
<path d="M433.267 56.6333C434.923 56.6333 436.267 55.32 436.267 53.6999C436.267 52.0799 434.923 50.7666 433.267 50.7666C431.61 50.7666 430.267 52.0799 430.267 53.6999C430.267 55.32 431.61 56.6333 433.267 56.6333Z" stroke="white" stroke-width="2" stroke-linecap="round" stroke-linejoin="round"/>
<circle cx="258.5" cy="64.5" r="33.5" fill="#D96073"/>
<path d="M276.433 73.6166L274.316 62.4666C274.022 60.9077 273.249 59.4793 272.105 58.3801C270.961 57.2809 269.503 56.5654 267.933 56.3333C269.12 57.9241 269.852 59.8081 270.05 61.7833L270.816 69.3666C270.928 70.414 270.824 71.4732 270.512 72.4791C270.2 73.4851 269.685 74.4166 269 75.2166C269.221 76.2089 269.827 77.0728 270.685 77.6183C271.543 78.1637 272.582 78.3459 273.575 78.1249C274.567 77.9039 275.431 77.2977 275.976 76.4398C276.522 75.5818 276.704 74.5423 276.483 73.5499L276.433 73.6166Z" stroke="white" stroke-width="2" stroke-linecap="round" stroke-linejoin="round"/>
<path d="M247.183 69.3666L247.95 61.7833C248.148 59.8081 248.88 57.9241 250.067 56.3333C248.497 56.5654 247.039 57.2809 245.895 58.3801C244.751 59.4793 243.978 60.9077 243.683 62.4666L241.567 73.6166C241.346 74.6089 241.528 75.6484 242.073 76.5064C242.619 77.3644 243.483 77.9706 244.475 78.1916C245.467 78.4126 246.507 78.2303 247.365 77.6849C248.223 77.1395 248.829 76.2756 249.05 75.2833C248.347 74.4793 247.819 73.5386 247.497 72.5203C247.176 71.502 247.069 70.4282 247.183 69.3666Z" stroke="white" stroke-width="2" stroke-linecap="round" stroke-linejoin="round"/>
<path d="M263.033 77.8999H254.967C253.878 77.905 252.801 77.6817 251.804 77.2445C250.807 76.8074 249.913 76.166 249.18 75.3618C248.446 74.5577 247.89 73.6086 247.546 72.5759C247.202 71.5433 247.078 70.4499 247.183 69.3666L247.95 61.7833C248.216 59.0397 249.496 56.494 251.539 54.6444C253.583 52.7949 256.243 51.7746 259 51.7833C261.756 51.7746 264.417 52.7949 266.46 54.6444C268.504 56.494 269.784 59.0397 270.05 61.7833L270.817 69.3666C270.921 70.4499 270.798 71.5433 270.454 72.5759C270.11 73.6086 269.553 74.5577 268.82 75.3618C268.087 76.166 267.193 76.8074 266.196 77.2445C265.199 77.6817 264.122 77.905 263.033 77.8999Z" stroke="white" stroke-width="2" stroke-linecap="round" stroke-linejoin="round"/>
<path d="M259 71.9L256.617 69.2166C256.617 68.6641 256.836 68.1342 257.227 67.7435C257.618 67.3528 258.147 67.1333 258.7 67.1333H259.3C259.853 67.1333 260.382 67.3528 260.773 67.7435C261.164 68.1342 261.383 68.6641 261.383 69.2166L259 71.9Z" stroke="white" stroke-width="2" stroke-linecap="round" stroke-linejoin="round"/>
<path d="M259 71.8999V77.8999" stroke="white" stroke-width="2" stroke-linecap="round" stroke-linejoin="round"/>
<path d="M253.75 61.8999V63.2999" stroke="white" stroke-width="2" stroke-linecap="round" stroke-linejoin="round"/>
<path d="M264.25 61.8999V63.2999" stroke="white" stroke-width="2" stroke-linecap="round" stroke-linejoin="round"/>
<circle cx="340.5" cy="64.5" r="33.5" fill="#D96073"/>
<path d="M355.083 51.3974L335.283 71.1974M345.867 68.864L355.083 78.064M335.283 58.264L341.75 64.7307M336.75 54.7307C336.75 57.4921 334.511 59.7307 331.75 59.7307C328.989 59.7307 326.75 57.4921 326.75 54.7307C326.75 51.9693 328.989 49.7307 331.75 49.7307C334.511 49.7307 336.75 51.9693 336.75 54.7307ZM336.75 74.7307C336.75 77.4921 334.511 79.7307 331.75 79.7307C328.989 79.7307 326.75 77.4921 326.75 74.7307C326.75 71.9693 328.989 69.7307 331.75 69.7307C334.511 69.7307 336.75 71.9693 336.75 74.7307Z" stroke="#FFF6EF" stroke-width="2" stroke-linecap="round" stroke-linejoin="round"/>
<circle cx="257.5" cy="158.5" r="33.5" fill="#D96073"/>
<path d="M256.633 159.2H257.366C259.135 159.2 260.83 159.902 262.081 161.153C263.331 162.403 264.033 164.099 264.033 165.867V175.5H249.933V165.883C249.931 165.004 250.103 164.132 250.439 163.319C250.775 162.506 251.269 161.768 251.892 161.147C252.514 160.525 253.254 160.034 254.068 159.699C254.882 159.365 255.753 159.196 256.633 159.2Z" stroke="#FFF6EF" stroke-width="2" stroke-linecap="round" stroke-linejoin="round"/>
<path d="M244.25 170.8H249.933" stroke="#FFF6EF" stroke-width="2" stroke-linecap="round" stroke-linejoin="round"/>
<path d="M264.067 170.8H269.75" stroke="#FFF6EF" stroke-width="2" stroke-linecap="round" stroke-linejoin="round"/>
<path d="M257 146.017L269.75 155.583L274.434 153.583L257 140.5L239.567 153.583L244.25 155.583L257 146.017Z" stroke="#FFF6EF" stroke-width="2" stroke-linecap="round" stroke-linejoin="round"/>
<path d="M267.15 175.5H246.85C246.197 175.532 245.557 175.305 245.07 174.868C244.584 174.431 244.289 173.82 244.25 173.167V155.583L257 146.017L269.75 155.583V173.167C269.711 173.82 269.416 174.431 268.93 174.868C268.443 175.305 267.803 175.532 267.15 175.5Z" stroke="#FFF6EF" stroke-width="2" stroke-linecap="round" stroke-linejoin="round"/>
<circle cx="340.5" cy="157.5" r="33.5" fill="#D96073"/>
<path d="M356.65 154.2C353.783 156.533 347.867 158.133 341 158.133C334.133 158.133 328.217 156.467 325.35 154.2C324.824 153.84 324.386 153.368 324.066 152.817C323.745 152.267 323.552 151.651 323.5 151.017V157.333C323.5 161.267 331.333 164.45 341 164.45C350.667 164.45 358.5 161.3 358.5 157.333V151.017C358.448 151.651 358.255 152.267 357.934 152.817C357.614 153.368 357.176 153.84 356.65 154.2Z" stroke="white" stroke-width="2" stroke-linecap="round" stroke-linejoin="round"/>
<path d="M341 143.9C331.333 143.9 323.5 147.083 323.5 151.017C323.552 151.651 323.745 152.266 324.066 152.817C324.386 153.368 324.824 153.84 325.35 154.2C328.217 151.85 334.133 150.25 341 150.25C347.867 150.25 353.783 151.917 356.65 154.2C357.176 153.84 357.614 153.368 357.934 152.817C358.255 152.266 358.448 151.651 358.5 151.017C358.5 147.083 350.667 143.9 341 143.9Z" stroke="white" stroke-width="2" stroke-linecap="round" stroke-linejoin="round"/>
<path d="M341 161.95V168.65" stroke="white" stroke-width="2" stroke-linecap="round" stroke-linejoin="round"/>
<path d="M341 174.1C342.482 174.1 343.684 172.876 343.684 171.367C343.684 169.857 342.482 168.633 341 168.633C339.518 168.633 338.317 169.857 338.317 171.367C338.317 172.876 339.518 174.1 341 174.1Z" stroke="white" stroke-width="2" stroke-linecap="round" stroke-linejoin="round"/>
<defs>
<filter id="filter0_d_204_894" x="44" y="139" width="139" height="41" filterUnits="userSpaceOnUse" color-interpolation-filters="sRGB">
<feFlood flood-opacity="0" result="BackgroundImageFix"/>
<feColorMatrix in="SourceAlpha" type="matrix" values="0 0 0 0 0 0 0 0 0 0 0 0 0 0 0 0 0 0 127 0" result="hardAlpha"/>
<feOffset dx="2" dy="2"/>
<feGaussianBlur stdDeviation="2"/>
<feComposite in2="hardAlpha" operator="out"/>
<feColorMatrix type="matrix" values="0 0 0 0 0.85098 0 0 0 0 0.376471 0 0 0 0 0.45098 0 0 0 0.2 0"/>
<feBlend mode="normal" in2="BackgroundImageFix" result="effect1_dropShadow_204_894"/>
<feBlend mode="normal" in="SourceGraphic" in2="effect1_dropShadow_204_894" result="shape"/>
</filter>
<filter id="filter1_d_204_894" x="28" y="43" width="172" height="48" filterUnits="userSpaceOnUse" color-interpolation-filters="sRGB">
<feFlood flood-opacity="0" result="BackgroundImageFix"/>
<feColorMatrix in="SourceAlpha" type="matrix" values="0 0 0 0 0 0 0 0 0 0 0 0 0 0 0 0 0 0 127 0" result="hardAlpha"/>
<feOffset dx="2" dy="2"/>
<feGaussianBlur stdDeviation="2"/>
<feComposite in2="hardAlpha" operator="out"/>
<feColorMatrix type="matrix" values="0 0 0 0 0 0 0 0 0 0 0 0 0 0 0 0 0 0 0.25 0"/>
<feBlend mode="normal" in2="BackgroundImageFix" result="effect1_dropShadow_204_894"/>
<feBlend mode="normal" in="SourceGraphic" in2="effect1_dropShadow_204_894" result="shape"/>
</filter>
</defs>
</svg>
