<svg width="50" height="50" viewBox="0 0 50 50" fill="none" xmlns="http://www.w3.org/2000/svg">
<path d="M46.7915 35.7709L44.1457 21.8334C43.7773 19.8848 42.811 18.0993 41.3809 16.7253C39.9509 15.3513 38.1283 14.457 36.1665 14.1667C37.6505 16.1553 38.5652 18.5103 38.8123 20.9792L39.7707 30.4584C39.9101 31.7677 39.7806 33.0916 39.3901 34.3491C38.9997 35.6065 38.3564 36.7709 37.4998 37.7709C37.7761 39.0114 38.5338 40.0912 39.6063 40.773C40.6788 41.4548 41.9781 41.6826 43.2186 41.4063C44.459 41.1301 45.5389 40.3723 46.2207 39.2999C46.9025 38.2274 47.1303 36.928 46.854 35.6876L46.7915 35.7709Z" stroke="#2F4157" stroke-width="2" stroke-linecap="round" stroke-linejoin="round"/>
<path d="M10.2292 30.4584L11.1875 20.9792C11.4347 18.5103 12.3493 16.1553 13.8334 14.1667C11.8716 14.457 10.049 15.3513 8.61893 16.7253C7.18891 18.0993 6.22254 19.8848 5.8542 21.8334L3.20836 35.7709C2.93209 37.0114 3.15991 38.3107 3.84168 39.3832C4.52345 40.4557 5.60334 41.2134 6.84378 41.4897C8.08422 41.7659 9.3836 41.5381 10.4561 40.8563C11.5285 40.1746 12.2863 39.0947 12.5625 37.8542C11.6841 36.8494 11.0233 35.6734 10.6217 34.4006C10.2201 33.1277 10.0865 31.7855 10.2292 30.4584Z" stroke="#2F4157" stroke-width="2" stroke-linecap="round" stroke-linejoin="round"/>
<path d="M30.0419 41.1249H19.9585C18.598 41.1312 17.2513 40.8522 16.0053 40.3057C14.7594 39.7592 13.6419 38.9575 12.7251 37.9523C11.8082 36.9471 11.1124 35.7607 10.6825 34.4699C10.2526 33.1791 10.0983 31.8124 10.2294 30.4582L11.1877 20.9791C11.5198 17.5496 13.1197 14.3675 15.6745 12.0555C18.2292 9.74358 21.5547 8.46822 25.0002 8.47907C28.4457 8.46822 31.7712 9.74358 34.326 12.0555C36.8807 14.3675 38.4806 17.5496 38.8127 20.9791L39.771 30.4582C39.9021 31.8124 39.7478 33.1791 39.3179 34.4699C38.888 35.7607 38.1922 36.9471 37.2753 37.9523C36.3585 38.9575 35.241 39.7592 33.9951 40.3057C32.7491 40.8522 31.4024 41.1312 30.0419 41.1249Z" stroke="#2F4157" stroke-width="2" stroke-linecap="round" stroke-linejoin="round"/>
<path d="M25.0002 33.6251L22.021 30.2709C22.021 29.5802 22.2954 28.9179 22.7837 28.4295C23.2721 27.9411 23.9345 27.6667 24.6252 27.6667H25.3752C26.0658 27.6667 26.7282 27.9411 27.2166 28.4295C27.705 28.9179 27.9793 29.5802 27.9793 30.2709L25.0002 33.6251Z" stroke="#2F4157" stroke-width="2" stroke-linecap="round" stroke-linejoin="round"/>
<path d="M25 33.625V41.125" stroke="#2F4157" stroke-width="2" stroke-linecap="round" stroke-linejoin="round"/>
<path d="M18.4375 21.125V22.875" stroke="#2F4157" stroke-width="2" stroke-linecap="round" stroke-linejoin="round"/>
<path d="M31.5625 21.125V22.875" stroke="#2F4157" stroke-width="2" stroke-linecap="round" stroke-linejoin="round"/>
</svg>
