<svg width="253" height="121" viewBox="0 0 253 121" fill="none" xmlns="http://www.w3.org/2000/svg">
<path d="M90.3812 55.1225C87.0952 55.1225 84.5265 54.6828 82.6752 53.8035C80.8702 52.9704 79.5048 51.767 78.5792 50.1934C77.6998 48.6198 77.1676 46.7222 76.9824 44.5007C76.7973 42.2791 76.7047 39.803 76.7047 37.0723C76.7047 34.8971 76.7742 32.7218 76.913 30.5465C77.0519 28.325 77.2601 25.9646 77.5378 23.4653C76.8899 23.4653 76.3808 23.4885 76.0105 23.5347C75.6403 23.5347 75.3394 23.5347 75.108 23.5347C73.627 23.5347 72.3542 23.2108 71.2897 22.5628C70.1789 21.9149 69.6235 20.9198 69.6235 19.5776C69.6235 18.7445 69.9475 18.004 70.5955 17.356C71.1971 16.7081 71.9839 16.1527 72.9559 15.6899C73.9278 15.227 74.9692 14.8568 76.0799 14.5791C77.237 14.3014 78.3246 14.1163 79.3428 14.0237C79.3428 12.7278 79.4354 11.293 79.6205 9.71943C79.8057 8.14583 80.1296 6.68793 80.5925 5.34574C81.1016 3.95727 81.7727 2.80021 82.6058 1.87456C83.4388 0.948908 84.5033 0.486084 85.7992 0.486084C86.5398 0.486084 87.1877 0.717496 87.7431 1.18032C88.3448 1.59686 88.8307 2.15225 89.201 2.84649C89.5713 3.49444 89.849 4.23496 90.0341 5.06805C90.2192 5.90113 90.3118 6.71107 90.3118 7.49787C90.3118 8.42352 90.2424 9.37231 90.1035 10.3442C89.9647 11.3162 89.7101 12.5195 89.3399 13.9543C90.1267 13.8617 90.6589 13.8154 90.9366 13.8154C91.2143 13.7691 91.4688 13.746 91.7003 13.746C92.4871 13.746 93.297 13.8154 94.1301 13.9543C95.0094 14.0931 95.7962 14.3245 96.4905 14.6485C97.231 14.9725 97.8327 15.4122 98.2955 15.9676C98.7583 16.4767 98.9897 17.1015 98.9897 17.842C98.9897 18.6751 98.6426 19.4156 97.9484 20.0636C97.3004 20.7115 96.4673 21.2669 95.4491 21.7297C94.4309 22.1925 93.3433 22.5628 92.1862 22.8405C91.0292 23.0719 89.9415 23.2339 88.9233 23.3265C88.6456 25.224 88.4373 26.9828 88.2985 28.6027C88.2059 30.1763 88.0902 31.773 87.9514 33.3929C87.8588 34.1797 87.7662 34.9896 87.6737 35.8227C87.6274 36.6095 87.6043 37.4195 87.6043 38.2526C87.6043 38.8542 87.6274 39.5716 87.6737 40.4047C87.72 41.1915 87.882 41.9551 88.1596 42.6957C88.4373 43.4362 88.877 44.0841 89.4787 44.6395C90.0804 45.1486 90.9135 45.4032 91.9779 45.4032C92.6259 45.4032 93.297 45.3569 93.9912 45.2643C94.6855 45.1255 95.3797 45.0561 96.0739 45.0561C97.2773 45.0561 98.1335 45.4726 98.6426 46.3057C99.198 47.1388 99.4757 48.2033 99.4757 49.4992C99.4757 50.4711 99.1749 51.3273 98.5732 52.0679C98.0178 52.7621 97.3004 53.3175 96.4211 53.734C95.5417 54.1968 94.5466 54.544 93.4358 54.7754C92.3713 55.0068 91.3531 55.1225 90.3812 55.1225Z" fill="#262628"/>
<path d="M67.1631 40.2657C67.1631 41.8393 66.654 43.3898 65.6357 44.9171C64.6638 46.3981 63.4142 47.7403 61.8869 48.9437C60.4058 50.1007 58.8091 51.0495 57.0966 51.79C55.3842 52.4843 53.8106 52.8314 52.3758 52.8314C49.9229 52.8314 47.7244 52.2297 45.7806 51.0264C43.883 49.7767 42.2863 48.2031 40.9904 46.3056C39.6944 44.408 38.6994 42.3253 38.0051 40.0574C37.3572 37.7433 37.0332 35.4986 37.0332 33.3233C37.0332 31.0092 37.3572 28.5331 38.0051 25.895C38.6531 23.2569 39.625 20.8271 40.9209 18.6055C42.2631 16.384 43.9293 14.5327 45.9194 13.0516C47.9559 11.5706 50.3625 10.8301 53.1395 10.8301C54.7131 10.8301 56.2173 11.1078 57.652 11.6632C59.0868 12.1723 60.3364 12.9128 61.4009 13.8847C62.4654 14.8566 63.3216 16.0137 63.9696 17.3559C64.6175 18.6981 64.9415 20.2023 64.9415 21.8684C64.9415 24.0437 64.4787 26.0801 63.553 27.9777C62.6274 29.8753 61.4009 31.5183 59.8736 32.9068C58.3463 34.2953 56.5875 35.4292 54.5974 36.3086C52.6072 37.1416 50.5708 37.6045 48.4881 37.697C48.6732 39.0392 49.2055 40.0112 50.0848 40.6128C51.0105 41.2145 52.0981 41.5153 53.3478 41.5153C54.2734 41.5153 55.1759 41.2839 56.0553 40.8211C56.9346 40.3583 57.7909 39.8492 58.624 39.2938C59.457 38.6921 60.267 38.1599 61.0538 37.697C61.8869 37.2342 62.72 37.0028 63.553 37.0028C64.4787 37.0028 65.3118 37.3036 66.0523 37.9053C66.7928 38.507 67.1631 39.2938 67.1631 40.2657ZM55.9164 23.2569C55.9164 22.6552 55.7544 22.0304 55.4305 21.3825C55.1065 20.7345 54.5974 20.4105 53.9031 20.4105C52.8849 20.4105 52.0287 20.6882 51.3345 21.2436C50.6402 21.7527 50.0617 22.4238 49.5989 23.2569C49.1361 24.0437 48.7658 24.8999 48.4881 25.8256C48.2567 26.7512 48.1178 27.6075 48.0716 28.3943C48.7195 28.2554 49.4832 28.0703 50.3625 27.8389C51.2882 27.6075 52.1444 27.3066 52.9312 26.9364C53.7643 26.5198 54.4585 26.0107 55.0139 25.409C55.6156 24.8074 55.9164 24.09 55.9164 23.2569Z" fill="#262628"/>
<path d="M32.1432 15.4121C32.1432 17.9113 31.5878 20.3643 30.477 22.771C29.4125 25.1776 27.9777 27.3529 26.1727 29.2968C24.3677 31.1944 22.3081 32.768 19.994 34.0176C17.6799 35.2209 15.2963 35.892 12.8434 36.0309C12.7971 36.864 12.7508 37.9285 12.7045 39.2244C12.7045 40.474 12.6351 41.793 12.4963 43.1815C12.3574 44.57 12.1491 45.9585 11.8714 47.3469C11.64 48.7354 11.2698 49.985 10.7607 51.0958C10.2978 52.2066 9.67303 53.1091 8.88623 53.8033C8.14571 54.4976 7.22006 54.8447 6.10928 54.8447C4.81337 54.8447 3.77202 54.405 2.98522 53.5256C2.2447 52.6926 1.66617 51.6743 1.24963 50.471C0.879366 49.2677 0.624813 48.018 0.485966 46.7221C0.347118 45.3799 0.254553 44.246 0.208271 43.3204C0.115706 41.9782 0.0462824 40.6591 0 39.3632C0 38.0673 0 36.7483 0 35.4061C0 34.8044 0 33.6936 0 32.0737C0 30.4076 0 28.5331 0 26.4504C0.0462824 24.3214 0.0925649 22.123 0.138847 19.8552C0.18513 17.541 0.254553 15.4121 0.347118 13.4682C0.439683 11.478 0.532248 9.78874 0.624813 8.40026C0.76366 7.01179 0.925649 6.20185 1.11078 5.97043C1.15706 5.92415 1.29591 5.83159 1.52732 5.69274C1.75873 5.50761 2.01329 5.34562 2.29098 5.20677C2.56868 5.02164 2.82323 4.85966 3.05464 4.72081C3.28605 4.58196 3.44804 4.4894 3.54061 4.44311C5.6696 3.23977 8.00686 2.19842 10.5524 1.31905C13.0979 0.439683 15.6203 0 18.1196 0C20.2486 0 22.1693 0.439683 23.8817 1.31905C25.6405 2.15213 27.1215 3.28605 28.3249 4.72081C29.5745 6.10928 30.5233 7.75231 31.1712 9.64989C31.8192 11.5012 32.1432 13.4219 32.1432 15.4121ZM20.1329 17.0088C20.1329 16.0831 19.9014 15.2732 19.4386 14.579C19.0221 13.8847 18.3047 13.5376 17.2865 13.5376C16.4071 13.5376 15.5278 13.7227 14.6484 14.093C13.769 14.417 12.9591 14.7641 12.2186 15.1344C12.3574 16.7542 12.4731 18.3278 12.5657 19.8552C12.7045 21.3825 12.7277 22.9561 12.6351 24.576C13.3756 24.2057 14.1856 23.7892 15.0649 23.3263C15.9443 22.8172 16.7542 22.2619 17.4948 21.6602C18.2353 21.0585 18.8601 20.3874 19.3692 19.6469C19.8783 18.8601 20.1329 17.9807 20.1329 17.0088Z" fill="#262628"/>
<path d="M139.176 67.8296C142.231 66.3849 191.383 28.7415 135.844 28.7415C106.916 28.7415 96.6891 45.4202 139.176 67.8296Z" fill="#262628"/>
<path d="M118.923 27.6307C124.048 25.7541 129.08 23.6963 136.525 23.6963C143.601 23.6963 146.904 24.345 152.524 27.0753C158.143 29.8056 160.795 32.4664 162.802 34.8323C164.928 37.3383 165.386 40.2891 164.821 43.1392C164.282 45.861 162.818 48.53 161.059 50.9581C157.526 55.8323 152.148 60.6129 147.601 64.1936C145.677 65.7096 143.863 67.0384 142.344 68.1025C152.962 74.0851 175.915 77.8267 190.291 68.1025C204.667 58.3783 211.247 61.1297 193.966 72.9827C176.684 84.8357 147.301 77.4365 136.525 70.6733C135.862 70.951 135.029 71.7841 132.521 73.4442L126.976 69.2848C128.364 68.4518 128.799 68.4349 129.863 67.9436C121.923 63.3703 116.181 59.0606 112.397 55.0438C107.88 50.2489 105.627 45.272 106.878 40.5256C108.109 35.8524 113.917 29.4633 118.923 27.6307ZM136.525 29.8056C129.505 29.8056 125.248 31.8204 121.023 33.3673C116.678 34.9582 113.249 40.3232 112.785 42.0822C112.341 43.7679 112.858 46.6236 116.843 50.8545C120.572 54.8118 126.891 59.4582 136.525 64.6633C136.953 64.3863 137.464 64.0474 138.042 63.6518C139.609 62.5784 141.638 61.1139 143.822 59.3941C148.24 55.9144 153.084 51.5515 156.112 47.373C157.632 45.2748 158.534 43.4398 158.828 41.952C159.098 40.5927 158.859 39.6281 158.143 38.7845C157.309 37.8008 154.716 34.2669 151.135 33.3673C147.596 32.4783 143.332 29.8056 136.525 29.8056Z" fill="#262628" stroke="#262628" stroke-width="2"/>
<mask id="path-6-outside-1_204_674" maskUnits="userSpaceOnUse" x="113.479" y="68.2849" width="41" height="52" fill="black">
<rect fill="white" x="113.479" y="68.2849" width="41" height="52"/>
<path fill-rule="evenodd" clip-rule="evenodd" d="M120.311 75.3942C121.514 73.2189 124.754 70.118 126.42 69.2849L132.53 73.728C131.604 74.4685 129.058 77.2455 128.364 78.4488C128.268 78.6157 128.177 78.7683 128.089 78.9163C127.541 79.8357 127.099 80.5771 126.143 83.4473C125.379 85.7375 125.326 86.2352 125.263 86.8332C125.234 87.1054 125.203 87.3983 125.101 87.8904C124.886 89.7859 124.858 90.7012 124.834 91.4658C124.82 91.9333 124.807 92.3445 124.754 92.889C124.659 93.8714 124.694 94.7236 124.726 95.4902C124.74 95.8432 124.754 96.178 124.754 96.499C124.754 96.9919 124.843 97.6792 124.935 98.3884C124.999 98.8779 125.064 99.3777 125.101 99.8313C125.191 100.866 125.52 101.851 125.838 102.804L125.865 102.886C126.143 103.719 126.929 104.691 127.531 105.385C128.133 106.079 129.058 106.079 130.03 106.079C131.697 106.079 133.039 105.57 134.057 104.552C135.075 103.488 135.769 102.145 136.14 100.526C135.492 100.433 134.844 100.294 134.196 100.109C133.594 99.8776 133.016 99.5768 132.46 99.2065C131.951 98.79 131.535 98.304 131.211 97.7486C130.887 97.1469 130.725 96.4527 130.725 95.6659C130.725 94.2311 131.211 93.1204 132.183 92.3336C133.154 91.5005 134.288 90.8757 135.584 90.4591C136.926 90.0426 138.292 89.788 139.68 89.6955C141.069 89.5566 142.18 89.4872 143.013 89.4872C143.614 89.4872 144.494 89.5335 145.651 89.626C146.808 89.7186 147.942 89.9269 149.052 90.2509C150.21 90.5285 151.205 90.9451 152.038 91.5005C152.871 92.0559 153.287 92.7732 153.287 93.6526C153.287 95.4113 152.801 96.9387 151.829 98.2346C150.904 99.4842 149.515 100.225 147.664 100.456C147.247 102.539 146.576 104.714 145.651 106.982C144.771 109.204 143.614 111.24 142.18 113.091C140.791 114.943 139.125 116.447 137.181 117.604C135.237 118.807 133.016 119.409 130.516 119.409C128.665 119.409 126.999 119.039 125.518 118.298C124.037 117.557 122.695 116.562 121.491 115.313C120.288 114.063 119.247 112.628 118.367 111.009C117.488 109.389 116.747 107.722 116.146 106.01C115.59 104.251 115.174 102.516 114.896 100.803C114.618 99.0908 114.479 97.4941 114.479 96.013C114.479 93.9303 114.665 91.7087 115.035 89.3483C115.41 87.1788 116.275 84.652 117.018 82.4799C117.099 82.2424 117.179 82.0092 117.256 81.7812C118.043 79.4208 119.108 77.5232 120.311 75.3942Z"/>
</mask>
<path fill-rule="evenodd" clip-rule="evenodd" d="M120.311 75.3942C121.514 73.2189 124.754 70.118 126.42 69.2849L132.53 73.728C131.604 74.4685 129.058 77.2455 128.364 78.4488C128.268 78.6157 128.177 78.7683 128.089 78.9163C127.541 79.8357 127.099 80.5771 126.143 83.4473C125.379 85.7375 125.326 86.2352 125.263 86.8332C125.234 87.1054 125.203 87.3983 125.101 87.8904C124.886 89.7859 124.858 90.7012 124.834 91.4658C124.82 91.9333 124.807 92.3445 124.754 92.889C124.659 93.8714 124.694 94.7236 124.726 95.4902C124.74 95.8432 124.754 96.178 124.754 96.499C124.754 96.9919 124.843 97.6792 124.935 98.3884C124.999 98.8779 125.064 99.3777 125.101 99.8313C125.191 100.866 125.52 101.851 125.838 102.804L125.865 102.886C126.143 103.719 126.929 104.691 127.531 105.385C128.133 106.079 129.058 106.079 130.03 106.079C131.697 106.079 133.039 105.57 134.057 104.552C135.075 103.488 135.769 102.145 136.14 100.526C135.492 100.433 134.844 100.294 134.196 100.109C133.594 99.8776 133.016 99.5768 132.46 99.2065C131.951 98.79 131.535 98.304 131.211 97.7486C130.887 97.1469 130.725 96.4527 130.725 95.6659C130.725 94.2311 131.211 93.1204 132.183 92.3336C133.154 91.5005 134.288 90.8757 135.584 90.4591C136.926 90.0426 138.292 89.788 139.68 89.6955C141.069 89.5566 142.18 89.4872 143.013 89.4872C143.614 89.4872 144.494 89.5335 145.651 89.626C146.808 89.7186 147.942 89.9269 149.052 90.2509C150.21 90.5285 151.205 90.9451 152.038 91.5005C152.871 92.0559 153.287 92.7732 153.287 93.6526C153.287 95.4113 152.801 96.9387 151.829 98.2346C150.904 99.4842 149.515 100.225 147.664 100.456C147.247 102.539 146.576 104.714 145.651 106.982C144.771 109.204 143.614 111.24 142.18 113.091C140.791 114.943 139.125 116.447 137.181 117.604C135.237 118.807 133.016 119.409 130.516 119.409C128.665 119.409 126.999 119.039 125.518 118.298C124.037 117.557 122.695 116.562 121.491 115.313C120.288 114.063 119.247 112.628 118.367 111.009C117.488 109.389 116.747 107.722 116.146 106.01C115.59 104.251 115.174 102.516 114.896 100.803C114.618 99.0908 114.479 97.4941 114.479 96.013C114.479 93.9303 114.665 91.7087 115.035 89.3483C115.41 87.1788 116.275 84.652 117.018 82.4799C117.099 82.2424 117.179 82.0092 117.256 81.7812C118.043 79.4208 119.108 77.5232 120.311 75.3942Z" fill="#262628"/>
<path d="M119.874 75.1522C120.165 75.3135 120.457 75.4749 120.749 75.6362C120.789 75.5627 120.834 75.485 120.879 75.4107C122.329 73.187 124.413 71.0634 126.644 69.7321L126.126 69.6893C126.309 69.8225 126.493 69.9557 126.676 70.089C128.529 71.4368 130.382 72.7846 132.236 74.1324L132.217 73.3376C130.565 74.8354 129.187 76.3189 127.931 78.199C127.843 78.3522 127.752 78.505 127.659 78.6604C126.75 80.0984 126.197 81.7286 125.668 83.2892C125.312 84.4092 124.886 85.522 124.766 86.7803C124.731 87.1314 124.682 87.4505 124.612 87.7896L124.605 87.834C124.468 89.0284 124.362 90.2449 124.334 91.4503C124.321 91.9265 124.302 92.3817 124.257 92.8408C124.167 93.7394 124.187 94.6437 124.226 95.5108C124.24 95.8469 124.254 96.1776 124.254 96.499C124.263 97.1987 124.361 97.8213 124.439 98.4527C124.501 98.9325 124.564 99.4078 124.603 99.8728C124.699 100.974 125.041 101.994 125.363 102.963C125.373 102.99 125.382 103.017 125.391 103.044C125.8 104.151 126.492 104.927 127.153 105.713C127.973 106.649 129.184 106.566 130.03 106.579C131.583 106.601 133.272 106.08 134.411 104.906L134.418 104.898C135.555 103.72 136.278 102.193 136.627 100.637L136.748 100.107L136.21 100.031C135.577 99.9402 134.95 99.8045 134.333 99.6282L134.375 99.6423C133.801 99.4217 133.252 99.1339 132.738 98.7905L132.777 98.8195C132.321 98.4477 131.936 98.0014 131.642 97.4967L131.651 97.5116C131.353 96.9621 131.223 96.3232 131.225 95.6659C131.211 94.5058 131.619 93.4097 132.497 92.7222L132.508 92.7132C133.444 91.9084 134.551 91.3143 135.737 90.9351C137.026 90.5348 138.363 90.2839 139.714 90.1944L139.73 90.193C140.829 90.0851 141.934 89.9913 143.013 89.9872C143.861 89.9916 144.739 90.0565 145.611 90.1244C146.729 90.2136 147.836 90.4167 148.912 90.7309L148.936 90.737C149.946 90.9794 150.919 91.3552 151.76 91.9165C152.405 92.3367 152.799 92.9369 152.787 93.6526C152.797 95.1987 152.354 96.7197 151.429 97.9346C150.562 99.1375 149.121 99.7834 147.602 99.96L147.244 100.005L147.174 100.358C146.734 102.556 146.039 104.706 145.188 106.793C145.105 107.003 145.021 107.207 144.934 107.41C144.118 109.328 143.061 111.14 141.784 112.785C140.463 114.552 138.814 116.055 136.925 117.174C135.019 118.366 132.772 118.918 130.516 118.909C128.857 118.912 127.205 118.587 125.741 117.851C124.291 117.128 122.979 116.139 121.851 114.966C120.651 113.72 119.635 112.297 118.807 110.77C117.948 109.189 117.213 107.541 116.617 105.844L116.622 105.859C116.091 104.177 115.671 102.461 115.39 100.723C115.137 99.1604 114.98 97.584 114.979 96.013C114.98 93.8129 115.187 91.6094 115.529 89.4258C115.843 87.6495 116.404 85.8813 116.988 84.124C117.153 83.63 117.322 83.1362 117.491 82.6417C117.571 82.4089 117.65 82.1757 117.73 81.9421C118.453 79.7397 119.579 77.6949 120.746 75.6402C120.456 75.4762 120.166 75.3122 119.876 75.1482C118.711 77.2 117.538 79.3207 116.782 81.6231C116.704 81.8526 116.624 82.0852 116.545 82.318C116.376 82.8126 116.206 83.3087 116.039 83.807C115.45 85.582 114.877 87.3773 114.542 89.2631C114.192 91.496 113.98 93.7494 113.979 96.013C113.98 97.6516 114.143 99.2788 114.402 100.883C114.693 102.673 115.124 104.436 115.669 106.161L115.674 106.176C116.288 107.923 117.044 109.62 117.928 111.247C118.794 112.845 119.863 114.344 121.131 115.66C122.33 116.907 123.738 117.969 125.294 118.745C126.914 119.561 128.735 119.913 130.516 119.909C132.919 119.92 135.378 119.323 137.444 118.029C139.437 116.848 141.191 115.249 142.58 113.391C143.904 111.684 145.006 109.796 145.854 107.802C145.944 107.591 146.031 107.379 146.116 107.166C146.984 105.037 147.699 102.829 148.154 100.554L147.726 100.952C149.404 100.765 151.182 99.995 152.231 98.5322C153.292 97.1448 153.802 95.3653 153.787 93.6526C153.827 92.6047 153.129 91.5865 152.315 91.0845C151.349 90.4407 150.265 90.0277 149.169 89.7647L149.192 89.7709C148.051 89.4377 146.875 89.2221 145.691 89.1276C144.805 89.059 143.926 88.9924 143.013 88.9872C141.865 88.992 140.748 89.0886 139.631 89.1979L139.647 89.1966C138.219 89.2912 136.802 89.5572 135.436 89.9816C134.135 90.397 132.899 91.0572 131.857 91.9539L131.868 91.9449C130.733 92.8176 130.194 94.3261 130.225 95.6659C130.223 96.4463 130.38 97.2649 130.77 97.9857L130.779 98.0005C131.132 98.6087 131.602 99.1517 132.144 99.5935L132.183 99.6225C132.755 100.004 133.371 100.328 134.016 100.576L134.058 100.59C134.717 100.778 135.389 100.923 136.069 101.021L135.652 100.414C135.332 101.837 134.69 103.175 133.696 104.207L133.703 104.199C132.765 105.16 131.415 105.591 130.03 105.579C129.141 105.587 128.308 105.555 127.909 105.058C127.273 104.317 126.624 103.524 126.339 102.728C126.33 102.701 126.321 102.673 126.312 102.646C125.988 101.678 125.681 100.734 125.599 99.788C125.557 99.2899 125.493 98.8046 125.431 98.3241C125.352 97.7 125.26 97.0661 125.254 96.499C125.254 96.1475 125.239 95.8058 125.225 95.4696C125.187 94.6038 125.169 93.7675 125.252 92.9371C125.3 92.4499 125.32 91.9552 125.334 91.4812C125.362 90.2959 125.463 89.1306 125.598 87.9469L125.591 87.9913C125.666 87.6318 125.725 87.245 125.76 86.8861C125.856 85.8082 126.263 84.7112 126.617 83.6054C127.145 82.0483 127.659 80.5295 128.518 79.1722C128.611 79.0169 128.705 78.8589 128.797 78.6987C129.87 77.0803 131.381 75.4335 132.842 74.1185L133.354 73.7091L132.824 73.3237C130.97 71.9758 129.117 70.628 127.264 69.2802C127.081 69.147 126.898 69.0138 126.714 68.8805L126.469 68.7018L126.197 68.8377C123.61 70.3982 121.655 72.4329 120.022 74.8952C119.972 74.9788 119.921 75.0672 119.874 75.1522ZM120.749 75.6362L119.874 75.1522L120.746 75.6402L120.749 75.6362Z" fill="#262628" mask="url(#path-6-outside-1_204_674)"/>
<path d="M168.704 121C166.675 121 164.905 120.463 163.394 119.389C161.882 118.315 160.61 116.943 159.576 115.273C158.541 113.602 157.766 111.753 157.249 109.724C156.732 107.656 156.473 105.627 156.473 103.639C156.473 101.531 156.732 99.363 157.249 97.1356C157.766 94.8685 158.561 92.8202 159.635 90.9906C160.709 89.1212 162.081 87.6098 163.752 86.4563C165.422 85.2631 167.411 84.6665 169.718 84.6665C171.945 84.6665 173.834 85.283 175.386 86.516C176.977 87.7092 178.249 89.2206 179.204 91.0502C180.159 92.8401 180.835 94.8089 181.232 96.9567C181.63 99.1045 181.769 101.133 181.65 103.042C181.531 105.15 181.193 107.278 180.636 109.426C180.119 111.574 179.343 113.503 178.309 115.213C177.275 116.923 175.962 118.315 174.371 119.389C172.78 120.463 170.891 121 168.704 121ZM169.3 94.0333C168.704 94.0333 168.167 94.3515 167.689 94.9878C167.252 95.6242 166.874 96.3998 166.556 97.3146C166.277 98.2294 166.059 99.2039 165.9 100.238C165.74 101.232 165.661 102.107 165.661 102.863C165.661 103.818 165.74 104.852 165.9 105.965C166.098 107.079 166.357 108.113 166.675 109.068C166.993 109.983 167.371 110.758 167.809 111.395C168.286 111.991 168.823 112.29 169.42 112.29C170.056 112.29 170.593 111.991 171.03 111.395C171.508 110.798 171.886 110.042 172.164 109.127C172.442 108.213 172.641 107.218 172.761 106.144C172.88 105.031 172.94 103.997 172.94 103.042C172.94 102.167 172.86 101.212 172.701 100.178C172.542 99.1045 172.303 98.1101 171.985 97.1953C171.707 96.2805 171.329 95.5248 170.851 94.9282C170.414 94.3316 169.897 94.0333 169.3 94.0333Z" fill="#262628"/>
<path d="M188.138 38.4567C188.138 38.4567 247.495 35.2134 249.207 35.2134C251.105 35.2134 254.438 34.8507 249.084 34.714C243.73 34.5773 190.359 36.1594 187.853 37.3172C185.347 38.475 188.138 38.4567 188.138 38.4567Z" fill="#262628" stroke="#262628"/>
<path d="M187.374 49.6328C187.374 49.6328 240.159 53.0392 240.637 53.0392C241.887 53.0392 243.885 53.1784 240.542 52.492C237.199 51.8056 189.364 47.4295 187.153 48.3839C184.943 49.3383 187.374 49.6328 187.374 49.6328Z" fill="#262628" stroke="#262628"/>
<circle cx="180.571" cy="43.1815" r="1.66617" fill="#262628"/>
<circle cx="172.796" cy="36.5168" r="1.66617" fill="#262628"/>
<circle cx="172.796" cy="49.8461" r="1.66617" fill="#262628"/>
</svg>
